G04*
G04 #@! TF.GenerationSoftware,Altium Limited,Altium Designer,22.9.1 (49)*
G04*
G04 Layer_Color=255*
%FSLAX44Y44*%
%MOMM*%
G71*
G04*
G04 #@! TF.SameCoordinates,C968DB6C-065F-4184-BE5B-E643EC6D71FD*
G04*
G04*
G04 #@! TF.FilePolarity,Positive*
G04*
G01*
G75*
%ADD12R,1.6000X1.5000*%
%ADD13R,1.3500X1.1500*%
%ADD28O,2.5000X1.7500*%
%ADD29R,1.7250X1.7250*%
%ADD30C,1.7250*%
%ADD31C,3.5000*%
%ADD33O,0.3000X1.2000*%
%ADD34O,1.2000X0.3000*%
%ADD35R,1.3000X1.4000*%
%ADD36R,1.8500X0.9000*%
%ADD37R,1.8500X3.2000*%
%ADD38R,0.9000X1.0000*%
%ADD39R,2.4000X2.0000*%
%ADD40R,1.4000X1.3000*%
D12*
X441000Y348000D02*
D03*
Y312000D02*
D03*
X893000Y348000D02*
D03*
Y312000D02*
D03*
Y22000D02*
D03*
Y58000D02*
D03*
X441000Y22000D02*
D03*
Y58000D02*
D03*
D13*
X526000Y329000D02*
D03*
Y346500D02*
D03*
X975000Y331000D02*
D03*
Y348500D02*
D03*
X975000Y39750D02*
D03*
Y22250D02*
D03*
X526000Y39750D02*
D03*
Y22250D02*
D03*
D28*
X41000Y197500D02*
D03*
Y147500D02*
D03*
Y172500D02*
D03*
Y222500D02*
D03*
D29*
X264000Y52800D02*
D03*
D30*
Y78200D02*
D03*
Y103600D02*
D03*
Y129000D02*
D03*
D31*
X1070000Y30000D02*
D03*
Y340000D02*
D03*
X220000Y30000D02*
D03*
Y340000D02*
D03*
D33*
X235500Y153500D02*
D03*
X230500D02*
D03*
X225500D02*
D03*
X220500D02*
D03*
X215500D02*
D03*
X210500D02*
D03*
X205500D02*
D03*
X200500D02*
D03*
X195500D02*
D03*
X190500D02*
D03*
X185500D02*
D03*
X180500D02*
D03*
Y238500D02*
D03*
X185500D02*
D03*
X190500D02*
D03*
X195500D02*
D03*
X200500D02*
D03*
X205500D02*
D03*
X210500D02*
D03*
X215500D02*
D03*
X220500D02*
D03*
X225500D02*
D03*
X230500D02*
D03*
X235500D02*
D03*
D34*
X165500Y168500D02*
D03*
Y173500D02*
D03*
Y178500D02*
D03*
Y183500D02*
D03*
Y188500D02*
D03*
Y193500D02*
D03*
Y198500D02*
D03*
Y203500D02*
D03*
Y208500D02*
D03*
Y213500D02*
D03*
Y218500D02*
D03*
Y223500D02*
D03*
X250500D02*
D03*
Y218500D02*
D03*
Y213500D02*
D03*
Y208500D02*
D03*
Y203500D02*
D03*
Y198500D02*
D03*
Y193500D02*
D03*
Y188500D02*
D03*
Y183500D02*
D03*
Y178500D02*
D03*
Y173500D02*
D03*
Y168500D02*
D03*
D35*
X128000Y153000D02*
D03*
X144000D02*
D03*
X128000Y132000D02*
D03*
X144000D02*
D03*
X144000Y110000D02*
D03*
X128000D02*
D03*
D36*
X82000Y40000D02*
D03*
Y63000D02*
D03*
Y86000D02*
D03*
D37*
X144000Y63000D02*
D03*
D38*
X189750Y91000D02*
D03*
X176250D02*
D03*
X206250D02*
D03*
X219750D02*
D03*
D39*
X222000Y120000D02*
D03*
X182000D02*
D03*
D40*
X270000Y175000D02*
D03*
Y159000D02*
D03*
X55000Y86000D02*
D03*
Y70000D02*
D03*
M02*
