G04*
G04 #@! TF.GenerationSoftware,Altium Limited,Altium Designer,22.9.1 (49)*
G04*
G04 Layer_Color=16711935*
%FSLAX44Y44*%
%MOMM*%
G71*
G04*
G04 #@! TF.SameCoordinates,4021D898-2042-4C7D-8B7F-38EBD3721E5A*
G04*
G04*
G04 #@! TF.FilePolarity,Negative*
G04*
G01*
G75*
%ADD43R,1.3000X1.5000*%
%ADD62O,2.1500X3.1500*%
%ADD63O,3.1500X2.1500*%
%ADD64O,1.9000X2.6500*%
%ADD65O,2.6500X1.9000*%
%ADD66C,3.6500*%
%ADD67C,1.8500*%
%ADD68R,1.8500X1.8500*%
D43*
X783750Y226500D02*
D03*
X801250D02*
D03*
X821250Y226500D02*
D03*
X838750D02*
D03*
X708750Y516500D02*
D03*
X691250D02*
D03*
X671250D02*
D03*
X653750D02*
D03*
X633750D02*
D03*
X616250D02*
D03*
X591250Y401500D02*
D03*
X573750D02*
D03*
Y424000D02*
D03*
X591250D02*
D03*
X801250Y249000D02*
D03*
X783750D02*
D03*
X838750D02*
D03*
X821250D02*
D03*
X708750Y539000D02*
D03*
X691250D02*
D03*
X671250D02*
D03*
X653750D02*
D03*
X633750D02*
D03*
X616250D02*
D03*
D62*
X107700Y647500D02*
D03*
X82300D02*
D03*
X752500D02*
D03*
X727100D02*
D03*
D63*
X42500Y292700D02*
D03*
Y267300D02*
D03*
D64*
X1187500Y654000D02*
D03*
X1212500D02*
D03*
X1097500D02*
D03*
X997500D02*
D03*
X947500D02*
D03*
X972500D02*
D03*
X1022500D02*
D03*
X1047500D02*
D03*
X1072500D02*
D03*
X1122500D02*
D03*
X882500Y655000D02*
D03*
X832500D02*
D03*
X807500D02*
D03*
X857500D02*
D03*
X535000Y654000D02*
D03*
X560000D02*
D03*
X447500D02*
D03*
X347500D02*
D03*
X297500D02*
D03*
X322500D02*
D03*
X372500D02*
D03*
X397500D02*
D03*
X422500D02*
D03*
X472500D02*
D03*
X232500D02*
D03*
X182500D02*
D03*
X157500D02*
D03*
X207500D02*
D03*
D65*
X35000Y494000D02*
D03*
Y469000D02*
D03*
Y519000D02*
D03*
Y381500D02*
D03*
Y356500D02*
D03*
Y406500D02*
D03*
D66*
X1275000Y675000D02*
D03*
Y25000D02*
D03*
X25000D02*
D03*
Y675000D02*
D03*
D67*
X775800Y456146D02*
D03*
X471000D02*
D03*
X496400D02*
D03*
X521800D02*
D03*
X547200D02*
D03*
X572600D02*
D03*
X598000D02*
D03*
X623400D02*
D03*
X648800D02*
D03*
X674200D02*
D03*
X699600D02*
D03*
X725000D02*
D03*
X801200D02*
D03*
X826600D02*
D03*
X852000D02*
D03*
X877400D02*
D03*
X902800D02*
D03*
X928200D02*
D03*
X750400D02*
D03*
X471000Y304000D02*
D03*
X496400D02*
D03*
X521800D02*
D03*
X547200D02*
D03*
X572600D02*
D03*
X598000D02*
D03*
X623400D02*
D03*
X648800D02*
D03*
X674200D02*
D03*
X699600D02*
D03*
X725000D02*
D03*
X750400D02*
D03*
X775800D02*
D03*
X801200D02*
D03*
X826600D02*
D03*
X852000D02*
D03*
X877400D02*
D03*
X902800D02*
D03*
X928200D02*
D03*
D68*
X953600Y456146D02*
D03*
Y304000D02*
D03*
M02*
