G04*
G04 #@! TF.GenerationSoftware,Altium Limited,Altium Designer,22.9.1 (49)*
G04*
G04 Layer_Color=32896*
%FSLAX44Y44*%
%MOMM*%
G71*
G04*
G04 #@! TF.SameCoordinates,4021D898-2042-4C7D-8B7F-38EBD3721E5A*
G04*
G04*
G04 #@! TF.FilePolarity,Positive*
G04*
G01*
G75*
%ADD13C,0.1500*%
G36*
X799424Y211840D02*
X799670Y211827D01*
X799890Y211801D01*
X800097Y211775D01*
X800266Y211736D01*
X800408Y211710D01*
X800460Y211697D01*
X800499D01*
X800512Y211684D01*
X800525D01*
X800771Y211619D01*
X800991Y211567D01*
X801185Y211503D01*
X801341Y211451D01*
X801470Y211399D01*
X801574Y211360D01*
X801626Y211334D01*
X801652Y211321D01*
X801872Y210194D01*
X801820D01*
X801587Y210324D01*
X801367Y210428D01*
X801146Y210518D01*
X800952Y210596D01*
X800797Y210648D01*
X800667Y210687D01*
X800628Y210713D01*
X800589D01*
X800576Y210725D01*
X800564D01*
X800330Y210790D01*
X800110Y210842D01*
X799916Y210868D01*
X799747Y210894D01*
X799605Y210907D01*
X799501Y210920D01*
X799411D01*
X799190Y210907D01*
X798996Y210881D01*
X798828Y210829D01*
X798685Y210777D01*
X798569Y210725D01*
X798478Y210674D01*
X798426Y210648D01*
X798413Y210635D01*
X798284Y210518D01*
X798180Y210389D01*
X798115Y210246D01*
X798063Y210117D01*
X798037Y209987D01*
X798012Y209897D01*
Y209832D01*
Y209806D01*
Y209676D01*
X798037Y209534D01*
X798102Y209275D01*
X798193Y209029D01*
X798297Y208808D01*
X798400Y208614D01*
X798452Y208536D01*
X798491Y208472D01*
X798530Y208420D01*
X798556Y208381D01*
X798569Y208355D01*
X798581Y208342D01*
X798698Y208200D01*
X798828Y208057D01*
X799126Y207746D01*
X799449Y207435D01*
X799760Y207150D01*
X799916Y207008D01*
X800058Y206891D01*
X800188Y206775D01*
X800304Y206684D01*
X800395Y206606D01*
X800460Y206554D01*
X800512Y206516D01*
X800525Y206502D01*
X800810Y206282D01*
X801056Y206075D01*
X801289Y205907D01*
X801483Y205764D01*
X801639Y205635D01*
X801755Y205557D01*
X801833Y205492D01*
X801846Y205479D01*
X801859D01*
X802079Y205324D01*
X802299Y205155D01*
X802533Y204987D01*
X802740Y204832D01*
X802921Y204702D01*
X803077Y204598D01*
X803128Y204547D01*
X803167Y204521D01*
X803193Y204508D01*
X803206Y204495D01*
X803465Y203316D01*
X797804D01*
X797584Y204249D01*
X802092D01*
X801885Y204404D01*
X801665Y204559D01*
X801431Y204728D01*
X801224Y204870D01*
X801043Y205013D01*
X800887Y205117D01*
X800835Y205168D01*
X800797Y205194D01*
X800771Y205220D01*
X800758D01*
X800460Y205440D01*
X800162Y205660D01*
X799890Y205868D01*
X799657Y206062D01*
X799449Y206217D01*
X799372Y206282D01*
X799294Y206347D01*
X799242Y206386D01*
X799203Y206425D01*
X799177Y206438D01*
X799165Y206451D01*
X798931Y206645D01*
X798711Y206839D01*
X798517Y207021D01*
X798335Y207189D01*
X798167Y207358D01*
X798025Y207513D01*
X797882Y207655D01*
X797765Y207785D01*
X797675Y207902D01*
X797584Y208005D01*
X797506Y208096D01*
X797455Y208174D01*
X797403Y208238D01*
X797377Y208277D01*
X797351Y208303D01*
Y208316D01*
X797182Y208627D01*
X797053Y208925D01*
X796962Y209210D01*
X796898Y209482D01*
X796859Y209702D01*
X796846Y209793D01*
Y209871D01*
X796833Y209935D01*
Y209987D01*
Y210013D01*
Y210026D01*
X796846Y210182D01*
X796859Y210324D01*
X796923Y210596D01*
X797027Y210816D01*
X797144Y211010D01*
X797260Y211166D01*
X797351Y211270D01*
X797429Y211334D01*
X797442Y211360D01*
X797455D01*
X797701Y211529D01*
X797986Y211645D01*
X798271Y211736D01*
X798556Y211788D01*
X798802Y211827D01*
X798905Y211840D01*
X799009D01*
X799087Y211852D01*
X799190D01*
X799424Y211840D01*
D02*
G37*
G36*
X794747Y207409D02*
X794605Y207435D01*
X794462Y207461D01*
X794333Y207474D01*
X794190Y207500D01*
X794073Y207513D01*
X793983Y207526D01*
X793931Y207539D01*
X793905D01*
X793530Y207591D01*
X793361Y207604D01*
X793219D01*
X793089Y207617D01*
X792908D01*
X792636Y207604D01*
X792506Y207591D01*
X792402Y207578D01*
X792312Y207565D01*
X792234Y207552D01*
X792195Y207539D01*
X792182D01*
X791936Y207474D01*
X791833Y207435D01*
X791742Y207409D01*
X791677Y207370D01*
X791625Y207344D01*
X791586Y207332D01*
X791573Y207319D01*
X791405Y207189D01*
X791288Y207060D01*
X791237Y206995D01*
X791211Y206943D01*
X791185Y206917D01*
Y206904D01*
X791133Y206800D01*
X791094Y206697D01*
X791042Y206490D01*
Y206412D01*
X791029Y206334D01*
Y206282D01*
Y206269D01*
X791042Y206088D01*
X791055Y205920D01*
X791133Y205609D01*
X791237Y205337D01*
X791353Y205103D01*
X791470Y204922D01*
X791573Y204793D01*
X791612Y204741D01*
X791651Y204702D01*
X791664Y204689D01*
X791677Y204676D01*
X791807Y204572D01*
X791936Y204482D01*
X792221Y204326D01*
X792493Y204223D01*
X792765Y204158D01*
X793011Y204106D01*
X793115Y204093D01*
X793206D01*
X793270Y204080D01*
X793374D01*
X793607Y204093D01*
X793827Y204119D01*
X794048Y204145D01*
X794229Y204184D01*
X794384Y204223D01*
X794501Y204261D01*
X794579Y204274D01*
X794592Y204287D01*
X794605D01*
X794812Y204378D01*
X794993Y204456D01*
X795162Y204547D01*
X795291Y204611D01*
X795395Y204676D01*
X795473Y204728D01*
X795524Y204767D01*
X795537Y204780D01*
X795615D01*
X795835Y203679D01*
X795680Y203614D01*
X795511Y203536D01*
X795343Y203484D01*
X795188Y203419D01*
X795045Y203381D01*
X794941Y203342D01*
X794864Y203329D01*
X794851Y203316D01*
X794838D01*
X794605Y203264D01*
X794384Y203225D01*
X794164Y203186D01*
X793957Y203173D01*
X793789Y203160D01*
X793659Y203147D01*
X793542D01*
X793219Y203160D01*
X792921Y203186D01*
X792662Y203225D01*
X792441Y203277D01*
X792247Y203329D01*
X792117Y203368D01*
X792066Y203381D01*
X792027Y203394D01*
X792014Y203407D01*
X792001D01*
X791755Y203510D01*
X791535Y203627D01*
X791340Y203756D01*
X791172Y203873D01*
X791029Y203976D01*
X790926Y204054D01*
X790861Y204106D01*
X790835Y204132D01*
X790667Y204313D01*
X790511Y204495D01*
X790395Y204663D01*
X790291Y204832D01*
X790200Y204974D01*
X790148Y205091D01*
X790110Y205168D01*
X790097Y205181D01*
Y205194D01*
X790006Y205427D01*
X789941Y205648D01*
X789902Y205868D01*
X789864Y206062D01*
X789850Y206231D01*
X789838Y206360D01*
Y206412D01*
Y206451D01*
Y206464D01*
Y206477D01*
X789850Y206645D01*
X789864Y206813D01*
X789954Y207098D01*
X790058Y207358D01*
X790187Y207565D01*
X790330Y207733D01*
X790434Y207850D01*
X790524Y207927D01*
X790537Y207953D01*
X790550D01*
X790693Y208057D01*
X790835Y208135D01*
X791159Y208277D01*
X791496Y208381D01*
X791807Y208446D01*
X791962Y208459D01*
X792092Y208484D01*
X792221Y208497D01*
X792325D01*
X792415Y208510D01*
X792688D01*
X792830Y208497D01*
X792895D01*
X792934Y208484D01*
X792972D01*
X793141Y208472D01*
X793283Y208459D01*
X793335Y208446D01*
X793387D01*
X793413Y208433D01*
X793426D01*
X792895Y210751D01*
X788957D01*
X788736Y211684D01*
X793763D01*
X794747Y207409D01*
D02*
G37*
G36*
X811264Y203316D02*
X810150D01*
X809372Y206658D01*
X807779D01*
X805590Y203316D01*
X804268D01*
X806691Y206917D01*
X806315Y207060D01*
X805978Y207215D01*
X805680Y207396D01*
X805434Y207591D01*
X805331Y207668D01*
X805227Y207746D01*
X805149Y207824D01*
X805084Y207889D01*
X805033Y207940D01*
X804994Y207979D01*
X804981Y208005D01*
X804968Y208018D01*
X804851Y208174D01*
X804748Y208329D01*
X804657Y208484D01*
X804579Y208640D01*
X804463Y208938D01*
X804385Y209223D01*
X804359Y209352D01*
X804346Y209482D01*
X804333Y209586D01*
X804320Y209676D01*
X804307Y209741D01*
Y209793D01*
Y209832D01*
Y209845D01*
X804320Y210026D01*
X804333Y210182D01*
X804359Y210324D01*
X804398Y210441D01*
X804437Y210531D01*
X804463Y210609D01*
X804476Y210648D01*
X804489Y210661D01*
X804566Y210777D01*
X804644Y210894D01*
X804722Y210985D01*
X804812Y211062D01*
X804877Y211127D01*
X804942Y211179D01*
X804981Y211205D01*
X804994Y211218D01*
X805123Y211308D01*
X805266Y211386D01*
X805408Y211451D01*
X805538Y211503D01*
X805654Y211529D01*
X805745Y211555D01*
X805797Y211581D01*
X805823D01*
X806017Y211619D01*
X806224Y211645D01*
X806432Y211658D01*
X806626Y211671D01*
X806794Y211684D01*
X809346D01*
X811264Y203316D01*
D02*
G37*
G36*
X836522Y211755D02*
X836768Y211742D01*
X836988Y211716D01*
X837196Y211691D01*
X837364Y211652D01*
X837506Y211626D01*
X837558Y211613D01*
X837597D01*
X837610Y211600D01*
X837623D01*
X837869Y211535D01*
X838089Y211483D01*
X838284Y211419D01*
X838439Y211367D01*
X838569Y211315D01*
X838672Y211276D01*
X838724Y211250D01*
X838750Y211237D01*
X838970Y210110D01*
X838919D01*
X838685Y210240D01*
X838465Y210343D01*
X838245Y210434D01*
X838051Y210512D01*
X837895Y210564D01*
X837766Y210602D01*
X837727Y210628D01*
X837688D01*
X837675Y210641D01*
X837662D01*
X837429Y210706D01*
X837208Y210758D01*
X837014Y210784D01*
X836846Y210810D01*
X836703Y210823D01*
X836600Y210836D01*
X836509D01*
X836289Y210823D01*
X836095Y210797D01*
X835926Y210745D01*
X835784Y210693D01*
X835667Y210641D01*
X835576Y210590D01*
X835525Y210564D01*
X835512Y210551D01*
X835382Y210434D01*
X835278Y210305D01*
X835214Y210162D01*
X835162Y210033D01*
X835136Y209903D01*
X835110Y209812D01*
Y209748D01*
Y209722D01*
Y209592D01*
X835136Y209450D01*
X835201Y209191D01*
X835291Y208944D01*
X835395Y208724D01*
X835499Y208530D01*
X835550Y208452D01*
X835589Y208387D01*
X835628Y208335D01*
X835654Y208297D01*
X835667Y208271D01*
X835680Y208258D01*
X835797Y208115D01*
X835926Y207973D01*
X836224Y207662D01*
X836548Y207351D01*
X836859Y207066D01*
X837014Y206924D01*
X837157Y206807D01*
X837286Y206690D01*
X837403Y206600D01*
X837494Y206522D01*
X837558Y206470D01*
X837610Y206431D01*
X837623Y206418D01*
X837908Y206198D01*
X838154Y205991D01*
X838387Y205822D01*
X838582Y205680D01*
X838737Y205550D01*
X838854Y205473D01*
X838931Y205408D01*
X838944Y205395D01*
X838957D01*
X839177Y205240D01*
X839398Y205071D01*
X839631Y204903D01*
X839838Y204747D01*
X840020Y204618D01*
X840175Y204514D01*
X840227Y204462D01*
X840266Y204436D01*
X840292Y204423D01*
X840304Y204410D01*
X840564Y203232D01*
X834903D01*
X834682Y204164D01*
X839191D01*
X838983Y204320D01*
X838763Y204475D01*
X838530Y204644D01*
X838323Y204786D01*
X838141Y204929D01*
X837986Y205032D01*
X837934Y205084D01*
X837895Y205110D01*
X837869Y205136D01*
X837856D01*
X837558Y205356D01*
X837260Y205576D01*
X836988Y205784D01*
X836755Y205978D01*
X836548Y206133D01*
X836470Y206198D01*
X836392Y206263D01*
X836341Y206302D01*
X836302Y206341D01*
X836276Y206354D01*
X836263Y206367D01*
X836030Y206561D01*
X835809Y206755D01*
X835615Y206936D01*
X835434Y207105D01*
X835265Y207273D01*
X835123Y207429D01*
X834980Y207571D01*
X834864Y207701D01*
X834773Y207817D01*
X834682Y207921D01*
X834605Y208012D01*
X834553Y208089D01*
X834501Y208154D01*
X834475Y208193D01*
X834449Y208219D01*
Y208232D01*
X834281Y208543D01*
X834151Y208841D01*
X834061Y209126D01*
X833996Y209398D01*
X833957Y209618D01*
X833944Y209709D01*
Y209786D01*
X833931Y209851D01*
Y209903D01*
Y209929D01*
Y209942D01*
X833944Y210097D01*
X833957Y210240D01*
X834022Y210512D01*
X834126Y210732D01*
X834242Y210926D01*
X834359Y211082D01*
X834449Y211185D01*
X834527Y211250D01*
X834540Y211276D01*
X834553D01*
X834799Y211444D01*
X835084Y211561D01*
X835369Y211652D01*
X835654Y211704D01*
X835900Y211742D01*
X836004Y211755D01*
X836107D01*
X836185Y211768D01*
X836289D01*
X836522Y211755D01*
D02*
G37*
G36*
X848362Y203232D02*
X847248D01*
X846471Y206574D01*
X844877D01*
X842688Y203232D01*
X841367D01*
X843789Y206833D01*
X843413Y206975D01*
X843077Y207131D01*
X842779Y207312D01*
X842533Y207507D01*
X842429Y207584D01*
X842325Y207662D01*
X842248Y207740D01*
X842183Y207804D01*
X842131Y207856D01*
X842092Y207895D01*
X842079Y207921D01*
X842066Y207934D01*
X841950Y208089D01*
X841846Y208245D01*
X841755Y208400D01*
X841678Y208556D01*
X841561Y208854D01*
X841483Y209139D01*
X841457Y209268D01*
X841444Y209398D01*
X841432Y209501D01*
X841419Y209592D01*
X841406Y209657D01*
Y209709D01*
Y209748D01*
Y209760D01*
X841419Y209942D01*
X841432Y210097D01*
X841457Y210240D01*
X841496Y210356D01*
X841535Y210447D01*
X841561Y210525D01*
X841574Y210564D01*
X841587Y210577D01*
X841665Y210693D01*
X841742Y210810D01*
X841820Y210900D01*
X841911Y210978D01*
X841976Y211043D01*
X842040Y211095D01*
X842079Y211121D01*
X842092Y211134D01*
X842222Y211224D01*
X842364Y211302D01*
X842507Y211367D01*
X842636Y211419D01*
X842753Y211444D01*
X842843Y211470D01*
X842895Y211496D01*
X842921D01*
X843116Y211535D01*
X843323Y211561D01*
X843530Y211574D01*
X843724Y211587D01*
X843893Y211600D01*
X846445D01*
X848362Y203232D01*
D02*
G37*
G36*
X832882Y206872D02*
X833167Y205602D01*
X829177D01*
X829721Y203232D01*
X828633D01*
X828089Y205602D01*
X826845D01*
X826638Y206457D01*
X827895D01*
X826703Y211600D01*
X827739D01*
X832882Y206872D01*
D02*
G37*
G36*
X798420Y272406D02*
X798666Y272393D01*
X798886Y272367D01*
X799094Y272341D01*
X799262Y272302D01*
X799405Y272276D01*
X799456Y272263D01*
X799495D01*
X799508Y272250D01*
X799521D01*
X799767Y272185D01*
X799987Y272134D01*
X800182Y272069D01*
X800337Y272017D01*
X800467Y271965D01*
X800570Y271926D01*
X800622Y271901D01*
X800648Y271888D01*
X800868Y270761D01*
X800816D01*
X800583Y270890D01*
X800363Y270994D01*
X800143Y271084D01*
X799949Y271162D01*
X799793Y271214D01*
X799664Y271253D01*
X799625Y271279D01*
X799586D01*
X799573Y271292D01*
X799560D01*
X799327Y271357D01*
X799107Y271408D01*
X798912Y271434D01*
X798744Y271460D01*
X798601Y271473D01*
X798498Y271486D01*
X798407D01*
X798187Y271473D01*
X797993Y271447D01*
X797824Y271395D01*
X797682Y271343D01*
X797565Y271292D01*
X797474Y271240D01*
X797423Y271214D01*
X797410Y271201D01*
X797280Y271084D01*
X797177Y270955D01*
X797112Y270812D01*
X797060Y270683D01*
X797034Y270553D01*
X797008Y270463D01*
Y270398D01*
Y270372D01*
Y270242D01*
X797034Y270100D01*
X797099Y269841D01*
X797189Y269595D01*
X797293Y269375D01*
X797397Y269180D01*
X797449Y269102D01*
X797487Y269038D01*
X797526Y268986D01*
X797552Y268947D01*
X797565Y268921D01*
X797578Y268908D01*
X797695Y268766D01*
X797824Y268623D01*
X798122Y268312D01*
X798446Y268001D01*
X798757Y267716D01*
X798912Y267574D01*
X799055Y267457D01*
X799184Y267341D01*
X799301Y267250D01*
X799392Y267172D01*
X799456Y267120D01*
X799508Y267082D01*
X799521Y267069D01*
X799806Y266849D01*
X800052Y266641D01*
X800285Y266473D01*
X800480Y266330D01*
X800635Y266201D01*
X800752Y266123D01*
X800829Y266058D01*
X800842Y266045D01*
X800855D01*
X801076Y265890D01*
X801296Y265721D01*
X801529Y265553D01*
X801736Y265398D01*
X801918Y265268D01*
X802073Y265164D01*
X802125Y265113D01*
X802164Y265087D01*
X802190Y265074D01*
X802203Y265061D01*
X802462Y263882D01*
X796801D01*
X796581Y264815D01*
X801089D01*
X800881Y264970D01*
X800661Y265126D01*
X800428Y265294D01*
X800221Y265436D01*
X800039Y265579D01*
X799884Y265683D01*
X799832Y265734D01*
X799793Y265760D01*
X799767Y265786D01*
X799754D01*
X799456Y266007D01*
X799158Y266227D01*
X798886Y266434D01*
X798653Y266628D01*
X798446Y266784D01*
X798368Y266849D01*
X798290Y266913D01*
X798239Y266952D01*
X798200Y266991D01*
X798174Y267004D01*
X798161Y267017D01*
X797928Y267211D01*
X797708Y267405D01*
X797513Y267587D01*
X797332Y267755D01*
X797163Y267924D01*
X797021Y268079D01*
X796879Y268222D01*
X796762Y268351D01*
X796671Y268468D01*
X796581Y268571D01*
X796503Y268662D01*
X796451Y268740D01*
X796399Y268804D01*
X796373Y268843D01*
X796347Y268869D01*
Y268882D01*
X796179Y269193D01*
X796049Y269491D01*
X795959Y269776D01*
X795894Y270048D01*
X795855Y270268D01*
X795842Y270359D01*
Y270437D01*
X795829Y270501D01*
Y270553D01*
Y270579D01*
Y270592D01*
X795842Y270748D01*
X795855Y270890D01*
X795920Y271162D01*
X796024Y271382D01*
X796140Y271577D01*
X796257Y271732D01*
X796347Y271836D01*
X796425Y271901D01*
X796438Y271926D01*
X796451D01*
X796697Y272095D01*
X796982Y272211D01*
X797267Y272302D01*
X797552Y272354D01*
X797798Y272393D01*
X797902Y272406D01*
X798006D01*
X798083Y272419D01*
X798187D01*
X798420Y272406D01*
D02*
G37*
G36*
X790907D02*
X791140Y272393D01*
X791360Y272367D01*
X791567Y272341D01*
X791736Y272302D01*
X791878Y272276D01*
X791930Y272263D01*
X791969D01*
X791982Y272250D01*
X791995D01*
X792241Y272185D01*
X792461Y272121D01*
X792655Y272056D01*
X792824Y272004D01*
X792953Y271952D01*
X793057Y271926D01*
X793109Y271901D01*
X793135Y271888D01*
X793368Y270761D01*
X793316D01*
X793122Y270864D01*
X792915Y270968D01*
X792720Y271046D01*
X792539Y271123D01*
X792383Y271188D01*
X792267Y271227D01*
X792215Y271240D01*
X792176Y271253D01*
X792163Y271266D01*
X792150D01*
X791904Y271343D01*
X791671Y271395D01*
X791451Y271434D01*
X791269Y271460D01*
X791114Y271473D01*
X790997Y271486D01*
X790894D01*
X790648Y271473D01*
X790427Y271447D01*
X790246Y271395D01*
X790091Y271357D01*
X789974Y271305D01*
X789883Y271253D01*
X789831Y271227D01*
X789819Y271214D01*
X789702Y271110D01*
X789611Y270994D01*
X789547Y270864D01*
X789495Y270748D01*
X789469Y270644D01*
X789456Y270553D01*
Y270501D01*
Y270476D01*
Y270346D01*
X789482Y270217D01*
X789547Y269983D01*
X789650Y269776D01*
X789754Y269608D01*
X789870Y269478D01*
X789974Y269375D01*
X790039Y269323D01*
X790052Y269297D01*
X790065D01*
X790311Y269154D01*
X790570Y269051D01*
X790829Y268973D01*
X791075Y268921D01*
X791282Y268895D01*
X791386Y268882D01*
X791464D01*
X791528Y268869D01*
X792163D01*
X792371Y267976D01*
X791839D01*
X791528Y267962D01*
X791269Y267924D01*
X791049Y267885D01*
X790868Y267833D01*
X790738Y267768D01*
X790635Y267729D01*
X790570Y267691D01*
X790557Y267677D01*
X790415Y267561D01*
X790311Y267418D01*
X790246Y267276D01*
X790194Y267134D01*
X790168Y267004D01*
X790142Y266900D01*
Y266823D01*
Y266810D01*
Y266797D01*
X790155Y266615D01*
X790168Y266460D01*
X790246Y266149D01*
X790350Y265890D01*
X790466Y265657D01*
X790583Y265475D01*
X790686Y265346D01*
X790725Y265307D01*
X790764Y265268D01*
X790777Y265255D01*
X790790Y265242D01*
X790920Y265138D01*
X791049Y265048D01*
X791321Y264892D01*
X791606Y264789D01*
X791865Y264724D01*
X792098Y264672D01*
X792202Y264659D01*
X792293D01*
X792358Y264646D01*
X792461D01*
X792694Y264659D01*
X792927Y264685D01*
X793135Y264711D01*
X793329Y264750D01*
X793485Y264789D01*
X793601Y264828D01*
X793679Y264841D01*
X793692Y264853D01*
X793705D01*
X793912Y264944D01*
X794106Y265022D01*
X794262Y265113D01*
X794404Y265190D01*
X794521Y265268D01*
X794612Y265320D01*
X794663Y265359D01*
X794676Y265372D01*
X794754D01*
X795013Y264284D01*
X794845Y264206D01*
X794663Y264128D01*
X794495Y264050D01*
X794327Y263999D01*
X794171Y263947D01*
X794054Y263908D01*
X793977Y263895D01*
X793964Y263882D01*
X793951D01*
X793705Y263830D01*
X793472Y263791D01*
X793251Y263752D01*
X793044Y263739D01*
X792876Y263727D01*
X792746Y263714D01*
X792630D01*
X792319Y263727D01*
X792034Y263752D01*
X791788Y263791D01*
X791567Y263830D01*
X791386Y263869D01*
X791256Y263908D01*
X791205Y263921D01*
X791166Y263934D01*
X791153Y263947D01*
X791140D01*
X790907Y264037D01*
X790686Y264154D01*
X790492Y264258D01*
X790324Y264374D01*
X790181Y264465D01*
X790078Y264543D01*
X790013Y264607D01*
X789987Y264620D01*
X789819Y264776D01*
X789676Y264944D01*
X789547Y265100D01*
X789443Y265255D01*
X789365Y265385D01*
X789313Y265501D01*
X789275Y265566D01*
X789262Y265592D01*
X789171Y265812D01*
X789106Y266019D01*
X789054Y266214D01*
X789028Y266395D01*
X789003Y266551D01*
X788989Y266667D01*
Y266745D01*
Y266758D01*
Y266771D01*
Y266913D01*
X789015Y267043D01*
X789041Y267159D01*
X789067Y267263D01*
X789093Y267341D01*
X789119Y267405D01*
X789132Y267444D01*
X789145Y267457D01*
X789262Y267665D01*
X789313Y267742D01*
X789378Y267820D01*
X789417Y267872D01*
X789456Y267911D01*
X789482Y267937D01*
X789495Y267950D01*
X789650Y268079D01*
X789806Y268170D01*
X789870Y268196D01*
X789922Y268222D01*
X789961Y268248D01*
X789974D01*
X790155Y268325D01*
X790311Y268377D01*
X790376Y268403D01*
X790415D01*
X790440Y268416D01*
X790453D01*
Y268481D01*
X790117Y268558D01*
X789819Y268675D01*
X789547Y268804D01*
X789326Y268947D01*
X789145Y269077D01*
X789015Y269180D01*
X788964Y269219D01*
X788925Y269258D01*
X788912Y269271D01*
X788899Y269284D01*
X788795Y269413D01*
X788692Y269530D01*
X788536Y269789D01*
X788432Y270035D01*
X788355Y270268D01*
X788303Y270463D01*
X788290Y270553D01*
Y270618D01*
X788277Y270683D01*
Y270722D01*
Y270748D01*
Y270761D01*
X788290Y270903D01*
X788303Y271033D01*
X788381Y271266D01*
X788484Y271473D01*
X788601Y271654D01*
X788717Y271784D01*
X788821Y271888D01*
X788899Y271939D01*
X788912Y271965D01*
X788925D01*
X789184Y272121D01*
X789469Y272224D01*
X789754Y272302D01*
X790039Y272367D01*
X790285Y272393D01*
X790402Y272406D01*
X790492D01*
X790570Y272419D01*
X790674D01*
X790907Y272406D01*
D02*
G37*
G36*
X810260Y263882D02*
X809146D01*
X808369Y267224D01*
X806775D01*
X804586Y263882D01*
X803265D01*
X805687Y267483D01*
X805312Y267626D01*
X804975Y267781D01*
X804677Y267962D01*
X804431Y268157D01*
X804327Y268235D01*
X804223Y268312D01*
X804146Y268390D01*
X804081Y268455D01*
X804029Y268507D01*
X803990Y268545D01*
X803977Y268571D01*
X803964Y268584D01*
X803848Y268740D01*
X803744Y268895D01*
X803653Y269051D01*
X803576Y269206D01*
X803459Y269504D01*
X803381Y269789D01*
X803355Y269919D01*
X803343Y270048D01*
X803330Y270152D01*
X803317Y270242D01*
X803304Y270307D01*
Y270359D01*
Y270398D01*
Y270411D01*
X803317Y270592D01*
X803330Y270748D01*
X803355Y270890D01*
X803394Y271007D01*
X803433Y271097D01*
X803459Y271175D01*
X803472Y271214D01*
X803485Y271227D01*
X803563Y271343D01*
X803641Y271460D01*
X803718Y271551D01*
X803809Y271628D01*
X803874Y271693D01*
X803938Y271745D01*
X803977Y271771D01*
X803990Y271784D01*
X804120Y271875D01*
X804262Y271952D01*
X804405Y272017D01*
X804534Y272069D01*
X804651Y272095D01*
X804742Y272121D01*
X804793Y272147D01*
X804819D01*
X805014Y272185D01*
X805221Y272211D01*
X805428Y272224D01*
X805622Y272237D01*
X805791Y272250D01*
X808343D01*
X810260Y263882D01*
D02*
G37*
G36*
X836012Y272406D02*
X836258Y272393D01*
X836478Y272367D01*
X836686Y272341D01*
X836854Y272302D01*
X836997Y272276D01*
X837048Y272263D01*
X837087D01*
X837100Y272250D01*
X837113D01*
X837359Y272185D01*
X837579Y272134D01*
X837774Y272069D01*
X837929Y272017D01*
X838059Y271965D01*
X838162Y271926D01*
X838214Y271901D01*
X838240Y271888D01*
X838460Y270761D01*
X838409D01*
X838175Y270890D01*
X837955Y270994D01*
X837735Y271084D01*
X837541Y271162D01*
X837385Y271214D01*
X837256Y271253D01*
X837217Y271279D01*
X837178D01*
X837165Y271292D01*
X837152D01*
X836919Y271357D01*
X836699Y271408D01*
X836504Y271434D01*
X836336Y271460D01*
X836193Y271473D01*
X836090Y271486D01*
X835999D01*
X835779Y271473D01*
X835585Y271447D01*
X835416Y271395D01*
X835274Y271343D01*
X835157Y271292D01*
X835066Y271240D01*
X835015Y271214D01*
X835002Y271201D01*
X834872Y271084D01*
X834769Y270955D01*
X834704Y270812D01*
X834652Y270683D01*
X834626Y270553D01*
X834600Y270463D01*
Y270398D01*
Y270372D01*
Y270242D01*
X834626Y270100D01*
X834691Y269841D01*
X834781Y269595D01*
X834885Y269375D01*
X834989Y269180D01*
X835041Y269102D01*
X835079Y269038D01*
X835118Y268986D01*
X835144Y268947D01*
X835157Y268921D01*
X835170Y268908D01*
X835287Y268766D01*
X835416Y268623D01*
X835714Y268312D01*
X836038Y268001D01*
X836349Y267716D01*
X836504Y267574D01*
X836647Y267457D01*
X836776Y267341D01*
X836893Y267250D01*
X836984Y267172D01*
X837048Y267120D01*
X837100Y267082D01*
X837113Y267069D01*
X837398Y266849D01*
X837644Y266641D01*
X837877Y266473D01*
X838072Y266330D01*
X838227Y266201D01*
X838344Y266123D01*
X838421Y266058D01*
X838434Y266045D01*
X838447D01*
X838668Y265890D01*
X838888Y265721D01*
X839121Y265553D01*
X839328Y265398D01*
X839510Y265268D01*
X839665Y265164D01*
X839717Y265113D01*
X839756Y265087D01*
X839782Y265074D01*
X839795Y265061D01*
X840054Y263882D01*
X834393D01*
X834173Y264815D01*
X838681D01*
X838473Y264970D01*
X838253Y265126D01*
X838020Y265294D01*
X837813Y265436D01*
X837631Y265579D01*
X837476Y265683D01*
X837424Y265734D01*
X837385Y265760D01*
X837359Y265786D01*
X837346D01*
X837048Y266007D01*
X836750Y266227D01*
X836478Y266434D01*
X836245Y266628D01*
X836038Y266784D01*
X835960Y266849D01*
X835882Y266913D01*
X835831Y266952D01*
X835792Y266991D01*
X835766Y267004D01*
X835753Y267017D01*
X835520Y267211D01*
X835300Y267405D01*
X835105Y267587D01*
X834924Y267755D01*
X834755Y267924D01*
X834613Y268079D01*
X834471Y268222D01*
X834354Y268351D01*
X834263Y268468D01*
X834173Y268571D01*
X834095Y268662D01*
X834043Y268740D01*
X833991Y268804D01*
X833965Y268843D01*
X833939Y268869D01*
Y268882D01*
X833771Y269193D01*
X833642Y269491D01*
X833551Y269776D01*
X833486Y270048D01*
X833447Y270268D01*
X833434Y270359D01*
Y270437D01*
X833421Y270501D01*
Y270553D01*
Y270579D01*
Y270592D01*
X833434Y270748D01*
X833447Y270890D01*
X833512Y271162D01*
X833616Y271382D01*
X833732Y271577D01*
X833849Y271732D01*
X833939Y271836D01*
X834017Y271901D01*
X834030Y271926D01*
X834043D01*
X834289Y272095D01*
X834574Y272211D01*
X834859Y272302D01*
X835144Y272354D01*
X835390Y272393D01*
X835494Y272406D01*
X835598D01*
X835675Y272419D01*
X835779D01*
X836012Y272406D01*
D02*
G37*
G36*
X828693D02*
X828939Y272393D01*
X829159Y272367D01*
X829367Y272341D01*
X829535Y272302D01*
X829678Y272276D01*
X829729Y272263D01*
X829768D01*
X829781Y272250D01*
X829794D01*
X830040Y272185D01*
X830260Y272134D01*
X830455Y272069D01*
X830610Y272017D01*
X830740Y271965D01*
X830843Y271926D01*
X830895Y271901D01*
X830921Y271888D01*
X831141Y270761D01*
X831089D01*
X830856Y270890D01*
X830636Y270994D01*
X830416Y271084D01*
X830222Y271162D01*
X830066Y271214D01*
X829937Y271253D01*
X829898Y271279D01*
X829859D01*
X829846Y271292D01*
X829833D01*
X829600Y271357D01*
X829380Y271408D01*
X829185Y271434D01*
X829017Y271460D01*
X828874Y271473D01*
X828771Y271486D01*
X828680D01*
X828460Y271473D01*
X828266Y271447D01*
X828097Y271395D01*
X827955Y271343D01*
X827838Y271292D01*
X827747Y271240D01*
X827696Y271214D01*
X827683Y271201D01*
X827553Y271084D01*
X827449Y270955D01*
X827385Y270812D01*
X827333Y270683D01*
X827307Y270553D01*
X827281Y270463D01*
Y270398D01*
Y270372D01*
Y270242D01*
X827307Y270100D01*
X827372Y269841D01*
X827462Y269595D01*
X827566Y269375D01*
X827670Y269180D01*
X827721Y269102D01*
X827760Y269038D01*
X827799Y268986D01*
X827825Y268947D01*
X827838Y268921D01*
X827851Y268908D01*
X827968Y268766D01*
X828097Y268623D01*
X828395Y268312D01*
X828719Y268001D01*
X829030Y267716D01*
X829185Y267574D01*
X829328Y267457D01*
X829457Y267341D01*
X829574Y267250D01*
X829665Y267172D01*
X829729Y267120D01*
X829781Y267082D01*
X829794Y267069D01*
X830079Y266849D01*
X830325Y266641D01*
X830558Y266473D01*
X830753Y266330D01*
X830908Y266201D01*
X831025Y266123D01*
X831103Y266058D01*
X831115Y266045D01*
X831128D01*
X831349Y265890D01*
X831569Y265721D01*
X831802Y265553D01*
X832009Y265398D01*
X832191Y265268D01*
X832346Y265164D01*
X832398Y265113D01*
X832437Y265087D01*
X832463Y265074D01*
X832476Y265061D01*
X832735Y263882D01*
X827074D01*
X826854Y264815D01*
X831362D01*
X831154Y264970D01*
X830934Y265126D01*
X830701Y265294D01*
X830494Y265436D01*
X830312Y265579D01*
X830157Y265683D01*
X830105Y265734D01*
X830066Y265760D01*
X830040Y265786D01*
X830027D01*
X829729Y266007D01*
X829431Y266227D01*
X829159Y266434D01*
X828926Y266628D01*
X828719Y266784D01*
X828641Y266849D01*
X828564Y266913D01*
X828512Y266952D01*
X828473Y266991D01*
X828447Y267004D01*
X828434Y267017D01*
X828201Y267211D01*
X827981Y267405D01*
X827786Y267587D01*
X827605Y267755D01*
X827437Y267924D01*
X827294Y268079D01*
X827151Y268222D01*
X827035Y268351D01*
X826944Y268468D01*
X826854Y268571D01*
X826776Y268662D01*
X826724Y268740D01*
X826672Y268804D01*
X826646Y268843D01*
X826620Y268869D01*
Y268882D01*
X826452Y269193D01*
X826322Y269491D01*
X826232Y269776D01*
X826167Y270048D01*
X826128Y270268D01*
X826115Y270359D01*
Y270437D01*
X826102Y270501D01*
Y270553D01*
Y270579D01*
Y270592D01*
X826115Y270748D01*
X826128Y270890D01*
X826193Y271162D01*
X826296Y271382D01*
X826413Y271577D01*
X826530Y271732D01*
X826620Y271836D01*
X826698Y271901D01*
X826711Y271926D01*
X826724D01*
X826970Y272095D01*
X827255Y272211D01*
X827540Y272302D01*
X827825Y272354D01*
X828071Y272393D01*
X828175Y272406D01*
X828279D01*
X828356Y272419D01*
X828460D01*
X828693Y272406D01*
D02*
G37*
G36*
X847852Y263882D02*
X846738D01*
X845961Y267224D01*
X844367D01*
X842178Y263882D01*
X840857D01*
X843279Y267483D01*
X842904Y267626D01*
X842567Y267781D01*
X842269Y267962D01*
X842023Y268157D01*
X841919Y268235D01*
X841815Y268312D01*
X841738Y268390D01*
X841673Y268455D01*
X841621Y268507D01*
X841582Y268545D01*
X841569Y268571D01*
X841556Y268584D01*
X841440Y268740D01*
X841336Y268895D01*
X841245Y269051D01*
X841168Y269206D01*
X841051Y269504D01*
X840973Y269789D01*
X840947Y269919D01*
X840935Y270048D01*
X840922Y270152D01*
X840909Y270242D01*
X840896Y270307D01*
Y270359D01*
Y270398D01*
Y270411D01*
X840909Y270592D01*
X840922Y270748D01*
X840947Y270890D01*
X840986Y271007D01*
X841025Y271097D01*
X841051Y271175D01*
X841064Y271214D01*
X841077Y271227D01*
X841155Y271343D01*
X841233Y271460D01*
X841310Y271551D01*
X841401Y271628D01*
X841466Y271693D01*
X841530Y271745D01*
X841569Y271771D01*
X841582Y271784D01*
X841712Y271875D01*
X841854Y271952D01*
X841997Y272017D01*
X842126Y272069D01*
X842243Y272095D01*
X842334Y272121D01*
X842385Y272147D01*
X842411D01*
X842606Y272185D01*
X842813Y272211D01*
X843020Y272224D01*
X843214Y272237D01*
X843383Y272250D01*
X845935D01*
X847852Y263882D01*
D02*
G37*
G36*
X626354Y420796D02*
X625240D01*
X624463Y424138D01*
X622869D01*
X620680Y420796D01*
X619359D01*
X621781Y424398D01*
X621406Y424540D01*
X621069Y424696D01*
X620771Y424877D01*
X620525Y425071D01*
X620421Y425149D01*
X620318Y425227D01*
X620240Y425304D01*
X620175Y425369D01*
X620123Y425421D01*
X620084Y425460D01*
X620071Y425486D01*
X620059Y425499D01*
X619942Y425654D01*
X619838Y425810D01*
X619748Y425965D01*
X619670Y426120D01*
X619553Y426418D01*
X619476Y426703D01*
X619450Y426833D01*
X619437Y426963D01*
X619424Y427066D01*
X619411Y427157D01*
X619398Y427222D01*
Y427273D01*
Y427312D01*
Y427325D01*
X619411Y427507D01*
X619424Y427662D01*
X619450Y427804D01*
X619489Y427921D01*
X619527Y428012D01*
X619553Y428089D01*
X619566Y428128D01*
X619579Y428141D01*
X619657Y428258D01*
X619735Y428374D01*
X619812Y428465D01*
X619903Y428543D01*
X619968Y428608D01*
X620033Y428660D01*
X620071Y428685D01*
X620084Y428698D01*
X620214Y428789D01*
X620356Y428867D01*
X620499Y428932D01*
X620629Y428983D01*
X620745Y429009D01*
X620836Y429035D01*
X620888Y429061D01*
X620914D01*
X621108Y429100D01*
X621315Y429126D01*
X621522Y429139D01*
X621717Y429152D01*
X621885Y429165D01*
X624437D01*
X626354Y420796D01*
D02*
G37*
G36*
X614074Y428983D02*
X614190Y428789D01*
X614307Y428634D01*
X614423Y428517D01*
X614540Y428413D01*
X614631Y428349D01*
X614696Y428310D01*
X614721Y428297D01*
X614942Y428206D01*
X615188Y428141D01*
X615434Y428102D01*
X615680Y428077D01*
X615900Y428051D01*
X615991D01*
X616082Y428038D01*
X616237D01*
X616393Y427312D01*
X614644D01*
X615965Y421613D01*
X617701D01*
X617882Y420796D01*
X613335D01*
X613141Y421613D01*
X614877D01*
X613115Y429204D01*
X613996D01*
X614074Y428983D01*
D02*
G37*
G36*
X609644Y428232D02*
X604864D01*
X610589Y420796D01*
X609320D01*
X603944Y427921D01*
X603646Y429165D01*
X609436D01*
X609644Y428232D01*
D02*
G37*
G36*
X623024Y501827D02*
X623426Y501775D01*
X623801Y501697D01*
X623970Y501658D01*
X624125Y501619D01*
X624268Y501568D01*
X624384Y501529D01*
X624501Y501490D01*
X624592Y501451D01*
X624656Y501412D01*
X624721Y501399D01*
X624747Y501373D01*
X624760D01*
X625110Y501192D01*
X625421Y500985D01*
X625693Y500777D01*
X625939Y500570D01*
X626120Y500389D01*
X626198Y500311D01*
X626263Y500246D01*
X626315Y500194D01*
X626353Y500156D01*
X626366Y500130D01*
X626379Y500117D01*
X626612Y499806D01*
X626820Y499482D01*
X626988Y499171D01*
X627131Y498873D01*
X627195Y498744D01*
X627247Y498627D01*
X627286Y498523D01*
X627325Y498433D01*
X627351Y498355D01*
X627377Y498303D01*
X627390Y498264D01*
Y498251D01*
X627506Y497850D01*
X627584Y497461D01*
X627649Y497072D01*
X627688Y496723D01*
X627701Y496567D01*
X627714Y496425D01*
Y496295D01*
X627727Y496192D01*
Y496101D01*
Y496036D01*
Y495997D01*
Y495984D01*
X627714Y495738D01*
X627701Y495518D01*
X627662Y495298D01*
X627623Y495103D01*
X627571Y494909D01*
X627519Y494741D01*
X627454Y494585D01*
X627390Y494443D01*
X627325Y494326D01*
X627260Y494210D01*
X627208Y494119D01*
X627156Y494041D01*
X627118Y493977D01*
X627079Y493938D01*
X627066Y493912D01*
X627053Y493899D01*
X626923Y493769D01*
X626781Y493653D01*
X626625Y493549D01*
X626470Y493471D01*
X626315Y493394D01*
X626146Y493329D01*
X625835Y493238D01*
X625693Y493212D01*
X625563Y493186D01*
X625447Y493173D01*
X625343Y493160D01*
X625252Y493148D01*
X625136D01*
X624877Y493160D01*
X624618Y493186D01*
X624384Y493238D01*
X624151Y493303D01*
X623944Y493368D01*
X623750Y493458D01*
X623568Y493549D01*
X623400Y493640D01*
X623244Y493730D01*
X623115Y493808D01*
X623011Y493899D01*
X622908Y493964D01*
X622843Y494028D01*
X622778Y494080D01*
X622752Y494106D01*
X622739Y494119D01*
X622571Y494300D01*
X622428Y494495D01*
X622299Y494702D01*
X622182Y494896D01*
X622091Y495091D01*
X622014Y495285D01*
X621949Y495479D01*
X621897Y495661D01*
X621858Y495829D01*
X621832Y495984D01*
X621806Y496114D01*
X621794Y496231D01*
X621781Y496334D01*
Y496399D01*
Y496451D01*
Y496464D01*
X621794Y496658D01*
X621806Y496839D01*
X621832Y497008D01*
X621871Y497150D01*
X621910Y497267D01*
X621936Y497345D01*
X621949Y497409D01*
X621962Y497422D01*
X622027Y497578D01*
X622117Y497707D01*
X622208Y497837D01*
X622286Y497940D01*
X622364Y498031D01*
X622428Y498096D01*
X622480Y498135D01*
X622493Y498148D01*
X622623Y498251D01*
X622752Y498329D01*
X622882Y498407D01*
X622998Y498459D01*
X623102Y498510D01*
X623180Y498536D01*
X623231Y498562D01*
X623257D01*
X623581Y498640D01*
X623750Y498666D01*
X623892Y498679D01*
X624022Y498692D01*
X624203D01*
X624410Y498679D01*
X624604Y498666D01*
X624786Y498640D01*
X624954Y498614D01*
X625097Y498575D01*
X625213Y498549D01*
X625278Y498536D01*
X625291Y498523D01*
X625304D01*
X625511Y498459D01*
X625706Y498394D01*
X625874Y498316D01*
X626042Y498251D01*
X626172Y498187D01*
X626263Y498148D01*
X626327Y498109D01*
X626353Y498096D01*
X626289Y498329D01*
X626211Y498549D01*
X626120Y498756D01*
X626017Y498938D01*
X625913Y499119D01*
X625809Y499288D01*
X625706Y499443D01*
X625602Y499586D01*
X625498Y499715D01*
X625408Y499819D01*
X625317Y499909D01*
X625252Y499987D01*
X625187Y500052D01*
X625136Y500091D01*
X625110Y500117D01*
X625097Y500130D01*
X624915Y500272D01*
X624734Y500389D01*
X624553Y500492D01*
X624358Y500583D01*
X624177Y500661D01*
X623996Y500726D01*
X623672Y500816D01*
X623516Y500855D01*
X623374Y500881D01*
X623257Y500894D01*
X623154Y500907D01*
X623063Y500920D01*
X622946D01*
X622700Y500907D01*
X622597Y500894D01*
X622493Y500881D01*
X622415Y500868D01*
X622351Y500855D01*
X622312Y500842D01*
X622299D01*
X622195Y500816D01*
X622104Y500803D01*
X622027Y500777D01*
X621962Y500764D01*
X621910Y500751D01*
X621884Y500738D01*
X621858Y500726D01*
X621806D01*
X621599Y501723D01*
X621729Y501749D01*
X621858Y501775D01*
X621923Y501788D01*
X621962Y501801D01*
X622001D01*
X622195Y501827D01*
X622377Y501852D01*
X622584D01*
X623024Y501827D01*
D02*
G37*
G36*
X643401Y493316D02*
X642287D01*
X641509Y496658D01*
X639916D01*
X637727Y493316D01*
X636406D01*
X638828Y496917D01*
X638452Y497060D01*
X638116Y497215D01*
X637818Y497396D01*
X637571Y497591D01*
X637468Y497668D01*
X637364Y497746D01*
X637286Y497824D01*
X637222Y497889D01*
X637170Y497940D01*
X637131Y497979D01*
X637118Y498005D01*
X637105Y498018D01*
X636989Y498174D01*
X636885Y498329D01*
X636794Y498484D01*
X636716Y498640D01*
X636600Y498938D01*
X636522Y499223D01*
X636496Y499352D01*
X636483Y499482D01*
X636470Y499586D01*
X636457Y499676D01*
X636445Y499741D01*
Y499793D01*
Y499832D01*
Y499845D01*
X636457Y500026D01*
X636470Y500182D01*
X636496Y500324D01*
X636535Y500441D01*
X636574Y500531D01*
X636600Y500609D01*
X636613Y500648D01*
X636626Y500661D01*
X636704Y500777D01*
X636781Y500894D01*
X636859Y500985D01*
X636950Y501062D01*
X637015Y501127D01*
X637079Y501179D01*
X637118Y501205D01*
X637131Y501218D01*
X637261Y501309D01*
X637403Y501386D01*
X637546Y501451D01*
X637675Y501503D01*
X637792Y501529D01*
X637882Y501555D01*
X637934Y501581D01*
X637960D01*
X638154Y501619D01*
X638362Y501645D01*
X638569Y501658D01*
X638763Y501671D01*
X638932Y501684D01*
X641484D01*
X643401Y493316D01*
D02*
G37*
G36*
X631120Y501503D02*
X631237Y501309D01*
X631354Y501153D01*
X631470Y501036D01*
X631587Y500933D01*
X631677Y500868D01*
X631742Y500829D01*
X631768Y500816D01*
X631988Y500726D01*
X632234Y500661D01*
X632481Y500622D01*
X632727Y500596D01*
X632947Y500570D01*
X633038D01*
X633128Y500557D01*
X633284D01*
X633439Y499832D01*
X631690D01*
X633012Y494132D01*
X634748D01*
X634929Y493316D01*
X630382D01*
X630188Y494132D01*
X631924D01*
X630162Y501723D01*
X631043D01*
X631120Y501503D01*
D02*
G37*
G36*
X664747Y497474D02*
X664605Y497500D01*
X664462Y497526D01*
X664333Y497539D01*
X664190Y497565D01*
X664074Y497578D01*
X663983Y497591D01*
X663931Y497604D01*
X663905D01*
X663530Y497655D01*
X663361Y497668D01*
X663219D01*
X663089Y497681D01*
X662908D01*
X662636Y497668D01*
X662506Y497655D01*
X662402Y497643D01*
X662312Y497630D01*
X662234Y497617D01*
X662195Y497604D01*
X662182D01*
X661936Y497539D01*
X661833Y497500D01*
X661742Y497474D01*
X661677Y497435D01*
X661625Y497409D01*
X661586Y497396D01*
X661573Y497383D01*
X661405Y497254D01*
X661288Y497124D01*
X661237Y497060D01*
X661211Y497008D01*
X661185Y496982D01*
Y496969D01*
X661133Y496865D01*
X661094Y496762D01*
X661042Y496554D01*
Y496477D01*
X661029Y496399D01*
Y496347D01*
Y496334D01*
X661042Y496153D01*
X661055Y495984D01*
X661133Y495673D01*
X661237Y495401D01*
X661353Y495168D01*
X661470Y494987D01*
X661573Y494857D01*
X661612Y494806D01*
X661651Y494767D01*
X661664Y494754D01*
X661677Y494741D01*
X661807Y494637D01*
X661936Y494547D01*
X662221Y494391D01*
X662493Y494287D01*
X662765Y494223D01*
X663011Y494171D01*
X663115Y494158D01*
X663206D01*
X663270Y494145D01*
X663374D01*
X663607Y494158D01*
X663827Y494184D01*
X664048Y494210D01*
X664229Y494249D01*
X664384Y494287D01*
X664501Y494326D01*
X664579Y494339D01*
X664592Y494352D01*
X664605D01*
X664812Y494443D01*
X664993Y494521D01*
X665162Y494611D01*
X665291Y494676D01*
X665395Y494741D01*
X665473Y494793D01*
X665524Y494832D01*
X665537Y494844D01*
X665615D01*
X665835Y493743D01*
X665680Y493679D01*
X665511Y493601D01*
X665343Y493549D01*
X665188Y493484D01*
X665045Y493445D01*
X664941Y493406D01*
X664864Y493394D01*
X664851Y493381D01*
X664838D01*
X664605Y493329D01*
X664384Y493290D01*
X664164Y493251D01*
X663957Y493238D01*
X663789Y493225D01*
X663659Y493212D01*
X663542D01*
X663219Y493225D01*
X662921Y493251D01*
X662662Y493290D01*
X662441Y493342D01*
X662247Y493394D01*
X662117Y493432D01*
X662066Y493445D01*
X662027Y493458D01*
X662014Y493471D01*
X662001D01*
X661755Y493575D01*
X661535Y493691D01*
X661340Y493821D01*
X661172Y493938D01*
X661029Y494041D01*
X660926Y494119D01*
X660861Y494171D01*
X660835Y494197D01*
X660667Y494378D01*
X660511Y494559D01*
X660395Y494728D01*
X660291Y494896D01*
X660200Y495039D01*
X660148Y495155D01*
X660110Y495233D01*
X660097Y495246D01*
Y495259D01*
X660006Y495492D01*
X659941Y495712D01*
X659902Y495933D01*
X659864Y496127D01*
X659850Y496295D01*
X659838Y496425D01*
Y496477D01*
Y496516D01*
Y496528D01*
Y496541D01*
X659850Y496710D01*
X659864Y496878D01*
X659954Y497163D01*
X660058Y497422D01*
X660187Y497630D01*
X660330Y497798D01*
X660434Y497915D01*
X660524Y497992D01*
X660537Y498018D01*
X660550D01*
X660693Y498122D01*
X660835Y498200D01*
X661159Y498342D01*
X661496Y498446D01*
X661807Y498510D01*
X661962Y498523D01*
X662092Y498549D01*
X662221Y498562D01*
X662325D01*
X662415Y498575D01*
X662688D01*
X662830Y498562D01*
X662895D01*
X662934Y498549D01*
X662972D01*
X663141Y498536D01*
X663283Y498523D01*
X663335Y498510D01*
X663387D01*
X663413Y498498D01*
X663426D01*
X662895Y500816D01*
X658957D01*
X658736Y501749D01*
X663763D01*
X664747Y497474D01*
D02*
G37*
G36*
X681264Y493381D02*
X680150D01*
X679372Y496723D01*
X677779D01*
X675590Y493381D01*
X674268D01*
X676691Y496982D01*
X676315Y497124D01*
X675978Y497280D01*
X675680Y497461D01*
X675434Y497655D01*
X675331Y497733D01*
X675227Y497811D01*
X675149Y497889D01*
X675085Y497953D01*
X675033Y498005D01*
X674994Y498044D01*
X674981Y498070D01*
X674968Y498083D01*
X674851Y498238D01*
X674748Y498394D01*
X674657Y498549D01*
X674579Y498705D01*
X674463Y499003D01*
X674385Y499288D01*
X674359Y499417D01*
X674346Y499547D01*
X674333Y499650D01*
X674320Y499741D01*
X674307Y499806D01*
Y499858D01*
Y499897D01*
Y499909D01*
X674320Y500091D01*
X674333Y500246D01*
X674359Y500389D01*
X674398Y500505D01*
X674437Y500596D01*
X674463Y500674D01*
X674476Y500713D01*
X674489Y500726D01*
X674566Y500842D01*
X674644Y500959D01*
X674722Y501049D01*
X674812Y501127D01*
X674877Y501192D01*
X674942Y501244D01*
X674981Y501270D01*
X674994Y501283D01*
X675123Y501373D01*
X675266Y501451D01*
X675408Y501516D01*
X675538Y501568D01*
X675654Y501594D01*
X675745Y501619D01*
X675797Y501645D01*
X675823D01*
X676017Y501684D01*
X676224Y501710D01*
X676432Y501723D01*
X676626Y501736D01*
X676794Y501749D01*
X679346D01*
X681264Y493381D01*
D02*
G37*
G36*
X668983Y501568D02*
X669100Y501373D01*
X669216Y501218D01*
X669333Y501101D01*
X669449Y500998D01*
X669540Y500933D01*
X669605Y500894D01*
X669631Y500881D01*
X669851Y500790D01*
X670097Y500726D01*
X670343Y500687D01*
X670589Y500661D01*
X670810Y500635D01*
X670900D01*
X670991Y500622D01*
X671146D01*
X671302Y499897D01*
X669553D01*
X670874Y494197D01*
X672610D01*
X672792Y493381D01*
X668245D01*
X668050Y494197D01*
X669786D01*
X668025Y501788D01*
X668905D01*
X668983Y501568D01*
D02*
G37*
G36*
X718362Y493296D02*
X717248D01*
X716471Y496639D01*
X714877D01*
X712688Y493296D01*
X711367D01*
X713789Y496898D01*
X713413Y497040D01*
X713077Y497196D01*
X712779Y497377D01*
X712533Y497571D01*
X712429Y497649D01*
X712325Y497727D01*
X712248Y497804D01*
X712183Y497869D01*
X712131Y497921D01*
X712092Y497960D01*
X712079Y497986D01*
X712066Y497999D01*
X711950Y498154D01*
X711846Y498310D01*
X711755Y498465D01*
X711678Y498620D01*
X711561Y498918D01*
X711483Y499203D01*
X711458Y499333D01*
X711444Y499463D01*
X711432Y499566D01*
X711419Y499657D01*
X711406Y499722D01*
Y499773D01*
Y499812D01*
Y499825D01*
X711419Y500007D01*
X711432Y500162D01*
X711458Y500304D01*
X711496Y500421D01*
X711535Y500512D01*
X711561Y500589D01*
X711574Y500628D01*
X711587Y500641D01*
X711665Y500758D01*
X711742Y500874D01*
X711820Y500965D01*
X711911Y501043D01*
X711976Y501108D01*
X712040Y501160D01*
X712079Y501185D01*
X712092Y501198D01*
X712222Y501289D01*
X712364Y501367D01*
X712507Y501432D01*
X712636Y501483D01*
X712753Y501509D01*
X712843Y501535D01*
X712895Y501561D01*
X712921D01*
X713116Y501600D01*
X713323Y501626D01*
X713530Y501639D01*
X713724Y501652D01*
X713893Y501665D01*
X716445D01*
X718362Y493296D01*
D02*
G37*
G36*
X706081Y501483D02*
X706198Y501289D01*
X706315Y501134D01*
X706431Y501017D01*
X706548Y500913D01*
X706639Y500849D01*
X706703Y500810D01*
X706729Y500797D01*
X706949Y500706D01*
X707196Y500641D01*
X707442Y500602D01*
X707688Y500577D01*
X707908Y500551D01*
X707999D01*
X708089Y500538D01*
X708245D01*
X708400Y499812D01*
X706652D01*
X707973Y494113D01*
X709709D01*
X709890Y493296D01*
X705343D01*
X705149Y494113D01*
X706885D01*
X705123Y501704D01*
X706004D01*
X706081Y501483D01*
D02*
G37*
G36*
X702882Y496936D02*
X703167Y495667D01*
X699177D01*
X699721Y493296D01*
X698633D01*
X698089Y495667D01*
X696845D01*
X696638Y496522D01*
X697895D01*
X696703Y501665D01*
X697739D01*
X702882Y496936D01*
D02*
G37*
G36*
X606638Y404340D02*
X606871Y404327D01*
X607092Y404301D01*
X607299Y404275D01*
X607467Y404236D01*
X607610Y404210D01*
X607662Y404197D01*
X607700D01*
X607713Y404184D01*
X607726D01*
X607972Y404119D01*
X608193Y404055D01*
X608387Y403990D01*
X608555Y403938D01*
X608685Y403886D01*
X608788Y403860D01*
X608840Y403834D01*
X608866Y403821D01*
X609099Y402694D01*
X609048D01*
X608853Y402798D01*
X608646Y402902D01*
X608452Y402979D01*
X608270Y403057D01*
X608115Y403122D01*
X607998Y403161D01*
X607947Y403174D01*
X607908Y403187D01*
X607895Y403200D01*
X607882D01*
X607636Y403277D01*
X607402Y403329D01*
X607182Y403368D01*
X607001Y403394D01*
X606845Y403407D01*
X606729Y403420D01*
X606625D01*
X606379Y403407D01*
X606159Y403381D01*
X605978Y403329D01*
X605822Y403290D01*
X605705Y403238D01*
X605615Y403187D01*
X605563Y403161D01*
X605550Y403148D01*
X605434Y403044D01*
X605343Y402928D01*
X605278Y402798D01*
X605226Y402682D01*
X605200Y402578D01*
X605187Y402487D01*
Y402435D01*
Y402409D01*
Y402280D01*
X605213Y402150D01*
X605278Y401917D01*
X605382Y401710D01*
X605485Y401541D01*
X605602Y401412D01*
X605705Y401308D01*
X605770Y401256D01*
X605783Y401231D01*
X605796D01*
X606042Y401088D01*
X606301Y400984D01*
X606561Y400907D01*
X606807Y400855D01*
X607014Y400829D01*
X607118Y400816D01*
X607195D01*
X607260Y400803D01*
X607895D01*
X608102Y399909D01*
X607571D01*
X607260Y399896D01*
X607001Y399857D01*
X606781Y399819D01*
X606599Y399767D01*
X606470Y399702D01*
X606366Y399663D01*
X606301Y399624D01*
X606288Y399611D01*
X606146Y399495D01*
X606042Y399352D01*
X605978Y399210D01*
X605926Y399067D01*
X605900Y398938D01*
X605874Y398834D01*
Y398756D01*
Y398743D01*
Y398731D01*
X605887Y398549D01*
X605900Y398394D01*
X605978Y398083D01*
X606081Y397824D01*
X606198Y397590D01*
X606314Y397409D01*
X606418Y397280D01*
X606457Y397241D01*
X606496Y397202D01*
X606509Y397189D01*
X606522Y397176D01*
X606651Y397072D01*
X606781Y396982D01*
X607053Y396826D01*
X607338Y396723D01*
X607597Y396658D01*
X607830Y396606D01*
X607934Y396593D01*
X608024D01*
X608089Y396580D01*
X608193D01*
X608426Y396593D01*
X608659Y396619D01*
X608866Y396645D01*
X609061Y396684D01*
X609216Y396723D01*
X609333Y396762D01*
X609410Y396774D01*
X609423Y396787D01*
X609436D01*
X609644Y396878D01*
X609838Y396956D01*
X609993Y397047D01*
X610136Y397124D01*
X610252Y397202D01*
X610343Y397254D01*
X610395Y397293D01*
X610408Y397306D01*
X610485D01*
X610745Y396217D01*
X610576Y396140D01*
X610395Y396062D01*
X610226Y395984D01*
X610058Y395932D01*
X609903Y395881D01*
X609786Y395842D01*
X609708Y395829D01*
X609695Y395816D01*
X609682D01*
X609436Y395764D01*
X609203Y395725D01*
X608983Y395686D01*
X608776Y395673D01*
X608607Y395660D01*
X608478Y395647D01*
X608361D01*
X608050Y395660D01*
X607765Y395686D01*
X607519Y395725D01*
X607299Y395764D01*
X607118Y395803D01*
X606988Y395842D01*
X606936Y395855D01*
X606897Y395868D01*
X606884Y395881D01*
X606871D01*
X606638Y395971D01*
X606418Y396088D01*
X606224Y396191D01*
X606055Y396308D01*
X605913Y396399D01*
X605809Y396477D01*
X605744Y396541D01*
X605718Y396554D01*
X605550Y396710D01*
X605408Y396878D01*
X605278Y397034D01*
X605174Y397189D01*
X605097Y397318D01*
X605045Y397435D01*
X605006Y397500D01*
X604993Y397526D01*
X604902Y397746D01*
X604838Y397953D01*
X604786Y398148D01*
X604760Y398329D01*
X604734Y398484D01*
X604721Y398601D01*
Y398679D01*
Y398692D01*
Y398705D01*
Y398847D01*
X604747Y398977D01*
X604773Y399093D01*
X604799Y399197D01*
X604825Y399275D01*
X604851Y399339D01*
X604864Y399378D01*
X604876Y399391D01*
X604993Y399598D01*
X605045Y399676D01*
X605110Y399754D01*
X605149Y399806D01*
X605187Y399845D01*
X605213Y399870D01*
X605226Y399883D01*
X605382Y400013D01*
X605537Y400104D01*
X605602Y400130D01*
X605654Y400155D01*
X605692Y400181D01*
X605705D01*
X605887Y400259D01*
X606042Y400311D01*
X606107Y400337D01*
X606146D01*
X606172Y400350D01*
X606185D01*
Y400415D01*
X605848Y400492D01*
X605550Y400609D01*
X605278Y400738D01*
X605058Y400881D01*
X604876Y401010D01*
X604747Y401114D01*
X604695Y401153D01*
X604656Y401192D01*
X604643Y401205D01*
X604630Y401218D01*
X604527Y401347D01*
X604423Y401464D01*
X604268Y401723D01*
X604164Y401969D01*
X604086Y402202D01*
X604034Y402397D01*
X604021Y402487D01*
Y402552D01*
X604008Y402617D01*
Y402656D01*
Y402682D01*
Y402694D01*
X604021Y402837D01*
X604034Y402966D01*
X604112Y403200D01*
X604216Y403407D01*
X604332Y403588D01*
X604449Y403718D01*
X604553Y403821D01*
X604630Y403873D01*
X604643Y403899D01*
X604656D01*
X604915Y404055D01*
X605200Y404158D01*
X605485Y404236D01*
X605770Y404301D01*
X606016Y404327D01*
X606133Y404340D01*
X606224D01*
X606301Y404352D01*
X606405D01*
X606638Y404340D01*
D02*
G37*
G36*
X625992Y395816D02*
X624877D01*
X624100Y399158D01*
X622507D01*
X620318Y395816D01*
X618996D01*
X621419Y399417D01*
X621043Y399560D01*
X620706Y399715D01*
X620408Y399896D01*
X620162Y400091D01*
X620059Y400168D01*
X619955Y400246D01*
X619877Y400324D01*
X619812Y400389D01*
X619761Y400440D01*
X619722Y400479D01*
X619709Y400505D01*
X619696Y400518D01*
X619579Y400674D01*
X619476Y400829D01*
X619385Y400984D01*
X619307Y401140D01*
X619191Y401438D01*
X619113Y401723D01*
X619087Y401852D01*
X619074Y401982D01*
X619061Y402086D01*
X619048Y402176D01*
X619035Y402241D01*
Y402293D01*
Y402332D01*
Y402345D01*
X619048Y402526D01*
X619061Y402682D01*
X619087Y402824D01*
X619126Y402940D01*
X619165Y403031D01*
X619191Y403109D01*
X619204Y403148D01*
X619216Y403161D01*
X619294Y403277D01*
X619372Y403394D01*
X619450Y403485D01*
X619540Y403562D01*
X619605Y403627D01*
X619670Y403679D01*
X619709Y403705D01*
X619722Y403718D01*
X619851Y403809D01*
X619994Y403886D01*
X620136Y403951D01*
X620266Y404003D01*
X620382Y404029D01*
X620473Y404055D01*
X620525Y404081D01*
X620551D01*
X620745Y404119D01*
X620952Y404145D01*
X621160Y404158D01*
X621354Y404171D01*
X621522Y404184D01*
X624074D01*
X625992Y395816D01*
D02*
G37*
G36*
X613711Y404003D02*
X613828Y403809D01*
X613944Y403653D01*
X614061Y403536D01*
X614177Y403433D01*
X614268Y403368D01*
X614333Y403329D01*
X614359Y403316D01*
X614579Y403226D01*
X614825Y403161D01*
X615071Y403122D01*
X615317Y403096D01*
X615538Y403070D01*
X615628D01*
X615719Y403057D01*
X615874D01*
X616030Y402332D01*
X614281D01*
X615602Y396632D01*
X617338D01*
X617519Y395816D01*
X612973D01*
X612778Y396632D01*
X614514D01*
X612752Y404223D01*
X613633D01*
X613711Y404003D01*
D02*
G37*
G36*
X623715Y562474D02*
X623961Y562461D01*
X624181Y562435D01*
X624389Y562409D01*
X624557Y562370D01*
X624700Y562344D01*
X624751Y562331D01*
X624790D01*
X624803Y562318D01*
X624816D01*
X625062Y562253D01*
X625283Y562202D01*
X625477Y562137D01*
X625632Y562085D01*
X625762Y562033D01*
X625865Y561994D01*
X625917Y561968D01*
X625943Y561956D01*
X626163Y560829D01*
X626111D01*
X625878Y560958D01*
X625658Y561062D01*
X625438Y561152D01*
X625244Y561230D01*
X625088Y561282D01*
X624959Y561321D01*
X624920Y561347D01*
X624881D01*
X624868Y561360D01*
X624855D01*
X624622Y561424D01*
X624402Y561476D01*
X624207Y561502D01*
X624039Y561528D01*
X623896Y561541D01*
X623793Y561554D01*
X623702D01*
X623482Y561541D01*
X623288Y561515D01*
X623119Y561463D01*
X622977Y561412D01*
X622860Y561360D01*
X622769Y561308D01*
X622718Y561282D01*
X622705Y561269D01*
X622575Y561152D01*
X622471Y561023D01*
X622407Y560880D01*
X622355Y560751D01*
X622329Y560621D01*
X622303Y560531D01*
Y560466D01*
Y560440D01*
Y560310D01*
X622329Y560168D01*
X622394Y559909D01*
X622484Y559663D01*
X622588Y559442D01*
X622692Y559248D01*
X622743Y559170D01*
X622782Y559106D01*
X622821Y559054D01*
X622847Y559015D01*
X622860Y558989D01*
X622873Y558976D01*
X622990Y558834D01*
X623119Y558691D01*
X623417Y558380D01*
X623741Y558069D01*
X624052Y557784D01*
X624207Y557642D01*
X624350Y557525D01*
X624479Y557409D01*
X624596Y557318D01*
X624687Y557240D01*
X624751Y557188D01*
X624803Y557150D01*
X624816Y557137D01*
X625101Y556917D01*
X625347Y556709D01*
X625580Y556541D01*
X625775Y556398D01*
X625930Y556269D01*
X626047Y556191D01*
X626124Y556126D01*
X626137Y556113D01*
X626150D01*
X626371Y555958D01*
X626591Y555789D01*
X626824Y555621D01*
X627031Y555466D01*
X627213Y555336D01*
X627368Y555232D01*
X627420Y555181D01*
X627459Y555155D01*
X627485Y555142D01*
X627498Y555129D01*
X627757Y553950D01*
X622096D01*
X621876Y554883D01*
X626384D01*
X626176Y555038D01*
X625956Y555194D01*
X625723Y555362D01*
X625516Y555504D01*
X625334Y555647D01*
X625179Y555751D01*
X625127Y555802D01*
X625088Y555828D01*
X625062Y555854D01*
X625049D01*
X624751Y556074D01*
X624453Y556295D01*
X624181Y556502D01*
X623948Y556696D01*
X623741Y556852D01*
X623663Y556917D01*
X623586Y556981D01*
X623534Y557020D01*
X623495Y557059D01*
X623469Y557072D01*
X623456Y557085D01*
X623223Y557279D01*
X623003Y557473D01*
X622808Y557655D01*
X622627Y557823D01*
X622458Y557992D01*
X622316Y558147D01*
X622174Y558290D01*
X622057Y558419D01*
X621966Y558536D01*
X621876Y558639D01*
X621798Y558730D01*
X621746Y558808D01*
X621694Y558872D01*
X621668Y558911D01*
X621642Y558937D01*
Y558950D01*
X621474Y559261D01*
X621344Y559559D01*
X621254Y559844D01*
X621189Y560116D01*
X621150Y560336D01*
X621137Y560427D01*
Y560505D01*
X621124Y560569D01*
Y560621D01*
Y560647D01*
Y560660D01*
X621137Y560816D01*
X621150Y560958D01*
X621215Y561230D01*
X621319Y561450D01*
X621435Y561645D01*
X621552Y561800D01*
X621642Y561904D01*
X621720Y561968D01*
X621733Y561994D01*
X621746D01*
X621992Y562163D01*
X622277Y562279D01*
X622562Y562370D01*
X622847Y562422D01*
X623093Y562461D01*
X623197Y562474D01*
X623301D01*
X623378Y562487D01*
X623482D01*
X623715Y562474D01*
D02*
G37*
G36*
X642874Y553950D02*
X641760D01*
X640983Y557292D01*
X639389D01*
X637200Y553950D01*
X635879D01*
X638301Y557551D01*
X637926Y557694D01*
X637589Y557849D01*
X637291Y558031D01*
X637045Y558225D01*
X636941Y558302D01*
X636837Y558380D01*
X636760Y558458D01*
X636695Y558523D01*
X636643Y558575D01*
X636604Y558613D01*
X636591Y558639D01*
X636578Y558652D01*
X636462Y558808D01*
X636358Y558963D01*
X636268Y559119D01*
X636190Y559274D01*
X636073Y559572D01*
X635995Y559857D01*
X635970Y559987D01*
X635957Y560116D01*
X635944Y560220D01*
X635931Y560310D01*
X635918Y560375D01*
Y560427D01*
Y560466D01*
Y560479D01*
X635931Y560660D01*
X635944Y560816D01*
X635970Y560958D01*
X636008Y561075D01*
X636047Y561165D01*
X636073Y561243D01*
X636086Y561282D01*
X636099Y561295D01*
X636177Y561412D01*
X636255Y561528D01*
X636332Y561619D01*
X636423Y561697D01*
X636488Y561761D01*
X636552Y561813D01*
X636591Y561839D01*
X636604Y561852D01*
X636734Y561943D01*
X636876Y562020D01*
X637019Y562085D01*
X637148Y562137D01*
X637265Y562163D01*
X637356Y562189D01*
X637407Y562215D01*
X637433D01*
X637628Y562253D01*
X637835Y562279D01*
X638042Y562292D01*
X638237Y562305D01*
X638405Y562318D01*
X640957D01*
X642874Y553950D01*
D02*
G37*
G36*
X630594Y562137D02*
X630710Y561943D01*
X630827Y561787D01*
X630943Y561671D01*
X631060Y561567D01*
X631151Y561502D01*
X631215Y561463D01*
X631241Y561450D01*
X631461Y561360D01*
X631708Y561295D01*
X631954Y561256D01*
X632200Y561230D01*
X632420Y561204D01*
X632511D01*
X632602Y561191D01*
X632757D01*
X632912Y560466D01*
X631164D01*
X632485Y554766D01*
X634221D01*
X634402Y553950D01*
X629855D01*
X629661Y554766D01*
X631397D01*
X629635Y562357D01*
X630516D01*
X630594Y562137D01*
D02*
G37*
G36*
X680212Y553950D02*
X679098D01*
X678321Y557292D01*
X676727D01*
X674538Y553950D01*
X673217D01*
X675639Y557551D01*
X675264Y557694D01*
X674927Y557849D01*
X674629Y558031D01*
X674383Y558225D01*
X674279Y558302D01*
X674175Y558380D01*
X674098Y558458D01*
X674033Y558523D01*
X673981Y558575D01*
X673942Y558613D01*
X673929Y558639D01*
X673916Y558652D01*
X673800Y558808D01*
X673696Y558963D01*
X673605Y559119D01*
X673528Y559274D01*
X673411Y559572D01*
X673333Y559857D01*
X673307Y559987D01*
X673295Y560116D01*
X673282Y560220D01*
X673269Y560310D01*
X673256Y560375D01*
Y560427D01*
Y560466D01*
Y560479D01*
X673269Y560660D01*
X673282Y560816D01*
X673307Y560958D01*
X673346Y561075D01*
X673385Y561165D01*
X673411Y561243D01*
X673424Y561282D01*
X673437Y561295D01*
X673515Y561412D01*
X673593Y561528D01*
X673670Y561619D01*
X673761Y561697D01*
X673826Y561761D01*
X673890Y561813D01*
X673929Y561839D01*
X673942Y561852D01*
X674072Y561943D01*
X674214Y562020D01*
X674357Y562085D01*
X674486Y562137D01*
X674603Y562163D01*
X674694Y562189D01*
X674745Y562215D01*
X674771D01*
X674966Y562253D01*
X675173Y562279D01*
X675380Y562292D01*
X675574Y562305D01*
X675743Y562318D01*
X678295D01*
X680212Y553950D01*
D02*
G37*
G36*
X667932Y562137D02*
X668048Y561943D01*
X668165Y561787D01*
X668281Y561671D01*
X668398Y561567D01*
X668489Y561502D01*
X668553Y561463D01*
X668579Y561450D01*
X668800Y561360D01*
X669046Y561295D01*
X669292Y561256D01*
X669538Y561230D01*
X669758Y561204D01*
X669849D01*
X669939Y561191D01*
X670095D01*
X670250Y560466D01*
X668502D01*
X669823Y554766D01*
X671559D01*
X671740Y553950D01*
X667193D01*
X666999Y554766D01*
X668735D01*
X666973Y562357D01*
X667854D01*
X667932Y562137D01*
D02*
G37*
G36*
X660613D02*
X660729Y561943D01*
X660846Y561787D01*
X660962Y561671D01*
X661079Y561567D01*
X661170Y561502D01*
X661234Y561463D01*
X661260Y561450D01*
X661480Y561360D01*
X661727Y561295D01*
X661973Y561256D01*
X662219Y561230D01*
X662439Y561204D01*
X662530D01*
X662620Y561191D01*
X662776D01*
X662931Y560466D01*
X661183D01*
X662504Y554766D01*
X664240D01*
X664421Y553950D01*
X659874D01*
X659680Y554766D01*
X661416D01*
X659654Y562357D01*
X660535D01*
X660613Y562137D01*
D02*
G37*
G36*
X717804Y553950D02*
X716690D01*
X715913Y557292D01*
X714319D01*
X712130Y553950D01*
X710809D01*
X713231Y557551D01*
X712856Y557694D01*
X712519Y557849D01*
X712221Y558031D01*
X711975Y558225D01*
X711871Y558302D01*
X711767Y558380D01*
X711690Y558458D01*
X711625Y558523D01*
X711573Y558575D01*
X711534Y558613D01*
X711521Y558639D01*
X711508Y558652D01*
X711392Y558808D01*
X711288Y558963D01*
X711198Y559119D01*
X711120Y559274D01*
X711003Y559572D01*
X710925Y559857D01*
X710900Y559987D01*
X710887Y560116D01*
X710874Y560220D01*
X710861Y560310D01*
X710848Y560375D01*
Y560427D01*
Y560466D01*
Y560479D01*
X710861Y560660D01*
X710874Y560816D01*
X710900Y560958D01*
X710938Y561075D01*
X710977Y561165D01*
X711003Y561243D01*
X711016Y561282D01*
X711029Y561295D01*
X711107Y561412D01*
X711184Y561528D01*
X711262Y561619D01*
X711353Y561697D01*
X711418Y561761D01*
X711482Y561813D01*
X711521Y561839D01*
X711534Y561852D01*
X711664Y561943D01*
X711806Y562020D01*
X711949Y562085D01*
X712078Y562137D01*
X712195Y562163D01*
X712286Y562189D01*
X712337Y562215D01*
X712363D01*
X712558Y562253D01*
X712765Y562279D01*
X712972Y562292D01*
X713167Y562305D01*
X713335Y562318D01*
X715887D01*
X717804Y553950D01*
D02*
G37*
G36*
X708412Y561386D02*
X703632D01*
X709358Y553950D01*
X708089D01*
X702713Y561075D01*
X702415Y562318D01*
X708205D01*
X708412Y561386D01*
D02*
G37*
%LPC*%
G36*
X808427Y210764D02*
X807002D01*
X806859Y210751D01*
X806730Y210739D01*
X806613Y210725D01*
X806522Y210713D01*
X806458Y210700D01*
X806419Y210687D01*
X806406D01*
X806199Y210622D01*
X806108Y210583D01*
X806030Y210544D01*
X805965Y210505D01*
X805927Y210479D01*
X805900Y210466D01*
X805888Y210453D01*
X805758Y210337D01*
X805667Y210220D01*
X805641Y210182D01*
X805616Y210143D01*
X805603Y210117D01*
Y210104D01*
X805551Y209935D01*
X805525Y209780D01*
X805512Y209702D01*
Y209650D01*
Y209611D01*
Y209599D01*
X805525Y209417D01*
X805538Y209249D01*
X805577Y209106D01*
X805616Y208964D01*
X805654Y208847D01*
X805680Y208769D01*
X805706Y208718D01*
X805719Y208692D01*
X805797Y208549D01*
X805900Y208407D01*
X805991Y208290D01*
X806082Y208200D01*
X806173Y208109D01*
X806237Y208057D01*
X806289Y208018D01*
X806302Y208005D01*
X806432Y207915D01*
X806548Y207837D01*
X806678Y207772D01*
X806794Y207733D01*
X806898Y207694D01*
X806976Y207668D01*
X807028Y207642D01*
X807040D01*
X807196Y207617D01*
X807351Y207591D01*
X807520Y207578D01*
X807662Y207565D01*
X807792Y207552D01*
X809165D01*
X808427Y210764D01*
D02*
G37*
G36*
X845525Y210680D02*
X844100D01*
X843958Y210667D01*
X843828Y210654D01*
X843711Y210641D01*
X843621Y210628D01*
X843556Y210615D01*
X843517Y210602D01*
X843504D01*
X843297Y210538D01*
X843206Y210499D01*
X843129Y210460D01*
X843064Y210421D01*
X843025Y210395D01*
X842999Y210382D01*
X842986Y210369D01*
X842857Y210253D01*
X842766Y210136D01*
X842740Y210097D01*
X842714Y210058D01*
X842701Y210033D01*
Y210019D01*
X842649Y209851D01*
X842623Y209696D01*
X842610Y209618D01*
Y209566D01*
Y209527D01*
Y209514D01*
X842623Y209333D01*
X842636Y209165D01*
X842675Y209022D01*
X842714Y208880D01*
X842753Y208763D01*
X842779Y208685D01*
X842805Y208633D01*
X842818Y208608D01*
X842895Y208465D01*
X842999Y208323D01*
X843090Y208206D01*
X843180Y208115D01*
X843271Y208025D01*
X843336Y207973D01*
X843388Y207934D01*
X843400Y207921D01*
X843530Y207830D01*
X843647Y207753D01*
X843776Y207688D01*
X843893Y207649D01*
X843996Y207610D01*
X844074Y207584D01*
X844126Y207558D01*
X844139D01*
X844294Y207532D01*
X844450Y207507D01*
X844618Y207493D01*
X844761Y207481D01*
X844890Y207468D01*
X846263D01*
X845525Y210680D01*
D02*
G37*
G36*
X828102Y210240D02*
X828983Y206457D01*
X832208D01*
X828102Y210240D01*
D02*
G37*
G36*
X807423Y271331D02*
X805998D01*
X805856Y271318D01*
X805726Y271305D01*
X805610Y271292D01*
X805519Y271279D01*
X805454Y271266D01*
X805415Y271253D01*
X805402D01*
X805195Y271188D01*
X805104Y271149D01*
X805027Y271110D01*
X804962Y271071D01*
X804923Y271046D01*
X804897Y271033D01*
X804884Y271020D01*
X804754Y270903D01*
X804664Y270786D01*
X804638Y270748D01*
X804612Y270709D01*
X804599Y270683D01*
Y270670D01*
X804547Y270501D01*
X804521Y270346D01*
X804508Y270268D01*
Y270217D01*
Y270178D01*
Y270165D01*
X804521Y269983D01*
X804534Y269815D01*
X804573Y269672D01*
X804612Y269530D01*
X804651Y269413D01*
X804677Y269336D01*
X804703Y269284D01*
X804716Y269258D01*
X804793Y269115D01*
X804897Y268973D01*
X804988Y268856D01*
X805078Y268766D01*
X805169Y268675D01*
X805234Y268623D01*
X805286Y268584D01*
X805299Y268571D01*
X805428Y268481D01*
X805545Y268403D01*
X805674Y268338D01*
X805791Y268299D01*
X805894Y268260D01*
X805972Y268235D01*
X806024Y268209D01*
X806037D01*
X806192Y268183D01*
X806348Y268157D01*
X806516Y268144D01*
X806659Y268131D01*
X806788Y268118D01*
X808161D01*
X807423Y271331D01*
D02*
G37*
G36*
X845015D02*
X843590D01*
X843448Y271318D01*
X843318Y271305D01*
X843202Y271292D01*
X843111Y271279D01*
X843046Y271266D01*
X843007Y271253D01*
X842994D01*
X842787Y271188D01*
X842696Y271149D01*
X842619Y271110D01*
X842554Y271071D01*
X842515Y271046D01*
X842489Y271033D01*
X842476Y271020D01*
X842346Y270903D01*
X842256Y270786D01*
X842230Y270748D01*
X842204Y270709D01*
X842191Y270683D01*
Y270670D01*
X842139Y270501D01*
X842113Y270346D01*
X842100Y270268D01*
Y270217D01*
Y270178D01*
Y270165D01*
X842113Y269983D01*
X842126Y269815D01*
X842165Y269672D01*
X842204Y269530D01*
X842243Y269413D01*
X842269Y269336D01*
X842295Y269284D01*
X842308Y269258D01*
X842385Y269115D01*
X842489Y268973D01*
X842580Y268856D01*
X842670Y268766D01*
X842761Y268675D01*
X842826Y268623D01*
X842878Y268584D01*
X842891Y268571D01*
X843020Y268481D01*
X843137Y268403D01*
X843266Y268338D01*
X843383Y268299D01*
X843486Y268260D01*
X843564Y268235D01*
X843616Y268209D01*
X843629D01*
X843784Y268183D01*
X843940Y268157D01*
X844108Y268144D01*
X844251Y268131D01*
X844380Y268118D01*
X845753D01*
X845015Y271331D01*
D02*
G37*
G36*
X623517Y428245D02*
X622092D01*
X621950Y428232D01*
X621820Y428219D01*
X621704Y428206D01*
X621613Y428193D01*
X621548Y428180D01*
X621509Y428167D01*
X621496D01*
X621289Y428102D01*
X621199Y428064D01*
X621121Y428025D01*
X621056Y427986D01*
X621017Y427960D01*
X620991Y427947D01*
X620978Y427934D01*
X620849Y427817D01*
X620758Y427701D01*
X620732Y427662D01*
X620706Y427623D01*
X620693Y427597D01*
Y427584D01*
X620642Y427416D01*
X620616Y427261D01*
X620603Y427183D01*
Y427131D01*
Y427092D01*
Y427079D01*
X620616Y426898D01*
X620629Y426729D01*
X620667Y426587D01*
X620706Y426444D01*
X620745Y426328D01*
X620771Y426250D01*
X620797Y426198D01*
X620810Y426172D01*
X620888Y426030D01*
X620991Y425887D01*
X621082Y425771D01*
X621173Y425680D01*
X621263Y425589D01*
X621328Y425538D01*
X621380Y425499D01*
X621393Y425486D01*
X621522Y425395D01*
X621639Y425317D01*
X621768Y425253D01*
X621885Y425214D01*
X621989Y425175D01*
X622066Y425149D01*
X622118Y425123D01*
X622131D01*
X622287Y425097D01*
X622442Y425071D01*
X622611Y425058D01*
X622753Y425045D01*
X622882Y425032D01*
X624256D01*
X623517Y428245D01*
D02*
G37*
G36*
X624773Y497798D02*
X624618D01*
X624333Y497785D01*
X624086Y497746D01*
X623866Y497681D01*
X623698Y497617D01*
X623555Y497539D01*
X623465Y497487D01*
X623400Y497435D01*
X623387Y497422D01*
X623244Y497267D01*
X623141Y497098D01*
X623063Y496917D01*
X623011Y496749D01*
X622985Y496593D01*
X622959Y496464D01*
Y496412D01*
Y496373D01*
Y496360D01*
Y496347D01*
Y496153D01*
X622985Y495984D01*
X623050Y495648D01*
X623141Y495363D01*
X623244Y495129D01*
X623348Y494935D01*
X623400Y494857D01*
X623439Y494793D01*
X623478Y494741D01*
X623503Y494702D01*
X623516Y494689D01*
X623529Y494676D01*
X623646Y494559D01*
X623763Y494469D01*
X623879Y494378D01*
X623996Y494313D01*
X624255Y494197D01*
X624488Y494119D01*
X624695Y494080D01*
X624786Y494067D01*
X624864Y494054D01*
X624928Y494041D01*
X625019D01*
X625239Y494054D01*
X625343Y494067D01*
X625434Y494093D01*
X625498Y494106D01*
X625563Y494119D01*
X625602Y494132D01*
X625615D01*
X625809Y494223D01*
X625900Y494287D01*
X625978Y494339D01*
X626030Y494391D01*
X626081Y494430D01*
X626107Y494456D01*
X626120Y494469D01*
X626198Y494559D01*
X626263Y494650D01*
X626366Y494832D01*
X626418Y494909D01*
X626444Y494974D01*
X626457Y495026D01*
X626470Y495039D01*
X626522Y495181D01*
X626548Y495337D01*
X626573Y495492D01*
X626600Y495635D01*
Y495764D01*
X626612Y495868D01*
Y495933D01*
Y495959D01*
Y496217D01*
X626600Y496334D01*
Y496451D01*
Y496541D01*
X626586Y496606D01*
Y496658D01*
Y496671D01*
X626573Y496800D01*
X626561Y496930D01*
X626535Y497034D01*
X626522Y497124D01*
X626509Y497189D01*
Y497254D01*
X626496Y497280D01*
Y497293D01*
X626146Y497461D01*
X625978Y497526D01*
X625835Y497578D01*
X625719Y497617D01*
X625615Y497643D01*
X625563Y497668D01*
X625537D01*
X625356Y497707D01*
X625187Y497746D01*
X625032Y497772D01*
X624889Y497785D01*
X624773Y497798D01*
D02*
G37*
G36*
X640564Y500764D02*
X639139D01*
X638996Y500751D01*
X638867Y500738D01*
X638750Y500726D01*
X638660Y500713D01*
X638595Y500700D01*
X638556Y500687D01*
X638543D01*
X638336Y500622D01*
X638245Y500583D01*
X638167Y500544D01*
X638103Y500505D01*
X638064Y500479D01*
X638038Y500466D01*
X638025Y500453D01*
X637895Y500337D01*
X637805Y500220D01*
X637779Y500182D01*
X637753Y500143D01*
X637740Y500117D01*
Y500104D01*
X637688Y499935D01*
X637662Y499780D01*
X637649Y499702D01*
Y499650D01*
Y499612D01*
Y499599D01*
X637662Y499417D01*
X637675Y499249D01*
X637714Y499106D01*
X637753Y498964D01*
X637792Y498847D01*
X637818Y498769D01*
X637844Y498718D01*
X637856Y498692D01*
X637934Y498549D01*
X638038Y498407D01*
X638129Y498290D01*
X638219Y498200D01*
X638310Y498109D01*
X638375Y498057D01*
X638427Y498018D01*
X638439Y498005D01*
X638569Y497915D01*
X638685Y497837D01*
X638815Y497772D01*
X638932Y497733D01*
X639035Y497694D01*
X639113Y497668D01*
X639165Y497643D01*
X639178D01*
X639333Y497617D01*
X639489Y497591D01*
X639657Y497578D01*
X639800Y497565D01*
X639929Y497552D01*
X641302D01*
X640564Y500764D01*
D02*
G37*
G36*
X678427Y500829D02*
X677002D01*
X676859Y500816D01*
X676730Y500803D01*
X676613Y500790D01*
X676522Y500777D01*
X676458Y500764D01*
X676419Y500751D01*
X676406D01*
X676199Y500687D01*
X676108Y500648D01*
X676030Y500609D01*
X675965Y500570D01*
X675927Y500544D01*
X675901Y500531D01*
X675888Y500518D01*
X675758Y500402D01*
X675667Y500285D01*
X675641Y500246D01*
X675616Y500207D01*
X675603Y500182D01*
Y500168D01*
X675551Y500000D01*
X675525Y499845D01*
X675512Y499767D01*
Y499715D01*
Y499676D01*
Y499663D01*
X675525Y499482D01*
X675538Y499314D01*
X675577Y499171D01*
X675616Y499029D01*
X675654Y498912D01*
X675680Y498834D01*
X675706Y498782D01*
X675719Y498756D01*
X675797Y498614D01*
X675901Y498471D01*
X675991Y498355D01*
X676082Y498264D01*
X676173Y498174D01*
X676237Y498122D01*
X676289Y498083D01*
X676302Y498070D01*
X676432Y497979D01*
X676548Y497902D01*
X676678Y497837D01*
X676794Y497798D01*
X676898Y497759D01*
X676976Y497733D01*
X677028Y497707D01*
X677040D01*
X677196Y497681D01*
X677351Y497655D01*
X677520Y497643D01*
X677662Y497630D01*
X677792Y497617D01*
X679165D01*
X678427Y500829D01*
D02*
G37*
G36*
X715525Y500745D02*
X714100D01*
X713958Y500732D01*
X713828Y500719D01*
X713711Y500706D01*
X713621Y500693D01*
X713556Y500680D01*
X713517Y500667D01*
X713504D01*
X713297Y500602D01*
X713206Y500564D01*
X713129Y500525D01*
X713064Y500486D01*
X713025Y500460D01*
X712999Y500447D01*
X712986Y500434D01*
X712857Y500317D01*
X712766Y500201D01*
X712740Y500162D01*
X712714Y500123D01*
X712701Y500097D01*
Y500084D01*
X712649Y499916D01*
X712623Y499761D01*
X712610Y499683D01*
Y499631D01*
Y499592D01*
Y499579D01*
X712623Y499398D01*
X712636Y499229D01*
X712675Y499087D01*
X712714Y498944D01*
X712753Y498828D01*
X712779Y498750D01*
X712805Y498698D01*
X712818Y498672D01*
X712895Y498530D01*
X712999Y498387D01*
X713090Y498271D01*
X713180Y498180D01*
X713271Y498089D01*
X713336Y498038D01*
X713388Y497999D01*
X713401Y497986D01*
X713530Y497895D01*
X713647Y497817D01*
X713776Y497753D01*
X713893Y497714D01*
X713996Y497675D01*
X714074Y497649D01*
X714126Y497623D01*
X714139D01*
X714294Y497597D01*
X714450Y497571D01*
X714618Y497558D01*
X714761Y497545D01*
X714890Y497532D01*
X716263D01*
X715525Y500745D01*
D02*
G37*
G36*
X698102Y500304D02*
X698983Y496522D01*
X702208D01*
X698102Y500304D01*
D02*
G37*
G36*
X623154Y403264D02*
X621730D01*
X621587Y403251D01*
X621458Y403238D01*
X621341Y403226D01*
X621250Y403213D01*
X621185Y403200D01*
X621147Y403187D01*
X621134D01*
X620926Y403122D01*
X620836Y403083D01*
X620758Y403044D01*
X620693Y403005D01*
X620654Y402979D01*
X620629Y402966D01*
X620616Y402953D01*
X620486Y402837D01*
X620395Y402720D01*
X620369Y402682D01*
X620344Y402643D01*
X620331Y402617D01*
Y402604D01*
X620279Y402435D01*
X620253Y402280D01*
X620240Y402202D01*
Y402150D01*
Y402112D01*
Y402099D01*
X620253Y401917D01*
X620266Y401749D01*
X620305Y401606D01*
X620344Y401464D01*
X620382Y401347D01*
X620408Y401269D01*
X620434Y401218D01*
X620447Y401192D01*
X620525Y401049D01*
X620629Y400907D01*
X620719Y400790D01*
X620810Y400700D01*
X620900Y400609D01*
X620965Y400557D01*
X621017Y400518D01*
X621030Y400505D01*
X621160Y400415D01*
X621276Y400337D01*
X621406Y400272D01*
X621522Y400233D01*
X621626Y400194D01*
X621704Y400168D01*
X621755Y400143D01*
X621768D01*
X621924Y400117D01*
X622079Y400091D01*
X622248Y400078D01*
X622390Y400065D01*
X622520Y400052D01*
X623893D01*
X623154Y403264D01*
D02*
G37*
G36*
X640037Y561399D02*
X638612D01*
X638470Y561386D01*
X638340Y561373D01*
X638223Y561360D01*
X638133Y561347D01*
X638068Y561334D01*
X638029Y561321D01*
X638016D01*
X637809Y561256D01*
X637718Y561217D01*
X637641Y561178D01*
X637576Y561139D01*
X637537Y561114D01*
X637511Y561101D01*
X637498Y561088D01*
X637369Y560971D01*
X637278Y560854D01*
X637252Y560816D01*
X637226Y560777D01*
X637213Y560751D01*
Y560738D01*
X637161Y560569D01*
X637135Y560414D01*
X637122Y560336D01*
Y560285D01*
Y560246D01*
Y560233D01*
X637135Y560051D01*
X637148Y559883D01*
X637187Y559740D01*
X637226Y559598D01*
X637265Y559481D01*
X637291Y559404D01*
X637317Y559352D01*
X637330Y559326D01*
X637407Y559183D01*
X637511Y559041D01*
X637602Y558924D01*
X637692Y558834D01*
X637783Y558743D01*
X637848Y558691D01*
X637900Y558652D01*
X637913Y558639D01*
X638042Y558549D01*
X638159Y558471D01*
X638288Y558406D01*
X638405Y558367D01*
X638508Y558328D01*
X638586Y558302D01*
X638638Y558277D01*
X638651D01*
X638806Y558251D01*
X638962Y558225D01*
X639130Y558212D01*
X639273Y558199D01*
X639402Y558186D01*
X640776D01*
X640037Y561399D01*
D02*
G37*
G36*
X677375D02*
X675950D01*
X675808Y561386D01*
X675678Y561373D01*
X675562Y561360D01*
X675471Y561347D01*
X675406Y561334D01*
X675367Y561321D01*
X675354D01*
X675147Y561256D01*
X675056Y561217D01*
X674979Y561178D01*
X674914Y561139D01*
X674875Y561114D01*
X674849Y561101D01*
X674836Y561088D01*
X674706Y560971D01*
X674616Y560854D01*
X674590Y560816D01*
X674564Y560777D01*
X674551Y560751D01*
Y560738D01*
X674499Y560569D01*
X674473Y560414D01*
X674460Y560336D01*
Y560285D01*
Y560246D01*
Y560233D01*
X674473Y560051D01*
X674486Y559883D01*
X674525Y559740D01*
X674564Y559598D01*
X674603Y559481D01*
X674629Y559404D01*
X674655Y559352D01*
X674668Y559326D01*
X674745Y559183D01*
X674849Y559041D01*
X674940Y558924D01*
X675030Y558834D01*
X675121Y558743D01*
X675186Y558691D01*
X675238Y558652D01*
X675251Y558639D01*
X675380Y558549D01*
X675497Y558471D01*
X675626Y558406D01*
X675743Y558367D01*
X675846Y558328D01*
X675924Y558302D01*
X675976Y558277D01*
X675989D01*
X676144Y558251D01*
X676300Y558225D01*
X676468Y558212D01*
X676611Y558199D01*
X676740Y558186D01*
X678113D01*
X677375Y561399D01*
D02*
G37*
G36*
X714967D02*
X713542D01*
X713400Y561386D01*
X713270Y561373D01*
X713154Y561360D01*
X713063Y561347D01*
X712998Y561334D01*
X712959Y561321D01*
X712946D01*
X712739Y561256D01*
X712648Y561217D01*
X712571Y561178D01*
X712506Y561139D01*
X712467Y561114D01*
X712441Y561101D01*
X712428Y561088D01*
X712299Y560971D01*
X712208Y560854D01*
X712182Y560816D01*
X712156Y560777D01*
X712143Y560751D01*
Y560738D01*
X712091Y560569D01*
X712065Y560414D01*
X712052Y560336D01*
Y560285D01*
Y560246D01*
Y560233D01*
X712065Y560051D01*
X712078Y559883D01*
X712117Y559740D01*
X712156Y559598D01*
X712195Y559481D01*
X712221Y559404D01*
X712247Y559352D01*
X712260Y559326D01*
X712337Y559183D01*
X712441Y559041D01*
X712532Y558924D01*
X712622Y558834D01*
X712713Y558743D01*
X712778Y558691D01*
X712830Y558652D01*
X712843Y558639D01*
X712972Y558549D01*
X713089Y558471D01*
X713218Y558406D01*
X713335Y558367D01*
X713438Y558328D01*
X713516Y558302D01*
X713568Y558277D01*
X713581D01*
X713736Y558251D01*
X713892Y558225D01*
X714060Y558212D01*
X714203Y558199D01*
X714332Y558186D01*
X715705D01*
X714967Y561399D01*
D02*
G37*
%LPD*%
D13*
X775500Y217500D02*
Y219500D01*
Y217500D02*
X809500D01*
Y219500D01*
X775500Y233500D02*
Y235500D01*
X809500D01*
Y233500D02*
Y235500D01*
X792500Y217500D02*
Y235500D01*
X813000Y217500D02*
Y219500D01*
Y217500D02*
X847000D01*
Y219500D01*
X813000Y233500D02*
Y235500D01*
X847000D01*
Y233500D02*
Y235500D01*
X830000Y217500D02*
Y235500D01*
X717000Y523500D02*
Y525500D01*
X683000D02*
X717000D01*
X683000Y523500D02*
Y525500D01*
X717000Y507500D02*
Y509500D01*
X683000Y507500D02*
X717000D01*
X683000D02*
Y509500D01*
X700000Y507500D02*
Y525500D01*
X679500Y523500D02*
Y525500D01*
X645500D02*
X679500D01*
X645500Y523500D02*
Y525500D01*
X679500Y507500D02*
Y509500D01*
X645500Y507500D02*
X679500D01*
X645500D02*
Y509500D01*
X662500Y507500D02*
Y525500D01*
X642000Y523500D02*
Y525500D01*
X608000D02*
X642000D01*
X608000Y523500D02*
Y525500D01*
X642000Y507500D02*
Y509500D01*
X608000Y507500D02*
X642000D01*
X608000D02*
Y509500D01*
X625000Y507500D02*
Y525500D01*
X599500Y408500D02*
Y410500D01*
X565500D02*
X599500D01*
X565500Y408500D02*
Y410500D01*
X599500Y392500D02*
Y394500D01*
X565500Y392500D02*
X599500D01*
X565500D02*
Y394500D01*
X582500Y392500D02*
Y410500D01*
X565500Y415000D02*
Y417000D01*
Y415000D02*
X599500D01*
Y417000D01*
X565500Y431000D02*
Y433000D01*
X599500D01*
Y431000D02*
Y433000D01*
X582500Y415000D02*
Y433000D01*
X792500Y240000D02*
Y258000D01*
X809500Y256000D02*
Y258000D01*
X775500D02*
X809500D01*
X775500Y256000D02*
Y258000D01*
X809500Y240000D02*
Y242000D01*
X775500Y240000D02*
X809500D01*
X775500D02*
Y242000D01*
X830000Y240000D02*
Y258000D01*
X847000Y256000D02*
Y258000D01*
X813000D02*
X847000D01*
X813000Y256000D02*
Y258000D01*
X847000Y240000D02*
Y242000D01*
X813000Y240000D02*
X847000D01*
X813000D02*
Y242000D01*
X700000Y530000D02*
Y548000D01*
X717000Y546000D02*
Y548000D01*
X683000D02*
X717000D01*
X683000Y546000D02*
Y548000D01*
X717000Y530000D02*
Y532000D01*
X683000Y530000D02*
X717000D01*
X683000D02*
Y532000D01*
X662500Y530000D02*
Y548000D01*
X679500Y546000D02*
Y548000D01*
X645500D02*
X679500D01*
X645500Y546000D02*
Y548000D01*
X679500Y530000D02*
Y532000D01*
X645500Y530000D02*
X679500D01*
X645500D02*
Y532000D01*
X625000Y530000D02*
Y548000D01*
X642000Y546000D02*
Y548000D01*
X608000D02*
X642000D01*
X608000Y546000D02*
Y548000D01*
X642000Y530000D02*
Y532000D01*
X608000Y530000D02*
X642000D01*
X608000D02*
Y532000D01*
M02*
