G04*
G04 #@! TF.GenerationSoftware,Altium Limited,Altium Designer,22.9.1 (49)*
G04*
G04 Layer_Color=8388736*
%FSLAX44Y44*%
%MOMM*%
G71*
G04*
G04 #@! TF.SameCoordinates,4021D898-2042-4C7D-8B7F-38EBD3721E5A*
G04*
G04*
G04 #@! TF.FilePolarity,Negative*
G04*
G01*
G75*
%ADD42R,0.5580X1.8740*%
%ADD43R,1.3000X1.5000*%
%ADD44R,1.7500X3.3500*%
%ADD45R,1.5500X1.4500*%
%ADD46R,5.5602X3.0456*%
%ADD47R,2.0600X1.3850*%
%ADD48R,7.1400X8.4800*%
%ADD49R,2.3100X1.1700*%
%ADD50R,3.5500X2.6000*%
%ADD51R,2.6000X2.3000*%
%ADD52R,0.9500X0.9500*%
%ADD53R,1.5000X1.3000*%
%ADD54O,0.7500X1.7000*%
%ADD55R,1.4500X1.5500*%
%ADD56R,0.6000X1.9500*%
%ADD57R,3.6600X3.8000*%
%ADD58R,1.1500X3.6500*%
%ADD59R,1.6500X3.5500*%
%ADD60R,1.3800X1.9500*%
%ADD61R,1.9500X1.3800*%
%ADD62O,2.1500X3.1500*%
%ADD63O,3.1500X2.1500*%
%ADD64O,1.9000X2.6500*%
%ADD65O,2.6500X1.9000*%
%ADD66C,3.6500*%
%ADD67C,1.8500*%
%ADD68R,1.8500X1.8500*%
D42*
X635550Y121657D02*
D03*
X648250D02*
D03*
X660950D02*
D03*
X673650D02*
D03*
X686350D02*
D03*
X699050D02*
D03*
X711750D02*
D03*
X724450D02*
D03*
Y216343D02*
D03*
X711750D02*
D03*
X699050D02*
D03*
X686350D02*
D03*
X673650D02*
D03*
X660950D02*
D03*
X648250D02*
D03*
X635550D02*
D03*
D43*
X1026250Y546500D02*
D03*
X1008750D02*
D03*
X276250D02*
D03*
X293750D02*
D03*
X1063750Y546500D02*
D03*
X1046250D02*
D03*
X988750Y546500D02*
D03*
X971250D02*
D03*
X238750Y257500D02*
D03*
X256250D02*
D03*
X520000Y501500D02*
D03*
X537500D02*
D03*
X351250Y474000D02*
D03*
X368750D02*
D03*
X351250Y546500D02*
D03*
X368750D02*
D03*
X331250D02*
D03*
X313750D02*
D03*
D44*
X190000Y237500D02*
D03*
Y287500D02*
D03*
X120000D02*
D03*
Y237500D02*
D03*
D45*
X420000Y234500D02*
D03*
Y250500D02*
D03*
X397500Y250500D02*
D03*
Y234500D02*
D03*
X375000Y250500D02*
D03*
Y234500D02*
D03*
X352500Y423500D02*
D03*
Y439500D02*
D03*
X1107500Y379500D02*
D03*
Y363500D02*
D03*
X607500Y201000D02*
D03*
Y217000D02*
D03*
D46*
X350000Y62970D02*
D03*
Y162030D02*
D03*
D47*
X259650Y200825D02*
D03*
Y105175D02*
D03*
D48*
X234250Y153000D02*
D03*
D49*
X127500Y119000D02*
D03*
Y136000D02*
D03*
Y153000D02*
D03*
Y170000D02*
D03*
Y187000D02*
D03*
D50*
X348500Y207500D02*
D03*
X296500D02*
D03*
D51*
X141000Y60000D02*
D03*
X184000D02*
D03*
D52*
X342500Y401500D02*
D03*
X327500D02*
D03*
X652500Y259000D02*
D03*
X637500D02*
D03*
X652500Y241500D02*
D03*
X637500D02*
D03*
X600000Y181500D02*
D03*
X585000D02*
D03*
X255000Y277500D02*
D03*
X240000D02*
D03*
D53*
X327500Y422750D02*
D03*
Y440250D02*
D03*
X607500Y257750D02*
D03*
Y240250D02*
D03*
X585000Y257750D02*
D03*
Y240250D02*
D03*
X585000Y200250D02*
D03*
Y217750D02*
D03*
D54*
X414050Y438000D02*
D03*
X401350D02*
D03*
X388650D02*
D03*
X375950D02*
D03*
X414050Y365000D02*
D03*
X401350D02*
D03*
X388650D02*
D03*
X375950D02*
D03*
D55*
X352000Y525000D02*
D03*
X368000D02*
D03*
X330500Y525000D02*
D03*
X314500D02*
D03*
X293000D02*
D03*
X277000D02*
D03*
X1047000Y524000D02*
D03*
X1063000D02*
D03*
X1009500Y524000D02*
D03*
X1025500D02*
D03*
X988000Y524000D02*
D03*
X972000D02*
D03*
D56*
X1079500Y434500D02*
D03*
X1073000D02*
D03*
X1066500D02*
D03*
X1060000D02*
D03*
X1053500D02*
D03*
X1047000D02*
D03*
X1040500D02*
D03*
Y363500D02*
D03*
X1047000D02*
D03*
X1053500D02*
D03*
X1060000D02*
D03*
X1066500D02*
D03*
X1073000D02*
D03*
X1079500D02*
D03*
D57*
X1090000Y90300D02*
D03*
Y297800D02*
D03*
D58*
X814000Y80500D02*
D03*
X834000D02*
D03*
X854000D02*
D03*
X874000D02*
D03*
X914000D02*
D03*
X894000D02*
D03*
X794000D02*
D03*
X774000D02*
D03*
D59*
X937500Y23000D02*
D03*
X750500D02*
D03*
D60*
X712500Y52800D02*
D03*
Y79000D02*
D03*
X690000Y53400D02*
D03*
Y79600D02*
D03*
D61*
X634400Y54000D02*
D03*
X660600D02*
D03*
X648250Y81650D02*
D03*
X622050D02*
D03*
D62*
X107700Y647500D02*
D03*
X82300D02*
D03*
X752500D02*
D03*
X727100D02*
D03*
D63*
X42500Y292700D02*
D03*
Y267300D02*
D03*
D64*
X1187500Y654000D02*
D03*
X1212500D02*
D03*
X1097500D02*
D03*
X997500D02*
D03*
X947500D02*
D03*
X972500D02*
D03*
X1022500D02*
D03*
X1047500D02*
D03*
X1072500D02*
D03*
X1122500D02*
D03*
X882500Y655000D02*
D03*
X832500D02*
D03*
X807500D02*
D03*
X857500D02*
D03*
X535000Y654000D02*
D03*
X560000D02*
D03*
X447500D02*
D03*
X347500D02*
D03*
X297500D02*
D03*
X322500D02*
D03*
X372500D02*
D03*
X397500D02*
D03*
X422500D02*
D03*
X472500D02*
D03*
X232500D02*
D03*
X182500D02*
D03*
X157500D02*
D03*
X207500D02*
D03*
D65*
X35000Y494000D02*
D03*
Y469000D02*
D03*
Y519000D02*
D03*
Y381500D02*
D03*
Y356500D02*
D03*
Y406500D02*
D03*
D66*
X1275000Y675000D02*
D03*
Y25000D02*
D03*
X25000D02*
D03*
Y675000D02*
D03*
D67*
X775800Y456146D02*
D03*
X471000D02*
D03*
X496400D02*
D03*
X521800D02*
D03*
X547200D02*
D03*
X572600D02*
D03*
X598000D02*
D03*
X623400D02*
D03*
X648800D02*
D03*
X674200D02*
D03*
X699600D02*
D03*
X725000D02*
D03*
X801200D02*
D03*
X826600D02*
D03*
X852000D02*
D03*
X877400D02*
D03*
X902800D02*
D03*
X928200D02*
D03*
X750400D02*
D03*
X471000Y304000D02*
D03*
X496400D02*
D03*
X521800D02*
D03*
X547200D02*
D03*
X572600D02*
D03*
X598000D02*
D03*
X623400D02*
D03*
X648800D02*
D03*
X674200D02*
D03*
X699600D02*
D03*
X725000D02*
D03*
X750400D02*
D03*
X775800D02*
D03*
X801200D02*
D03*
X826600D02*
D03*
X852000D02*
D03*
X877400D02*
D03*
X902800D02*
D03*
X928200D02*
D03*
D68*
X953600Y456146D02*
D03*
Y304000D02*
D03*
M02*
