G04*
G04 #@! TF.GenerationSoftware,Altium Limited,Altium Designer,22.9.1 (49)*
G04*
G04 Layer_Physical_Order=2*
G04 Layer_Color=36540*
%FSLAX44Y44*%
%MOMM*%
G71*
G04*
G04 #@! TF.SameCoordinates,4021D898-2042-4C7D-8B7F-38EBD3721E5A*
G04*
G04*
G04 #@! TF.FilePolarity,Positive*
G04*
G01*
G75*
%ADD75O,2.0000X3.0000*%
%ADD76O,3.0000X2.0000*%
%ADD77O,1.7500X2.5000*%
%ADD78O,2.5000X1.7500*%
%ADD79C,3.5000*%
%ADD80C,1.7000*%
%ADD81R,1.7000X1.7000*%
%ADD82C,1.0000*%
G36*
X1267179Y692867D02*
X1265763Y692281D01*
X1262570Y690147D01*
X1259853Y687430D01*
X1257719Y684237D01*
X1256249Y680688D01*
X1255500Y676921D01*
Y673079D01*
X1256249Y669312D01*
X1257719Y665763D01*
X1259853Y662570D01*
X1262570Y659853D01*
X1265763Y657719D01*
X1269312Y656249D01*
X1273079Y655500D01*
X1276921D01*
X1280688Y656249D01*
X1284237Y657719D01*
X1287431Y659853D01*
X1290147Y662570D01*
X1292281Y665763D01*
X1292867Y667180D01*
X1294137Y666927D01*
Y33073D01*
X1292867Y32820D01*
X1292281Y34237D01*
X1290147Y37431D01*
X1287431Y40147D01*
X1284237Y42281D01*
X1280688Y43751D01*
X1276921Y44500D01*
X1273079D01*
X1269312Y43751D01*
X1265763Y42281D01*
X1262570Y40147D01*
X1259853Y37431D01*
X1257719Y34237D01*
X1256249Y30688D01*
X1255500Y26921D01*
Y23079D01*
X1256249Y19312D01*
X1257719Y15763D01*
X1259853Y12570D01*
X1262570Y9853D01*
X1265763Y7719D01*
X1267180Y7132D01*
X1266927Y5863D01*
X33073D01*
X32820Y7132D01*
X34237Y7719D01*
X37431Y9853D01*
X40147Y12570D01*
X42281Y15763D01*
X43751Y19312D01*
X44500Y23079D01*
Y26921D01*
X43751Y30688D01*
X42281Y34237D01*
X40147Y37431D01*
X37431Y40147D01*
X34237Y42281D01*
X30688Y43751D01*
X26921Y44500D01*
X23079D01*
X19312Y43751D01*
X15763Y42281D01*
X12570Y40147D01*
X9853Y37431D01*
X7719Y34237D01*
X7133Y32820D01*
X5863Y33073D01*
X5863Y666927D01*
X7133Y667180D01*
X7719Y665763D01*
X9853Y662570D01*
X12570Y659853D01*
X15763Y657719D01*
X19312Y656249D01*
X23079Y655500D01*
X26921D01*
X30688Y656249D01*
X34237Y657719D01*
X37431Y659853D01*
X40147Y662570D01*
X42281Y665763D01*
X43751Y669312D01*
X44500Y673079D01*
Y676921D01*
X43751Y680688D01*
X42281Y684237D01*
X40147Y687430D01*
X37431Y690147D01*
X34237Y692281D01*
X32820Y692867D01*
X33073Y694137D01*
X1266927D01*
X1267179Y692867D01*
D02*
G37*
%LPC*%
G36*
X885000Y669264D02*
Y657500D01*
X893343D01*
Y658750D01*
X892973Y661556D01*
X891890Y664171D01*
X890167Y666417D01*
X887921Y668140D01*
X885306Y669223D01*
X885000Y669264D01*
D02*
G37*
G36*
X880000D02*
X879694Y669223D01*
X877079Y668140D01*
X874833Y666417D01*
X873110Y664171D01*
X872027Y661556D01*
X871657Y658750D01*
Y657500D01*
X880000D01*
Y669264D01*
D02*
G37*
G36*
X1125000Y668264D02*
Y656500D01*
X1133343D01*
Y657750D01*
X1132973Y660556D01*
X1131890Y663171D01*
X1130167Y665417D01*
X1127921Y667140D01*
X1125306Y668223D01*
X1125000Y668264D01*
D02*
G37*
G36*
X1120000D02*
X1119694Y668223D01*
X1117079Y667140D01*
X1114833Y665417D01*
X1113110Y663171D01*
X1112027Y660556D01*
X1111657Y657750D01*
Y656500D01*
X1120000D01*
Y668264D01*
D02*
G37*
G36*
X475000D02*
Y656500D01*
X483343D01*
Y657750D01*
X482973Y660556D01*
X481890Y663171D01*
X480167Y665417D01*
X477921Y667140D01*
X475306Y668223D01*
X475000Y668264D01*
D02*
G37*
G36*
X470000D02*
X469694Y668223D01*
X467079Y667140D01*
X464833Y665417D01*
X463110Y663171D01*
X462027Y660556D01*
X461657Y657750D01*
Y656500D01*
X470000D01*
Y668264D01*
D02*
G37*
G36*
X235000D02*
Y656500D01*
X243343D01*
Y657750D01*
X242973Y660556D01*
X241890Y663171D01*
X240167Y665417D01*
X237921Y667140D01*
X235306Y668223D01*
X235000Y668264D01*
D02*
G37*
G36*
X230000D02*
X229694Y668223D01*
X227079Y667140D01*
X224833Y665417D01*
X223110Y663171D01*
X222027Y660556D01*
X221657Y657750D01*
Y656500D01*
X230000D01*
Y668264D01*
D02*
G37*
G36*
X755000Y664274D02*
Y650000D01*
X764604D01*
Y652500D01*
X764191Y655633D01*
X762982Y658552D01*
X761059Y661059D01*
X758552Y662982D01*
X755633Y664191D01*
X755000Y664274D01*
D02*
G37*
G36*
X110200D02*
Y650000D01*
X119804D01*
Y652500D01*
X119391Y655633D01*
X118182Y658552D01*
X116258Y661059D01*
X113752Y662982D01*
X110833Y664191D01*
X110200Y664274D01*
D02*
G37*
G36*
X893343Y652500D02*
X885000D01*
Y640736D01*
X885306Y640777D01*
X887921Y641860D01*
X890167Y643583D01*
X891890Y645829D01*
X892973Y648444D01*
X893343Y651250D01*
Y652500D01*
D02*
G37*
G36*
X880000D02*
X871657D01*
Y651250D01*
X872027Y648444D01*
X873110Y645829D01*
X874833Y643583D01*
X877079Y641860D01*
X879694Y640777D01*
X880000Y640736D01*
Y652500D01*
D02*
G37*
G36*
X857500Y669593D02*
X854694Y669223D01*
X852079Y668140D01*
X849833Y666417D01*
X848110Y664171D01*
X847027Y661556D01*
X846657Y658750D01*
Y651250D01*
X847027Y648444D01*
X848110Y645829D01*
X849833Y643583D01*
X852079Y641860D01*
X854694Y640777D01*
X857500Y640407D01*
X860306Y640777D01*
X862921Y641860D01*
X865167Y643583D01*
X866890Y645829D01*
X867973Y648444D01*
X868343Y651250D01*
Y658750D01*
X867973Y661556D01*
X866890Y664171D01*
X865167Y666417D01*
X862921Y668140D01*
X860306Y669223D01*
X857500Y669593D01*
D02*
G37*
G36*
X832500D02*
X829694Y669223D01*
X827079Y668140D01*
X824833Y666417D01*
X823110Y664171D01*
X822027Y661556D01*
X821657Y658750D01*
Y651250D01*
X822027Y648444D01*
X823110Y645829D01*
X824833Y643583D01*
X827079Y641860D01*
X829694Y640777D01*
X832500Y640407D01*
X835306Y640777D01*
X837921Y641860D01*
X840167Y643583D01*
X841890Y645829D01*
X842973Y648444D01*
X843343Y651250D01*
Y658750D01*
X842973Y661556D01*
X841890Y664171D01*
X840167Y666417D01*
X837921Y668140D01*
X835306Y669223D01*
X832500Y669593D01*
D02*
G37*
G36*
X807500D02*
X804694Y669223D01*
X802079Y668140D01*
X799833Y666417D01*
X798110Y664171D01*
X797027Y661556D01*
X796657Y658750D01*
Y651250D01*
X797027Y648444D01*
X798110Y645829D01*
X799833Y643583D01*
X802079Y641860D01*
X804694Y640777D01*
X807500Y640407D01*
X810306Y640777D01*
X812921Y641860D01*
X815167Y643583D01*
X816890Y645829D01*
X817973Y648444D01*
X818343Y651250D01*
Y658750D01*
X817973Y661556D01*
X816890Y664171D01*
X815167Y666417D01*
X812921Y668140D01*
X810306Y669223D01*
X807500Y669593D01*
D02*
G37*
G36*
X1133343Y651500D02*
X1125000D01*
Y639736D01*
X1125306Y639777D01*
X1127921Y640860D01*
X1130167Y642583D01*
X1131890Y644829D01*
X1132973Y647444D01*
X1133343Y650250D01*
Y651500D01*
D02*
G37*
G36*
X1120000D02*
X1111657D01*
Y650250D01*
X1112027Y647444D01*
X1113110Y644829D01*
X1114833Y642583D01*
X1117079Y640860D01*
X1119694Y639777D01*
X1120000Y639736D01*
Y651500D01*
D02*
G37*
G36*
X483343D02*
X475000D01*
Y639736D01*
X475306Y639777D01*
X477921Y640860D01*
X480167Y642583D01*
X481890Y644829D01*
X482973Y647444D01*
X483343Y650250D01*
Y651500D01*
D02*
G37*
G36*
X470000D02*
X461657D01*
Y650250D01*
X462027Y647444D01*
X463110Y644829D01*
X464833Y642583D01*
X467079Y640860D01*
X469694Y639777D01*
X470000Y639736D01*
Y651500D01*
D02*
G37*
G36*
X243343D02*
X235000D01*
Y639736D01*
X235306Y639777D01*
X237921Y640860D01*
X240167Y642583D01*
X241890Y644829D01*
X242973Y647444D01*
X243343Y650250D01*
Y651500D01*
D02*
G37*
G36*
X230000D02*
X221657D01*
Y650250D01*
X222027Y647444D01*
X223110Y644829D01*
X224833Y642583D01*
X227079Y640860D01*
X229694Y639777D01*
X230000Y639736D01*
Y651500D01*
D02*
G37*
G36*
X1212500Y668593D02*
X1209694Y668223D01*
X1207079Y667140D01*
X1204833Y665417D01*
X1203110Y663171D01*
X1202027Y660556D01*
X1201657Y657750D01*
Y650250D01*
X1202027Y647444D01*
X1203110Y644829D01*
X1204833Y642583D01*
X1207079Y640860D01*
X1209694Y639777D01*
X1212500Y639407D01*
X1215306Y639777D01*
X1217921Y640860D01*
X1220167Y642583D01*
X1221890Y644829D01*
X1222973Y647444D01*
X1223343Y650250D01*
Y657750D01*
X1222973Y660556D01*
X1221890Y663171D01*
X1220167Y665417D01*
X1217921Y667140D01*
X1215306Y668223D01*
X1212500Y668593D01*
D02*
G37*
G36*
X1187500D02*
X1184694Y668223D01*
X1182079Y667140D01*
X1179833Y665417D01*
X1178110Y663171D01*
X1177027Y660556D01*
X1176657Y657750D01*
Y650250D01*
X1177027Y647444D01*
X1178110Y644829D01*
X1179833Y642583D01*
X1182079Y640860D01*
X1184694Y639777D01*
X1187500Y639407D01*
X1190306Y639777D01*
X1192921Y640860D01*
X1195167Y642583D01*
X1196890Y644829D01*
X1197973Y647444D01*
X1198343Y650250D01*
Y657750D01*
X1197973Y660556D01*
X1196890Y663171D01*
X1195167Y665417D01*
X1192921Y667140D01*
X1190306Y668223D01*
X1187500Y668593D01*
D02*
G37*
G36*
X1097500D02*
X1094694Y668223D01*
X1092079Y667140D01*
X1089833Y665417D01*
X1088110Y663171D01*
X1087027Y660556D01*
X1086657Y657750D01*
Y650250D01*
X1087027Y647444D01*
X1088110Y644829D01*
X1089833Y642583D01*
X1092079Y640860D01*
X1094694Y639777D01*
X1097500Y639407D01*
X1100306Y639777D01*
X1102921Y640860D01*
X1105167Y642583D01*
X1106890Y644829D01*
X1107973Y647444D01*
X1108343Y650250D01*
Y657750D01*
X1107973Y660556D01*
X1106890Y663171D01*
X1105167Y665417D01*
X1102921Y667140D01*
X1100306Y668223D01*
X1097500Y668593D01*
D02*
G37*
G36*
X1072500D02*
X1069694Y668223D01*
X1067079Y667140D01*
X1064833Y665417D01*
X1063110Y663171D01*
X1062027Y660556D01*
X1061657Y657750D01*
Y650250D01*
X1062027Y647444D01*
X1063110Y644829D01*
X1064833Y642583D01*
X1067079Y640860D01*
X1069694Y639777D01*
X1072500Y639407D01*
X1075306Y639777D01*
X1077921Y640860D01*
X1080167Y642583D01*
X1081890Y644829D01*
X1082973Y647444D01*
X1083343Y650250D01*
Y657750D01*
X1082973Y660556D01*
X1081890Y663171D01*
X1080167Y665417D01*
X1077921Y667140D01*
X1075306Y668223D01*
X1072500Y668593D01*
D02*
G37*
G36*
X1047500D02*
X1044694Y668223D01*
X1042079Y667140D01*
X1039833Y665417D01*
X1038110Y663171D01*
X1037027Y660556D01*
X1036657Y657750D01*
Y650250D01*
X1037027Y647444D01*
X1038110Y644829D01*
X1039833Y642583D01*
X1042079Y640860D01*
X1044694Y639777D01*
X1047500Y639407D01*
X1050306Y639777D01*
X1052921Y640860D01*
X1055167Y642583D01*
X1056890Y644829D01*
X1057973Y647444D01*
X1058343Y650250D01*
Y657750D01*
X1057973Y660556D01*
X1056890Y663171D01*
X1055167Y665417D01*
X1052921Y667140D01*
X1050306Y668223D01*
X1047500Y668593D01*
D02*
G37*
G36*
X1022500D02*
X1019694Y668223D01*
X1017079Y667140D01*
X1014833Y665417D01*
X1013110Y663171D01*
X1012027Y660556D01*
X1011657Y657750D01*
Y650250D01*
X1012027Y647444D01*
X1013110Y644829D01*
X1014833Y642583D01*
X1017079Y640860D01*
X1019694Y639777D01*
X1022500Y639407D01*
X1025306Y639777D01*
X1027921Y640860D01*
X1030167Y642583D01*
X1031890Y644829D01*
X1032973Y647444D01*
X1033343Y650250D01*
Y657750D01*
X1032973Y660556D01*
X1031890Y663171D01*
X1030167Y665417D01*
X1027921Y667140D01*
X1025306Y668223D01*
X1022500Y668593D01*
D02*
G37*
G36*
X997500D02*
X994694Y668223D01*
X992079Y667140D01*
X989833Y665417D01*
X988110Y663171D01*
X987027Y660556D01*
X986657Y657750D01*
Y650250D01*
X987027Y647444D01*
X988110Y644829D01*
X989833Y642583D01*
X992079Y640860D01*
X994694Y639777D01*
X997500Y639407D01*
X1000306Y639777D01*
X1002921Y640860D01*
X1005167Y642583D01*
X1006890Y644829D01*
X1007973Y647444D01*
X1008343Y650250D01*
Y657750D01*
X1007973Y660556D01*
X1006890Y663171D01*
X1005167Y665417D01*
X1002921Y667140D01*
X1000306Y668223D01*
X997500Y668593D01*
D02*
G37*
G36*
X972500D02*
X969694Y668223D01*
X967079Y667140D01*
X964833Y665417D01*
X963110Y663171D01*
X962027Y660556D01*
X961657Y657750D01*
Y650250D01*
X962027Y647444D01*
X963110Y644829D01*
X964833Y642583D01*
X967079Y640860D01*
X969694Y639777D01*
X972500Y639407D01*
X975306Y639777D01*
X977921Y640860D01*
X980167Y642583D01*
X981890Y644829D01*
X982973Y647444D01*
X983343Y650250D01*
Y657750D01*
X982973Y660556D01*
X981890Y663171D01*
X980167Y665417D01*
X977921Y667140D01*
X975306Y668223D01*
X972500Y668593D01*
D02*
G37*
G36*
X947500D02*
X944694Y668223D01*
X942079Y667140D01*
X939833Y665417D01*
X938110Y663171D01*
X937027Y660556D01*
X936657Y657750D01*
Y650250D01*
X937027Y647444D01*
X938110Y644829D01*
X939833Y642583D01*
X942079Y640860D01*
X944694Y639777D01*
X947500Y639407D01*
X950306Y639777D01*
X952921Y640860D01*
X955167Y642583D01*
X956890Y644829D01*
X957973Y647444D01*
X958343Y650250D01*
Y657750D01*
X957973Y660556D01*
X956890Y663171D01*
X955167Y665417D01*
X952921Y667140D01*
X950306Y668223D01*
X947500Y668593D01*
D02*
G37*
G36*
X560000D02*
X557194Y668223D01*
X554579Y667140D01*
X552333Y665417D01*
X550610Y663171D01*
X549527Y660556D01*
X549157Y657750D01*
Y650250D01*
X549527Y647444D01*
X550610Y644829D01*
X552333Y642583D01*
X554579Y640860D01*
X557194Y639777D01*
X560000Y639407D01*
X562806Y639777D01*
X565421Y640860D01*
X567667Y642583D01*
X569390Y644829D01*
X570473Y647444D01*
X570843Y650250D01*
Y657750D01*
X570473Y660556D01*
X569390Y663171D01*
X567667Y665417D01*
X565421Y667140D01*
X562806Y668223D01*
X560000Y668593D01*
D02*
G37*
G36*
X535000D02*
X532194Y668223D01*
X529579Y667140D01*
X527333Y665417D01*
X525610Y663171D01*
X524527Y660556D01*
X524157Y657750D01*
Y650250D01*
X524527Y647444D01*
X525610Y644829D01*
X527333Y642583D01*
X529579Y640860D01*
X532194Y639777D01*
X535000Y639407D01*
X537806Y639777D01*
X540421Y640860D01*
X542667Y642583D01*
X544390Y644829D01*
X545473Y647444D01*
X545843Y650250D01*
Y657750D01*
X545473Y660556D01*
X544390Y663171D01*
X542667Y665417D01*
X540421Y667140D01*
X537806Y668223D01*
X535000Y668593D01*
D02*
G37*
G36*
X447500D02*
X444694Y668223D01*
X442079Y667140D01*
X439833Y665417D01*
X438110Y663171D01*
X437027Y660556D01*
X436657Y657750D01*
Y650250D01*
X437027Y647444D01*
X438110Y644829D01*
X439833Y642583D01*
X442079Y640860D01*
X444694Y639777D01*
X447500Y639407D01*
X450306Y639777D01*
X452921Y640860D01*
X455167Y642583D01*
X456890Y644829D01*
X457973Y647444D01*
X458343Y650250D01*
Y657750D01*
X457973Y660556D01*
X456890Y663171D01*
X455167Y665417D01*
X452921Y667140D01*
X450306Y668223D01*
X447500Y668593D01*
D02*
G37*
G36*
X422500D02*
X419694Y668223D01*
X417079Y667140D01*
X414833Y665417D01*
X413110Y663171D01*
X412027Y660556D01*
X411657Y657750D01*
Y650250D01*
X412027Y647444D01*
X413110Y644829D01*
X414833Y642583D01*
X417079Y640860D01*
X419694Y639777D01*
X422500Y639407D01*
X425306Y639777D01*
X427921Y640860D01*
X430167Y642583D01*
X431890Y644829D01*
X432973Y647444D01*
X433343Y650250D01*
Y657750D01*
X432973Y660556D01*
X431890Y663171D01*
X430167Y665417D01*
X427921Y667140D01*
X425306Y668223D01*
X422500Y668593D01*
D02*
G37*
G36*
X397500D02*
X394694Y668223D01*
X392079Y667140D01*
X389833Y665417D01*
X388110Y663171D01*
X387027Y660556D01*
X386657Y657750D01*
Y650250D01*
X387027Y647444D01*
X388110Y644829D01*
X389833Y642583D01*
X392079Y640860D01*
X394694Y639777D01*
X397500Y639407D01*
X400306Y639777D01*
X402921Y640860D01*
X405167Y642583D01*
X406890Y644829D01*
X407973Y647444D01*
X408343Y650250D01*
Y657750D01*
X407973Y660556D01*
X406890Y663171D01*
X405167Y665417D01*
X402921Y667140D01*
X400306Y668223D01*
X397500Y668593D01*
D02*
G37*
G36*
X372500D02*
X369694Y668223D01*
X367079Y667140D01*
X364833Y665417D01*
X363110Y663171D01*
X362027Y660556D01*
X361657Y657750D01*
Y650250D01*
X362027Y647444D01*
X363110Y644829D01*
X364833Y642583D01*
X367079Y640860D01*
X369694Y639777D01*
X372500Y639407D01*
X375306Y639777D01*
X377921Y640860D01*
X380167Y642583D01*
X381890Y644829D01*
X382973Y647444D01*
X383343Y650250D01*
Y657750D01*
X382973Y660556D01*
X381890Y663171D01*
X380167Y665417D01*
X377921Y667140D01*
X375306Y668223D01*
X372500Y668593D01*
D02*
G37*
G36*
X347500D02*
X344694Y668223D01*
X342079Y667140D01*
X339833Y665417D01*
X338110Y663171D01*
X337027Y660556D01*
X336657Y657750D01*
Y650250D01*
X337027Y647444D01*
X338110Y644829D01*
X339833Y642583D01*
X342079Y640860D01*
X344694Y639777D01*
X347500Y639407D01*
X350306Y639777D01*
X352921Y640860D01*
X355167Y642583D01*
X356890Y644829D01*
X357973Y647444D01*
X358343Y650250D01*
Y657750D01*
X357973Y660556D01*
X356890Y663171D01*
X355167Y665417D01*
X352921Y667140D01*
X350306Y668223D01*
X347500Y668593D01*
D02*
G37*
G36*
X322500D02*
X319694Y668223D01*
X317079Y667140D01*
X314833Y665417D01*
X313110Y663171D01*
X312027Y660556D01*
X311657Y657750D01*
Y650250D01*
X312027Y647444D01*
X313110Y644829D01*
X314833Y642583D01*
X317079Y640860D01*
X319694Y639777D01*
X322500Y639407D01*
X325306Y639777D01*
X327921Y640860D01*
X330167Y642583D01*
X331890Y644829D01*
X332973Y647444D01*
X333343Y650250D01*
Y657750D01*
X332973Y660556D01*
X331890Y663171D01*
X330167Y665417D01*
X327921Y667140D01*
X325306Y668223D01*
X322500Y668593D01*
D02*
G37*
G36*
X297500D02*
X294694Y668223D01*
X292079Y667140D01*
X289833Y665417D01*
X288110Y663171D01*
X287027Y660556D01*
X286657Y657750D01*
Y650250D01*
X287027Y647444D01*
X288110Y644829D01*
X289833Y642583D01*
X292079Y640860D01*
X294694Y639777D01*
X297500Y639407D01*
X300306Y639777D01*
X302921Y640860D01*
X305167Y642583D01*
X306890Y644829D01*
X307973Y647444D01*
X308343Y650250D01*
Y657750D01*
X307973Y660556D01*
X306890Y663171D01*
X305167Y665417D01*
X302921Y667140D01*
X300306Y668223D01*
X297500Y668593D01*
D02*
G37*
G36*
X207500D02*
X204694Y668223D01*
X202079Y667140D01*
X199833Y665417D01*
X198110Y663171D01*
X197027Y660556D01*
X196657Y657750D01*
Y650250D01*
X197027Y647444D01*
X198110Y644829D01*
X199833Y642583D01*
X202079Y640860D01*
X204694Y639777D01*
X207500Y639407D01*
X210306Y639777D01*
X212921Y640860D01*
X215167Y642583D01*
X216890Y644829D01*
X217973Y647444D01*
X218343Y650250D01*
Y657750D01*
X217973Y660556D01*
X216890Y663171D01*
X215167Y665417D01*
X212921Y667140D01*
X210306Y668223D01*
X207500Y668593D01*
D02*
G37*
G36*
X182500D02*
X179694Y668223D01*
X177079Y667140D01*
X174833Y665417D01*
X173110Y663171D01*
X172027Y660556D01*
X171657Y657750D01*
Y650250D01*
X172027Y647444D01*
X173110Y644829D01*
X174833Y642583D01*
X177079Y640860D01*
X179694Y639777D01*
X182500Y639407D01*
X185306Y639777D01*
X187921Y640860D01*
X190167Y642583D01*
X191890Y644829D01*
X192973Y647444D01*
X193343Y650250D01*
Y657750D01*
X192973Y660556D01*
X191890Y663171D01*
X190167Y665417D01*
X187921Y667140D01*
X185306Y668223D01*
X182500Y668593D01*
D02*
G37*
G36*
X157500D02*
X154694Y668223D01*
X152079Y667140D01*
X149833Y665417D01*
X148110Y663171D01*
X147027Y660556D01*
X146657Y657750D01*
Y650250D01*
X147027Y647444D01*
X148110Y644829D01*
X149833Y642583D01*
X152079Y640860D01*
X154694Y639777D01*
X157500Y639407D01*
X160306Y639777D01*
X162921Y640860D01*
X165167Y642583D01*
X166890Y644829D01*
X167973Y647444D01*
X168343Y650250D01*
Y657750D01*
X167973Y660556D01*
X166890Y663171D01*
X165167Y665417D01*
X162921Y667140D01*
X160306Y668223D01*
X157500Y668593D01*
D02*
G37*
G36*
X764604Y645000D02*
X755000D01*
Y630726D01*
X755633Y630809D01*
X758552Y632018D01*
X761059Y633941D01*
X762982Y636448D01*
X764191Y639367D01*
X764604Y642500D01*
Y645000D01*
D02*
G37*
G36*
X727100Y664604D02*
X723967Y664191D01*
X721048Y662982D01*
X718541Y661059D01*
X716618Y658552D01*
X715409Y655633D01*
X714996Y652500D01*
Y642500D01*
X715409Y639367D01*
X716618Y636448D01*
X718541Y633941D01*
X721048Y632018D01*
X723967Y630809D01*
X727100Y630396D01*
X730233Y630809D01*
X733152Y632018D01*
X735658Y633941D01*
X737582Y636448D01*
X738791Y639367D01*
X739159Y642166D01*
X740441D01*
X740809Y639367D01*
X742018Y636448D01*
X743941Y633941D01*
X746448Y632018D01*
X749367Y630809D01*
X750000Y630726D01*
Y647500D01*
Y664274D01*
X749367Y664191D01*
X746448Y662982D01*
X743941Y661059D01*
X742018Y658552D01*
X740809Y655633D01*
X740441Y652834D01*
X739159D01*
X738791Y655633D01*
X737582Y658552D01*
X735658Y661059D01*
X733152Y662982D01*
X730233Y664191D01*
X727100Y664604D01*
D02*
G37*
G36*
X119804Y645000D02*
X110200D01*
Y630726D01*
X110833Y630809D01*
X113752Y632018D01*
X116258Y633941D01*
X118182Y636448D01*
X119391Y639367D01*
X119804Y642500D01*
Y645000D01*
D02*
G37*
G36*
X82300Y664604D02*
X79167Y664191D01*
X76248Y662982D01*
X73741Y661059D01*
X71818Y658552D01*
X70609Y655633D01*
X70196Y652500D01*
Y642500D01*
X70609Y639367D01*
X71818Y636448D01*
X73741Y633941D01*
X76248Y632018D01*
X79167Y630809D01*
X82300Y630396D01*
X85433Y630809D01*
X88352Y632018D01*
X90858Y633941D01*
X92782Y636448D01*
X93991Y639367D01*
X94360Y642166D01*
X95640D01*
X96009Y639367D01*
X97218Y636448D01*
X99142Y633941D01*
X101648Y632018D01*
X104567Y630809D01*
X105200Y630726D01*
Y647500D01*
Y664274D01*
X104567Y664191D01*
X101648Y662982D01*
X99142Y661059D01*
X97218Y658552D01*
X96009Y655633D01*
X95640Y652834D01*
X94360D01*
X93991Y655633D01*
X92782Y658552D01*
X90858Y661059D01*
X88352Y662982D01*
X85433Y664191D01*
X82300Y664604D01*
D02*
G37*
G36*
X561317Y581500D02*
X558684D01*
X556140Y580818D01*
X553860Y579502D01*
X551998Y577640D01*
X550681Y575360D01*
X550000Y572817D01*
Y570183D01*
X550681Y567640D01*
X551998Y565360D01*
X553860Y563498D01*
X556140Y562182D01*
X558684Y561500D01*
X561317D01*
X563860Y562182D01*
X566140Y563498D01*
X568002Y565360D01*
X569319Y567640D01*
X570000Y570183D01*
Y572817D01*
X569319Y575360D01*
X568002Y577640D01*
X566140Y579502D01*
X563860Y580818D01*
X561317Y581500D01*
D02*
G37*
G36*
X38750Y529843D02*
X37500D01*
Y521500D01*
X49264D01*
X49223Y521806D01*
X48140Y524421D01*
X46417Y526667D01*
X44171Y528390D01*
X41556Y529473D01*
X38750Y529843D01*
D02*
G37*
G36*
X32500D02*
X31250D01*
X28444Y529473D01*
X25829Y528390D01*
X23583Y526667D01*
X21860Y524421D01*
X20777Y521806D01*
X20736Y521500D01*
X32500D01*
Y529843D01*
D02*
G37*
G36*
X49264Y516500D02*
X37500D01*
Y508157D01*
X38750D01*
X41556Y508527D01*
X44171Y509610D01*
X46417Y511333D01*
X48140Y513579D01*
X49223Y516194D01*
X49264Y516500D01*
D02*
G37*
G36*
X32500D02*
X20736D01*
X20777Y516194D01*
X21860Y513579D01*
X23583Y511333D01*
X25829Y509610D01*
X28444Y508527D01*
X31250Y508157D01*
X32500D01*
Y516500D01*
D02*
G37*
G36*
X38750Y504843D02*
X31250D01*
X28444Y504473D01*
X25829Y503390D01*
X23583Y501667D01*
X21860Y499421D01*
X20777Y496806D01*
X20407Y494000D01*
X20777Y491194D01*
X21860Y488579D01*
X23583Y486333D01*
X25829Y484610D01*
X28444Y483527D01*
X31250Y483157D01*
X38750D01*
X41556Y483527D01*
X44171Y484610D01*
X46417Y486333D01*
X48140Y488579D01*
X49223Y491194D01*
X49593Y494000D01*
X49223Y496806D01*
X48140Y499421D01*
X46417Y501667D01*
X44171Y503390D01*
X41556Y504473D01*
X38750Y504843D01*
D02*
G37*
G36*
X328817Y484000D02*
X326184D01*
X323640Y483318D01*
X321360Y482002D01*
X319498Y480140D01*
X318181Y477860D01*
X317500Y475317D01*
Y472683D01*
X318181Y470140D01*
X319498Y467860D01*
X321360Y465998D01*
X323640Y464682D01*
X326184Y464000D01*
X328817D01*
X331360Y464682D01*
X333640Y465998D01*
X335502Y467860D01*
X336819Y470140D01*
X337500Y472683D01*
Y475317D01*
X336819Y477860D01*
X335502Y480140D01*
X333640Y482002D01*
X331360Y483318D01*
X328817Y484000D01*
D02*
G37*
G36*
X498900Y466347D02*
Y458646D01*
X506600D01*
X506184Y460199D01*
X504802Y462593D01*
X502847Y464548D01*
X500453Y465930D01*
X498900Y466347D01*
D02*
G37*
G36*
X493900Y466347D02*
X492347Y465930D01*
X489953Y464548D01*
X487998Y462593D01*
X486616Y460199D01*
X486199Y458646D01*
X493900D01*
Y466347D01*
D02*
G37*
G36*
X38750Y479843D02*
X31250D01*
X28444Y479473D01*
X25829Y478390D01*
X23583Y476667D01*
X21860Y474421D01*
X20777Y471806D01*
X20407Y469000D01*
X20777Y466194D01*
X21860Y463579D01*
X23583Y461333D01*
X25829Y459610D01*
X28444Y458527D01*
X31250Y458157D01*
X38750D01*
X41556Y458527D01*
X44171Y459610D01*
X46417Y461333D01*
X48140Y463579D01*
X49223Y466194D01*
X49593Y469000D01*
X49223Y471806D01*
X48140Y474421D01*
X46417Y476667D01*
X44171Y478390D01*
X41556Y479473D01*
X38750Y479843D01*
D02*
G37*
G36*
X506600Y453646D02*
X498900D01*
Y445946D01*
X500453Y446362D01*
X502847Y447744D01*
X504802Y449699D01*
X506184Y452093D01*
X506600Y453646D01*
D02*
G37*
G36*
X493900D02*
X486199D01*
X486616Y452093D01*
X487998Y449699D01*
X489953Y447744D01*
X492347Y446362D01*
X493900Y445946D01*
Y453646D01*
D02*
G37*
G36*
X964100Y466646D02*
X943100D01*
Y445646D01*
X964100D01*
Y466646D01*
D02*
G37*
G36*
X929582D02*
X926818D01*
X924147Y465930D01*
X921753Y464548D01*
X919798Y462593D01*
X918416Y460199D01*
X917700Y457528D01*
Y454764D01*
X918416Y452093D01*
X919798Y449699D01*
X921753Y447744D01*
X924147Y446362D01*
X926818Y445646D01*
X929582D01*
X932253Y446362D01*
X934647Y447744D01*
X936602Y449699D01*
X937984Y452093D01*
X938700Y454764D01*
Y457528D01*
X937984Y460199D01*
X936602Y462593D01*
X934647Y464548D01*
X932253Y465930D01*
X929582Y466646D01*
D02*
G37*
G36*
X904182D02*
X901418D01*
X898747Y465930D01*
X896353Y464548D01*
X894398Y462593D01*
X893016Y460199D01*
X892300Y457528D01*
Y454764D01*
X893016Y452093D01*
X894398Y449699D01*
X896353Y447744D01*
X898747Y446362D01*
X901418Y445646D01*
X904182D01*
X906853Y446362D01*
X909247Y447744D01*
X911202Y449699D01*
X912584Y452093D01*
X913300Y454764D01*
Y457528D01*
X912584Y460199D01*
X911202Y462593D01*
X909247Y464548D01*
X906853Y465930D01*
X904182Y466646D01*
D02*
G37*
G36*
X878782D02*
X876018D01*
X873347Y465930D01*
X870953Y464548D01*
X868998Y462593D01*
X867616Y460199D01*
X866900Y457528D01*
Y454764D01*
X867616Y452093D01*
X868998Y449699D01*
X870953Y447744D01*
X873347Y446362D01*
X876018Y445646D01*
X878782D01*
X881453Y446362D01*
X883847Y447744D01*
X885802Y449699D01*
X887184Y452093D01*
X887900Y454764D01*
Y457528D01*
X887184Y460199D01*
X885802Y462593D01*
X883847Y464548D01*
X881453Y465930D01*
X878782Y466646D01*
D02*
G37*
G36*
X853382D02*
X850618D01*
X847947Y465930D01*
X845553Y464548D01*
X843598Y462593D01*
X842216Y460199D01*
X841500Y457528D01*
Y454764D01*
X842216Y452093D01*
X843598Y449699D01*
X845553Y447744D01*
X847947Y446362D01*
X850618Y445646D01*
X853382D01*
X856053Y446362D01*
X858447Y447744D01*
X860402Y449699D01*
X861784Y452093D01*
X862500Y454764D01*
Y457528D01*
X861784Y460199D01*
X860402Y462593D01*
X858447Y464548D01*
X856053Y465930D01*
X853382Y466646D01*
D02*
G37*
G36*
X827982D02*
X825218D01*
X822547Y465930D01*
X820153Y464548D01*
X818198Y462593D01*
X816816Y460199D01*
X816100Y457528D01*
Y454764D01*
X816816Y452093D01*
X818198Y449699D01*
X820153Y447744D01*
X822547Y446362D01*
X825218Y445646D01*
X827982D01*
X830653Y446362D01*
X833047Y447744D01*
X835002Y449699D01*
X836384Y452093D01*
X837100Y454764D01*
Y457528D01*
X836384Y460199D01*
X835002Y462593D01*
X833047Y464548D01*
X830653Y465930D01*
X827982Y466646D01*
D02*
G37*
G36*
X802582D02*
X799818D01*
X797147Y465930D01*
X794753Y464548D01*
X792798Y462593D01*
X791416Y460199D01*
X790700Y457528D01*
Y454764D01*
X791416Y452093D01*
X792798Y449699D01*
X794753Y447744D01*
X797147Y446362D01*
X799818Y445646D01*
X802582D01*
X805253Y446362D01*
X807647Y447744D01*
X809602Y449699D01*
X810984Y452093D01*
X811700Y454764D01*
Y457528D01*
X810984Y460199D01*
X809602Y462593D01*
X807647Y464548D01*
X805253Y465930D01*
X802582Y466646D01*
D02*
G37*
G36*
X777182D02*
X774418D01*
X771747Y465930D01*
X769353Y464548D01*
X767398Y462593D01*
X766016Y460199D01*
X765300Y457528D01*
Y454764D01*
X766016Y452093D01*
X767398Y449699D01*
X769353Y447744D01*
X771747Y446362D01*
X774418Y445646D01*
X777182D01*
X779853Y446362D01*
X782247Y447744D01*
X784202Y449699D01*
X785584Y452093D01*
X786300Y454764D01*
Y457528D01*
X785584Y460199D01*
X784202Y462593D01*
X782247Y464548D01*
X779853Y465930D01*
X777182Y466646D01*
D02*
G37*
G36*
X751782D02*
X749018D01*
X746347Y465930D01*
X743953Y464548D01*
X741998Y462593D01*
X740616Y460199D01*
X739900Y457528D01*
Y454764D01*
X740616Y452093D01*
X741998Y449699D01*
X743953Y447744D01*
X746347Y446362D01*
X749018Y445646D01*
X751782D01*
X754453Y446362D01*
X756847Y447744D01*
X758802Y449699D01*
X760184Y452093D01*
X760900Y454764D01*
Y457528D01*
X760184Y460199D01*
X758802Y462593D01*
X756847Y464548D01*
X754453Y465930D01*
X751782Y466646D01*
D02*
G37*
G36*
X726382D02*
X723618D01*
X720947Y465930D01*
X718553Y464548D01*
X716598Y462593D01*
X715216Y460199D01*
X714500Y457528D01*
Y454764D01*
X715216Y452093D01*
X716598Y449699D01*
X718553Y447744D01*
X720947Y446362D01*
X723618Y445646D01*
X726382D01*
X729053Y446362D01*
X731447Y447744D01*
X733402Y449699D01*
X734784Y452093D01*
X735500Y454764D01*
Y457528D01*
X734784Y460199D01*
X733402Y462593D01*
X731447Y464548D01*
X729053Y465930D01*
X726382Y466646D01*
D02*
G37*
G36*
X700982D02*
X698218D01*
X695547Y465930D01*
X693153Y464548D01*
X691198Y462593D01*
X689816Y460199D01*
X689100Y457528D01*
Y454764D01*
X689816Y452093D01*
X691198Y449699D01*
X693153Y447744D01*
X695547Y446362D01*
X698218Y445646D01*
X700982D01*
X703653Y446362D01*
X706047Y447744D01*
X708002Y449699D01*
X709384Y452093D01*
X710100Y454764D01*
Y457528D01*
X709384Y460199D01*
X708002Y462593D01*
X706047Y464548D01*
X703653Y465930D01*
X700982Y466646D01*
D02*
G37*
G36*
X675582D02*
X672818D01*
X670147Y465930D01*
X667753Y464548D01*
X665798Y462593D01*
X664416Y460199D01*
X663700Y457528D01*
Y454764D01*
X664416Y452093D01*
X665798Y449699D01*
X667753Y447744D01*
X670147Y446362D01*
X672818Y445646D01*
X675582D01*
X678253Y446362D01*
X680647Y447744D01*
X682602Y449699D01*
X683984Y452093D01*
X684700Y454764D01*
Y457528D01*
X683984Y460199D01*
X682602Y462593D01*
X680647Y464548D01*
X678253Y465930D01*
X675582Y466646D01*
D02*
G37*
G36*
X650182D02*
X647418D01*
X644747Y465930D01*
X642353Y464548D01*
X640398Y462593D01*
X639016Y460199D01*
X638300Y457528D01*
Y454764D01*
X639016Y452093D01*
X640398Y449699D01*
X642353Y447744D01*
X644747Y446362D01*
X647418Y445646D01*
X650182D01*
X652853Y446362D01*
X655247Y447744D01*
X657202Y449699D01*
X658584Y452093D01*
X659300Y454764D01*
Y457528D01*
X658584Y460199D01*
X657202Y462593D01*
X655247Y464548D01*
X652853Y465930D01*
X650182Y466646D01*
D02*
G37*
G36*
X624782D02*
X622018D01*
X619347Y465930D01*
X616953Y464548D01*
X614998Y462593D01*
X613616Y460199D01*
X612900Y457528D01*
Y454764D01*
X613616Y452093D01*
X614998Y449699D01*
X616953Y447744D01*
X619347Y446362D01*
X622018Y445646D01*
X624782D01*
X627453Y446362D01*
X629847Y447744D01*
X631802Y449699D01*
X633184Y452093D01*
X633900Y454764D01*
Y457528D01*
X633184Y460199D01*
X631802Y462593D01*
X629847Y464548D01*
X627453Y465930D01*
X624782Y466646D01*
D02*
G37*
G36*
X599382D02*
X596618D01*
X593947Y465930D01*
X591553Y464548D01*
X589598Y462593D01*
X588216Y460199D01*
X587500Y457528D01*
Y454764D01*
X588216Y452093D01*
X589598Y449699D01*
X591553Y447744D01*
X593947Y446362D01*
X596618Y445646D01*
X599382D01*
X602053Y446362D01*
X604447Y447744D01*
X606402Y449699D01*
X607784Y452093D01*
X608500Y454764D01*
Y457528D01*
X607784Y460199D01*
X606402Y462593D01*
X604447Y464548D01*
X602053Y465930D01*
X599382Y466646D01*
D02*
G37*
G36*
X573982D02*
X571218D01*
X568547Y465930D01*
X566153Y464548D01*
X564198Y462593D01*
X562816Y460199D01*
X562100Y457528D01*
Y454764D01*
X562816Y452093D01*
X564198Y449699D01*
X566153Y447744D01*
X568547Y446362D01*
X571218Y445646D01*
X573982D01*
X576653Y446362D01*
X579047Y447744D01*
X581002Y449699D01*
X582384Y452093D01*
X583100Y454764D01*
Y457528D01*
X582384Y460199D01*
X581002Y462593D01*
X579047Y464548D01*
X576653Y465930D01*
X573982Y466646D01*
D02*
G37*
G36*
X548582D02*
X545818D01*
X543147Y465930D01*
X540753Y464548D01*
X538798Y462593D01*
X537416Y460199D01*
X536700Y457528D01*
Y454764D01*
X537416Y452093D01*
X538798Y449699D01*
X540753Y447744D01*
X543147Y446362D01*
X545818Y445646D01*
X548582D01*
X551253Y446362D01*
X553647Y447744D01*
X555602Y449699D01*
X556984Y452093D01*
X557700Y454764D01*
Y457528D01*
X556984Y460199D01*
X555602Y462593D01*
X553647Y464548D01*
X551253Y465930D01*
X548582Y466646D01*
D02*
G37*
G36*
X523182D02*
X520418D01*
X517747Y465930D01*
X515353Y464548D01*
X513398Y462593D01*
X512016Y460199D01*
X511300Y457528D01*
Y454764D01*
X512016Y452093D01*
X513398Y449699D01*
X515353Y447744D01*
X517747Y446362D01*
X520418Y445646D01*
X523182D01*
X525853Y446362D01*
X528247Y447744D01*
X530202Y449699D01*
X531584Y452093D01*
X532300Y454764D01*
Y457528D01*
X531584Y460199D01*
X530202Y462593D01*
X528247Y464548D01*
X525853Y465930D01*
X523182Y466646D01*
D02*
G37*
G36*
X472382D02*
X469618D01*
X466947Y465930D01*
X464553Y464548D01*
X462598Y462593D01*
X461216Y460199D01*
X460500Y457528D01*
Y454764D01*
X461216Y452093D01*
X462598Y449699D01*
X464553Y447744D01*
X466947Y446362D01*
X469618Y445646D01*
X472382D01*
X475053Y446362D01*
X477447Y447744D01*
X479402Y449699D01*
X480784Y452093D01*
X481500Y454764D01*
Y457528D01*
X480784Y460199D01*
X479402Y462593D01*
X477447Y464548D01*
X475053Y465930D01*
X472382Y466646D01*
D02*
G37*
G36*
X1014103Y448713D02*
X1011470D01*
X1008927Y448032D01*
X1006647Y446715D01*
X1004785Y444853D01*
X1003468Y442573D01*
X1002787Y440029D01*
Y437397D01*
X1003468Y434853D01*
X1004785Y432573D01*
X1006647Y430711D01*
X1008927Y429394D01*
X1011470Y428713D01*
X1014103D01*
X1016647Y429394D01*
X1018927Y430711D01*
X1020789Y432573D01*
X1022105Y434853D01*
X1022787Y437397D01*
Y440029D01*
X1022105Y442573D01*
X1020789Y444853D01*
X1018927Y446715D01*
X1016647Y448032D01*
X1014103Y448713D01*
D02*
G37*
G36*
X38750Y417343D02*
X37500D01*
Y409000D01*
X49264D01*
X49223Y409306D01*
X48140Y411921D01*
X46417Y414167D01*
X44171Y415890D01*
X41556Y416973D01*
X38750Y417343D01*
D02*
G37*
G36*
X32500D02*
X31250D01*
X28444Y416973D01*
X25829Y415890D01*
X23583Y414167D01*
X21860Y411921D01*
X20777Y409306D01*
X20736Y409000D01*
X32500D01*
Y417343D01*
D02*
G37*
G36*
X49264Y404000D02*
X37500D01*
Y395657D01*
X38750D01*
X41556Y396027D01*
X44171Y397110D01*
X46417Y398833D01*
X48140Y401079D01*
X49223Y403694D01*
X49264Y404000D01*
D02*
G37*
G36*
X32500D02*
X20736D01*
X20777Y403694D01*
X21860Y401079D01*
X23583Y398833D01*
X25829Y397110D01*
X28444Y396027D01*
X31250Y395657D01*
X32500D01*
Y404000D01*
D02*
G37*
G36*
X38750Y392343D02*
X31250D01*
X28444Y391973D01*
X25829Y390890D01*
X23583Y389167D01*
X21860Y386921D01*
X20777Y384306D01*
X20407Y381500D01*
X20777Y378694D01*
X21860Y376079D01*
X23583Y373833D01*
X25829Y372110D01*
X28444Y371027D01*
X31250Y370657D01*
X38750D01*
X41556Y371027D01*
X44171Y372110D01*
X46417Y373833D01*
X48140Y376079D01*
X49223Y378694D01*
X49593Y381500D01*
X49223Y384306D01*
X48140Y386921D01*
X46417Y389167D01*
X44171Y390890D01*
X41556Y391973D01*
X38750Y392343D01*
D02*
G37*
G36*
X1015173Y375070D02*
X1012540D01*
X1009997Y374388D01*
X1007717Y373072D01*
X1005855Y371210D01*
X1004538Y368929D01*
X1003857Y366386D01*
Y363753D01*
X1004538Y361210D01*
X1005855Y358930D01*
X1007717Y357068D01*
X1009997Y355751D01*
X1012540Y355070D01*
X1015173D01*
X1017717Y355751D01*
X1019997Y357068D01*
X1021859Y358930D01*
X1023175Y361210D01*
X1023857Y363753D01*
Y366386D01*
X1023175Y368929D01*
X1021859Y371210D01*
X1019997Y373072D01*
X1017717Y374388D01*
X1015173Y375070D01*
D02*
G37*
G36*
X1093817Y372500D02*
X1091183D01*
X1088640Y371819D01*
X1086360Y370502D01*
X1084498Y368640D01*
X1083182Y366360D01*
X1082500Y363816D01*
Y361184D01*
X1083182Y358640D01*
X1084498Y356360D01*
X1086360Y354498D01*
X1088640Y353181D01*
X1091183Y352500D01*
X1093817D01*
X1096360Y353181D01*
X1098640Y354498D01*
X1100502Y356360D01*
X1101818Y358640D01*
X1102500Y361184D01*
Y363816D01*
X1101818Y366360D01*
X1100502Y368640D01*
X1098640Y370502D01*
X1096360Y371819D01*
X1093817Y372500D01*
D02*
G37*
G36*
X38750Y367343D02*
X31250D01*
X28444Y366973D01*
X25829Y365890D01*
X23583Y364167D01*
X21860Y361921D01*
X20777Y359306D01*
X20407Y356500D01*
X20777Y353694D01*
X21860Y351079D01*
X23583Y348833D01*
X25829Y347110D01*
X28444Y346027D01*
X31250Y345657D01*
X38750D01*
X41556Y346027D01*
X44171Y347110D01*
X46417Y348833D01*
X48140Y351079D01*
X49223Y353694D01*
X49593Y356500D01*
X49223Y359306D01*
X48140Y361921D01*
X46417Y364167D01*
X44171Y365890D01*
X41556Y366973D01*
X38750Y367343D01*
D02*
G37*
G36*
X930700Y314200D02*
Y306500D01*
X938400D01*
X937984Y308053D01*
X936602Y310447D01*
X934647Y312402D01*
X932253Y313784D01*
X930700Y314200D01*
D02*
G37*
G36*
X925700Y314200D02*
X924147Y313784D01*
X921753Y312402D01*
X919798Y310447D01*
X918416Y308053D01*
X917999Y306500D01*
X925700D01*
Y314200D01*
D02*
G37*
G36*
X1000317Y322506D02*
X997684D01*
X995140Y321824D01*
X992860Y320508D01*
X990998Y318646D01*
X989682Y316366D01*
X989000Y313822D01*
Y311189D01*
X989682Y308646D01*
X990998Y306366D01*
X992860Y304504D01*
X995140Y303187D01*
X997684Y302506D01*
X1000317D01*
X1002860Y303187D01*
X1005140Y304504D01*
X1006456Y305819D01*
X1007860Y304415D01*
X1010140Y303099D01*
X1012683Y302417D01*
X1015316D01*
X1017860Y303099D01*
X1020140Y304415D01*
X1022002Y306277D01*
X1023318Y308557D01*
X1024000Y311101D01*
Y313734D01*
X1023318Y316277D01*
X1022002Y318557D01*
X1020140Y320419D01*
X1017860Y321736D01*
X1015316Y322417D01*
X1012683D01*
X1010140Y321736D01*
X1007860Y320419D01*
X1006544Y319104D01*
X1005140Y320508D01*
X1002860Y321824D01*
X1000317Y322506D01*
D02*
G37*
G36*
X47500Y304804D02*
X45000D01*
Y295200D01*
X59275D01*
X59191Y295833D01*
X57982Y298752D01*
X56059Y301259D01*
X53552Y303182D01*
X50633Y304391D01*
X47500Y304804D01*
D02*
G37*
G36*
X40000D02*
X37500D01*
X34367Y304391D01*
X31448Y303182D01*
X28942Y301259D01*
X27018Y298752D01*
X25809Y295833D01*
X25726Y295200D01*
X40000D01*
Y304804D01*
D02*
G37*
G36*
X938400Y301500D02*
X930700D01*
Y293799D01*
X932253Y294216D01*
X934647Y295598D01*
X936602Y297553D01*
X937984Y299947D01*
X938400Y301500D01*
D02*
G37*
G36*
X925700D02*
X917999D01*
X918416Y299947D01*
X919798Y297553D01*
X921753Y295598D01*
X924147Y294216D01*
X925700Y293799D01*
Y301500D01*
D02*
G37*
G36*
X964100Y314500D02*
X943100D01*
Y293500D01*
X964100D01*
Y314500D01*
D02*
G37*
G36*
X904182D02*
X901418D01*
X898747Y313784D01*
X896353Y312402D01*
X894398Y310447D01*
X893016Y308053D01*
X892300Y305382D01*
Y302618D01*
X893016Y299947D01*
X894398Y297553D01*
X896353Y295598D01*
X898747Y294216D01*
X901418Y293500D01*
X904182D01*
X906853Y294216D01*
X909247Y295598D01*
X911202Y297553D01*
X912584Y299947D01*
X913300Y302618D01*
Y305382D01*
X912584Y308053D01*
X911202Y310447D01*
X909247Y312402D01*
X906853Y313784D01*
X904182Y314500D01*
D02*
G37*
G36*
X878782D02*
X876018D01*
X873347Y313784D01*
X870953Y312402D01*
X868998Y310447D01*
X867616Y308053D01*
X866900Y305382D01*
Y302618D01*
X867616Y299947D01*
X868998Y297553D01*
X870953Y295598D01*
X873347Y294216D01*
X876018Y293500D01*
X878782D01*
X881453Y294216D01*
X883847Y295598D01*
X885802Y297553D01*
X887184Y299947D01*
X887900Y302618D01*
Y305382D01*
X887184Y308053D01*
X885802Y310447D01*
X883847Y312402D01*
X881453Y313784D01*
X878782Y314500D01*
D02*
G37*
G36*
X853382D02*
X850618D01*
X847947Y313784D01*
X845553Y312402D01*
X843598Y310447D01*
X842216Y308053D01*
X841500Y305382D01*
Y302618D01*
X842216Y299947D01*
X843598Y297553D01*
X845553Y295598D01*
X847947Y294216D01*
X850618Y293500D01*
X853382D01*
X856053Y294216D01*
X858447Y295598D01*
X860402Y297553D01*
X861784Y299947D01*
X862500Y302618D01*
Y305382D01*
X861784Y308053D01*
X860402Y310447D01*
X858447Y312402D01*
X856053Y313784D01*
X853382Y314500D01*
D02*
G37*
G36*
X827982D02*
X825218D01*
X822547Y313784D01*
X820153Y312402D01*
X818198Y310447D01*
X816816Y308053D01*
X816100Y305382D01*
Y302618D01*
X816816Y299947D01*
X818198Y297553D01*
X820153Y295598D01*
X822547Y294216D01*
X825218Y293500D01*
X827982D01*
X830653Y294216D01*
X833047Y295598D01*
X835002Y297553D01*
X836384Y299947D01*
X837100Y302618D01*
Y305382D01*
X836384Y308053D01*
X835002Y310447D01*
X833047Y312402D01*
X830653Y313784D01*
X827982Y314500D01*
D02*
G37*
G36*
X802582D02*
X799818D01*
X797147Y313784D01*
X794753Y312402D01*
X792798Y310447D01*
X791416Y308053D01*
X790700Y305382D01*
Y302618D01*
X791416Y299947D01*
X792798Y297553D01*
X794753Y295598D01*
X797147Y294216D01*
X799818Y293500D01*
X802582D01*
X805253Y294216D01*
X807647Y295598D01*
X809602Y297553D01*
X810984Y299947D01*
X811700Y302618D01*
Y305382D01*
X810984Y308053D01*
X809602Y310447D01*
X807647Y312402D01*
X805253Y313784D01*
X802582Y314500D01*
D02*
G37*
G36*
X777182D02*
X774418D01*
X771747Y313784D01*
X769353Y312402D01*
X767398Y310447D01*
X766016Y308053D01*
X765300Y305382D01*
Y302618D01*
X766016Y299947D01*
X767398Y297553D01*
X769353Y295598D01*
X771747Y294216D01*
X774418Y293500D01*
X777182D01*
X779853Y294216D01*
X782247Y295598D01*
X784202Y297553D01*
X785584Y299947D01*
X786300Y302618D01*
Y305382D01*
X785584Y308053D01*
X784202Y310447D01*
X782247Y312402D01*
X779853Y313784D01*
X777182Y314500D01*
D02*
G37*
G36*
X751782D02*
X749018D01*
X746347Y313784D01*
X743953Y312402D01*
X741998Y310447D01*
X740616Y308053D01*
X739900Y305382D01*
Y302618D01*
X740616Y299947D01*
X741998Y297553D01*
X743953Y295598D01*
X746347Y294216D01*
X749018Y293500D01*
X751782D01*
X754453Y294216D01*
X756847Y295598D01*
X758802Y297553D01*
X760184Y299947D01*
X760900Y302618D01*
Y305382D01*
X760184Y308053D01*
X758802Y310447D01*
X756847Y312402D01*
X754453Y313784D01*
X751782Y314500D01*
D02*
G37*
G36*
X726382D02*
X723618D01*
X720947Y313784D01*
X718553Y312402D01*
X716598Y310447D01*
X715216Y308053D01*
X714500Y305382D01*
Y302618D01*
X715216Y299947D01*
X716598Y297553D01*
X718553Y295598D01*
X720947Y294216D01*
X723618Y293500D01*
X726382D01*
X729053Y294216D01*
X731447Y295598D01*
X733402Y297553D01*
X734784Y299947D01*
X735500Y302618D01*
Y305382D01*
X734784Y308053D01*
X733402Y310447D01*
X731447Y312402D01*
X729053Y313784D01*
X726382Y314500D01*
D02*
G37*
G36*
X700982D02*
X698218D01*
X695547Y313784D01*
X693153Y312402D01*
X691198Y310447D01*
X689816Y308053D01*
X689100Y305382D01*
Y302618D01*
X689816Y299947D01*
X691198Y297553D01*
X693153Y295598D01*
X695547Y294216D01*
X698218Y293500D01*
X700982D01*
X703653Y294216D01*
X706047Y295598D01*
X708002Y297553D01*
X709384Y299947D01*
X710100Y302618D01*
Y305382D01*
X709384Y308053D01*
X708002Y310447D01*
X706047Y312402D01*
X703653Y313784D01*
X700982Y314500D01*
D02*
G37*
G36*
X675582D02*
X672818D01*
X670147Y313784D01*
X667753Y312402D01*
X665798Y310447D01*
X664416Y308053D01*
X663700Y305382D01*
Y302618D01*
X664416Y299947D01*
X665798Y297553D01*
X667753Y295598D01*
X670147Y294216D01*
X672818Y293500D01*
X675582D01*
X678253Y294216D01*
X680647Y295598D01*
X682602Y297553D01*
X683984Y299947D01*
X684700Y302618D01*
Y305382D01*
X683984Y308053D01*
X682602Y310447D01*
X680647Y312402D01*
X678253Y313784D01*
X675582Y314500D01*
D02*
G37*
G36*
X650182D02*
X647418D01*
X644747Y313784D01*
X642353Y312402D01*
X640398Y310447D01*
X639016Y308053D01*
X638300Y305382D01*
Y302618D01*
X639016Y299947D01*
X640398Y297553D01*
X642353Y295598D01*
X644747Y294216D01*
X647418Y293500D01*
X650182D01*
X652853Y294216D01*
X655247Y295598D01*
X657202Y297553D01*
X658584Y299947D01*
X659300Y302618D01*
Y305382D01*
X658584Y308053D01*
X657202Y310447D01*
X655247Y312402D01*
X652853Y313784D01*
X650182Y314500D01*
D02*
G37*
G36*
X624782D02*
X622018D01*
X619347Y313784D01*
X616953Y312402D01*
X614998Y310447D01*
X613616Y308053D01*
X612900Y305382D01*
Y302618D01*
X613616Y299947D01*
X614998Y297553D01*
X616953Y295598D01*
X619347Y294216D01*
X622018Y293500D01*
X624782D01*
X627453Y294216D01*
X629847Y295598D01*
X631802Y297553D01*
X633184Y299947D01*
X633900Y302618D01*
Y305382D01*
X633184Y308053D01*
X631802Y310447D01*
X629847Y312402D01*
X627453Y313784D01*
X624782Y314500D01*
D02*
G37*
G36*
X599382D02*
X596618D01*
X593947Y313784D01*
X591553Y312402D01*
X589598Y310447D01*
X588216Y308053D01*
X587500Y305382D01*
Y302618D01*
X588216Y299947D01*
X589598Y297553D01*
X591553Y295598D01*
X593947Y294216D01*
X596618Y293500D01*
X599382D01*
X602053Y294216D01*
X604447Y295598D01*
X606402Y297553D01*
X607784Y299947D01*
X608500Y302618D01*
Y305382D01*
X607784Y308053D01*
X606402Y310447D01*
X604447Y312402D01*
X602053Y313784D01*
X599382Y314500D01*
D02*
G37*
G36*
X573982D02*
X571218D01*
X568547Y313784D01*
X566153Y312402D01*
X564198Y310447D01*
X562816Y308053D01*
X562100Y305382D01*
Y302618D01*
X562816Y299947D01*
X564198Y297553D01*
X566153Y295598D01*
X568547Y294216D01*
X571218Y293500D01*
X573982D01*
X576653Y294216D01*
X579047Y295598D01*
X581002Y297553D01*
X582384Y299947D01*
X583100Y302618D01*
Y305382D01*
X582384Y308053D01*
X581002Y310447D01*
X579047Y312402D01*
X576653Y313784D01*
X573982Y314500D01*
D02*
G37*
G36*
X548582D02*
X545818D01*
X543147Y313784D01*
X540753Y312402D01*
X538798Y310447D01*
X537416Y308053D01*
X536700Y305382D01*
Y302618D01*
X537416Y299947D01*
X538798Y297553D01*
X540753Y295598D01*
X543147Y294216D01*
X545818Y293500D01*
X548582D01*
X551253Y294216D01*
X553647Y295598D01*
X555602Y297553D01*
X556984Y299947D01*
X557700Y302618D01*
Y305382D01*
X556984Y308053D01*
X555602Y310447D01*
X553647Y312402D01*
X551253Y313784D01*
X548582Y314500D01*
D02*
G37*
G36*
X523182D02*
X520418D01*
X517747Y313784D01*
X515353Y312402D01*
X513398Y310447D01*
X512016Y308053D01*
X511300Y305382D01*
Y302618D01*
X512016Y299947D01*
X513398Y297553D01*
X515353Y295598D01*
X517747Y294216D01*
X520418Y293500D01*
X523182D01*
X525853Y294216D01*
X528247Y295598D01*
X530202Y297553D01*
X531584Y299947D01*
X532300Y302618D01*
Y305382D01*
X531584Y308053D01*
X530202Y310447D01*
X528247Y312402D01*
X525853Y313784D01*
X523182Y314500D01*
D02*
G37*
G36*
X497782D02*
X495018D01*
X492347Y313784D01*
X489953Y312402D01*
X487998Y310447D01*
X486616Y308053D01*
X485900Y305382D01*
Y302618D01*
X486616Y299947D01*
X487998Y297553D01*
X489953Y295598D01*
X492347Y294216D01*
X495018Y293500D01*
X497782D01*
X500453Y294216D01*
X502847Y295598D01*
X504802Y297553D01*
X506184Y299947D01*
X506900Y302618D01*
Y305382D01*
X506184Y308053D01*
X504802Y310447D01*
X502847Y312402D01*
X500453Y313784D01*
X497782Y314500D01*
D02*
G37*
G36*
X472382D02*
X469618D01*
X466947Y313784D01*
X464553Y312402D01*
X462598Y310447D01*
X461216Y308053D01*
X460500Y305382D01*
Y302618D01*
X461216Y299947D01*
X462598Y297553D01*
X464553Y295598D01*
X466947Y294216D01*
X469618Y293500D01*
X472382D01*
X475053Y294216D01*
X477447Y295598D01*
X479402Y297553D01*
X480784Y299947D01*
X481500Y302618D01*
Y305382D01*
X480784Y308053D01*
X479402Y310447D01*
X477447Y312402D01*
X475053Y313784D01*
X472382Y314500D01*
D02*
G37*
G36*
X59275Y290200D02*
X42500D01*
X25726D01*
X25809Y289567D01*
X27018Y286648D01*
X28942Y284142D01*
X31448Y282218D01*
X34367Y281009D01*
X37166Y280641D01*
Y279359D01*
X34367Y278991D01*
X31448Y277782D01*
X28942Y275858D01*
X27018Y273352D01*
X25809Y270433D01*
X25396Y267300D01*
X25809Y264167D01*
X27018Y261248D01*
X28942Y258741D01*
X31448Y256818D01*
X34367Y255609D01*
X37500Y255196D01*
X47500D01*
X50633Y255609D01*
X53552Y256818D01*
X56059Y258741D01*
X57982Y261248D01*
X59191Y264167D01*
X59604Y267300D01*
X59191Y270433D01*
X57982Y273352D01*
X56059Y275858D01*
X53552Y277782D01*
X50633Y278991D01*
X47835Y279359D01*
Y280641D01*
X50633Y281009D01*
X53552Y282218D01*
X56059Y284142D01*
X57982Y286648D01*
X59191Y289567D01*
X59275Y290200D01*
D02*
G37*
G36*
X1101317Y269000D02*
X1098683D01*
X1096140Y268319D01*
X1093860Y267002D01*
X1091998Y265140D01*
X1090682Y262860D01*
X1090000Y260317D01*
Y257684D01*
X1090682Y255140D01*
X1091998Y252860D01*
X1093860Y250998D01*
X1094056Y250885D01*
Y249615D01*
X1093860Y249502D01*
X1091998Y247640D01*
X1090682Y245360D01*
X1090000Y242817D01*
Y240184D01*
X1090682Y237640D01*
X1091998Y235360D01*
X1093860Y233498D01*
X1096140Y232181D01*
X1098683Y231500D01*
X1101317D01*
X1103860Y232181D01*
X1106140Y233498D01*
X1108002Y235360D01*
X1109318Y237640D01*
X1110000Y240184D01*
Y242817D01*
X1109318Y245360D01*
X1108002Y247640D01*
X1106140Y249502D01*
X1105944Y249615D01*
Y250885D01*
X1106140Y250998D01*
X1108002Y252860D01*
X1109318Y255140D01*
X1110000Y257684D01*
Y260317D01*
X1109318Y262860D01*
X1108002Y265140D01*
X1106140Y267002D01*
X1103860Y268319D01*
X1101317Y269000D01*
D02*
G37*
G36*
X1078817D02*
X1076183D01*
X1073640Y268319D01*
X1071360Y267002D01*
X1069498Y265140D01*
X1068182Y262860D01*
X1067500Y260317D01*
Y257684D01*
X1068182Y255140D01*
X1069498Y252860D01*
X1071360Y250998D01*
X1071556Y250885D01*
Y249615D01*
X1071360Y249502D01*
X1069498Y247640D01*
X1068182Y245360D01*
X1067500Y242817D01*
Y240184D01*
X1068182Y237640D01*
X1069498Y235360D01*
X1071360Y233498D01*
X1073640Y232181D01*
X1076183Y231500D01*
X1078817D01*
X1081360Y232181D01*
X1083640Y233498D01*
X1085502Y235360D01*
X1086818Y237640D01*
X1087500Y240184D01*
Y242817D01*
X1086818Y245360D01*
X1085502Y247640D01*
X1083640Y249502D01*
X1083444Y249615D01*
Y250885D01*
X1083640Y250998D01*
X1085502Y252860D01*
X1086818Y255140D01*
X1087500Y257684D01*
Y260317D01*
X1086818Y262860D01*
X1085502Y265140D01*
X1083640Y267002D01*
X1081360Y268319D01*
X1078817Y269000D01*
D02*
G37*
G36*
X451316Y227500D02*
X448684D01*
X446140Y226819D01*
X443860Y225502D01*
X442500Y224142D01*
X441140Y225502D01*
X438860Y226819D01*
X436317Y227500D01*
X433684D01*
X431140Y226819D01*
X428860Y225502D01*
X426998Y223640D01*
X425681Y221360D01*
X425000Y218817D01*
Y216183D01*
X425681Y213640D01*
X426998Y211360D01*
X428358Y210000D01*
X426998Y208640D01*
X425681Y206360D01*
X425000Y203817D01*
Y201183D01*
X425681Y198640D01*
X426998Y196360D01*
X428358Y195000D01*
X426998Y193640D01*
X425681Y191360D01*
X425000Y188817D01*
Y186183D01*
X425681Y183640D01*
X426998Y181360D01*
X428358Y180000D01*
X426998Y178640D01*
X425681Y176360D01*
X425000Y173817D01*
Y171183D01*
X425681Y168640D01*
X426998Y166360D01*
X428860Y164498D01*
X431140Y163181D01*
X433684Y162500D01*
X436317D01*
X438860Y163181D01*
X441140Y164498D01*
X442500Y165858D01*
X443860Y164498D01*
X446140Y163181D01*
X448684Y162500D01*
X451316D01*
X453860Y163181D01*
X456140Y164498D01*
X458002Y166360D01*
X459319Y168640D01*
X460000Y171183D01*
Y173817D01*
X459319Y176360D01*
X458002Y178640D01*
X456642Y180000D01*
X458002Y181360D01*
X459319Y183640D01*
X460000Y186183D01*
Y188817D01*
X459319Y191360D01*
X458002Y193640D01*
X456642Y195000D01*
X458002Y196360D01*
X459319Y198640D01*
X460000Y201183D01*
Y203817D01*
X459319Y206360D01*
X458002Y208640D01*
X456642Y210000D01*
X458002Y211360D01*
X459319Y213640D01*
X460000Y216183D01*
Y218817D01*
X459319Y221360D01*
X458002Y223640D01*
X456140Y225502D01*
X453860Y226819D01*
X451316Y227500D01*
D02*
G37*
G36*
X236317Y241500D02*
X233683D01*
X231140Y240819D01*
X228860Y239502D01*
X226998Y237640D01*
X225681Y235360D01*
X225000Y232817D01*
Y230184D01*
X225681Y227640D01*
X226998Y225360D01*
X228860Y223498D01*
X231140Y222181D01*
X233683Y221500D01*
X236317D01*
X238860Y222181D01*
X241140Y223498D01*
X243002Y225360D01*
X244319Y227640D01*
X245000Y230184D01*
Y232817D01*
X244319Y235360D01*
X243002Y237640D01*
X241140Y239502D01*
X238860Y240819D01*
X236317Y241500D01*
D02*
G37*
G36*
X91317Y212500D02*
X88684D01*
X86140Y211819D01*
X83860Y210502D01*
X82500Y209142D01*
X81140Y210502D01*
X78860Y211819D01*
X76317Y212500D01*
X73684D01*
X71140Y211819D01*
X68860Y210502D01*
X67500Y209142D01*
X66140Y210502D01*
X63860Y211819D01*
X61317Y212500D01*
X58684D01*
X56140Y211819D01*
X53860Y210502D01*
X52500Y209142D01*
X51140Y210502D01*
X48860Y211819D01*
X46317Y212500D01*
X43684D01*
X41140Y211819D01*
X38860Y210502D01*
X36998Y208640D01*
X35682Y206360D01*
X35000Y203817D01*
Y201183D01*
X35682Y198640D01*
X36998Y196360D01*
X38358Y195000D01*
X36998Y193640D01*
X35682Y191360D01*
X35000Y188817D01*
Y186183D01*
X35682Y183640D01*
X36998Y181360D01*
X38860Y179498D01*
X41140Y178181D01*
X43684Y177500D01*
X46317D01*
X48860Y178181D01*
X51140Y179498D01*
X52500Y180858D01*
X53860Y179498D01*
X56140Y178181D01*
X58684Y177500D01*
X61317D01*
X63860Y178181D01*
X66140Y179498D01*
X67500Y180858D01*
X68860Y179498D01*
X71140Y178181D01*
X73684Y177500D01*
X76317D01*
X78860Y178181D01*
X81140Y179498D01*
X82500Y180858D01*
X83860Y179498D01*
X86140Y178181D01*
X88684Y177500D01*
X91317D01*
X93860Y178181D01*
X96140Y179498D01*
X98002Y181360D01*
X99319Y183640D01*
X100000Y186183D01*
Y188817D01*
X99319Y191360D01*
X98002Y193640D01*
X96642Y195000D01*
X98002Y196360D01*
X99319Y198640D01*
X100000Y201183D01*
Y203817D01*
X99319Y206360D01*
X98002Y208640D01*
X96140Y210502D01*
X93860Y211819D01*
X91317Y212500D01*
D02*
G37*
G36*
X793817Y166500D02*
X791183D01*
X788640Y165819D01*
X786360Y164502D01*
X784498Y162640D01*
X783182Y160360D01*
X783157Y160270D01*
X781843D01*
X781818Y160360D01*
X780502Y162640D01*
X778640Y164502D01*
X776360Y165819D01*
X773817Y166500D01*
X771183D01*
X768640Y165819D01*
X766360Y164502D01*
X764498Y162640D01*
X763182Y160360D01*
X763157Y160270D01*
X761843D01*
X761818Y160360D01*
X760502Y162640D01*
X758640Y164502D01*
X756360Y165819D01*
X753817Y166500D01*
X751183D01*
X748640Y165819D01*
X746360Y164502D01*
X744498Y162640D01*
X743182Y160360D01*
X742500Y157816D01*
Y155183D01*
X743182Y152640D01*
X744498Y150360D01*
X746360Y148498D01*
X748640Y147182D01*
X748730Y147157D01*
Y145843D01*
X748640Y145819D01*
X746360Y144502D01*
X744498Y142640D01*
X743182Y140360D01*
X742500Y137816D01*
Y135183D01*
X743182Y132640D01*
X744498Y130360D01*
X746360Y128498D01*
X748640Y127182D01*
X751183Y126500D01*
X753817D01*
X756360Y127182D01*
X758640Y128498D01*
X760502Y130360D01*
X761818Y132640D01*
X761843Y132730D01*
X763157D01*
X763182Y132640D01*
X764498Y130360D01*
X766360Y128498D01*
X768640Y127182D01*
X771183Y126500D01*
X773817D01*
X776360Y127182D01*
X778640Y128498D01*
X780502Y130360D01*
X781818Y132640D01*
X781843Y132730D01*
X783157D01*
X783182Y132640D01*
X784498Y130360D01*
X786360Y128498D01*
X788640Y127182D01*
X791183Y126500D01*
X793817D01*
X796360Y127182D01*
X798640Y128498D01*
X800502Y130360D01*
X801818Y132640D01*
X802500Y135183D01*
Y137816D01*
X801818Y140360D01*
X800502Y142640D01*
X798640Y144502D01*
X796360Y145819D01*
X796270Y145843D01*
Y147157D01*
X796360Y147182D01*
X798640Y148498D01*
X800502Y150360D01*
X801818Y152640D01*
X802500Y155183D01*
Y157816D01*
X801818Y160360D01*
X800502Y162640D01*
X798640Y164502D01*
X796360Y165819D01*
X793817Y166500D01*
D02*
G37*
G36*
X148816Y145000D02*
X146184D01*
X143640Y144319D01*
X141360Y143002D01*
X139498Y141140D01*
X138181Y138860D01*
X137500Y136316D01*
Y133684D01*
X138181Y131140D01*
X139498Y128860D01*
X141360Y126998D01*
X143640Y125681D01*
X146184Y125000D01*
X148816D01*
X151360Y125681D01*
X153640Y126998D01*
X155502Y128860D01*
X156819Y131140D01*
X157500Y133684D01*
Y136316D01*
X156819Y138860D01*
X155502Y141140D01*
X153640Y143002D01*
X151360Y144319D01*
X148816Y145000D01*
D02*
G37*
%LPD*%
D75*
X107700Y647500D02*
D03*
X82300D02*
D03*
X752500D02*
D03*
X727100D02*
D03*
D76*
X42500Y292700D02*
D03*
Y267300D02*
D03*
D77*
X1187500Y654000D02*
D03*
X1212500D02*
D03*
X1097500D02*
D03*
X997500D02*
D03*
X947500D02*
D03*
X972500D02*
D03*
X1022500D02*
D03*
X1047500D02*
D03*
X1072500D02*
D03*
X1122500D02*
D03*
X882500Y655000D02*
D03*
X832500D02*
D03*
X807500D02*
D03*
X857500D02*
D03*
X535000Y654000D02*
D03*
X560000D02*
D03*
X447500D02*
D03*
X347500D02*
D03*
X297500D02*
D03*
X322500D02*
D03*
X372500D02*
D03*
X397500D02*
D03*
X422500D02*
D03*
X472500D02*
D03*
X232500D02*
D03*
X182500D02*
D03*
X157500D02*
D03*
X207500D02*
D03*
D78*
X35000Y494000D02*
D03*
Y469000D02*
D03*
Y519000D02*
D03*
Y381500D02*
D03*
Y356500D02*
D03*
Y406500D02*
D03*
D79*
X1275000Y675000D02*
D03*
Y25000D02*
D03*
X25000D02*
D03*
Y675000D02*
D03*
D80*
X775800Y456146D02*
D03*
X471000D02*
D03*
X496400D02*
D03*
X521800D02*
D03*
X547200D02*
D03*
X572600D02*
D03*
X598000D02*
D03*
X623400D02*
D03*
X648800D02*
D03*
X674200D02*
D03*
X699600D02*
D03*
X725000D02*
D03*
X801200D02*
D03*
X826600D02*
D03*
X852000D02*
D03*
X877400D02*
D03*
X902800D02*
D03*
X928200D02*
D03*
X750400D02*
D03*
X471000Y304000D02*
D03*
X496400D02*
D03*
X521800D02*
D03*
X547200D02*
D03*
X572600D02*
D03*
X598000D02*
D03*
X623400D02*
D03*
X648800D02*
D03*
X674200D02*
D03*
X699600D02*
D03*
X725000D02*
D03*
X750400D02*
D03*
X775800D02*
D03*
X801200D02*
D03*
X826600D02*
D03*
X852000D02*
D03*
X877400D02*
D03*
X902800D02*
D03*
X928200D02*
D03*
D81*
X953600Y456146D02*
D03*
Y304000D02*
D03*
D82*
X353000Y525000D02*
D03*
X330500Y525000D02*
D03*
X671250Y539000D02*
D03*
X633750D02*
D03*
X632500Y557500D02*
D03*
X805000Y210000D02*
D03*
X1007500Y522500D02*
D03*
X1045000Y525000D02*
D03*
X667500Y557500D02*
D03*
X350000Y262500D02*
D03*
X375000D02*
D03*
X397500D02*
D03*
X292500Y505000D02*
D03*
X1276001Y647501D02*
D03*
X1266001Y627501D02*
D03*
X1276001Y607501D02*
D03*
X1246001Y667501D02*
D03*
X1256001Y647501D02*
D03*
X1246001Y627501D02*
D03*
X1256001Y607501D02*
D03*
X1246001Y547501D02*
D03*
X1256001Y47500D02*
D03*
X1246001Y27500D02*
D03*
X1226001Y667501D02*
D03*
X1236001Y647501D02*
D03*
X1226001Y587501D02*
D03*
X1236001Y567501D02*
D03*
Y527501D02*
D03*
Y447501D02*
D03*
Y407500D02*
D03*
Y367500D02*
D03*
Y327500D02*
D03*
Y287500D02*
D03*
Y247500D02*
D03*
Y207500D02*
D03*
Y167500D02*
D03*
Y127500D02*
D03*
X1226001Y107500D02*
D03*
Y67500D02*
D03*
X1216001Y607501D02*
D03*
X1206001Y587501D02*
D03*
Y427500D02*
D03*
Y387500D02*
D03*
Y347500D02*
D03*
Y307500D02*
D03*
Y267500D02*
D03*
Y227500D02*
D03*
Y187500D02*
D03*
Y147500D02*
D03*
Y67500D02*
D03*
X1216001Y47500D02*
D03*
X1186001Y627501D02*
D03*
X1196001Y607501D02*
D03*
X1186001Y547501D02*
D03*
X1196001Y527501D02*
D03*
X1186001Y507501D02*
D03*
X1196001Y487501D02*
D03*
Y447501D02*
D03*
Y407500D02*
D03*
Y367500D02*
D03*
Y327500D02*
D03*
Y287500D02*
D03*
X1186001Y267500D02*
D03*
X1196001Y247500D02*
D03*
X1186001Y227500D02*
D03*
X1196001Y207500D02*
D03*
X1186001Y187500D02*
D03*
X1196001Y167500D02*
D03*
X1186001Y147500D02*
D03*
X1196001Y127500D02*
D03*
X1186001Y107500D02*
D03*
Y67500D02*
D03*
X1196001Y47500D02*
D03*
X1166001Y627501D02*
D03*
Y547501D02*
D03*
X1176001Y527501D02*
D03*
Y207500D02*
D03*
X1166001Y187500D02*
D03*
X1176001Y167500D02*
D03*
X1166001Y147500D02*
D03*
X1176001Y127500D02*
D03*
X1166001Y107500D02*
D03*
Y67500D02*
D03*
X1176001Y47500D02*
D03*
X1156001Y647501D02*
D03*
X1146001Y587501D02*
D03*
X1156001Y567501D02*
D03*
Y287500D02*
D03*
Y247500D02*
D03*
Y167500D02*
D03*
X1146001Y147500D02*
D03*
X1156001Y127500D02*
D03*
X1146001Y107500D02*
D03*
Y67500D02*
D03*
X1156001Y47500D02*
D03*
X1126001Y587501D02*
D03*
X1136001Y567501D02*
D03*
X1126001Y467501D02*
D03*
Y427500D02*
D03*
Y387500D02*
D03*
Y267500D02*
D03*
Y227500D02*
D03*
X1136001Y167500D02*
D03*
X1126001Y147500D02*
D03*
X1136001Y127500D02*
D03*
X1126001Y107500D02*
D03*
Y67500D02*
D03*
X1136001Y47500D02*
D03*
X1116001Y487501D02*
D03*
X1106001Y467501D02*
D03*
X1116001Y447501D02*
D03*
X1106001Y427500D02*
D03*
X1116001Y407500D02*
D03*
Y167500D02*
D03*
X1106001Y147500D02*
D03*
X1116001Y127500D02*
D03*
Y47500D02*
D03*
X1086001Y547501D02*
D03*
X1096001Y207500D02*
D03*
Y167500D02*
D03*
X1086001Y147500D02*
D03*
X1096001Y127500D02*
D03*
Y47500D02*
D03*
X1076001Y207500D02*
D03*
Y167500D02*
D03*
X1066001Y147500D02*
D03*
X1076001Y127500D02*
D03*
X1066001Y107500D02*
D03*
Y67500D02*
D03*
X1076001Y47500D02*
D03*
X1056001Y287500D02*
D03*
Y207500D02*
D03*
Y167500D02*
D03*
X1046001Y147500D02*
D03*
X1056001Y127500D02*
D03*
X1046001Y107500D02*
D03*
Y67500D02*
D03*
X1056001Y47500D02*
D03*
X1026001Y427500D02*
D03*
X1036001Y287500D02*
D03*
Y207500D02*
D03*
Y167500D02*
D03*
X1026001Y147500D02*
D03*
X1036001Y127500D02*
D03*
X1026001Y107500D02*
D03*
Y67500D02*
D03*
X1036001Y47500D02*
D03*
X1016001Y207500D02*
D03*
Y167500D02*
D03*
X1006001Y147500D02*
D03*
X1016001Y127500D02*
D03*
X1006001Y107500D02*
D03*
Y67500D02*
D03*
X1016001Y47500D02*
D03*
X986001Y427500D02*
D03*
X996001Y167500D02*
D03*
X986001Y147500D02*
D03*
X996001Y127500D02*
D03*
X986001Y107500D02*
D03*
Y67500D02*
D03*
X996001Y47500D02*
D03*
X966001Y507501D02*
D03*
Y427500D02*
D03*
X976001Y167500D02*
D03*
X966001Y147500D02*
D03*
X976001Y127500D02*
D03*
X966001Y107500D02*
D03*
Y67500D02*
D03*
X976001Y47500D02*
D03*
X956001Y567501D02*
D03*
X946001Y547501D02*
D03*
X956001Y527501D02*
D03*
X946001Y507501D02*
D03*
Y427500D02*
D03*
X956001Y167500D02*
D03*
X946001Y147500D02*
D03*
X956001Y127500D02*
D03*
X946001Y107500D02*
D03*
Y67500D02*
D03*
X956001Y47500D02*
D03*
X936001Y567501D02*
D03*
X926001Y547501D02*
D03*
X936001Y527501D02*
D03*
X926001Y507501D02*
D03*
Y427500D02*
D03*
X936001Y287500D02*
D03*
Y167500D02*
D03*
X926001Y147500D02*
D03*
X936001Y127500D02*
D03*
X926001Y107500D02*
D03*
Y67500D02*
D03*
X906001Y667501D02*
D03*
Y627501D02*
D03*
X916001Y567501D02*
D03*
X906001Y547501D02*
D03*
X916001Y527501D02*
D03*
X906001Y507501D02*
D03*
Y427500D02*
D03*
X916001Y287500D02*
D03*
Y207500D02*
D03*
Y167500D02*
D03*
X906001Y147500D02*
D03*
X916001Y127500D02*
D03*
X906001Y107500D02*
D03*
X916001Y47500D02*
D03*
X886001Y627501D02*
D03*
Y547501D02*
D03*
X896001Y527501D02*
D03*
X886001Y507501D02*
D03*
Y427500D02*
D03*
X896001Y207500D02*
D03*
Y127500D02*
D03*
Y47500D02*
D03*
X876001Y527501D02*
D03*
X866001Y507501D02*
D03*
X876001Y487501D02*
D03*
X866001Y467501D02*
D03*
Y427500D02*
D03*
X876001Y207500D02*
D03*
Y167500D02*
D03*
X866001Y147500D02*
D03*
Y107500D02*
D03*
X876001Y47500D02*
D03*
X846001Y507501D02*
D03*
X856001Y487501D02*
D03*
X846001Y427500D02*
D03*
X856001Y207500D02*
D03*
Y167500D02*
D03*
Y47500D02*
D03*
X826001Y427500D02*
D03*
X836001Y207500D02*
D03*
Y47500D02*
D03*
X806001Y627501D02*
D03*
X816001Y127500D02*
D03*
Y47500D02*
D03*
X786001Y627501D02*
D03*
Y427500D02*
D03*
X776001Y647501D02*
D03*
X766001Y627501D02*
D03*
X776001Y567501D02*
D03*
X766001Y427500D02*
D03*
X756001Y567501D02*
D03*
X746001Y427500D02*
D03*
X726001Y547501D02*
D03*
X736001Y527501D02*
D03*
X726001Y507501D02*
D03*
X736001Y487501D02*
D03*
Y407500D02*
D03*
X706001Y427500D02*
D03*
X716001Y407500D02*
D03*
X706001Y387500D02*
D03*
Y147500D02*
D03*
X696001Y647501D02*
D03*
Y567501D02*
D03*
X686001Y467501D02*
D03*
Y427500D02*
D03*
X696001Y407500D02*
D03*
X686001Y387500D02*
D03*
Y147500D02*
D03*
X676001Y647501D02*
D03*
X666001Y427500D02*
D03*
X676001Y407500D02*
D03*
X666001Y387500D02*
D03*
Y147500D02*
D03*
X656001Y647501D02*
D03*
X646001Y427500D02*
D03*
X656001Y407500D02*
D03*
X646001Y387500D02*
D03*
Y187500D02*
D03*
Y147500D02*
D03*
X636001Y647501D02*
D03*
X626001Y427500D02*
D03*
X636001Y407500D02*
D03*
X626001Y387500D02*
D03*
Y187500D02*
D03*
X636001Y167500D02*
D03*
X626001Y147500D02*
D03*
X616001Y647501D02*
D03*
X606001Y427500D02*
D03*
X616001Y407500D02*
D03*
X606001Y387500D02*
D03*
X616001Y167500D02*
D03*
X606001Y147500D02*
D03*
X616001Y127500D02*
D03*
X606001Y107500D02*
D03*
X596001Y647501D02*
D03*
X586001Y547501D02*
D03*
Y147500D02*
D03*
X596001Y127500D02*
D03*
X586001Y107500D02*
D03*
X576000Y647501D02*
D03*
Y567501D02*
D03*
Y487501D02*
D03*
X566000Y187500D02*
D03*
Y147500D02*
D03*
X576000Y127500D02*
D03*
X566000Y107500D02*
D03*
X546000Y547501D02*
D03*
Y427500D02*
D03*
Y387500D02*
D03*
Y187500D02*
D03*
X556000Y167500D02*
D03*
X546000Y147500D02*
D03*
X556000Y127500D02*
D03*
X546000Y107500D02*
D03*
X536000Y567501D02*
D03*
X526000Y547501D02*
D03*
Y187500D02*
D03*
X536000Y167500D02*
D03*
X526000Y147500D02*
D03*
X536000Y127500D02*
D03*
X526000Y107500D02*
D03*
X516000Y647501D02*
D03*
Y567501D02*
D03*
X506000Y547501D02*
D03*
Y467501D02*
D03*
Y187500D02*
D03*
X516000Y167500D02*
D03*
X506000Y147500D02*
D03*
X516000Y127500D02*
D03*
X506000Y107500D02*
D03*
X496000Y647501D02*
D03*
Y567501D02*
D03*
X486000Y547501D02*
D03*
X496000Y487501D02*
D03*
X486000Y467501D02*
D03*
Y427500D02*
D03*
X496000Y407500D02*
D03*
X486000Y387500D02*
D03*
Y187500D02*
D03*
X496000Y167500D02*
D03*
X486000Y147500D02*
D03*
X496000Y127500D02*
D03*
X486000Y107500D02*
D03*
X476000Y567501D02*
D03*
X466000Y547501D02*
D03*
X476000Y487501D02*
D03*
X466000Y427500D02*
D03*
X476000Y407500D02*
D03*
X466000Y387500D02*
D03*
Y107500D02*
D03*
X456000Y567501D02*
D03*
X446000Y547501D02*
D03*
X456000Y487501D02*
D03*
X446000Y467501D02*
D03*
X456000Y447501D02*
D03*
X446000Y427500D02*
D03*
X456000Y407500D02*
D03*
X446000Y387500D02*
D03*
Y107500D02*
D03*
X436000Y567501D02*
D03*
X426000Y547501D02*
D03*
X436000Y487501D02*
D03*
Y447501D02*
D03*
X426000Y387500D02*
D03*
Y107500D02*
D03*
X416000Y567501D02*
D03*
X406000Y547501D02*
D03*
X416000Y527501D02*
D03*
Y407500D02*
D03*
X406000Y387500D02*
D03*
Y107500D02*
D03*
X386000Y627501D02*
D03*
X396000Y567501D02*
D03*
X386000Y547501D02*
D03*
X396000Y527501D02*
D03*
X386000Y507501D02*
D03*
X396000Y407500D02*
D03*
X386000Y387500D02*
D03*
Y107500D02*
D03*
X376000Y567501D02*
D03*
Y407500D02*
D03*
X366000Y387500D02*
D03*
X376000Y327500D02*
D03*
X366000Y107500D02*
D03*
X346000Y507501D02*
D03*
X356000Y407500D02*
D03*
X346000Y347500D02*
D03*
X356000Y327500D02*
D03*
X346000Y107500D02*
D03*
X326000Y347500D02*
D03*
X336000Y327500D02*
D03*
X326000Y107500D02*
D03*
X306000Y627501D02*
D03*
X316000Y567501D02*
D03*
X306000Y107500D02*
D03*
X296000Y167500D02*
D03*
X286000Y147500D02*
D03*
X296000Y127500D02*
D03*
X286000Y107500D02*
D03*
X276000Y647501D02*
D03*
X266000Y627501D02*
D03*
X276000Y567501D02*
D03*
Y167500D02*
D03*
Y127500D02*
D03*
X256000Y647501D02*
D03*
X246000Y627501D02*
D03*
X256000Y567501D02*
D03*
X246000Y547501D02*
D03*
X256000Y527501D02*
D03*
X246000Y507501D02*
D03*
Y427500D02*
D03*
Y387500D02*
D03*
X226000Y627501D02*
D03*
X236000Y567501D02*
D03*
X226000Y547501D02*
D03*
X236000Y527501D02*
D03*
X226000Y507501D02*
D03*
Y467501D02*
D03*
X236000Y447501D02*
D03*
X226000Y427500D02*
D03*
X236000Y407500D02*
D03*
X226000Y347500D02*
D03*
X236000Y327500D02*
D03*
Y207500D02*
D03*
X206000Y267500D02*
D03*
X216000Y247500D02*
D03*
Y207500D02*
D03*
X196000Y567501D02*
D03*
Y527501D02*
D03*
Y447501D02*
D03*
Y407500D02*
D03*
Y367500D02*
D03*
Y327500D02*
D03*
X186000Y307500D02*
D03*
X176000Y567501D02*
D03*
Y527501D02*
D03*
Y447501D02*
D03*
Y407500D02*
D03*
Y367500D02*
D03*
Y327500D02*
D03*
X126000Y667501D02*
D03*
X136000Y647501D02*
D03*
X126000Y627501D02*
D03*
X106000Y667501D02*
D03*
X66000D02*
D03*
X56000Y647501D02*
D03*
X46000Y627501D02*
D03*
X56000Y607501D02*
D03*
X46000Y587501D02*
D03*
X56000Y567501D02*
D03*
X46000Y547501D02*
D03*
X56000Y527501D02*
D03*
X46000Y427500D02*
D03*
X56000Y407500D02*
D03*
Y327500D02*
D03*
X46000Y307500D02*
D03*
X36000Y647501D02*
D03*
X26000Y627501D02*
D03*
X36000Y607501D02*
D03*
X26000Y587501D02*
D03*
X36000Y567501D02*
D03*
X26000Y547501D02*
D03*
Y427500D02*
D03*
X36000Y327500D02*
D03*
X26000Y307500D02*
D03*
X1092500Y362500D02*
D03*
X792500Y156500D02*
D03*
Y136500D02*
D03*
X752500D02*
D03*
Y156500D02*
D03*
X772500Y136500D02*
D03*
Y156500D02*
D03*
X435000Y187500D02*
D03*
X147500Y135000D02*
D03*
X574500Y385500D02*
D03*
X999000Y312506D02*
D03*
X327500Y474000D02*
D03*
X1013857Y365070D02*
D03*
X1014000Y312417D02*
D03*
X1012787Y438713D02*
D03*
X1100000Y241500D02*
D03*
X1077500D02*
D03*
X1100000Y259000D02*
D03*
X1077500D02*
D03*
X60000Y187500D02*
D03*
X75000Y202500D02*
D03*
X45000D02*
D03*
Y187500D02*
D03*
X235000Y231500D02*
D03*
X560000Y571500D02*
D03*
X75000Y187500D02*
D03*
X90000D02*
D03*
X60000Y202500D02*
D03*
X90000D02*
D03*
X450000Y172500D02*
D03*
X435000D02*
D03*
X450000Y187500D02*
D03*
Y202500D02*
D03*
X435000D02*
D03*
Y217500D02*
D03*
X450000D02*
D03*
M02*
