G04*
G04 #@! TF.GenerationSoftware,Altium Limited,Altium Designer,22.9.1 (49)*
G04*
G04 Layer_Color=8421504*
%FSLAX44Y44*%
%MOMM*%
G71*
G04*
G04 #@! TF.SameCoordinates,4021D898-2042-4C7D-8B7F-38EBD3721E5A*
G04*
G04*
G04 #@! TF.FilePolarity,Positive*
G04*
G01*
G75*
%ADD23R,1.1500X1.3500*%
%ADD24R,1.6000X3.2000*%
%ADD25R,1.4000X1.3000*%
%ADD26R,5.4102X2.8956*%
%ADD27R,1.9100X1.2350*%
%ADD28R,6.9900X8.3300*%
%ADD29R,2.1600X1.0200*%
%ADD30R,3.4000X2.4500*%
%ADD31R,2.4500X2.1500*%
%ADD32R,0.8000X0.8000*%
%ADD33R,1.3500X1.1500*%
%ADD34O,0.6000X1.5500*%
%ADD35R,1.3000X1.4000*%
%ADD36R,0.4500X1.8000*%
%ADD37R,3.5100X3.6500*%
%ADD38R,1.0000X3.5000*%
%ADD39R,1.5000X3.4000*%
%ADD40R,1.2300X1.8000*%
%ADD41R,1.8000X1.2300*%
%ADD42R,0.5580X1.8740*%
D23*
X1026250Y546500D02*
D03*
X1008750D02*
D03*
X276250D02*
D03*
X293750D02*
D03*
X1063750Y546500D02*
D03*
X1046250D02*
D03*
X988750Y546500D02*
D03*
X971250D02*
D03*
X238750Y257500D02*
D03*
X256250D02*
D03*
X520000Y501500D02*
D03*
X537500D02*
D03*
X351250Y474000D02*
D03*
X368750D02*
D03*
X351250Y546500D02*
D03*
X368750D02*
D03*
X331250D02*
D03*
X313750D02*
D03*
D24*
X190000Y237500D02*
D03*
Y287500D02*
D03*
X120000D02*
D03*
Y237500D02*
D03*
D25*
X420000Y234500D02*
D03*
Y250500D02*
D03*
X397500Y250500D02*
D03*
Y234500D02*
D03*
X375000Y250500D02*
D03*
Y234500D02*
D03*
X352500Y423500D02*
D03*
Y439500D02*
D03*
X1107500Y379500D02*
D03*
Y363500D02*
D03*
X607500Y201000D02*
D03*
Y217000D02*
D03*
D26*
X350000Y62970D02*
D03*
Y162030D02*
D03*
D27*
X259650Y200825D02*
D03*
Y105175D02*
D03*
D28*
X234250Y153000D02*
D03*
D29*
X127500Y119000D02*
D03*
Y136000D02*
D03*
Y153000D02*
D03*
Y170000D02*
D03*
Y187000D02*
D03*
D30*
X348500Y207500D02*
D03*
X296500D02*
D03*
D31*
X141000Y60000D02*
D03*
X184000D02*
D03*
D32*
X342500Y401500D02*
D03*
X327500D02*
D03*
X652500Y259000D02*
D03*
X637500D02*
D03*
X652500Y241500D02*
D03*
X637500D02*
D03*
X600000Y181500D02*
D03*
X585000D02*
D03*
X255000Y277500D02*
D03*
X240000D02*
D03*
D33*
X327500Y422750D02*
D03*
Y440250D02*
D03*
X607500Y257750D02*
D03*
Y240250D02*
D03*
X585000Y257750D02*
D03*
Y240250D02*
D03*
X585000Y200250D02*
D03*
Y217750D02*
D03*
D34*
X414050Y438000D02*
D03*
X401350D02*
D03*
X388650D02*
D03*
X375950D02*
D03*
X414050Y365000D02*
D03*
X401350D02*
D03*
X388650D02*
D03*
X375950D02*
D03*
D35*
X352000Y525000D02*
D03*
X368000D02*
D03*
X330500Y525000D02*
D03*
X314500D02*
D03*
X293000D02*
D03*
X277000D02*
D03*
X1047000Y524000D02*
D03*
X1063000D02*
D03*
X1009500Y524000D02*
D03*
X1025500D02*
D03*
X988000Y524000D02*
D03*
X972000D02*
D03*
D36*
X1079500Y434500D02*
D03*
X1073000D02*
D03*
X1066500D02*
D03*
X1060000D02*
D03*
X1053500D02*
D03*
X1047000D02*
D03*
X1040500D02*
D03*
Y363500D02*
D03*
X1047000D02*
D03*
X1053500D02*
D03*
X1060000D02*
D03*
X1066500D02*
D03*
X1073000D02*
D03*
X1079500D02*
D03*
D37*
X1090000Y90300D02*
D03*
Y297800D02*
D03*
D38*
X814000Y80500D02*
D03*
X834000D02*
D03*
X854000D02*
D03*
X874000D02*
D03*
X914000D02*
D03*
X894000D02*
D03*
X794000D02*
D03*
X774000D02*
D03*
D39*
X937500Y23000D02*
D03*
X750500D02*
D03*
D40*
X712500Y52800D02*
D03*
Y79000D02*
D03*
X690000Y53400D02*
D03*
Y79600D02*
D03*
D41*
X634400Y54000D02*
D03*
X660600D02*
D03*
X648250Y81650D02*
D03*
X622050D02*
D03*
D42*
X635550Y121657D02*
D03*
X648250D02*
D03*
X660950D02*
D03*
X673650D02*
D03*
X686350D02*
D03*
X699050D02*
D03*
X711750D02*
D03*
X724450D02*
D03*
Y216343D02*
D03*
X711750D02*
D03*
X699050D02*
D03*
X686350D02*
D03*
X673650D02*
D03*
X660950D02*
D03*
X648250D02*
D03*
X635550D02*
D03*
M02*
