G04*
G04 #@! TF.GenerationSoftware,Altium Limited,Altium Designer,22.9.1 (49)*
G04*
G04 Layer_Physical_Order=1*
G04 Layer_Color=255*
%FSLAX44Y44*%
%MOMM*%
G71*
G04*
G04 #@! TF.SameCoordinates,4021D898-2042-4C7D-8B7F-38EBD3721E5A*
G04*
G04*
G04 #@! TF.FilePolarity,Positive*
G04*
G01*
G75*
%ADD23R,1.1500X1.3500*%
%ADD24R,1.6000X3.2000*%
%ADD25R,1.4000X1.3000*%
%ADD26R,5.4102X2.8956*%
%ADD27R,1.9100X1.2350*%
%ADD28R,6.9900X8.3300*%
%ADD29R,2.1600X1.0200*%
%ADD30R,3.4000X2.4500*%
%ADD31R,2.4500X2.1500*%
%ADD32R,0.8000X0.8000*%
%ADD33R,1.3500X1.1500*%
%ADD34O,0.6000X1.5500*%
%ADD35R,1.3000X1.4000*%
%ADD36R,0.4500X1.8000*%
%ADD37R,3.5100X3.6500*%
%ADD38R,1.0000X3.5000*%
%ADD39R,1.5000X3.4000*%
%ADD40R,1.2300X1.8000*%
%ADD41R,1.8000X1.2300*%
%ADD42R,0.5580X1.8740*%
%ADD69C,1.0000*%
%ADD70C,0.4000*%
%ADD71C,0.5000*%
%ADD72C,0.7000*%
%ADD73C,0.8000*%
%ADD74C,0.6000*%
%ADD75O,2.0000X3.0000*%
%ADD76O,3.0000X2.0000*%
%ADD77O,1.7500X2.5000*%
%ADD78O,2.5000X1.7500*%
%ADD79C,3.5000*%
%ADD80C,1.7000*%
%ADD81R,1.7000X1.7000*%
%ADD82C,1.0000*%
G36*
X1267179Y692867D02*
X1265763Y692281D01*
X1262570Y690147D01*
X1259853Y687430D01*
X1257719Y684237D01*
X1256249Y680688D01*
X1255500Y676921D01*
Y673079D01*
X1256249Y669312D01*
X1257719Y665763D01*
X1259853Y662570D01*
X1262570Y659853D01*
X1265763Y657719D01*
X1269312Y656249D01*
X1273079Y655500D01*
X1276921D01*
X1280688Y656249D01*
X1284237Y657719D01*
X1287431Y659853D01*
X1290147Y662570D01*
X1292281Y665763D01*
X1292867Y667180D01*
X1294137Y666927D01*
Y33073D01*
X1292867Y32820D01*
X1292281Y34237D01*
X1290147Y37431D01*
X1287431Y40147D01*
X1284237Y42281D01*
X1280688Y43751D01*
X1276921Y44500D01*
X1273079D01*
X1269312Y43751D01*
X1265763Y42281D01*
X1262570Y40147D01*
X1259853Y37431D01*
X1257719Y34237D01*
X1256249Y30688D01*
X1255500Y26921D01*
Y23079D01*
X1256249Y19312D01*
X1257719Y15763D01*
X1259853Y12570D01*
X1262570Y9853D01*
X1265763Y7719D01*
X1267180Y7132D01*
X1266927Y5863D01*
X950000D01*
Y45000D01*
X925000D01*
Y5863D01*
X763000D01*
Y45000D01*
X738000D01*
Y5863D01*
X33073D01*
X32820Y7132D01*
X34237Y7719D01*
X37431Y9853D01*
X40147Y12570D01*
X42281Y15763D01*
X43751Y19312D01*
X44500Y23079D01*
Y26921D01*
X43751Y30688D01*
X42281Y34237D01*
X40147Y37431D01*
X37431Y40147D01*
X34237Y42281D01*
X30688Y43751D01*
X26921Y44500D01*
X23079D01*
X19312Y43751D01*
X15763Y42281D01*
X12570Y40147D01*
X9853Y37431D01*
X7719Y34237D01*
X7133Y32820D01*
X5863Y33073D01*
X5863Y666927D01*
X7133Y667180D01*
X7719Y665763D01*
X9853Y662570D01*
X12570Y659853D01*
X15763Y657719D01*
X19312Y656249D01*
X23079Y655500D01*
X26921D01*
X30688Y656249D01*
X34237Y657719D01*
X37431Y659853D01*
X40147Y662570D01*
X42281Y665763D01*
X43751Y669312D01*
X44500Y673079D01*
Y676921D01*
X43751Y680688D01*
X42281Y684237D01*
X40147Y687430D01*
X37431Y690147D01*
X34237Y692281D01*
X32820Y692867D01*
X33073Y694137D01*
X1266927D01*
X1267179Y692867D01*
D02*
G37*
%LPC*%
G36*
X885000Y669264D02*
Y657500D01*
X893343D01*
Y658750D01*
X892973Y661556D01*
X891890Y664171D01*
X890167Y666417D01*
X887921Y668140D01*
X885306Y669223D01*
X885000Y669264D01*
D02*
G37*
G36*
X880000D02*
X879694Y669223D01*
X877079Y668140D01*
X874833Y666417D01*
X873110Y664171D01*
X872027Y661556D01*
X871657Y658750D01*
Y657500D01*
X880000D01*
Y669264D01*
D02*
G37*
G36*
X1125000Y668264D02*
Y656500D01*
X1133343D01*
Y657750D01*
X1132973Y660556D01*
X1131890Y663171D01*
X1130167Y665417D01*
X1127921Y667140D01*
X1125306Y668223D01*
X1125000Y668264D01*
D02*
G37*
G36*
X1120000D02*
X1119694Y668223D01*
X1117079Y667140D01*
X1114833Y665417D01*
X1113110Y663171D01*
X1112027Y660556D01*
X1111657Y657750D01*
Y656500D01*
X1120000D01*
Y668264D01*
D02*
G37*
G36*
X475000D02*
Y656500D01*
X483343D01*
Y657750D01*
X482973Y660556D01*
X481890Y663171D01*
X480167Y665417D01*
X477921Y667140D01*
X475306Y668223D01*
X475000Y668264D01*
D02*
G37*
G36*
X470000D02*
X469694Y668223D01*
X467079Y667140D01*
X464833Y665417D01*
X463110Y663171D01*
X462027Y660556D01*
X461657Y657750D01*
Y656500D01*
X470000D01*
Y668264D01*
D02*
G37*
G36*
X235000D02*
Y656500D01*
X243343D01*
Y657750D01*
X242973Y660556D01*
X241890Y663171D01*
X240167Y665417D01*
X237921Y667140D01*
X235306Y668223D01*
X235000Y668264D01*
D02*
G37*
G36*
X230000D02*
X229694Y668223D01*
X227079Y667140D01*
X224833Y665417D01*
X223110Y663171D01*
X222027Y660556D01*
X221657Y657750D01*
Y656500D01*
X230000D01*
Y668264D01*
D02*
G37*
G36*
X755000Y664274D02*
Y650000D01*
X764604D01*
Y652500D01*
X764191Y655633D01*
X762982Y658552D01*
X761059Y661059D01*
X758552Y662982D01*
X755633Y664191D01*
X755000Y664274D01*
D02*
G37*
G36*
X110200D02*
Y650000D01*
X119804D01*
Y652500D01*
X119391Y655633D01*
X118182Y658552D01*
X116258Y661059D01*
X113752Y662982D01*
X110833Y664191D01*
X110200Y664274D01*
D02*
G37*
G36*
X893343Y652500D02*
X885000D01*
Y640736D01*
X885306Y640777D01*
X887921Y641860D01*
X890167Y643583D01*
X891890Y645829D01*
X892973Y648444D01*
X893343Y651250D01*
Y652500D01*
D02*
G37*
G36*
X880000D02*
X871657D01*
Y651250D01*
X872027Y648444D01*
X873110Y645829D01*
X874833Y643583D01*
X877079Y641860D01*
X879694Y640777D01*
X880000Y640736D01*
Y652500D01*
D02*
G37*
G36*
X807500Y669593D02*
X804694Y669223D01*
X802079Y668140D01*
X799833Y666417D01*
X798110Y664171D01*
X797027Y661556D01*
X796657Y658750D01*
Y651250D01*
X797027Y648444D01*
X798110Y645829D01*
X799833Y643583D01*
X802079Y641860D01*
X804694Y640777D01*
X807500Y640407D01*
X810306Y640777D01*
X812921Y641860D01*
X815167Y643583D01*
X816890Y645829D01*
X817973Y648444D01*
X818343Y651250D01*
Y658750D01*
X817973Y661556D01*
X816890Y664171D01*
X815167Y666417D01*
X812921Y668140D01*
X810306Y669223D01*
X807500Y669593D01*
D02*
G37*
G36*
X1133343Y651500D02*
X1125000D01*
Y639736D01*
X1125306Y639777D01*
X1127921Y640860D01*
X1130167Y642583D01*
X1131890Y644829D01*
X1132973Y647444D01*
X1133343Y650250D01*
Y651500D01*
D02*
G37*
G36*
X1120000D02*
X1111657D01*
Y650250D01*
X1112027Y647444D01*
X1113110Y644829D01*
X1114833Y642583D01*
X1117079Y640860D01*
X1119694Y639777D01*
X1120000Y639736D01*
Y651500D01*
D02*
G37*
G36*
X483343D02*
X475000D01*
Y639736D01*
X475306Y639777D01*
X477921Y640860D01*
X480167Y642583D01*
X481890Y644829D01*
X482973Y647444D01*
X483343Y650250D01*
Y651500D01*
D02*
G37*
G36*
X470000D02*
X461657D01*
Y650250D01*
X462027Y647444D01*
X463110Y644829D01*
X464833Y642583D01*
X467079Y640860D01*
X469694Y639777D01*
X470000Y639736D01*
Y651500D01*
D02*
G37*
G36*
X243343D02*
X235000D01*
Y639736D01*
X235306Y639777D01*
X237921Y640860D01*
X240167Y642583D01*
X241890Y644829D01*
X242973Y647444D01*
X243343Y650250D01*
Y651500D01*
D02*
G37*
G36*
X230000D02*
X221657D01*
Y650250D01*
X222027Y647444D01*
X223110Y644829D01*
X224833Y642583D01*
X227079Y640860D01*
X229694Y639777D01*
X230000Y639736D01*
Y651500D01*
D02*
G37*
G36*
X1212500Y668593D02*
X1209694Y668223D01*
X1207079Y667140D01*
X1204833Y665417D01*
X1203110Y663171D01*
X1202027Y660556D01*
X1201657Y657750D01*
Y650250D01*
X1202027Y647444D01*
X1203110Y644829D01*
X1204833Y642583D01*
X1207079Y640860D01*
X1209694Y639777D01*
X1212500Y639407D01*
X1215306Y639777D01*
X1217921Y640860D01*
X1220167Y642583D01*
X1221890Y644829D01*
X1222973Y647444D01*
X1223343Y650250D01*
Y657750D01*
X1222973Y660556D01*
X1221890Y663171D01*
X1220167Y665417D01*
X1217921Y667140D01*
X1215306Y668223D01*
X1212500Y668593D01*
D02*
G37*
G36*
X1184571Y686565D02*
X932929D01*
X930971Y686307D01*
X929147Y685551D01*
X927580Y684349D01*
X922151Y678920D01*
X920949Y677353D01*
X920193Y675529D01*
X919935Y673571D01*
Y617133D01*
X821251Y518449D01*
X820049Y516882D01*
X819293Y515058D01*
X819035Y513100D01*
Y463430D01*
X818198Y462593D01*
X816816Y460199D01*
X816100Y457528D01*
Y454764D01*
X816816Y452093D01*
X818198Y449699D01*
X820153Y447744D01*
X822547Y446362D01*
X825218Y445646D01*
X827982D01*
X830653Y446362D01*
X833047Y447744D01*
X835002Y449699D01*
X836384Y452093D01*
X837100Y454764D01*
Y457528D01*
X836384Y460199D01*
X835002Y462593D01*
X834165Y463430D01*
Y509967D01*
X932849Y608651D01*
X934051Y610218D01*
X934807Y612042D01*
X934936Y613021D01*
X935065Y614000D01*
X935065Y614000D01*
X958515D01*
X962940Y609576D01*
Y558250D01*
X960500D01*
Y534750D01*
X976500D01*
Y533000D01*
X974500D01*
Y524000D01*
Y515000D01*
X976500D01*
Y512000D01*
X980208D01*
X980337Y511016D01*
X981042Y509313D01*
X982165Y507851D01*
X989281Y500734D01*
X988795Y499560D01*
X913754D01*
X911927Y499320D01*
X910224Y498615D01*
X908762Y497492D01*
X877915Y466646D01*
X876018D01*
X873347Y465930D01*
X870953Y464548D01*
X868998Y462593D01*
X867616Y460199D01*
X866900Y457528D01*
Y454764D01*
X867616Y452093D01*
X868998Y449699D01*
X870953Y447744D01*
X873347Y446362D01*
X876018Y445646D01*
X878782D01*
X881453Y446362D01*
X883847Y447744D01*
X885802Y449699D01*
X887184Y452093D01*
X887900Y454764D01*
Y456661D01*
X891863Y460624D01*
X892936Y459901D01*
X892300Y457528D01*
Y454764D01*
X893016Y452093D01*
X894398Y449699D01*
X896353Y447744D01*
X898747Y446362D01*
X901418Y445646D01*
X904182D01*
X906853Y446362D01*
X909247Y447744D01*
X911202Y449699D01*
X912584Y452093D01*
X913300Y454764D01*
Y456661D01*
X917263Y460624D01*
X918336Y459901D01*
X917700Y457528D01*
Y454764D01*
X918416Y452093D01*
X919798Y449699D01*
X921753Y447744D01*
X924147Y446362D01*
X926818Y445646D01*
X929582D01*
X932253Y446362D01*
X934647Y447744D01*
X936602Y449699D01*
X937984Y452093D01*
X938700Y454764D01*
Y456661D01*
X941927Y459888D01*
X943100Y459402D01*
Y445646D01*
X964100D01*
Y449086D01*
X999930D01*
X1004557Y444458D01*
X1003468Y442573D01*
X1002787Y440029D01*
Y437397D01*
X1003468Y434853D01*
X1004785Y432573D01*
X1006647Y430711D01*
X1008927Y429394D01*
X1011470Y428713D01*
X1014103D01*
X1016647Y429394D01*
X1018927Y430711D01*
X1020789Y432573D01*
X1022105Y434853D01*
X1022787Y437397D01*
Y440029D01*
X1022105Y442573D01*
X1020789Y444853D01*
X1019847Y445795D01*
Y446213D01*
X1019607Y448040D01*
X1018902Y449743D01*
X1017779Y451205D01*
X1007846Y461138D01*
X1006384Y462261D01*
X1004681Y462966D01*
X1002854Y463206D01*
X964100D01*
Y465440D01*
X1039940D01*
Y448500D01*
X1039750D01*
Y445500D01*
X1036250D01*
Y423560D01*
X972500D01*
Y437500D01*
X967500Y442500D01*
X440000D01*
Y357560D01*
X431500D01*
X429673Y357320D01*
X427970Y356614D01*
X426507Y355492D01*
X393075Y322060D01*
X316924D01*
X312060Y326925D01*
Y484576D01*
X317924Y490440D01*
X365000D01*
X366827Y490680D01*
X368530Y491385D01*
X369992Y492508D01*
X372992Y495508D01*
X374114Y496970D01*
X374820Y498673D01*
X375060Y500500D01*
Y513000D01*
X379500D01*
Y534750D01*
X379500D01*
Y558250D01*
X358310D01*
Y611250D01*
Y650004D01*
X358343Y650250D01*
Y657750D01*
X358310Y657996D01*
Y665810D01*
X360000Y667500D01*
X357500Y670000D01*
X330000D01*
Y666981D01*
X328861Y666419D01*
X327921Y667140D01*
X325306Y668223D01*
X322500Y668593D01*
X319694Y668223D01*
X317079Y667140D01*
X314833Y665417D01*
X313110Y663171D01*
X312027Y660556D01*
X311657Y657750D01*
Y650250D01*
X312027Y647444D01*
X313110Y644829D01*
X314833Y642583D01*
X315440Y642118D01*
Y619000D01*
X315680Y617173D01*
X316385Y615470D01*
X317508Y614007D01*
X322940Y608576D01*
Y558250D01*
X300810D01*
Y638506D01*
X301031Y638794D01*
X301673Y640343D01*
X302921Y640860D01*
X305167Y642583D01*
X306890Y644829D01*
X307973Y647444D01*
X308343Y650250D01*
Y657750D01*
X307973Y660556D01*
X306890Y663171D01*
X305167Y665417D01*
X302921Y667140D01*
X300306Y668223D01*
X297500Y668593D01*
X294694Y668223D01*
X292079Y667140D01*
X289833Y665417D01*
X288110Y663171D01*
X287027Y660556D01*
X286657Y657750D01*
Y650250D01*
X287027Y647444D01*
X287857Y645440D01*
Y644975D01*
X287635Y644687D01*
X286930Y642984D01*
X286690Y641157D01*
Y558250D01*
X265500D01*
Y534750D01*
X265500D01*
Y513000D01*
X268690D01*
Y475168D01*
X267516Y474682D01*
X242849Y499349D01*
X241282Y500551D01*
X239458Y501307D01*
X237500Y501565D01*
X46495D01*
X46417Y501667D01*
X44171Y503390D01*
X41556Y504473D01*
X38750Y504843D01*
X31250D01*
X28444Y504473D01*
X25829Y503390D01*
X23583Y501667D01*
X21860Y499421D01*
X20777Y496806D01*
X20407Y494000D01*
X20777Y491194D01*
X21860Y488579D01*
X23583Y486333D01*
X25829Y484610D01*
X28444Y483527D01*
X31250Y483157D01*
X38750D01*
X41556Y483527D01*
X44171Y484610D01*
X46417Y486333D01*
X46495Y486435D01*
X234367D01*
X257435Y463367D01*
Y358922D01*
X256262Y358436D01*
X225349Y389349D01*
X223782Y390551D01*
X221958Y391307D01*
X220000Y391565D01*
X47929D01*
X47107Y391456D01*
X42804D01*
X41556Y391973D01*
X38750Y392343D01*
X31250D01*
X28444Y391973D01*
X25829Y390890D01*
X23583Y389167D01*
X21860Y386921D01*
X20777Y384306D01*
X20407Y381500D01*
X20777Y378694D01*
X21860Y376079D01*
X23583Y373833D01*
X25829Y372110D01*
X28444Y371027D01*
X31250Y370657D01*
X38750D01*
X41556Y371027D01*
X44171Y372110D01*
X46417Y373833D01*
X48140Y376079D01*
X48267Y376386D01*
X48643Y376435D01*
X216867D01*
X247435Y345867D01*
Y315000D01*
X247693Y313042D01*
X248449Y311218D01*
X249651Y309651D01*
X288151Y271151D01*
X289718Y269949D01*
X291542Y269193D01*
X293500Y268935D01*
X293500Y268935D01*
X572160D01*
X573250Y268500D01*
Y247000D01*
Y229500D01*
X573250D01*
X573250Y228500D01*
X573250D01*
Y226073D01*
X480098D01*
Y240000D01*
X479710Y241951D01*
X478605Y243605D01*
X476951Y244710D01*
X475000Y245098D01*
X432000D01*
Y246000D01*
X429000D01*
Y248000D01*
X411000D01*
Y246000D01*
X408000D01*
Y246000D01*
X406500D01*
Y248000D01*
X397500D01*
X388500D01*
Y246000D01*
X384000D01*
Y248000D01*
X375000D01*
X366000D01*
Y246000D01*
X363000D01*
Y245098D01*
X268000D01*
X267000Y245750D01*
Y269250D01*
X264000D01*
Y286500D01*
X246000D01*
Y284770D01*
X246000Y283500D01*
X244730Y283500D01*
X242500D01*
Y277500D01*
Y271500D01*
X245347D01*
X245840Y270230D01*
X245300Y269250D01*
X228000D01*
Y245750D01*
X227038Y245006D01*
X225549Y244710D01*
X223895Y243605D01*
X222790Y241951D01*
X222402Y240000D01*
Y225000D01*
X222790Y223049D01*
X223895Y221395D01*
X225549Y220290D01*
X227500Y219902D01*
X277500D01*
Y210000D01*
X296500D01*
Y207500D01*
X299000D01*
Y193250D01*
X307080D01*
X307746Y191980D01*
X307402Y190250D01*
Y140000D01*
X307790Y138049D01*
X308895Y136395D01*
X310549Y135290D01*
X312500Y134902D01*
X475000D01*
X476951Y135290D01*
X478605Y136395D01*
X479710Y138049D01*
X480098Y140000D01*
Y208927D01*
X573250D01*
Y189500D01*
X576000D01*
Y172500D01*
X594000D01*
Y174230D01*
X594000Y175500D01*
X595270Y175500D01*
X597500D01*
Y181500D01*
Y187500D01*
X595041D01*
X594412Y188770D01*
X594968Y189500D01*
X596750D01*
Y205500D01*
X598500D01*
Y203500D01*
X607500D01*
X616500D01*
Y205500D01*
X619500D01*
Y207770D01*
X627760D01*
Y201973D01*
X643340D01*
Y203753D01*
X643460Y204973D01*
X645750D01*
Y216343D01*
X650750D01*
Y204973D01*
X653040D01*
X653160Y203753D01*
Y201973D01*
X653890D01*
Y178050D01*
X654130Y176223D01*
X654836Y174520D01*
X655160Y174097D01*
Y164999D01*
X665065Y164932D01*
X665673Y164680D01*
X667500Y164440D01*
X737041D01*
X737402Y164000D01*
Y84500D01*
X737790Y82549D01*
X738895Y80895D01*
X761395Y58395D01*
X763049Y57290D01*
X765000Y56902D01*
X767000D01*
X768951Y57290D01*
X770013Y58000D01*
X777987D01*
X779049Y57290D01*
X781000Y56902D01*
X787000D01*
X788951Y57290D01*
X790013Y58000D01*
X797987D01*
X799049Y57290D01*
X801000Y56902D01*
X802500D01*
X804451Y57290D01*
X805513Y58000D01*
X822730D01*
X824000Y58000D01*
Y58000D01*
X824000D01*
Y58000D01*
X842730D01*
X844000Y58000D01*
Y58000D01*
X844000D01*
Y58000D01*
X862730D01*
X864000Y58000D01*
Y58000D01*
X864000D01*
Y58000D01*
X884000D01*
Y60000D01*
X884500D01*
Y162000D01*
X937500Y215000D01*
X1007500D01*
X1022500Y230000D01*
X1022500Y307140D01*
X1023318Y308557D01*
X1024000Y311101D01*
Y313734D01*
X1023318Y316277D01*
X1022500Y317695D01*
Y325000D01*
X992500D01*
Y320148D01*
X990998Y318646D01*
X989682Y316366D01*
X989000Y313822D01*
Y311189D01*
X989682Y308646D01*
X990998Y306366D01*
X991940Y305424D01*
Y270948D01*
X991020Y270072D01*
X974108Y270892D01*
X721886D01*
X721360Y272162D01*
X730349Y281151D01*
X730349Y281151D01*
X731551Y282718D01*
X732307Y284542D01*
X732565Y286500D01*
Y296716D01*
X733402Y297553D01*
X734784Y299947D01*
X735500Y302618D01*
Y305382D01*
X734784Y308053D01*
X733402Y310447D01*
X731447Y312402D01*
X729053Y313784D01*
X726382Y314500D01*
X723618D01*
X720947Y313784D01*
X718553Y312402D01*
X716598Y310447D01*
X715216Y308053D01*
X714500Y305382D01*
Y302618D01*
X715216Y299947D01*
X716598Y297553D01*
X717435Y296716D01*
Y289633D01*
X711867Y284065D01*
X703437D01*
X703045Y285335D01*
X704051Y286647D01*
X704807Y288471D01*
X705065Y290429D01*
Y295031D01*
X706047Y295598D01*
X708002Y297553D01*
X709384Y299947D01*
X710100Y302618D01*
Y305382D01*
X709384Y308053D01*
X708002Y310447D01*
X706047Y312402D01*
X703653Y313784D01*
X700982Y314500D01*
X698218D01*
X695547Y313784D01*
X693153Y312402D01*
X691198Y310447D01*
X689816Y308053D01*
X689100Y305382D01*
Y302618D01*
X689816Y299947D01*
X689935Y299740D01*
Y295065D01*
X681910D01*
X681384Y296335D01*
X682602Y297553D01*
X683984Y299947D01*
X684700Y302618D01*
Y305382D01*
X683984Y308053D01*
X682602Y310447D01*
X680647Y312402D01*
X678253Y313784D01*
X675582Y314500D01*
X672818D01*
X670147Y313784D01*
X667753Y312402D01*
X665798Y310447D01*
X664416Y308053D01*
X663700Y305382D01*
Y302618D01*
X664416Y299947D01*
X665798Y297553D01*
X667016Y296335D01*
X666490Y295065D01*
X656510D01*
X655984Y296335D01*
X657202Y297553D01*
X658584Y299947D01*
X659300Y302618D01*
Y305382D01*
X658584Y308053D01*
X657202Y310447D01*
X655247Y312402D01*
X652853Y313784D01*
X650182Y314500D01*
X647418D01*
X644747Y313784D01*
X642353Y312402D01*
X640398Y310447D01*
X639016Y308053D01*
X638300Y305382D01*
Y302618D01*
X639016Y299947D01*
X640398Y297553D01*
X641616Y296335D01*
X641090Y295065D01*
X631110D01*
X630584Y296335D01*
X631802Y297553D01*
X633184Y299947D01*
X633900Y302618D01*
Y305382D01*
X633184Y308053D01*
X631802Y310447D01*
X629847Y312402D01*
X627453Y313784D01*
X624782Y314500D01*
X622018D01*
X619347Y313784D01*
X616953Y312402D01*
X614998Y310447D01*
X613616Y308053D01*
X612900Y305382D01*
Y302618D01*
X613616Y299947D01*
X614998Y297553D01*
X616216Y296335D01*
X615690Y295065D01*
X605710D01*
X605184Y296335D01*
X606402Y297553D01*
X607784Y299947D01*
X608500Y302618D01*
Y305382D01*
X607784Y308053D01*
X606402Y310447D01*
X604447Y312402D01*
X602053Y313784D01*
X599382Y314500D01*
X596618D01*
X593947Y313784D01*
X591553Y312402D01*
X589598Y310447D01*
X588216Y308053D01*
X587500Y305382D01*
Y302618D01*
X588216Y299947D01*
X589598Y297553D01*
X590816Y296335D01*
X590290Y295065D01*
X580310D01*
X579784Y296335D01*
X581002Y297553D01*
X582384Y299947D01*
X583100Y302618D01*
Y305382D01*
X582384Y308053D01*
X581002Y310447D01*
X579047Y312402D01*
X576653Y313784D01*
X573982Y314500D01*
X571218D01*
X568547Y313784D01*
X566153Y312402D01*
X564198Y310447D01*
X562816Y308053D01*
X562100Y305382D01*
Y302618D01*
X562816Y299947D01*
X564198Y297553D01*
X565416Y296335D01*
X564890Y295065D01*
X554910D01*
X554384Y296335D01*
X555602Y297553D01*
X556984Y299947D01*
X557700Y302618D01*
Y305382D01*
X556984Y308053D01*
X555602Y310447D01*
X553647Y312402D01*
X551253Y313784D01*
X548582Y314500D01*
X545818D01*
X543147Y313784D01*
X540753Y312402D01*
X538798Y310447D01*
X537416Y308053D01*
X536700Y305382D01*
Y302618D01*
X537416Y299947D01*
X538798Y297553D01*
X540016Y296335D01*
X539490Y295065D01*
X529510D01*
X528984Y296335D01*
X530202Y297553D01*
X531584Y299947D01*
X532300Y302618D01*
Y305382D01*
X531584Y308053D01*
X530202Y310447D01*
X528247Y312402D01*
X525853Y313784D01*
X523182Y314500D01*
X520418D01*
X517747Y313784D01*
X515353Y312402D01*
X513398Y310447D01*
X512016Y308053D01*
X511300Y305382D01*
Y302618D01*
X512016Y299947D01*
X513398Y297553D01*
X514616Y296335D01*
X514090Y295065D01*
X504110D01*
X503584Y296335D01*
X504802Y297553D01*
X506184Y299947D01*
X506900Y302618D01*
Y305382D01*
X506184Y308053D01*
X504802Y310447D01*
X502847Y312402D01*
X500453Y313784D01*
X497782Y314500D01*
X495018D01*
X492347Y313784D01*
X489953Y312402D01*
X487998Y310447D01*
X486616Y308053D01*
X485900Y305382D01*
Y302618D01*
X486616Y299947D01*
X487998Y297553D01*
X489216Y296335D01*
X488690Y295065D01*
X478710D01*
X478184Y296335D01*
X479402Y297553D01*
X480784Y299947D01*
X481500Y302618D01*
Y305382D01*
X480784Y308053D01*
X479402Y310447D01*
X477447Y312402D01*
X475053Y313784D01*
X472382Y314500D01*
X469618D01*
X466947Y313784D01*
X464553Y312402D01*
X462598Y310447D01*
X461216Y308053D01*
X460500Y305382D01*
Y302618D01*
X461216Y299947D01*
X462598Y297553D01*
X463816Y296335D01*
X463290Y295065D01*
X412709D01*
X412223Y296238D01*
X435424Y319440D01*
X440000D01*
Y317500D01*
X745440D01*
Y313260D01*
X743953Y312402D01*
X741998Y310447D01*
X740616Y308053D01*
X739900Y305382D01*
Y302618D01*
X740616Y299947D01*
X741998Y297553D01*
X743953Y295598D01*
X746347Y294216D01*
X749018Y293500D01*
X751782D01*
X754453Y294216D01*
X756847Y295598D01*
X758802Y297553D01*
X760184Y299947D01*
X760900Y302618D01*
Y305382D01*
X760184Y308053D01*
X759560Y309134D01*
Y317500D01*
X768740D01*
Y311789D01*
X767398Y310447D01*
X766016Y308053D01*
X765300Y305382D01*
Y302618D01*
X766016Y299947D01*
X767398Y297553D01*
X769353Y295598D01*
X771747Y294216D01*
X774418Y293500D01*
X777182D01*
X779853Y294216D01*
X782247Y295598D01*
X784202Y297553D01*
X785584Y299947D01*
X786300Y302618D01*
Y305382D01*
X785584Y308053D01*
X784202Y310447D01*
X782860Y311789D01*
Y317500D01*
X972500D01*
Y371940D01*
X1004878D01*
X1005543Y370670D01*
X1004538Y368929D01*
X1003857Y366386D01*
Y363753D01*
X1004538Y361210D01*
X1005855Y358930D01*
X1007717Y357068D01*
X1009997Y355751D01*
X1012540Y355070D01*
X1015173D01*
X1017717Y355751D01*
X1019997Y357068D01*
X1020938Y358009D01*
X1033250D01*
Y349500D01*
X1039940D01*
Y338843D01*
X1040180Y337016D01*
X1040885Y335313D01*
X1042008Y333851D01*
X1044351Y331507D01*
X1044660Y331270D01*
X1044229Y330000D01*
X1042500D01*
Y317500D01*
X1045000Y315000D01*
X1067450D01*
Y281559D01*
X1066849Y281158D01*
X1066847Y281156D01*
X1066845Y281155D01*
X1066296Y280333D01*
X1065742Y279505D01*
X1065292Y278422D01*
X1065291Y278419D01*
X1065290Y278417D01*
X1065097Y277446D01*
X1064902Y276471D01*
X1064902Y276469D01*
X1064902Y276466D01*
Y234000D01*
X1065290Y232049D01*
X1066395Y230395D01*
X1068049Y229290D01*
X1070000Y228902D01*
X1107500D01*
X1109451Y229290D01*
X1111105Y230395D01*
X1112210Y232049D01*
X1112598Y234000D01*
Y277550D01*
X1112550Y277791D01*
Y315000D01*
X1140000D01*
Y326855D01*
X1143145Y330000D01*
X1143145D01*
X1144080Y330807D01*
X1144992Y331507D01*
X1154993Y341508D01*
X1156115Y342970D01*
X1156820Y344673D01*
X1157060Y346500D01*
Y504000D01*
X1156820Y505827D01*
X1156115Y507530D01*
X1154993Y508992D01*
X1136492Y527492D01*
X1135030Y528615D01*
X1133327Y529320D01*
X1131500Y529560D01*
X1074500D01*
Y534750D01*
Y558250D01*
X1053310D01*
Y583750D01*
X1053271Y584045D01*
X1054109Y585000D01*
X1055000D01*
X1010000Y630000D01*
Y671435D01*
X1179935D01*
Y665496D01*
X1179833Y665417D01*
X1178110Y663171D01*
X1177027Y660556D01*
X1176657Y657750D01*
Y650250D01*
X1177027Y647444D01*
X1178110Y644829D01*
X1179833Y642583D01*
X1182079Y640860D01*
X1184694Y639777D01*
X1187500Y639407D01*
X1190306Y639777D01*
X1192921Y640860D01*
X1195167Y642583D01*
X1196890Y644829D01*
X1197973Y647444D01*
X1198343Y650250D01*
Y657750D01*
X1197973Y660556D01*
X1196890Y663171D01*
X1195167Y665417D01*
X1195065Y665496D01*
Y676071D01*
X1194807Y678029D01*
X1194051Y679853D01*
X1192849Y681420D01*
X1189920Y684349D01*
X1188353Y685551D01*
X1186529Y686307D01*
X1184571Y686565D01*
D02*
G37*
G36*
X1097500Y668593D02*
X1094694Y668223D01*
X1092079Y667140D01*
X1089833Y665417D01*
X1088110Y663171D01*
X1087027Y660556D01*
X1086657Y657750D01*
Y650250D01*
X1087027Y647444D01*
X1088110Y644829D01*
X1089833Y642583D01*
X1092079Y640860D01*
X1094694Y639777D01*
X1097500Y639407D01*
X1100306Y639777D01*
X1102921Y640860D01*
X1105167Y642583D01*
X1106890Y644829D01*
X1107973Y647444D01*
X1108343Y650250D01*
Y657750D01*
X1107973Y660556D01*
X1106890Y663171D01*
X1105167Y665417D01*
X1102921Y667140D01*
X1100306Y668223D01*
X1097500Y668593D01*
D02*
G37*
G36*
X1072500D02*
X1069694Y668223D01*
X1067079Y667140D01*
X1064833Y665417D01*
X1063110Y663171D01*
X1062027Y660556D01*
X1061657Y657750D01*
Y650250D01*
X1062027Y647444D01*
X1063110Y644829D01*
X1064833Y642583D01*
X1067079Y640860D01*
X1069694Y639777D01*
X1072500Y639407D01*
X1075306Y639777D01*
X1077921Y640860D01*
X1080167Y642583D01*
X1081890Y644829D01*
X1082973Y647444D01*
X1083343Y650250D01*
Y657750D01*
X1082973Y660556D01*
X1081890Y663171D01*
X1080167Y665417D01*
X1077921Y667140D01*
X1075306Y668223D01*
X1072500Y668593D01*
D02*
G37*
G36*
X1047500D02*
X1044694Y668223D01*
X1042079Y667140D01*
X1039833Y665417D01*
X1038110Y663171D01*
X1037027Y660556D01*
X1036657Y657750D01*
Y650250D01*
X1037027Y647444D01*
X1038110Y644829D01*
X1039833Y642583D01*
X1042079Y640860D01*
X1044694Y639777D01*
X1047500Y639407D01*
X1050306Y639777D01*
X1052921Y640860D01*
X1055167Y642583D01*
X1056890Y644829D01*
X1057973Y647444D01*
X1058343Y650250D01*
Y657750D01*
X1057973Y660556D01*
X1056890Y663171D01*
X1055167Y665417D01*
X1052921Y667140D01*
X1050306Y668223D01*
X1047500Y668593D01*
D02*
G37*
G36*
X1022500D02*
X1019694Y668223D01*
X1017079Y667140D01*
X1014833Y665417D01*
X1013110Y663171D01*
X1012027Y660556D01*
X1011657Y657750D01*
Y650250D01*
X1012027Y647444D01*
X1013110Y644829D01*
X1014833Y642583D01*
X1017079Y640860D01*
X1019694Y639777D01*
X1022500Y639407D01*
X1025306Y639777D01*
X1027921Y640860D01*
X1030167Y642583D01*
X1031890Y644829D01*
X1032973Y647444D01*
X1033343Y650250D01*
Y657750D01*
X1032973Y660556D01*
X1031890Y663171D01*
X1030167Y665417D01*
X1027921Y667140D01*
X1025306Y668223D01*
X1022500Y668593D01*
D02*
G37*
G36*
X535000D02*
X532194Y668223D01*
X529579Y667140D01*
X527333Y665417D01*
X525610Y663171D01*
X524527Y660556D01*
X524157Y657750D01*
Y650250D01*
X524527Y647444D01*
X525610Y644829D01*
X527333Y642583D01*
X529579Y640860D01*
X532194Y639777D01*
X535000Y639407D01*
X537806Y639777D01*
X540421Y640860D01*
X542667Y642583D01*
X544390Y644829D01*
X545473Y647444D01*
X545843Y650250D01*
Y657750D01*
X545473Y660556D01*
X544390Y663171D01*
X542667Y665417D01*
X540421Y667140D01*
X537806Y668223D01*
X535000Y668593D01*
D02*
G37*
G36*
X447500D02*
X444694Y668223D01*
X442079Y667140D01*
X439833Y665417D01*
X438110Y663171D01*
X437027Y660556D01*
X436657Y657750D01*
Y650250D01*
X437027Y647444D01*
X438110Y644829D01*
X439833Y642583D01*
X442079Y640860D01*
X444694Y639777D01*
X447500Y639407D01*
X450306Y639777D01*
X452921Y640860D01*
X455167Y642583D01*
X456890Y644829D01*
X457973Y647444D01*
X458343Y650250D01*
Y657750D01*
X457973Y660556D01*
X456890Y663171D01*
X455167Y665417D01*
X452921Y667140D01*
X450306Y668223D01*
X447500Y668593D01*
D02*
G37*
G36*
X422500D02*
X419694Y668223D01*
X417079Y667140D01*
X414833Y665417D01*
X413110Y663171D01*
X412027Y660556D01*
X411657Y657750D01*
Y650250D01*
X412027Y647444D01*
X413110Y644829D01*
X414833Y642583D01*
X417079Y640860D01*
X419694Y639777D01*
X422500Y639407D01*
X425306Y639777D01*
X427921Y640860D01*
X430167Y642583D01*
X431890Y644829D01*
X432973Y647444D01*
X433343Y650250D01*
Y657750D01*
X432973Y660556D01*
X431890Y663171D01*
X430167Y665417D01*
X427921Y667140D01*
X425306Y668223D01*
X422500Y668593D01*
D02*
G37*
G36*
X397500D02*
X394694Y668223D01*
X392079Y667140D01*
X389833Y665417D01*
X388110Y663171D01*
X387027Y660556D01*
X386657Y657750D01*
Y650250D01*
X387027Y647444D01*
X388110Y644829D01*
X389833Y642583D01*
X392079Y640860D01*
X394694Y639777D01*
X397500Y639407D01*
X400306Y639777D01*
X402921Y640860D01*
X405167Y642583D01*
X406890Y644829D01*
X407973Y647444D01*
X408343Y650250D01*
Y657750D01*
X407973Y660556D01*
X406890Y663171D01*
X405167Y665417D01*
X402921Y667140D01*
X400306Y668223D01*
X397500Y668593D01*
D02*
G37*
G36*
X372500D02*
X369694Y668223D01*
X367079Y667140D01*
X364833Y665417D01*
X363110Y663171D01*
X362027Y660556D01*
X361657Y657750D01*
Y650250D01*
X362027Y647444D01*
X363110Y644829D01*
X364833Y642583D01*
X367079Y640860D01*
X369694Y639777D01*
X372500Y639407D01*
X375306Y639777D01*
X377921Y640860D01*
X380167Y642583D01*
X381890Y644829D01*
X382973Y647444D01*
X383343Y650250D01*
Y657750D01*
X382973Y660556D01*
X381890Y663171D01*
X380167Y665417D01*
X377921Y667140D01*
X375306Y668223D01*
X372500Y668593D01*
D02*
G37*
G36*
X207500D02*
X204694Y668223D01*
X202079Y667140D01*
X199833Y665417D01*
X198110Y663171D01*
X197027Y660556D01*
X196657Y657750D01*
Y650250D01*
X197027Y647444D01*
X198110Y644829D01*
X199833Y642583D01*
X202079Y640860D01*
X204694Y639777D01*
X207500Y639407D01*
X210306Y639777D01*
X212921Y640860D01*
X215167Y642583D01*
X216890Y644829D01*
X217973Y647444D01*
X218343Y650250D01*
Y657750D01*
X217973Y660556D01*
X216890Y663171D01*
X215167Y665417D01*
X212921Y667140D01*
X210306Y668223D01*
X207500Y668593D01*
D02*
G37*
G36*
X182500D02*
X179694Y668223D01*
X177079Y667140D01*
X174833Y665417D01*
X173110Y663171D01*
X172027Y660556D01*
X171657Y657750D01*
Y650250D01*
X172027Y647444D01*
X173110Y644829D01*
X174833Y642583D01*
X177079Y640860D01*
X179694Y639777D01*
X182500Y639407D01*
X185306Y639777D01*
X187921Y640860D01*
X190167Y642583D01*
X191890Y644829D01*
X192973Y647444D01*
X193343Y650250D01*
Y657750D01*
X192973Y660556D01*
X191890Y663171D01*
X190167Y665417D01*
X187921Y667140D01*
X185306Y668223D01*
X182500Y668593D01*
D02*
G37*
G36*
X157500D02*
X154694Y668223D01*
X152079Y667140D01*
X149833Y665417D01*
X148110Y663171D01*
X147027Y660556D01*
X146657Y657750D01*
Y650250D01*
X147027Y647444D01*
X148110Y644829D01*
X149833Y642583D01*
X152079Y640860D01*
X154694Y639777D01*
X157500Y639407D01*
X160306Y639777D01*
X162921Y640860D01*
X165167Y642583D01*
X166890Y644829D01*
X167973Y647444D01*
X168343Y650250D01*
Y657750D01*
X167973Y660556D01*
X166890Y663171D01*
X165167Y665417D01*
X162921Y667140D01*
X160306Y668223D01*
X157500Y668593D01*
D02*
G37*
G36*
X764604Y645000D02*
X755000D01*
Y630726D01*
X755633Y630809D01*
X758552Y632018D01*
X761059Y633941D01*
X762982Y636448D01*
X764191Y639367D01*
X764604Y642500D01*
Y645000D01*
D02*
G37*
G36*
X727100Y664604D02*
X723967Y664191D01*
X721048Y662982D01*
X718541Y661059D01*
X716618Y658552D01*
X715409Y655633D01*
X714996Y652500D01*
Y642500D01*
X715409Y639367D01*
X716618Y636448D01*
X718541Y633941D01*
X721048Y632018D01*
X723967Y630809D01*
X727100Y630396D01*
X730233Y630809D01*
X733152Y632018D01*
X735658Y633941D01*
X737582Y636448D01*
X738791Y639367D01*
X739159Y642166D01*
X740441D01*
X740809Y639367D01*
X742018Y636448D01*
X743941Y633941D01*
X746448Y632018D01*
X749367Y630809D01*
X750000Y630726D01*
Y647500D01*
Y664274D01*
X749367Y664191D01*
X746448Y662982D01*
X743941Y661059D01*
X742018Y658552D01*
X740809Y655633D01*
X740441Y652834D01*
X739159D01*
X738791Y655633D01*
X737582Y658552D01*
X735658Y661059D01*
X733152Y662982D01*
X730233Y664191D01*
X727100Y664604D01*
D02*
G37*
G36*
X119804Y645000D02*
X110200D01*
Y630726D01*
X110833Y630809D01*
X113752Y632018D01*
X116258Y633941D01*
X118182Y636448D01*
X119391Y639367D01*
X119804Y642500D01*
Y645000D01*
D02*
G37*
G36*
X82300Y664604D02*
X79167Y664191D01*
X76248Y662982D01*
X73741Y661059D01*
X71818Y658552D01*
X70609Y655633D01*
X70196Y652500D01*
Y642500D01*
X70609Y639367D01*
X71818Y636448D01*
X73741Y633941D01*
X76248Y632018D01*
X79167Y630809D01*
X82300Y630396D01*
X85433Y630809D01*
X88352Y632018D01*
X90858Y633941D01*
X92782Y636448D01*
X93991Y639367D01*
X94360Y642166D01*
X95640D01*
X96009Y639367D01*
X97218Y636448D01*
X99142Y633941D01*
X101648Y632018D01*
X104567Y630809D01*
X105200Y630726D01*
Y647500D01*
Y664274D01*
X104567Y664191D01*
X101648Y662982D01*
X99142Y661059D01*
X97218Y658552D01*
X96009Y655633D01*
X95640Y652834D01*
X94360D01*
X93991Y655633D01*
X92782Y658552D01*
X90858Y661059D01*
X88352Y662982D01*
X85433Y664191D01*
X82300Y664604D01*
D02*
G37*
G36*
X560000Y668593D02*
X557194Y668223D01*
X554579Y667140D01*
X552333Y665417D01*
X550610Y663171D01*
X549527Y660556D01*
X549157Y657750D01*
Y650250D01*
X549527Y647444D01*
X550610Y644829D01*
X552333Y642583D01*
X552940Y642118D01*
Y578582D01*
X551998Y577640D01*
X550681Y575360D01*
X550000Y572817D01*
Y570183D01*
X550681Y567640D01*
X551998Y565360D01*
X553860Y563498D01*
X556140Y562182D01*
X558684Y561500D01*
X561317D01*
X563860Y562182D01*
X566140Y563498D01*
X568002Y565360D01*
X569319Y567640D01*
X570000Y570183D01*
Y572817D01*
X569319Y575360D01*
X568002Y577640D01*
X567060Y578582D01*
Y642118D01*
X567667Y642583D01*
X569390Y644829D01*
X570473Y647444D01*
X570843Y650250D01*
Y657750D01*
X570473Y660556D01*
X569390Y663171D01*
X567667Y665417D01*
X565421Y667140D01*
X562806Y668223D01*
X560000Y668593D01*
D02*
G37*
G36*
X969500Y533000D02*
X963500D01*
Y526500D01*
X969500D01*
Y533000D01*
D02*
G37*
G36*
X38750Y529843D02*
X37500D01*
Y521500D01*
X49264D01*
X49223Y521806D01*
X48140Y524421D01*
X46417Y526667D01*
X44171Y528390D01*
X41556Y529473D01*
X38750Y529843D01*
D02*
G37*
G36*
X32500D02*
X31250D01*
X28444Y529473D01*
X25829Y528390D01*
X23583Y526667D01*
X21860Y524421D01*
X20777Y521806D01*
X20736Y521500D01*
X32500D01*
Y529843D01*
D02*
G37*
G36*
X969500Y521500D02*
X963500D01*
Y515000D01*
X969500D01*
Y521500D01*
D02*
G37*
G36*
X49264Y516500D02*
X37500D01*
Y508157D01*
X38750D01*
X41556Y508527D01*
X44171Y509610D01*
X46417Y511333D01*
X48140Y513579D01*
X49223Y516194D01*
X49264Y516500D01*
D02*
G37*
G36*
X32500D02*
X20736D01*
X20777Y516194D01*
X21860Y513579D01*
X23583Y511333D01*
X25829Y509610D01*
X28444Y508527D01*
X31250Y508157D01*
X32500D01*
Y516500D01*
D02*
G37*
G36*
X498900Y466347D02*
Y458646D01*
X506600D01*
X506184Y460199D01*
X504802Y462593D01*
X502847Y464548D01*
X500453Y465930D01*
X498900Y466347D01*
D02*
G37*
G36*
X493900Y466347D02*
X492347Y465930D01*
X489953Y464548D01*
X487998Y462593D01*
X486616Y460199D01*
X486199Y458646D01*
X493900D01*
Y466347D01*
D02*
G37*
G36*
X38750Y479843D02*
X31250D01*
X28444Y479473D01*
X25829Y478390D01*
X23583Y476667D01*
X21860Y474421D01*
X20777Y471806D01*
X20407Y469000D01*
X20777Y466194D01*
X21860Y463579D01*
X23583Y461333D01*
X25829Y459610D01*
X28444Y458527D01*
X31250Y458157D01*
X38750D01*
X41556Y458527D01*
X44171Y459610D01*
X46417Y461333D01*
X48140Y463579D01*
X49223Y466194D01*
X49593Y469000D01*
X49223Y471806D01*
X48140Y474421D01*
X46417Y476667D01*
X44171Y478390D01*
X41556Y479473D01*
X38750Y479843D01*
D02*
G37*
G36*
X506600Y453646D02*
X498900D01*
Y445946D01*
X500453Y446362D01*
X502847Y447744D01*
X504802Y449699D01*
X506184Y452093D01*
X506600Y453646D01*
D02*
G37*
G36*
X493900D02*
X486199D01*
X486616Y452093D01*
X487998Y449699D01*
X489953Y447744D01*
X492347Y446362D01*
X493900Y445946D01*
Y453646D01*
D02*
G37*
G36*
X853382Y466646D02*
X850618D01*
X847947Y465930D01*
X845553Y464548D01*
X843598Y462593D01*
X842216Y460199D01*
X841500Y457528D01*
Y454764D01*
X842216Y452093D01*
X843598Y449699D01*
X845553Y447744D01*
X847947Y446362D01*
X850618Y445646D01*
X853382D01*
X856053Y446362D01*
X858447Y447744D01*
X860402Y449699D01*
X861784Y452093D01*
X862500Y454764D01*
Y457528D01*
X861784Y460199D01*
X860402Y462593D01*
X858447Y464548D01*
X856053Y465930D01*
X853382Y466646D01*
D02*
G37*
G36*
X802582D02*
X799818D01*
X797147Y465930D01*
X794753Y464548D01*
X792798Y462593D01*
X791416Y460199D01*
X790700Y457528D01*
Y454764D01*
X791416Y452093D01*
X792798Y449699D01*
X794753Y447744D01*
X797147Y446362D01*
X799818Y445646D01*
X802582D01*
X805253Y446362D01*
X807647Y447744D01*
X809602Y449699D01*
X810984Y452093D01*
X811700Y454764D01*
Y457528D01*
X810984Y460199D01*
X809602Y462593D01*
X807647Y464548D01*
X805253Y465930D01*
X802582Y466646D01*
D02*
G37*
G36*
X857500Y669593D02*
X854694Y669223D01*
X852079Y668140D01*
X849833Y666417D01*
X848110Y664171D01*
X847027Y661556D01*
X846657Y658750D01*
Y651250D01*
X847027Y648444D01*
X848110Y645829D01*
X849833Y643583D01*
X849935Y643504D01*
Y589633D01*
X770451Y510149D01*
X769249Y508582D01*
X768493Y506758D01*
X768235Y504800D01*
Y463430D01*
X767398Y462593D01*
X766016Y460199D01*
X765300Y457528D01*
Y454764D01*
X766016Y452093D01*
X767398Y449699D01*
X769353Y447744D01*
X771747Y446362D01*
X774418Y445646D01*
X777182D01*
X779853Y446362D01*
X782247Y447744D01*
X784202Y449699D01*
X785584Y452093D01*
X786300Y454764D01*
Y457528D01*
X785584Y460199D01*
X784202Y462593D01*
X783365Y463430D01*
Y501667D01*
X862849Y581151D01*
X864051Y582718D01*
X864807Y584542D01*
X865065Y586500D01*
X865065Y586500D01*
Y643504D01*
X865167Y643583D01*
X866890Y645829D01*
X867973Y648444D01*
X868343Y651250D01*
Y658750D01*
X867973Y661556D01*
X866890Y664171D01*
X865167Y666417D01*
X862921Y668140D01*
X860306Y669223D01*
X857500Y669593D01*
D02*
G37*
G36*
X832500D02*
X829694Y669223D01*
X827079Y668140D01*
X824833Y666417D01*
X823110Y664171D01*
X822027Y661556D01*
X821657Y658750D01*
Y651250D01*
X822027Y648444D01*
X823110Y645829D01*
X824833Y643583D01*
X824935Y643504D01*
Y597133D01*
X745051Y517249D01*
X743849Y515682D01*
X743093Y513858D01*
X742835Y511900D01*
Y463430D01*
X741998Y462593D01*
X740616Y460199D01*
X739900Y457528D01*
Y454764D01*
X740616Y452093D01*
X741998Y449699D01*
X743953Y447744D01*
X746347Y446362D01*
X749018Y445646D01*
X751782D01*
X754453Y446362D01*
X756847Y447744D01*
X758802Y449699D01*
X760184Y452093D01*
X760900Y454764D01*
Y457528D01*
X760184Y460199D01*
X758802Y462593D01*
X757965Y463430D01*
Y508767D01*
X837849Y588651D01*
X839051Y590218D01*
X839807Y592042D01*
X839936Y593021D01*
X840065Y594000D01*
X840065Y594000D01*
Y643504D01*
X840167Y643583D01*
X841890Y645829D01*
X842973Y648444D01*
X843343Y651250D01*
Y658750D01*
X842973Y661556D01*
X841890Y664171D01*
X840167Y666417D01*
X837921Y668140D01*
X835306Y669223D01*
X832500Y669593D01*
D02*
G37*
G36*
X726382Y466646D02*
X723618D01*
X720947Y465930D01*
X718553Y464548D01*
X716598Y462593D01*
X715216Y460199D01*
X714500Y457528D01*
Y454764D01*
X715216Y452093D01*
X716598Y449699D01*
X718553Y447744D01*
X720947Y446362D01*
X723618Y445646D01*
X726382D01*
X729053Y446362D01*
X731447Y447744D01*
X733402Y449699D01*
X734784Y452093D01*
X735500Y454764D01*
Y457528D01*
X734784Y460199D01*
X733402Y462593D01*
X731447Y464548D01*
X729053Y465930D01*
X726382Y466646D01*
D02*
G37*
G36*
X700982D02*
X698218D01*
X695547Y465930D01*
X693153Y464548D01*
X691198Y462593D01*
X689816Y460199D01*
X689100Y457528D01*
Y454764D01*
X689816Y452093D01*
X691198Y449699D01*
X693153Y447744D01*
X695547Y446362D01*
X698218Y445646D01*
X700982D01*
X703653Y446362D01*
X706047Y447744D01*
X708002Y449699D01*
X709384Y452093D01*
X710100Y454764D01*
Y457528D01*
X709384Y460199D01*
X708002Y462593D01*
X706047Y464548D01*
X703653Y465930D01*
X700982Y466646D01*
D02*
G37*
G36*
X675582D02*
X672818D01*
X670147Y465930D01*
X667753Y464548D01*
X665798Y462593D01*
X664416Y460199D01*
X663700Y457528D01*
Y454764D01*
X664416Y452093D01*
X665798Y449699D01*
X667753Y447744D01*
X670147Y446362D01*
X672818Y445646D01*
X675582D01*
X678253Y446362D01*
X680647Y447744D01*
X682602Y449699D01*
X683984Y452093D01*
X684700Y454764D01*
Y457528D01*
X683984Y460199D01*
X682602Y462593D01*
X680647Y464548D01*
X678253Y465930D01*
X675582Y466646D01*
D02*
G37*
G36*
X650182D02*
X647418D01*
X644747Y465930D01*
X642353Y464548D01*
X640398Y462593D01*
X639016Y460199D01*
X638300Y457528D01*
Y454764D01*
X639016Y452093D01*
X640398Y449699D01*
X642353Y447744D01*
X644747Y446362D01*
X647418Y445646D01*
X650182D01*
X652853Y446362D01*
X655247Y447744D01*
X657202Y449699D01*
X658584Y452093D01*
X659300Y454764D01*
Y457528D01*
X658584Y460199D01*
X657202Y462593D01*
X655247Y464548D01*
X652853Y465930D01*
X650182Y466646D01*
D02*
G37*
G36*
X440000Y539065D02*
X438042Y538807D01*
X436218Y538051D01*
X434651Y536849D01*
X434651Y536849D01*
X396001Y498199D01*
X394799Y496632D01*
X394043Y494808D01*
X393785Y492850D01*
Y483865D01*
X379500D01*
Y485750D01*
X340500D01*
Y482573D01*
X332650D01*
X331360Y483318D01*
X328817Y484000D01*
X326184D01*
X323640Y483318D01*
X321360Y482002D01*
X319498Y480140D01*
X318181Y477860D01*
X317500Y475317D01*
Y472683D01*
X318181Y470140D01*
X318927Y468849D01*
Y451000D01*
X315750D01*
Y429500D01*
Y412000D01*
X319935D01*
Y410500D01*
X318500D01*
Y392500D01*
X336500D01*
Y394230D01*
X336500Y395500D01*
X337770Y395500D01*
X340000D01*
Y401500D01*
Y407500D01*
X336500D01*
X336500Y408770D01*
Y410500D01*
X335065D01*
Y412000D01*
X339250D01*
Y427952D01*
X340500Y428000D01*
Y428000D01*
X343500D01*
Y426000D01*
X352500D01*
X361500D01*
Y428000D01*
X364500D01*
Y430927D01*
X368253D01*
X368962Y429216D01*
X370244Y427544D01*
X371916Y426262D01*
X373862Y425456D01*
X375950Y425181D01*
X378038Y425456D01*
X379985Y426262D01*
X381656Y427544D01*
X382938Y429216D01*
X383270Y430016D01*
X384703Y430158D01*
X385045Y429645D01*
X386150Y428907D01*
Y438000D01*
Y447093D01*
X385045Y446355D01*
X384703Y445842D01*
X383270Y445984D01*
X382938Y446785D01*
X381656Y448456D01*
X379985Y449738D01*
X378038Y450544D01*
X375950Y450819D01*
X373862Y450544D01*
X371916Y449738D01*
X370244Y448456D01*
X369951Y448073D01*
X364500D01*
Y451000D01*
X340500D01*
Y451000D01*
X339250Y451000D01*
Y451000D01*
X336073D01*
Y465427D01*
X340500D01*
Y462250D01*
X379500D01*
Y468735D01*
X393785D01*
Y446350D01*
X392515Y445965D01*
X392255Y446355D01*
X391150Y447093D01*
Y438000D01*
Y428907D01*
X392255Y429645D01*
X392597Y430158D01*
X394030Y430016D01*
X394362Y429216D01*
X395644Y427544D01*
X397315Y426262D01*
X399262Y425456D01*
X401350Y425181D01*
X403438Y425456D01*
X405384Y426262D01*
X407056Y427544D01*
X407065Y427556D01*
X408335D01*
X408344Y427544D01*
X410015Y426262D01*
X411962Y425456D01*
X414050Y425181D01*
X416138Y425456D01*
X418084Y426262D01*
X419756Y427544D01*
X421038Y429216D01*
X421844Y431162D01*
X422119Y433250D01*
Y442750D01*
X421844Y444838D01*
X421615Y445392D01*
Y484917D01*
X445633Y508935D01*
X509250D01*
Y489750D01*
X512327D01*
Y460738D01*
X512016Y460199D01*
X511300Y457528D01*
Y454764D01*
X512016Y452093D01*
X513398Y449699D01*
X515353Y447744D01*
X517747Y446362D01*
X520418Y445646D01*
X523182D01*
X525853Y446362D01*
X528247Y447744D01*
X530202Y449699D01*
X531584Y452093D01*
X532300Y454764D01*
Y457528D01*
X531584Y460199D01*
X530202Y462593D01*
X529473Y463322D01*
Y489750D01*
X548250D01*
Y508935D01*
X576867D01*
X590435Y495367D01*
Y463430D01*
X589598Y462593D01*
X588216Y460199D01*
X587500Y457528D01*
Y454764D01*
X588216Y452093D01*
X589598Y449699D01*
X591553Y447744D01*
X593947Y446362D01*
X596618Y445646D01*
X599382D01*
X602053Y446362D01*
X604447Y447744D01*
X606402Y449699D01*
X607784Y452093D01*
X608500Y454764D01*
Y457528D01*
X607784Y460199D01*
X606402Y462593D01*
X605565Y463430D01*
Y498500D01*
X605307Y500458D01*
X604551Y502282D01*
X603349Y503849D01*
X585349Y521849D01*
X584285Y522665D01*
X584716Y523935D01*
X591867D01*
X615835Y499967D01*
Y463430D01*
X614998Y462593D01*
X613616Y460199D01*
X612900Y457528D01*
Y454764D01*
X613616Y452093D01*
X614998Y449699D01*
X616953Y447744D01*
X619347Y446362D01*
X622018Y445646D01*
X624782D01*
X627453Y446362D01*
X629847Y447744D01*
X631802Y449699D01*
X633184Y452093D01*
X633900Y454764D01*
Y457528D01*
X633184Y460199D01*
X631802Y462593D01*
X630965Y463430D01*
Y503100D01*
X630707Y505058D01*
X629951Y506882D01*
X628749Y508449D01*
X628749Y508449D01*
X600349Y536849D01*
X598782Y538051D01*
X596958Y538807D01*
X595000Y539065D01*
X440000D01*
X440000Y539065D01*
D02*
G37*
G36*
X573982Y466646D02*
X571218D01*
X568547Y465930D01*
X566153Y464548D01*
X564198Y462593D01*
X562816Y460199D01*
X562100Y457528D01*
Y454764D01*
X562816Y452093D01*
X564198Y449699D01*
X566153Y447744D01*
X568547Y446362D01*
X571218Y445646D01*
X573982D01*
X576653Y446362D01*
X579047Y447744D01*
X581002Y449699D01*
X582384Y452093D01*
X583100Y454764D01*
Y457528D01*
X582384Y460199D01*
X581002Y462593D01*
X579047Y464548D01*
X576653Y465930D01*
X573982Y466646D01*
D02*
G37*
G36*
X548582D02*
X545818D01*
X543147Y465930D01*
X540753Y464548D01*
X538798Y462593D01*
X537416Y460199D01*
X536700Y457528D01*
Y454764D01*
X537416Y452093D01*
X538798Y449699D01*
X540753Y447744D01*
X543147Y446362D01*
X545818Y445646D01*
X548582D01*
X551253Y446362D01*
X553647Y447744D01*
X555602Y449699D01*
X556984Y452093D01*
X557700Y454764D01*
Y457528D01*
X556984Y460199D01*
X555602Y462593D01*
X553647Y464548D01*
X551253Y465930D01*
X548582Y466646D01*
D02*
G37*
G36*
X472382D02*
X469618D01*
X466947Y465930D01*
X464553Y464548D01*
X462598Y462593D01*
X461216Y460199D01*
X460500Y457528D01*
Y454764D01*
X461216Y452093D01*
X462598Y449699D01*
X464553Y447744D01*
X466947Y446362D01*
X469618Y445646D01*
X472382D01*
X475053Y446362D01*
X477447Y447744D01*
X479402Y449699D01*
X480784Y452093D01*
X481500Y454764D01*
Y457528D01*
X480784Y460199D01*
X479402Y462593D01*
X477447Y464548D01*
X475053Y465930D01*
X472382Y466646D01*
D02*
G37*
G36*
X361500Y421000D02*
X355000D01*
Y415000D01*
X361500D01*
Y421000D01*
D02*
G37*
G36*
X350000D02*
X343500D01*
Y415000D01*
X350000D01*
Y421000D01*
D02*
G37*
G36*
X38750Y417343D02*
X37500D01*
Y409000D01*
X49264D01*
X49223Y409306D01*
X48140Y411921D01*
X46417Y414167D01*
X44171Y415890D01*
X41556Y416973D01*
X38750Y417343D01*
D02*
G37*
G36*
X32500D02*
X31250D01*
X28444Y416973D01*
X25829Y415890D01*
X23583Y414167D01*
X21860Y411921D01*
X20777Y409306D01*
X20736Y409000D01*
X32500D01*
Y417343D01*
D02*
G37*
G36*
X345000Y407500D02*
Y404000D01*
X348500D01*
Y407500D01*
X345000D01*
D02*
G37*
G36*
X49264Y404000D02*
X37500D01*
Y395657D01*
X38750D01*
X41556Y396027D01*
X44171Y397110D01*
X46417Y398833D01*
X48140Y401079D01*
X49223Y403694D01*
X49264Y404000D01*
D02*
G37*
G36*
X32500D02*
X20736D01*
X20777Y403694D01*
X21860Y401079D01*
X23583Y398833D01*
X25829Y397110D01*
X28444Y396027D01*
X31250Y395657D01*
X32500D01*
Y404000D01*
D02*
G37*
G36*
X348500Y399000D02*
X345000D01*
Y395500D01*
X348500D01*
Y399000D01*
D02*
G37*
G36*
X416550Y374093D02*
Y367500D01*
X419148D01*
Y369750D01*
X418760Y371701D01*
X417655Y373355D01*
X416550Y374093D01*
D02*
G37*
G36*
X378450D02*
Y367500D01*
X381048D01*
Y369750D01*
X380660Y371701D01*
X379555Y373355D01*
X378450Y374093D01*
D02*
G37*
G36*
X403850D02*
Y367500D01*
X406448D01*
Y369750D01*
X406060Y371701D01*
X404955Y373355D01*
X403850Y374093D01*
D02*
G37*
G36*
X391150D02*
Y367500D01*
X393748D01*
Y369750D01*
X393360Y371701D01*
X392255Y373355D01*
X391150Y374093D01*
D02*
G37*
G36*
X411550Y374093D02*
X410445Y373355D01*
X409340Y371701D01*
X408952Y369750D01*
Y367500D01*
X411550D01*
Y374093D01*
D02*
G37*
G36*
X373450D02*
X372345Y373355D01*
X371240Y371701D01*
X370852Y369750D01*
Y367500D01*
X373450D01*
Y374093D01*
D02*
G37*
G36*
X398850D02*
X397745Y373355D01*
X396640Y371701D01*
X396252Y369750D01*
Y367500D01*
X398850D01*
Y374093D01*
D02*
G37*
G36*
X386150D02*
X385045Y373355D01*
X383940Y371701D01*
X383552Y369750D01*
Y367500D01*
X386150D01*
Y374093D01*
D02*
G37*
G36*
X411550Y362500D02*
X408952D01*
Y360250D01*
X409340Y358299D01*
X410445Y356645D01*
X411550Y355907D01*
Y362500D01*
D02*
G37*
G36*
X398850D02*
X396252D01*
Y360250D01*
X396640Y358299D01*
X397745Y356645D01*
X398850Y355907D01*
Y362500D01*
D02*
G37*
G36*
X386150D02*
X383552D01*
Y360250D01*
X383940Y358299D01*
X385045Y356645D01*
X386150Y355907D01*
Y362500D01*
D02*
G37*
G36*
X373450D02*
X370852D01*
Y360250D01*
X371240Y358299D01*
X372345Y356645D01*
X373450Y355907D01*
Y362500D01*
D02*
G37*
G36*
X419148D02*
X416550D01*
Y355907D01*
X417655Y356645D01*
X418760Y358299D01*
X419148Y360250D01*
Y362500D01*
D02*
G37*
G36*
X406448D02*
X403850D01*
Y355907D01*
X404955Y356645D01*
X406060Y358299D01*
X406448Y360250D01*
Y362500D01*
D02*
G37*
G36*
X393748D02*
X391150D01*
Y355907D01*
X392255Y356645D01*
X393360Y358299D01*
X393748Y360250D01*
Y362500D01*
D02*
G37*
G36*
X381048D02*
X378450D01*
Y355907D01*
X379555Y356645D01*
X380660Y358299D01*
X381048Y360250D01*
Y362500D01*
D02*
G37*
G36*
X38750Y367343D02*
X31250D01*
X28444Y366973D01*
X25829Y365890D01*
X23583Y364167D01*
X21860Y361921D01*
X20777Y359306D01*
X20407Y356500D01*
X20777Y353694D01*
X21860Y351079D01*
X23583Y348833D01*
X25829Y347110D01*
X28444Y346027D01*
X31250Y345657D01*
X38750D01*
X41556Y346027D01*
X44171Y347110D01*
X46417Y348833D01*
X48140Y351079D01*
X49223Y353694D01*
X49593Y356500D01*
X49223Y359306D01*
X48140Y361921D01*
X46417Y364167D01*
X44171Y365890D01*
X41556Y366973D01*
X38750Y367343D01*
D02*
G37*
G36*
X930700Y314200D02*
Y306500D01*
X938400D01*
X937984Y308053D01*
X936602Y310447D01*
X934647Y312402D01*
X932253Y313784D01*
X930700Y314200D01*
D02*
G37*
G36*
X925700Y314200D02*
X924147Y313784D01*
X921753Y312402D01*
X919798Y310447D01*
X918416Y308053D01*
X917999Y306500D01*
X925700D01*
Y314200D01*
D02*
G37*
G36*
X47500Y304804D02*
X45000D01*
Y295200D01*
X59275D01*
X59191Y295833D01*
X57982Y298752D01*
X56059Y301259D01*
X53552Y303182D01*
X50633Y304391D01*
X47500Y304804D01*
D02*
G37*
G36*
X40000D02*
X37500D01*
X34367Y304391D01*
X31448Y303182D01*
X28942Y301259D01*
X27018Y298752D01*
X25809Y295833D01*
X25726Y295200D01*
X40000D01*
Y304804D01*
D02*
G37*
G36*
X938400Y301500D02*
X930700D01*
Y293799D01*
X932253Y294216D01*
X934647Y295598D01*
X936602Y297553D01*
X937984Y299947D01*
X938400Y301500D01*
D02*
G37*
G36*
X925700D02*
X917999D01*
X918416Y299947D01*
X919798Y297553D01*
X921753Y295598D01*
X924147Y294216D01*
X925700Y293799D01*
Y301500D01*
D02*
G37*
G36*
X964100Y314500D02*
X943100D01*
Y293500D01*
X964100D01*
Y314500D01*
D02*
G37*
G36*
X904182D02*
X901418D01*
X898747Y313784D01*
X896353Y312402D01*
X894398Y310447D01*
X893016Y308053D01*
X892300Y305382D01*
Y302618D01*
X893016Y299947D01*
X894398Y297553D01*
X896353Y295598D01*
X898747Y294216D01*
X901418Y293500D01*
X904182D01*
X906853Y294216D01*
X909247Y295598D01*
X911202Y297553D01*
X912584Y299947D01*
X913300Y302618D01*
Y305382D01*
X912584Y308053D01*
X911202Y310447D01*
X909247Y312402D01*
X906853Y313784D01*
X904182Y314500D01*
D02*
G37*
G36*
X878782D02*
X876018D01*
X873347Y313784D01*
X870953Y312402D01*
X868998Y310447D01*
X867616Y308053D01*
X866900Y305382D01*
Y302618D01*
X867616Y299947D01*
X868998Y297553D01*
X870953Y295598D01*
X873347Y294216D01*
X876018Y293500D01*
X878782D01*
X881453Y294216D01*
X883847Y295598D01*
X885802Y297553D01*
X887184Y299947D01*
X887900Y302618D01*
Y305382D01*
X887184Y308053D01*
X885802Y310447D01*
X883847Y312402D01*
X881453Y313784D01*
X878782Y314500D01*
D02*
G37*
G36*
X853382D02*
X850618D01*
X847947Y313784D01*
X845553Y312402D01*
X843598Y310447D01*
X842216Y308053D01*
X841500Y305382D01*
Y302618D01*
X842216Y299947D01*
X843598Y297553D01*
X845553Y295598D01*
X847947Y294216D01*
X850618Y293500D01*
X853382D01*
X856053Y294216D01*
X858447Y295598D01*
X860402Y297553D01*
X861784Y299947D01*
X862500Y302618D01*
Y305382D01*
X861784Y308053D01*
X860402Y310447D01*
X858447Y312402D01*
X856053Y313784D01*
X853382Y314500D01*
D02*
G37*
G36*
X827982D02*
X825218D01*
X822547Y313784D01*
X820153Y312402D01*
X818198Y310447D01*
X816816Y308053D01*
X816100Y305382D01*
Y302618D01*
X816816Y299947D01*
X818198Y297553D01*
X820153Y295598D01*
X822547Y294216D01*
X825218Y293500D01*
X827982D01*
X830653Y294216D01*
X833047Y295598D01*
X835002Y297553D01*
X836384Y299947D01*
X837100Y302618D01*
Y305382D01*
X836384Y308053D01*
X835002Y310447D01*
X833047Y312402D01*
X830653Y313784D01*
X827982Y314500D01*
D02*
G37*
G36*
X802582D02*
X799818D01*
X797147Y313784D01*
X794753Y312402D01*
X792798Y310447D01*
X791416Y308053D01*
X790700Y305382D01*
Y302618D01*
X791416Y299947D01*
X792798Y297553D01*
X794753Y295598D01*
X797147Y294216D01*
X799818Y293500D01*
X802582D01*
X805253Y294216D01*
X807647Y295598D01*
X809602Y297553D01*
X810984Y299947D01*
X811700Y302618D01*
Y305382D01*
X810984Y308053D01*
X809602Y310447D01*
X807647Y312402D01*
X805253Y313784D01*
X802582Y314500D01*
D02*
G37*
G36*
X130000Y305500D02*
X122500D01*
Y290000D01*
X130000D01*
Y305500D01*
D02*
G37*
G36*
X117500D02*
X110000D01*
Y290000D01*
X117500D01*
Y305500D01*
D02*
G37*
G36*
X200000D02*
X192500D01*
Y290000D01*
X200000D01*
Y305500D01*
D02*
G37*
G36*
X187500D02*
X180000D01*
Y290000D01*
X187500D01*
Y305500D01*
D02*
G37*
G36*
X237500Y283500D02*
X234000D01*
Y280000D01*
X237500D01*
Y283500D01*
D02*
G37*
G36*
Y275000D02*
X234000D01*
Y271500D01*
X237500D01*
Y275000D01*
D02*
G37*
G36*
X200000Y285000D02*
X192500D01*
Y269500D01*
X200000D01*
Y285000D01*
D02*
G37*
G36*
X187500D02*
X180000D01*
Y269500D01*
X187500D01*
Y285000D01*
D02*
G37*
G36*
X130000Y285000D02*
X122500D01*
Y269500D01*
X130000D01*
Y285000D01*
D02*
G37*
G36*
X117500D02*
X110000D01*
Y269500D01*
X117500D01*
Y285000D01*
D02*
G37*
G36*
X429000Y259000D02*
X422500D01*
Y253000D01*
X429000D01*
Y259000D01*
D02*
G37*
G36*
X417500D02*
X411000D01*
Y253000D01*
X417500D01*
Y259000D01*
D02*
G37*
G36*
X384000Y259000D02*
X377500D01*
Y253000D01*
X384000D01*
Y259000D01*
D02*
G37*
G36*
X406500D02*
X400000D01*
Y253000D01*
X406500D01*
Y259000D01*
D02*
G37*
G36*
X372500D02*
X366000D01*
Y253000D01*
X372500D01*
Y259000D01*
D02*
G37*
G36*
X395000D02*
X388500D01*
Y253000D01*
X395000D01*
Y259000D01*
D02*
G37*
G36*
X271200Y209000D02*
X262150D01*
Y203325D01*
X271200D01*
Y209000D01*
D02*
G37*
G36*
X257150D02*
X248100D01*
Y203325D01*
X257150D01*
Y209000D01*
D02*
G37*
G36*
X294000Y205000D02*
X277500D01*
Y193250D01*
X294000D01*
Y205000D01*
D02*
G37*
G36*
X616500Y198500D02*
X610000D01*
Y192500D01*
X616500D01*
Y198500D01*
D02*
G37*
G36*
X605000D02*
X598500D01*
Y192500D01*
X605000D01*
Y198500D01*
D02*
G37*
G36*
X602500Y187500D02*
Y184000D01*
X606000D01*
Y187500D01*
X602500D01*
D02*
G37*
G36*
X606000Y179000D02*
X602500D01*
Y175500D01*
X606000D01*
Y179000D01*
D02*
G37*
G36*
X271200Y198325D02*
X259650D01*
X248100D01*
Y196650D01*
X236750D01*
Y155500D01*
X271200D01*
Y192650D01*
Y198325D01*
D02*
G37*
G36*
X140300Y150500D02*
X127500D01*
X114700D01*
Y146100D01*
X111700D01*
Y125900D01*
X114700D01*
Y121500D01*
X127500D01*
X140300D01*
Y125900D01*
X143262D01*
X143640Y125681D01*
X146184Y125000D01*
X148816D01*
X151360Y125681D01*
X153640Y126998D01*
X155502Y128860D01*
X156819Y131140D01*
X157500Y133684D01*
Y136316D01*
X156819Y138860D01*
X155502Y141140D01*
X153640Y143002D01*
X151360Y144319D01*
X148816Y145000D01*
X146184D01*
X144570Y144568D01*
X143300Y145536D01*
Y146100D01*
X140300D01*
Y150500D01*
D02*
G37*
G36*
Y116500D02*
X130000D01*
Y111900D01*
X140300D01*
Y116500D01*
D02*
G37*
G36*
X125000D02*
X114700D01*
Y111900D01*
X125000D01*
Y116500D01*
D02*
G37*
G36*
X1109550Y110550D02*
X1092500D01*
Y92800D01*
X1109550D01*
Y110550D01*
D02*
G37*
G36*
X1087500D02*
X1070450D01*
Y92800D01*
X1087500D01*
Y110550D01*
D02*
G37*
G36*
X619550Y89800D02*
X611050D01*
Y84150D01*
X619550D01*
Y89800D01*
D02*
G37*
G36*
X901000Y100000D02*
X896500D01*
Y83000D01*
X901000D01*
Y100000D01*
D02*
G37*
G36*
X921000D02*
X916500D01*
Y83000D01*
X921000D01*
Y100000D01*
D02*
G37*
G36*
X911500D02*
X907000D01*
Y83000D01*
X911500D01*
Y100000D01*
D02*
G37*
G36*
X891500D02*
X887000D01*
Y83000D01*
X891500D01*
Y100000D01*
D02*
G37*
G36*
X619550Y79150D02*
X611050D01*
Y73500D01*
X619550D01*
Y79150D01*
D02*
G37*
G36*
X1109550Y87800D02*
X1092500D01*
Y70050D01*
X1109550D01*
Y87800D01*
D02*
G37*
G36*
X1087500D02*
X1070450D01*
Y70050D01*
X1087500D01*
Y87800D01*
D02*
G37*
G36*
X155250Y72750D02*
X143500D01*
Y62500D01*
X155250D01*
Y72750D01*
D02*
G37*
G36*
X138500D02*
X126750D01*
Y62500D01*
X138500D01*
Y72750D01*
D02*
G37*
G36*
X921000Y78000D02*
X916500D01*
Y61000D01*
X921000D01*
Y78000D01*
D02*
G37*
G36*
X911500D02*
X907000D01*
Y61000D01*
X911500D01*
Y78000D01*
D02*
G37*
G36*
X901000D02*
X896500D01*
Y61000D01*
X901000D01*
Y78000D01*
D02*
G37*
G36*
X891500D02*
X887000D01*
Y61000D01*
X891500D01*
Y78000D01*
D02*
G37*
G36*
X732240Y136027D02*
X627760D01*
Y107287D01*
X627985D01*
Y91517D01*
X627943Y91415D01*
X627730Y89800D01*
X624550D01*
Y81650D01*
Y73500D01*
X627685D01*
Y65150D01*
X620400D01*
Y42850D01*
X674600D01*
Y52407D01*
X675870Y53120D01*
X677142Y52593D01*
X678850Y52368D01*
Y39400D01*
X701150D01*
Y63813D01*
X701350Y65000D01*
X704181D01*
X704350Y63800D01*
X704350Y63730D01*
Y55300D01*
X712500D01*
X720650D01*
Y63730D01*
X720650Y63800D01*
X720819Y65000D01*
X723650D01*
Y93000D01*
X720916D01*
X720715Y94529D01*
X719959Y96354D01*
X718757Y97920D01*
X718757Y97920D01*
X710563Y106114D01*
X711049Y107287D01*
X732240D01*
Y136027D01*
D02*
G37*
G36*
X155250Y57500D02*
X143500D01*
Y47250D01*
X155250D01*
Y57500D01*
D02*
G37*
G36*
X138500D02*
X126750D01*
Y47250D01*
X138500D01*
Y57500D01*
D02*
G37*
G36*
X720650Y50300D02*
X715000D01*
Y41800D01*
X720650D01*
Y50300D01*
D02*
G37*
G36*
X710000D02*
X704350D01*
Y41800D01*
X710000D01*
Y50300D01*
D02*
G37*
G36*
X59275Y290200D02*
X42500D01*
X25726D01*
X25809Y289567D01*
X27018Y286648D01*
X28942Y284142D01*
X31448Y282218D01*
X34367Y281009D01*
X37166Y280641D01*
Y279359D01*
X34367Y278991D01*
X31448Y277782D01*
X28942Y275858D01*
X27018Y273352D01*
X25809Y270433D01*
X25396Y267300D01*
X25809Y264167D01*
X25549Y263354D01*
X24859Y262893D01*
X24139Y262477D01*
X24036Y262343D01*
X23895Y262249D01*
X23434Y261559D01*
X22928Y260899D01*
X22884Y260736D01*
X22790Y260595D01*
X22628Y259781D01*
X22413Y258978D01*
X22435Y258810D01*
X22402Y258645D01*
Y255000D01*
Y210000D01*
Y185000D01*
X22790Y183049D01*
X23895Y181395D01*
X31395Y173895D01*
X33049Y172790D01*
X35000Y172402D01*
X111700D01*
Y159900D01*
X114700D01*
Y155500D01*
X127500D01*
X140300D01*
Y159900D01*
X143300D01*
Y161427D01*
X147402D01*
Y160000D01*
X147790Y158049D01*
X148895Y156395D01*
X162402Y142888D01*
Y32500D01*
X162790Y30549D01*
X163895Y28895D01*
X165549Y27790D01*
X167500Y27402D01*
X410000D01*
X411951Y27790D01*
X413605Y28895D01*
X414710Y30549D01*
X415098Y32500D01*
Y90000D01*
X414710Y91951D01*
X413605Y93605D01*
X411951Y94710D01*
X410000Y95098D01*
X280312D01*
X277805Y97605D01*
X276151Y98710D01*
X274200Y99098D01*
X271200D01*
Y102675D01*
X259650D01*
Y107675D01*
X271200D01*
Y109350D01*
Y150500D01*
X234250D01*
Y153000D01*
X231750D01*
Y196650D01*
X210420D01*
X209754Y197920D01*
X210098Y199650D01*
Y255000D01*
X209710Y256951D01*
X208605Y258605D01*
X206951Y259710D01*
X205000Y260098D01*
X200000D01*
X198049Y259710D01*
X196395Y258605D01*
X196325Y258500D01*
X183675D01*
X183605Y258605D01*
X181951Y259710D01*
X180000Y260098D01*
X130000D01*
X128049Y259710D01*
X126395Y258605D01*
X126325Y258500D01*
X113675D01*
X113605Y258605D01*
X111951Y259710D01*
X110000Y260098D01*
X62309D01*
X62210Y260595D01*
X62116Y260736D01*
X62072Y260899D01*
X61567Y261558D01*
X61105Y262249D01*
X60964Y262343D01*
X60861Y262477D01*
X60142Y262893D01*
X59451Y263354D01*
X59191Y264167D01*
X59604Y267300D01*
X59191Y270433D01*
X57982Y273352D01*
X56059Y275858D01*
X53552Y277782D01*
X50633Y278991D01*
X47835Y279359D01*
Y280641D01*
X50633Y281009D01*
X53552Y282218D01*
X56059Y284142D01*
X57982Y286648D01*
X59191Y289567D01*
X59275Y290200D01*
D02*
G37*
%LPD*%
G36*
X1014000Y533000D02*
X1012000D01*
Y524000D01*
Y515000D01*
X1014000D01*
Y512000D01*
X1018485D01*
X1018680Y510516D01*
X1019385Y508813D01*
X1019756Y508330D01*
X1019129Y507060D01*
X1002924D01*
X999056Y510929D01*
X999500Y512000D01*
X999500D01*
Y534750D01*
X1014000D01*
Y533000D01*
D02*
G37*
G36*
X343500Y534000D02*
Y527500D01*
X352000D01*
Y525000D01*
X354500D01*
Y516000D01*
X356500D01*
Y513000D01*
X360940D01*
Y504560D01*
X321898D01*
X321193Y505616D01*
X321320Y505923D01*
X321560Y507750D01*
Y513000D01*
X326000D01*
Y516000D01*
X328000D01*
Y525000D01*
X330500D01*
Y527500D01*
X339000D01*
Y534000D01*
X339959Y534750D01*
X342541D01*
X343500Y534000D01*
D02*
G37*
G36*
X303000Y533561D02*
Y513000D01*
X307440D01*
Y510675D01*
X283984Y487219D01*
X282810Y487705D01*
Y513000D01*
X288500D01*
Y516000D01*
X290500D01*
Y525000D01*
X293000D01*
Y527500D01*
X301500D01*
Y532879D01*
X302770Y533673D01*
X303000Y533561D01*
D02*
G37*
G36*
X1132940Y493576D02*
Y359101D01*
X1127399Y353560D01*
X1119500D01*
Y375000D01*
X1116500D01*
Y377000D01*
X1098500D01*
Y375000D01*
X1095500D01*
Y373092D01*
X1094492Y372319D01*
X1093817Y372500D01*
X1091183D01*
X1088640Y371819D01*
X1088020Y371460D01*
X1086750Y372194D01*
Y377500D01*
X1082487D01*
X1082001Y378673D01*
X1082336Y379007D01*
X1082336Y379007D01*
X1092493Y389164D01*
X1093615Y390627D01*
X1094320Y392329D01*
X1094560Y394157D01*
Y497657D01*
X1094320Y499484D01*
X1093615Y501187D01*
X1093527Y501301D01*
X1094089Y502440D01*
X1124075D01*
X1132940Y493576D01*
D02*
G37*
G36*
X475000Y140000D02*
X312500D01*
Y190250D01*
X318500D01*
Y224750D01*
X312500D01*
Y225000D01*
X227500D01*
Y240000D01*
X363000D01*
Y239000D01*
X366000D01*
Y238500D01*
X375000D01*
X384000D01*
Y239000D01*
X388500D01*
Y238500D01*
X397500D01*
X406500D01*
Y239000D01*
X409500D01*
Y239000D01*
X411000D01*
Y238500D01*
X429000D01*
Y239000D01*
X432000D01*
Y240000D01*
X475000D01*
Y140000D01*
D02*
G37*
G36*
X1094000Y277550D02*
X1107500D01*
Y234000D01*
X1070000D01*
Y276466D01*
X1070450Y277550D01*
X1086000D01*
Y297800D01*
X1094000D01*
Y277550D01*
D02*
G37*
G36*
X802500Y62000D02*
X801000D01*
Y76500D01*
X794000D01*
X787000D01*
Y62000D01*
X781000D01*
Y76500D01*
X774000D01*
X767000D01*
Y62000D01*
X765000D01*
X742500Y84500D01*
Y164000D01*
X802500D01*
Y62000D01*
D02*
G37*
%LPC*%
G36*
X1007000Y533000D02*
X1001000D01*
Y526500D01*
X1007000D01*
Y533000D01*
D02*
G37*
G36*
Y521500D02*
X1001000D01*
Y515000D01*
X1007000D01*
Y521500D01*
D02*
G37*
G36*
X349500Y522500D02*
X343500D01*
Y516000D01*
X349500D01*
Y522500D01*
D02*
G37*
G36*
X339000Y522500D02*
X333000D01*
Y516000D01*
X339000D01*
Y522500D01*
D02*
G37*
G36*
X301500Y522500D02*
X295500D01*
Y516000D01*
X301500D01*
Y522500D01*
D02*
G37*
G36*
X1116500Y388000D02*
X1110000D01*
Y382000D01*
X1116500D01*
Y388000D01*
D02*
G37*
G36*
X1105000D02*
X1098500D01*
Y382000D01*
X1105000D01*
Y388000D01*
D02*
G37*
G36*
X429000Y230500D02*
X424000D01*
Y226000D01*
X429000D01*
Y230500D01*
D02*
G37*
G36*
X416000D02*
X411000D01*
Y226000D01*
X416000D01*
Y230500D01*
D02*
G37*
G36*
X406500Y230500D02*
X401500D01*
Y226000D01*
X406500D01*
Y230500D01*
D02*
G37*
G36*
X393500D02*
X388500D01*
Y226000D01*
X393500D01*
Y230500D01*
D02*
G37*
G36*
X384000D02*
X379000D01*
Y226000D01*
X384000D01*
Y230500D01*
D02*
G37*
G36*
X371000D02*
X366000D01*
Y226000D01*
X371000D01*
Y230500D01*
D02*
G37*
G36*
X367500Y221750D02*
X352500D01*
Y211500D01*
X367500D01*
Y221750D01*
D02*
G37*
G36*
X344500D02*
X329500D01*
Y211500D01*
X344500D01*
Y221750D01*
D02*
G37*
G36*
X367500Y203500D02*
X352500D01*
Y193250D01*
X367500D01*
Y203500D01*
D02*
G37*
G36*
X344500D02*
X329500D01*
Y193250D01*
X344500D01*
Y203500D01*
D02*
G37*
G36*
X379051Y178508D02*
X354000D01*
Y166030D01*
X379051D01*
Y178508D01*
D02*
G37*
G36*
X346000D02*
X320949D01*
Y166030D01*
X346000D01*
Y178508D01*
D02*
G37*
G36*
X379051Y158030D02*
X354000D01*
Y145552D01*
X379051D01*
Y158030D01*
D02*
G37*
G36*
X346000D02*
X320949D01*
Y145552D01*
X346000D01*
Y158030D01*
D02*
G37*
G36*
X781000Y100000D02*
X778000D01*
Y84500D01*
X781000D01*
Y100000D01*
D02*
G37*
G36*
X801000D02*
X798000D01*
Y84500D01*
X801000D01*
Y100000D01*
D02*
G37*
G36*
X790000D02*
X787000D01*
Y84500D01*
X790000D01*
Y100000D01*
D02*
G37*
G36*
X770000D02*
X767000D01*
Y84500D01*
X770000D01*
Y100000D01*
D02*
G37*
%LPD*%
G36*
X46500Y255196D02*
X47500D01*
X50633Y255609D01*
X53552Y256818D01*
X56059Y258741D01*
X56297Y259053D01*
X57500Y258645D01*
Y255000D01*
X110000D01*
Y241500D01*
X120000D01*
X130000D01*
Y255000D01*
X180000D01*
Y241500D01*
X190000D01*
X200000D01*
Y255000D01*
X205000D01*
Y199650D01*
X194300D01*
Y177500D01*
X156605D01*
X154719Y178281D01*
X152500Y178573D01*
X143300D01*
Y180100D01*
X140300D01*
Y183000D01*
X127500D01*
X114700D01*
Y180100D01*
X111700D01*
Y177500D01*
X35000D01*
X27500Y185000D01*
Y210000D01*
Y258645D01*
X28703Y259053D01*
X28942Y258741D01*
X31448Y256818D01*
X34367Y255609D01*
X37500Y255196D01*
X38500D01*
Y267300D01*
X46500D01*
Y255196D01*
D02*
G37*
G36*
X154654Y172790D02*
X156605Y172402D01*
X194300D01*
Y106350D01*
X245100D01*
Y94000D01*
X274200D01*
X278200Y90000D01*
X410000D01*
Y32500D01*
X167500D01*
Y145000D01*
X152500Y160000D01*
Y172536D01*
X152519Y172553D01*
X153770Y173156D01*
X154654Y172790D01*
D02*
G37*
%LPC*%
G36*
X200000Y233500D02*
X194000D01*
Y219500D01*
X200000D01*
Y233500D01*
D02*
G37*
G36*
X186000D02*
X180000D01*
Y219500D01*
X186000D01*
Y233500D01*
D02*
G37*
G36*
X130000Y233500D02*
X124000D01*
Y219500D01*
X130000D01*
Y233500D01*
D02*
G37*
G36*
X116000D02*
X110000D01*
Y219500D01*
X116000D01*
Y233500D01*
D02*
G37*
G36*
X140300Y194100D02*
X131500D01*
Y191000D01*
X140300D01*
Y194100D01*
D02*
G37*
G36*
X123500D02*
X114700D01*
Y191000D01*
X123500D01*
Y194100D01*
D02*
G37*
G36*
X379051Y79448D02*
X354000D01*
Y66970D01*
X379051D01*
Y79448D01*
D02*
G37*
G36*
X346000D02*
X320949D01*
Y66970D01*
X346000D01*
Y79448D01*
D02*
G37*
G36*
X198250Y72750D02*
X188000D01*
Y64000D01*
X198250D01*
Y72750D01*
D02*
G37*
G36*
X180000D02*
X169750D01*
Y64000D01*
X180000D01*
Y72750D01*
D02*
G37*
G36*
X198250Y56000D02*
X188000D01*
Y47250D01*
X198250D01*
Y56000D01*
D02*
G37*
G36*
X180000D02*
X169750D01*
Y47250D01*
X180000D01*
Y56000D01*
D02*
G37*
G36*
X379051Y58970D02*
X354000D01*
Y46492D01*
X379051D01*
Y58970D01*
D02*
G37*
G36*
X346000D02*
X320949D01*
Y46492D01*
X346000D01*
Y58970D01*
D02*
G37*
%LPD*%
D23*
X1026250Y546500D02*
D03*
X1008750D02*
D03*
X276250D02*
D03*
X293750D02*
D03*
X1063750Y546500D02*
D03*
X1046250D02*
D03*
X988750Y546500D02*
D03*
X971250D02*
D03*
X238750Y257500D02*
D03*
X256250D02*
D03*
X520000Y501500D02*
D03*
X537500D02*
D03*
X351250Y474000D02*
D03*
X368750D02*
D03*
X351250Y546500D02*
D03*
X368750D02*
D03*
X331250D02*
D03*
X313750D02*
D03*
D24*
X190000Y237500D02*
D03*
Y287500D02*
D03*
X120000D02*
D03*
Y237500D02*
D03*
D25*
X420000Y234500D02*
D03*
Y250500D02*
D03*
X397500Y250500D02*
D03*
Y234500D02*
D03*
X375000Y250500D02*
D03*
Y234500D02*
D03*
X352500Y423500D02*
D03*
Y439500D02*
D03*
X1107500Y379500D02*
D03*
Y363500D02*
D03*
X607500Y201000D02*
D03*
Y217000D02*
D03*
D26*
X350000Y62970D02*
D03*
Y162030D02*
D03*
D27*
X259650Y200825D02*
D03*
Y105175D02*
D03*
D28*
X234250Y153000D02*
D03*
D29*
X127500Y119000D02*
D03*
Y136000D02*
D03*
Y153000D02*
D03*
Y170000D02*
D03*
Y187000D02*
D03*
D30*
X348500Y207500D02*
D03*
X296500D02*
D03*
D31*
X141000Y60000D02*
D03*
X184000D02*
D03*
D32*
X342500Y401500D02*
D03*
X327500D02*
D03*
X652500Y259000D02*
D03*
X637500D02*
D03*
X652500Y241500D02*
D03*
X637500D02*
D03*
X600000Y181500D02*
D03*
X585000D02*
D03*
X255000Y277500D02*
D03*
X240000D02*
D03*
D33*
X327500Y422750D02*
D03*
Y440250D02*
D03*
X607500Y257750D02*
D03*
Y240250D02*
D03*
X585000Y257750D02*
D03*
Y240250D02*
D03*
X585000Y200250D02*
D03*
Y217750D02*
D03*
D34*
X414050Y438000D02*
D03*
X401350D02*
D03*
X388650D02*
D03*
X375950D02*
D03*
X414050Y365000D02*
D03*
X401350D02*
D03*
X388650D02*
D03*
X375950D02*
D03*
D35*
X352000Y525000D02*
D03*
X368000D02*
D03*
X330500Y525000D02*
D03*
X314500D02*
D03*
X293000D02*
D03*
X277000D02*
D03*
X1047000Y524000D02*
D03*
X1063000D02*
D03*
X1009500Y524000D02*
D03*
X1025500D02*
D03*
X988000Y524000D02*
D03*
X972000D02*
D03*
D36*
X1079500Y434500D02*
D03*
X1073000D02*
D03*
X1066500D02*
D03*
X1060000D02*
D03*
X1053500D02*
D03*
X1047000D02*
D03*
X1040500D02*
D03*
Y363500D02*
D03*
X1047000D02*
D03*
X1053500D02*
D03*
X1060000D02*
D03*
X1066500D02*
D03*
X1073000D02*
D03*
X1079500D02*
D03*
D37*
X1090000Y90300D02*
D03*
Y297800D02*
D03*
D38*
X814000Y80500D02*
D03*
X834000D02*
D03*
X854000D02*
D03*
X874000D02*
D03*
X914000D02*
D03*
X894000D02*
D03*
X794000D02*
D03*
X774000D02*
D03*
D39*
X937500Y23000D02*
D03*
X750500D02*
D03*
D40*
X712500Y52800D02*
D03*
Y79000D02*
D03*
X690000Y53400D02*
D03*
Y79600D02*
D03*
D41*
X634400Y54000D02*
D03*
X660600D02*
D03*
X648250Y81650D02*
D03*
X622050D02*
D03*
D42*
X635550Y121657D02*
D03*
X648250D02*
D03*
X660950D02*
D03*
X673650D02*
D03*
X686350D02*
D03*
X699050D02*
D03*
X711750D02*
D03*
X724450D02*
D03*
Y216343D02*
D03*
X711750D02*
D03*
X699050D02*
D03*
X686350D02*
D03*
X673650D02*
D03*
X660950D02*
D03*
X648250D02*
D03*
X635550D02*
D03*
D69*
X1027500Y435000D02*
X1037500D01*
X462500Y232500D02*
X465000Y230000D01*
X392500Y232500D02*
X393500Y233500D01*
X372000Y232500D02*
X372500Y232000D01*
D70*
X314000Y315000D02*
X396000D01*
X431500Y350500D01*
X305000Y324000D02*
X314000Y315000D01*
X301000Y296500D02*
X402500D01*
X275750Y321750D02*
Y524750D01*
Y321750D02*
X301000Y296500D01*
X997500Y632500D02*
X1046250Y583750D01*
Y546500D02*
Y583750D01*
X997500Y632500D02*
Y654000D01*
X999000Y256343D02*
Y312506D01*
X715000Y254000D02*
X996657D01*
X999000Y256343D01*
X285000Y478250D02*
X314500Y507750D01*
X285000Y326500D02*
Y478250D01*
Y326500D02*
X305000Y306500D01*
X775800Y304000D02*
Y358300D01*
X796500Y379000D02*
X1051157D01*
X775800Y358300D02*
X796500Y379000D01*
X293750Y641157D02*
X294917Y642324D01*
Y651417D02*
X297500Y654000D01*
X293750Y546500D02*
Y641157D01*
X294917Y642324D02*
Y651417D01*
X347500Y615000D02*
Y654000D01*
Y615000D02*
X351250Y611250D01*
Y546500D02*
Y611250D01*
X314500Y507750D02*
Y525000D01*
X275750Y524750D02*
X276500Y525500D01*
X365000Y497500D02*
X368000Y500500D01*
Y525000D01*
X315000Y497500D02*
X365000D01*
X305000Y487500D02*
X315000Y497500D01*
X275750Y546000D02*
X275750Y546000D01*
X330000Y547750D02*
Y611500D01*
Y547750D02*
X331250Y546500D01*
X322500Y619000D02*
X330000Y611500D01*
X305000Y324000D02*
Y487500D01*
X1000000Y500000D02*
X1085157D01*
X987157Y522657D02*
X989250Y524750D01*
X987157Y512843D02*
Y522657D01*
Y512843D02*
X1000000Y500000D01*
X1063000Y522500D02*
X1131500D01*
X1127000Y509500D02*
X1140000Y496500D01*
X1028343Y509500D02*
X1127000D01*
X1025500Y512343D02*
X1028343Y509500D01*
X1057657Y482500D02*
X1060000Y480157D01*
X1047000Y434500D02*
Y470157D01*
X1025500Y512343D02*
Y524000D01*
X928200Y456146D02*
X944554Y472500D01*
X1044657D01*
X1087500Y394157D02*
Y497657D01*
X913754Y492500D02*
X1070657D01*
X1140000Y356176D02*
Y496500D01*
X902800Y456146D02*
X929154Y482500D01*
X1085157Y500000D02*
X1087500Y497657D01*
X929154Y482500D02*
X1057657D01*
X1060000Y434500D02*
Y480157D01*
X1070657Y492500D02*
X1073000Y490157D01*
Y434500D02*
Y490157D01*
X877400Y456146D02*
X913754Y492500D01*
X1044657Y472500D02*
X1047000Y470157D01*
X1131500Y522500D02*
X1150000Y504000D01*
X975083Y627417D02*
X1008750Y593750D01*
Y546500D02*
Y593750D01*
X1073000Y379657D02*
X1077343Y384000D01*
X1073000Y363500D02*
Y379657D01*
X1077343Y384000D02*
X1077343D01*
X1087500Y394157D01*
X970000Y547750D02*
X971250Y546500D01*
X1005000Y227000D02*
X1014000Y236000D01*
Y312417D01*
X1013857Y365070D02*
X1040250D01*
X1040500Y364820D01*
Y363500D02*
Y364820D01*
X975083Y627417D02*
Y657692D01*
X975000Y657775D02*
X975083Y657692D01*
X947500Y635000D02*
X970000Y612500D01*
X947500Y635000D02*
Y654000D01*
X970000Y547750D02*
Y612500D01*
X699050Y238050D02*
X715000Y254000D01*
X710000Y259000D02*
X715000Y254000D01*
X747500Y191500D02*
X783000Y227000D01*
X1005000D01*
X1012787Y438713D02*
Y446213D01*
Y436213D02*
Y438713D01*
X1002854Y456146D02*
X1012787Y446213D01*
X953600Y456146D02*
X1002854D01*
X805000Y171500D02*
X832500Y144000D01*
X667500Y171500D02*
X805000D01*
X832500Y89000D02*
Y144000D01*
X852500Y89000D02*
Y141500D01*
X680000Y181500D02*
X812500D01*
X852500Y141500D01*
X673650Y187850D02*
Y216343D01*
Y187850D02*
X680000Y181500D01*
X660950Y178050D02*
Y216343D01*
Y178050D02*
X667500Y171500D01*
X686350Y216343D02*
Y235150D01*
X652500Y241500D02*
X680000D01*
X686350Y235150D01*
X652500Y259000D02*
X710000D01*
X400000Y306500D02*
X432500Y339000D01*
X305000Y306500D02*
X400000D01*
X402500Y296500D02*
X432500Y326500D01*
X560000Y571500D02*
X560000Y571500D01*
Y654000D01*
X706500Y350500D02*
X772500Y416500D01*
X431500Y350500D02*
X706500D01*
X432500Y339000D02*
X710000D01*
X777500Y406500D01*
X688693Y191500D02*
X747500D01*
X686350Y193843D02*
Y216343D01*
Y193843D02*
X688693Y191500D01*
X699050Y216343D02*
Y238050D01*
X1047000Y338843D02*
X1049343Y336500D01*
X1047000Y338843D02*
Y363500D01*
X1140000Y336500D02*
X1150000Y346500D01*
X1049343Y336500D02*
X1140000D01*
X1150000Y346500D02*
Y504000D01*
X1062343Y346500D02*
X1130324D01*
X1140000Y356176D01*
X1060000Y348843D02*
Y363500D01*
Y348843D02*
X1062343Y346500D01*
X792500Y389000D02*
X1059571D01*
X752500Y306100D02*
Y349000D01*
X792500Y389000D01*
X1059571D02*
X1066500Y382071D01*
X1053500Y363500D02*
Y376657D01*
X1051157Y379000D02*
X1053500Y376657D01*
X1066500Y363500D02*
Y382071D01*
X785000Y396500D02*
X1067500D01*
X1079500Y408500D01*
X1066500Y413000D02*
Y434500D01*
X777500Y406500D02*
X1060000D01*
X1066500Y413000D01*
X715000Y326500D02*
X785000Y396500D01*
X432500Y326500D02*
X715000D01*
X772500Y416500D02*
X1051093D01*
X750400Y304000D02*
X752500Y306100D01*
X1079500Y408500D02*
Y434500D01*
X1053500D02*
X1053750Y434250D01*
Y423843D02*
Y434250D01*
Y423843D02*
X1054022Y423571D01*
Y419429D02*
Y423571D01*
X1051093Y416500D02*
X1054022Y419429D01*
X572600Y456146D02*
X573175Y455571D01*
X801200Y304000D02*
X801225Y303975D01*
X826425Y304175D02*
X826600Y304000D01*
X322500Y619000D02*
Y654000D01*
D71*
X635250Y54000D02*
Y89457D01*
X293500Y276500D02*
X715000D01*
X255000Y315000D02*
X293500Y276500D01*
X255000Y315000D02*
Y349000D01*
X265000Y317500D02*
Y466500D01*
X295000Y287500D02*
X694571D01*
X265000Y317500D02*
X295000Y287500D01*
X255625Y258125D02*
Y276875D01*
Y258125D02*
X256250Y257500D01*
X255000Y277500D02*
X255625Y276875D01*
X648100Y81500D02*
X648250Y81650D01*
X220000Y384000D02*
X255000Y349000D01*
X1187500Y650187D02*
Y676071D01*
X932929Y679000D02*
X1184571D01*
X1187500Y676071D01*
X857500Y586500D02*
Y658049D01*
X775800Y504800D02*
X857500Y586500D01*
X750400Y511900D02*
X832500Y594000D01*
Y658889D01*
X635550Y89757D02*
Y121657D01*
X635250Y89457D02*
X635550Y89757D01*
X589250Y261000D02*
Y266071D01*
X592179Y269000D02*
X633071D01*
X589250Y266071D02*
X592179Y269000D01*
X585000Y257750D02*
X586000D01*
X589250Y261000D01*
X636000Y260500D02*
X637500Y259000D01*
X633071Y269000D02*
X636000Y266071D01*
Y260500D02*
Y266071D01*
X608750Y256500D02*
X619571D01*
X622500Y253571D01*
Y244429D02*
Y253571D01*
X607500Y257750D02*
X608750Y256500D01*
X625429Y241500D02*
X637500D01*
X622500Y244429D02*
X625429Y241500D01*
X927500Y673571D02*
X932929Y679000D01*
X826600Y456146D02*
Y513100D01*
X927500Y614000D01*
X37392Y383892D02*
X47821D01*
X47929Y384000D02*
X220000D01*
X35000Y381500D02*
X37392Y383892D01*
X47821D02*
X47929Y384000D01*
X237500Y494000D02*
X265000Y466500D01*
X35000Y494000D02*
X237500D01*
X401350Y492850D02*
X440000Y531500D01*
X595000D01*
X623400Y503100D01*
X414050Y488050D02*
X442500Y516500D01*
X414050Y438000D02*
Y488050D01*
X442500Y516500D02*
X537500D01*
X580000D01*
X537500Y501500D02*
Y516500D01*
X598000Y456146D02*
Y498500D01*
X580000Y516500D02*
X598000Y498500D01*
X623400Y456146D02*
Y503100D01*
X401350Y473371D02*
Y492850D01*
X368750Y474000D02*
X371050Y476300D01*
X398421D01*
X401350Y438000D02*
Y473371D01*
X398421Y476300D02*
X401350Y473371D01*
X694571Y287500D02*
X697500Y290429D01*
Y301900D02*
X699600Y304000D01*
X697500Y290429D02*
Y301900D01*
X715000Y276500D02*
X725000Y286500D01*
Y304000D01*
X327500Y401500D02*
Y422750D01*
X927500Y614000D02*
Y673571D01*
X750400Y456146D02*
Y511900D01*
X775800Y456146D02*
Y504800D01*
X648775Y456171D02*
X648800Y456146D01*
X699050Y106929D02*
X713408Y92571D01*
X690000Y53400D02*
Y56250D01*
X686350Y59900D02*
X690000Y56250D01*
X679100Y59900D02*
X686350D01*
X673650Y65350D02*
X679100Y59900D01*
X662500Y50900D02*
Y104000D01*
X712500Y79000D02*
X713408Y79908D01*
Y92571D01*
X699050Y106929D02*
Y121657D01*
X690000Y79600D02*
Y101500D01*
X686350Y105150D02*
X690000Y101500D01*
X686350Y105150D02*
Y121657D01*
X673650Y65350D02*
Y121657D01*
X660950Y105550D02*
X662500Y104000D01*
X660950Y105550D02*
Y121657D01*
X648250Y81650D02*
Y121657D01*
X585000Y181500D02*
Y200250D01*
X585000Y181500D02*
X585000Y181500D01*
X604375Y257125D02*
X605000Y257750D01*
D72*
X1092500Y362500D02*
X1093000Y363000D01*
X1080750Y362500D02*
X1093500D01*
X1107000Y363000D02*
X1107500Y363500D01*
X1093000Y363000D02*
X1107000D01*
X235000Y232312D02*
X238750Y236062D01*
X235000Y231500D02*
Y232312D01*
X238750Y236062D02*
Y257500D01*
X147000Y135500D02*
X147500Y135000D01*
X127500Y136000D02*
X128000Y135500D01*
X147000D01*
X127500Y170000D02*
X152500D01*
X327500Y474000D02*
X327500Y474000D01*
X327500Y474000D02*
X351250D01*
X450000Y217500D02*
X584750D01*
X605000Y238000D02*
X607250Y240250D01*
X585000Y217750D02*
Y240250D01*
Y217750D02*
X585000Y217750D01*
X585000Y240250D02*
X585000Y240250D01*
X352125Y439875D02*
X352500Y439500D01*
X327500Y440250D02*
X327875Y439875D01*
X352125D01*
X375950Y438000D02*
Y439000D01*
X352500Y439500D02*
X375450D01*
X375950Y439000D01*
X327500Y440250D02*
Y474000D01*
X585000Y240250D02*
X607250D01*
X607125Y217375D02*
X607500Y217000D01*
X605000Y219500D02*
X607125Y217375D01*
X607250Y240250D02*
X607500D01*
X608157Y216343D02*
X632500D01*
X585000Y217750D02*
X585375Y217375D01*
X607125D01*
X520900Y457046D02*
X521800Y456146D01*
X520000Y501500D02*
X520900Y500600D01*
Y457046D02*
Y500600D01*
X607500Y217000D02*
X608157Y216343D01*
D73*
X314125Y525375D02*
Y546125D01*
X368500Y525500D02*
Y545750D01*
X368750Y546500D02*
X369250Y546000D01*
X313750Y546500D02*
X314125Y546125D01*
X276500Y525500D02*
Y545750D01*
D74*
X1025875Y524375D02*
Y546125D01*
X1026250Y546500D01*
X1025500Y524000D02*
X1025875Y524375D01*
X988375Y523875D02*
Y546125D01*
X988000Y523500D02*
X988375Y523875D01*
Y546125D02*
X988750Y546500D01*
X1063375Y524375D02*
Y546125D01*
X1063000Y524000D02*
X1063375Y524375D01*
Y546125D02*
X1063750Y546500D01*
D75*
X107700Y647500D02*
D03*
X82300D02*
D03*
X752500D02*
D03*
X727100D02*
D03*
D76*
X42500Y292700D02*
D03*
Y267300D02*
D03*
D77*
X1187500Y654000D02*
D03*
X1212500D02*
D03*
X1097500D02*
D03*
X997500D02*
D03*
X947500D02*
D03*
X972500D02*
D03*
X1022500D02*
D03*
X1047500D02*
D03*
X1072500D02*
D03*
X1122500D02*
D03*
X882500Y655000D02*
D03*
X832500D02*
D03*
X807500D02*
D03*
X857500D02*
D03*
X535000Y654000D02*
D03*
X560000D02*
D03*
X447500D02*
D03*
X347500D02*
D03*
X297500D02*
D03*
X322500D02*
D03*
X372500D02*
D03*
X397500D02*
D03*
X422500D02*
D03*
X472500D02*
D03*
X232500D02*
D03*
X182500D02*
D03*
X157500D02*
D03*
X207500D02*
D03*
D78*
X35000Y494000D02*
D03*
Y469000D02*
D03*
Y519000D02*
D03*
Y381500D02*
D03*
Y356500D02*
D03*
Y406500D02*
D03*
D79*
X1275000Y675000D02*
D03*
Y25000D02*
D03*
X25000D02*
D03*
Y675000D02*
D03*
D80*
X775800Y456146D02*
D03*
X471000D02*
D03*
X496400D02*
D03*
X521800D02*
D03*
X547200D02*
D03*
X572600D02*
D03*
X598000D02*
D03*
X623400D02*
D03*
X648800D02*
D03*
X674200D02*
D03*
X699600D02*
D03*
X725000D02*
D03*
X801200D02*
D03*
X826600D02*
D03*
X852000D02*
D03*
X877400D02*
D03*
X902800D02*
D03*
X928200D02*
D03*
X750400D02*
D03*
X471000Y304000D02*
D03*
X496400D02*
D03*
X521800D02*
D03*
X547200D02*
D03*
X572600D02*
D03*
X598000D02*
D03*
X623400D02*
D03*
X648800D02*
D03*
X674200D02*
D03*
X699600D02*
D03*
X725000D02*
D03*
X750400D02*
D03*
X775800D02*
D03*
X801200D02*
D03*
X826600D02*
D03*
X852000D02*
D03*
X877400D02*
D03*
X902800D02*
D03*
X928200D02*
D03*
D81*
X953600Y456146D02*
D03*
Y304000D02*
D03*
D82*
X353000Y525000D02*
D03*
X330500Y525000D02*
D03*
X671250Y539000D02*
D03*
X633750D02*
D03*
X632500Y557500D02*
D03*
X805000Y210000D02*
D03*
X1007500Y522500D02*
D03*
X1045000Y525000D02*
D03*
X667500Y557500D02*
D03*
X350000Y262500D02*
D03*
X375000D02*
D03*
X397500D02*
D03*
X292500Y505000D02*
D03*
X1276001Y647501D02*
D03*
X1266001Y627501D02*
D03*
X1276001Y607501D02*
D03*
X1246001Y667501D02*
D03*
X1256001Y647501D02*
D03*
X1246001Y627501D02*
D03*
X1256001Y607501D02*
D03*
X1246001Y547501D02*
D03*
X1256001Y47500D02*
D03*
X1246001Y27500D02*
D03*
X1226001Y667501D02*
D03*
X1236001Y647501D02*
D03*
X1226001Y587501D02*
D03*
X1236001Y567501D02*
D03*
Y527501D02*
D03*
Y447501D02*
D03*
Y407500D02*
D03*
Y367500D02*
D03*
Y327500D02*
D03*
Y287500D02*
D03*
Y247500D02*
D03*
Y207500D02*
D03*
Y167500D02*
D03*
Y127500D02*
D03*
X1226001Y107500D02*
D03*
Y67500D02*
D03*
X1216001Y607501D02*
D03*
X1206001Y587501D02*
D03*
Y427500D02*
D03*
Y387500D02*
D03*
Y347500D02*
D03*
Y307500D02*
D03*
Y267500D02*
D03*
Y227500D02*
D03*
Y187500D02*
D03*
Y147500D02*
D03*
Y67500D02*
D03*
X1216001Y47500D02*
D03*
X1186001Y627501D02*
D03*
X1196001Y607501D02*
D03*
X1186001Y547501D02*
D03*
X1196001Y527501D02*
D03*
X1186001Y507501D02*
D03*
X1196001Y487501D02*
D03*
Y447501D02*
D03*
Y407500D02*
D03*
Y367500D02*
D03*
Y327500D02*
D03*
Y287500D02*
D03*
X1186001Y267500D02*
D03*
X1196001Y247500D02*
D03*
X1186001Y227500D02*
D03*
X1196001Y207500D02*
D03*
X1186001Y187500D02*
D03*
X1196001Y167500D02*
D03*
X1186001Y147500D02*
D03*
X1196001Y127500D02*
D03*
X1186001Y107500D02*
D03*
Y67500D02*
D03*
X1196001Y47500D02*
D03*
X1166001Y627501D02*
D03*
Y547501D02*
D03*
X1176001Y527501D02*
D03*
Y207500D02*
D03*
X1166001Y187500D02*
D03*
X1176001Y167500D02*
D03*
X1166001Y147500D02*
D03*
X1176001Y127500D02*
D03*
X1166001Y107500D02*
D03*
Y67500D02*
D03*
X1176001Y47500D02*
D03*
X1156001Y647501D02*
D03*
X1146001Y587501D02*
D03*
X1156001Y567501D02*
D03*
Y287500D02*
D03*
Y247500D02*
D03*
Y167500D02*
D03*
X1146001Y147500D02*
D03*
X1156001Y127500D02*
D03*
X1146001Y107500D02*
D03*
Y67500D02*
D03*
X1156001Y47500D02*
D03*
X1126001Y587501D02*
D03*
X1136001Y567501D02*
D03*
X1126001Y467501D02*
D03*
Y427500D02*
D03*
Y387500D02*
D03*
Y267500D02*
D03*
Y227500D02*
D03*
X1136001Y167500D02*
D03*
X1126001Y147500D02*
D03*
X1136001Y127500D02*
D03*
X1126001Y107500D02*
D03*
Y67500D02*
D03*
X1136001Y47500D02*
D03*
X1116001Y487501D02*
D03*
X1106001Y467501D02*
D03*
X1116001Y447501D02*
D03*
X1106001Y427500D02*
D03*
X1116001Y407500D02*
D03*
Y167500D02*
D03*
X1106001Y147500D02*
D03*
X1116001Y127500D02*
D03*
Y47500D02*
D03*
X1086001Y547501D02*
D03*
X1096001Y207500D02*
D03*
Y167500D02*
D03*
X1086001Y147500D02*
D03*
X1096001Y127500D02*
D03*
Y47500D02*
D03*
X1076001Y207500D02*
D03*
Y167500D02*
D03*
X1066001Y147500D02*
D03*
X1076001Y127500D02*
D03*
X1066001Y107500D02*
D03*
Y67500D02*
D03*
X1076001Y47500D02*
D03*
X1056001Y287500D02*
D03*
Y207500D02*
D03*
Y167500D02*
D03*
X1046001Y147500D02*
D03*
X1056001Y127500D02*
D03*
X1046001Y107500D02*
D03*
Y67500D02*
D03*
X1056001Y47500D02*
D03*
X1026001Y427500D02*
D03*
X1036001Y287500D02*
D03*
Y207500D02*
D03*
Y167500D02*
D03*
X1026001Y147500D02*
D03*
X1036001Y127500D02*
D03*
X1026001Y107500D02*
D03*
Y67500D02*
D03*
X1036001Y47500D02*
D03*
X1016001Y207500D02*
D03*
Y167500D02*
D03*
X1006001Y147500D02*
D03*
X1016001Y127500D02*
D03*
X1006001Y107500D02*
D03*
Y67500D02*
D03*
X1016001Y47500D02*
D03*
X986001Y427500D02*
D03*
X996001Y167500D02*
D03*
X986001Y147500D02*
D03*
X996001Y127500D02*
D03*
X986001Y107500D02*
D03*
Y67500D02*
D03*
X996001Y47500D02*
D03*
X966001Y507501D02*
D03*
Y427500D02*
D03*
X976001Y167500D02*
D03*
X966001Y147500D02*
D03*
X976001Y127500D02*
D03*
X966001Y107500D02*
D03*
Y67500D02*
D03*
X976001Y47500D02*
D03*
X956001Y567501D02*
D03*
X946001Y547501D02*
D03*
X956001Y527501D02*
D03*
X946001Y507501D02*
D03*
Y427500D02*
D03*
X956001Y167500D02*
D03*
X946001Y147500D02*
D03*
X956001Y127500D02*
D03*
X946001Y107500D02*
D03*
Y67500D02*
D03*
X956001Y47500D02*
D03*
X936001Y567501D02*
D03*
X926001Y547501D02*
D03*
X936001Y527501D02*
D03*
X926001Y507501D02*
D03*
Y427500D02*
D03*
X936001Y287500D02*
D03*
Y167500D02*
D03*
X926001Y147500D02*
D03*
X936001Y127500D02*
D03*
X926001Y107500D02*
D03*
Y67500D02*
D03*
X906001Y667501D02*
D03*
Y627501D02*
D03*
X916001Y567501D02*
D03*
X906001Y547501D02*
D03*
X916001Y527501D02*
D03*
X906001Y507501D02*
D03*
Y427500D02*
D03*
X916001Y287500D02*
D03*
Y207500D02*
D03*
Y167500D02*
D03*
X906001Y147500D02*
D03*
X916001Y127500D02*
D03*
X906001Y107500D02*
D03*
X916001Y47500D02*
D03*
X886001Y627501D02*
D03*
Y547501D02*
D03*
X896001Y527501D02*
D03*
X886001Y507501D02*
D03*
Y427500D02*
D03*
X896001Y207500D02*
D03*
Y127500D02*
D03*
Y47500D02*
D03*
X876001Y527501D02*
D03*
X866001Y507501D02*
D03*
X876001Y487501D02*
D03*
X866001Y467501D02*
D03*
Y427500D02*
D03*
X876001Y207500D02*
D03*
Y167500D02*
D03*
X866001Y147500D02*
D03*
Y107500D02*
D03*
X876001Y47500D02*
D03*
X846001Y507501D02*
D03*
X856001Y487501D02*
D03*
X846001Y427500D02*
D03*
X856001Y207500D02*
D03*
Y167500D02*
D03*
Y47500D02*
D03*
X826001Y427500D02*
D03*
X836001Y207500D02*
D03*
Y47500D02*
D03*
X806001Y627501D02*
D03*
X816001Y127500D02*
D03*
Y47500D02*
D03*
X786001Y627501D02*
D03*
Y427500D02*
D03*
X776001Y647501D02*
D03*
X766001Y627501D02*
D03*
X776001Y567501D02*
D03*
X766001Y427500D02*
D03*
X756001Y567501D02*
D03*
X746001Y427500D02*
D03*
X726001Y547501D02*
D03*
X736001Y527501D02*
D03*
X726001Y507501D02*
D03*
X736001Y487501D02*
D03*
Y407500D02*
D03*
X706001Y427500D02*
D03*
X716001Y407500D02*
D03*
X706001Y387500D02*
D03*
Y147500D02*
D03*
X696001Y647501D02*
D03*
Y567501D02*
D03*
X686001Y467501D02*
D03*
Y427500D02*
D03*
X696001Y407500D02*
D03*
X686001Y387500D02*
D03*
Y147500D02*
D03*
X676001Y647501D02*
D03*
X666001Y427500D02*
D03*
X676001Y407500D02*
D03*
X666001Y387500D02*
D03*
Y147500D02*
D03*
X656001Y647501D02*
D03*
X646001Y427500D02*
D03*
X656001Y407500D02*
D03*
X646001Y387500D02*
D03*
Y187500D02*
D03*
Y147500D02*
D03*
X636001Y647501D02*
D03*
X626001Y427500D02*
D03*
X636001Y407500D02*
D03*
X626001Y387500D02*
D03*
Y187500D02*
D03*
X636001Y167500D02*
D03*
X626001Y147500D02*
D03*
X616001Y647501D02*
D03*
X606001Y427500D02*
D03*
X616001Y407500D02*
D03*
X606001Y387500D02*
D03*
X616001Y167500D02*
D03*
X606001Y147500D02*
D03*
X616001Y127500D02*
D03*
X606001Y107500D02*
D03*
X596001Y647501D02*
D03*
X586001Y547501D02*
D03*
Y147500D02*
D03*
X596001Y127500D02*
D03*
X586001Y107500D02*
D03*
X576000Y647501D02*
D03*
Y567501D02*
D03*
Y487501D02*
D03*
X566000Y187500D02*
D03*
Y147500D02*
D03*
X576000Y127500D02*
D03*
X566000Y107500D02*
D03*
X546000Y547501D02*
D03*
Y427500D02*
D03*
Y387500D02*
D03*
Y187500D02*
D03*
X556000Y167500D02*
D03*
X546000Y147500D02*
D03*
X556000Y127500D02*
D03*
X546000Y107500D02*
D03*
X536000Y567501D02*
D03*
X526000Y547501D02*
D03*
Y187500D02*
D03*
X536000Y167500D02*
D03*
X526000Y147500D02*
D03*
X536000Y127500D02*
D03*
X526000Y107500D02*
D03*
X516000Y647501D02*
D03*
Y567501D02*
D03*
X506000Y547501D02*
D03*
Y467501D02*
D03*
Y187500D02*
D03*
X516000Y167500D02*
D03*
X506000Y147500D02*
D03*
X516000Y127500D02*
D03*
X506000Y107500D02*
D03*
X496000Y647501D02*
D03*
Y567501D02*
D03*
X486000Y547501D02*
D03*
X496000Y487501D02*
D03*
X486000Y467501D02*
D03*
Y427500D02*
D03*
X496000Y407500D02*
D03*
X486000Y387500D02*
D03*
Y187500D02*
D03*
X496000Y167500D02*
D03*
X486000Y147500D02*
D03*
X496000Y127500D02*
D03*
X486000Y107500D02*
D03*
X476000Y567501D02*
D03*
X466000Y547501D02*
D03*
X476000Y487501D02*
D03*
X466000Y427500D02*
D03*
X476000Y407500D02*
D03*
X466000Y387500D02*
D03*
Y107500D02*
D03*
X456000Y567501D02*
D03*
X446000Y547501D02*
D03*
X456000Y487501D02*
D03*
X446000Y467501D02*
D03*
X456000Y447501D02*
D03*
X446000Y427500D02*
D03*
X456000Y407500D02*
D03*
X446000Y387500D02*
D03*
Y107500D02*
D03*
X436000Y567501D02*
D03*
X426000Y547501D02*
D03*
X436000Y487501D02*
D03*
Y447501D02*
D03*
X426000Y387500D02*
D03*
Y107500D02*
D03*
X416000Y567501D02*
D03*
X406000Y547501D02*
D03*
X416000Y527501D02*
D03*
Y407500D02*
D03*
X406000Y387500D02*
D03*
Y107500D02*
D03*
X386000Y627501D02*
D03*
X396000Y567501D02*
D03*
X386000Y547501D02*
D03*
X396000Y527501D02*
D03*
X386000Y507501D02*
D03*
X396000Y407500D02*
D03*
X386000Y387500D02*
D03*
Y107500D02*
D03*
X376000Y567501D02*
D03*
Y407500D02*
D03*
X366000Y387500D02*
D03*
X376000Y327500D02*
D03*
X366000Y107500D02*
D03*
X346000Y507501D02*
D03*
X356000Y407500D02*
D03*
X346000Y347500D02*
D03*
X356000Y327500D02*
D03*
X346000Y107500D02*
D03*
X326000Y347500D02*
D03*
X336000Y327500D02*
D03*
X326000Y107500D02*
D03*
X306000Y627501D02*
D03*
X316000Y567501D02*
D03*
X306000Y107500D02*
D03*
X296000Y167500D02*
D03*
X286000Y147500D02*
D03*
X296000Y127500D02*
D03*
X286000Y107500D02*
D03*
X276000Y647501D02*
D03*
X266000Y627501D02*
D03*
X276000Y567501D02*
D03*
Y167500D02*
D03*
Y127500D02*
D03*
X256000Y647501D02*
D03*
X246000Y627501D02*
D03*
X256000Y567501D02*
D03*
X246000Y547501D02*
D03*
X256000Y527501D02*
D03*
X246000Y507501D02*
D03*
Y427500D02*
D03*
Y387500D02*
D03*
X226000Y627501D02*
D03*
X236000Y567501D02*
D03*
X226000Y547501D02*
D03*
X236000Y527501D02*
D03*
X226000Y507501D02*
D03*
Y467501D02*
D03*
X236000Y447501D02*
D03*
X226000Y427500D02*
D03*
X236000Y407500D02*
D03*
X226000Y347500D02*
D03*
X236000Y327500D02*
D03*
Y207500D02*
D03*
X206000Y267500D02*
D03*
X216000Y247500D02*
D03*
Y207500D02*
D03*
X196000Y567501D02*
D03*
Y527501D02*
D03*
Y447501D02*
D03*
Y407500D02*
D03*
Y367500D02*
D03*
Y327500D02*
D03*
X186000Y307500D02*
D03*
X176000Y567501D02*
D03*
Y527501D02*
D03*
Y447501D02*
D03*
Y407500D02*
D03*
Y367500D02*
D03*
Y327500D02*
D03*
X126000Y667501D02*
D03*
X136000Y647501D02*
D03*
X126000Y627501D02*
D03*
X106000Y667501D02*
D03*
X66000D02*
D03*
X56000Y647501D02*
D03*
X46000Y627501D02*
D03*
X56000Y607501D02*
D03*
X46000Y587501D02*
D03*
X56000Y567501D02*
D03*
X46000Y547501D02*
D03*
X56000Y527501D02*
D03*
X46000Y427500D02*
D03*
X56000Y407500D02*
D03*
Y327500D02*
D03*
X46000Y307500D02*
D03*
X36000Y647501D02*
D03*
X26000Y627501D02*
D03*
X36000Y607501D02*
D03*
X26000Y587501D02*
D03*
X36000Y567501D02*
D03*
X26000Y547501D02*
D03*
Y427500D02*
D03*
X36000Y327500D02*
D03*
X26000Y307500D02*
D03*
X1092500Y362500D02*
D03*
X792500Y156500D02*
D03*
Y136500D02*
D03*
X752500D02*
D03*
Y156500D02*
D03*
X772500Y136500D02*
D03*
Y156500D02*
D03*
X435000Y187500D02*
D03*
X147500Y135000D02*
D03*
X574500Y385500D02*
D03*
X999000Y312506D02*
D03*
X327500Y474000D02*
D03*
X1013857Y365070D02*
D03*
X1014000Y312417D02*
D03*
X1012787Y438713D02*
D03*
X1100000Y241500D02*
D03*
X1077500D02*
D03*
X1100000Y259000D02*
D03*
X1077500D02*
D03*
X60000Y187500D02*
D03*
X75000Y202500D02*
D03*
X45000D02*
D03*
Y187500D02*
D03*
X235000Y231500D02*
D03*
X560000Y571500D02*
D03*
X75000Y187500D02*
D03*
X90000D02*
D03*
X60000Y202500D02*
D03*
X90000D02*
D03*
X450000Y172500D02*
D03*
X435000D02*
D03*
X450000Y187500D02*
D03*
Y202500D02*
D03*
X435000D02*
D03*
Y217500D02*
D03*
X450000D02*
D03*
M02*
