G04*
G04 #@! TF.GenerationSoftware,Altium Limited,Altium Designer,22.9.1 (49)*
G04*
G04 Layer_Physical_Order=2*
G04 Layer_Color=16711680*
%FSLAX44Y44*%
%MOMM*%
G71*
G04*
G04 #@! TF.SameCoordinates,82FFAF5D-3DE1-49B7-988C-51480E2A03B1*
G04*
G04*
G04 #@! TF.FilePolarity,Positive*
G04*
G01*
G75*
%ADD15C,0.4000*%
%ADD18R,1.0000X1.6000*%
%ADD19R,1.2500X1.0000*%
%ADD22R,1.0000X1.2500*%
%ADD34C,0.7000*%
%ADD35C,0.5000*%
%ADD36C,1.8000*%
%ADD37C,2.0000*%
%ADD38P,2.1648X8X112.5*%
%ADD39R,1.2000X1.2000*%
%ADD40C,1.2000*%
%ADD41C,1.5240*%
%ADD42C,1.0000*%
%ADD43R,0.6000X1.4500*%
%ADD44C,0.6000*%
G36*
X1196941Y3059D02*
X201308D01*
X201276Y3080D01*
X200000Y3334D01*
X3334D01*
Y296666D01*
X200000D01*
X201276Y296920D01*
X201308Y296941D01*
X484486D01*
X484884Y295947D01*
X484904Y295671D01*
X478066Y288834D01*
X477182Y287511D01*
X476872Y285950D01*
X476783Y285907D01*
X475523Y285702D01*
X474601Y287298D01*
X473298Y288601D01*
X471702Y289523D01*
X469922Y290000D01*
X468078D01*
X466298Y289523D01*
X464702Y288601D01*
X463399Y287298D01*
X462477Y285702D01*
X462000Y283922D01*
Y282078D01*
X462477Y280298D01*
X463399Y278702D01*
X464330Y277770D01*
X464025Y276500D01*
X463250D01*
Y258000D01*
X473250D01*
Y276500D01*
X473250Y276500D01*
X473547Y277647D01*
X474601Y278702D01*
X475523Y280298D01*
X475602Y280592D01*
X476872Y280425D01*
Y276500D01*
X475950D01*
Y258000D01*
X485950D01*
Y276500D01*
X485028D01*
Y284261D01*
X489314Y288547D01*
X490036Y288458D01*
X490348Y288003D01*
X490606Y287153D01*
X489882Y286070D01*
X489572Y284509D01*
X489572Y284509D01*
Y276500D01*
X488650D01*
Y258000D01*
X498650D01*
Y276500D01*
X497728D01*
Y282774D01*
X517068D01*
X517554Y281600D01*
X516495Y280541D01*
X515611Y279218D01*
X515300Y277657D01*
X515101Y276500D01*
X514050D01*
Y258000D01*
X524050D01*
Y275922D01*
X526750D01*
Y258000D01*
X528265D01*
Y255000D01*
X528575Y253439D01*
X529459Y252116D01*
X530782Y251232D01*
X532343Y250922D01*
X548311D01*
X550922Y248311D01*
Y186689D01*
X550075Y185842D01*
X548904Y186468D01*
X549078Y187343D01*
Y203500D01*
X549450D01*
Y222000D01*
X539450D01*
Y203500D01*
X540922D01*
Y189078D01*
X385000D01*
X383439Y188768D01*
X382116Y187884D01*
X382116Y187884D01*
X367116Y172884D01*
X366232Y171561D01*
X365922Y170000D01*
X365922Y170000D01*
Y160000D01*
X363000D01*
Y140000D01*
X377000D01*
Y160000D01*
X374078D01*
Y168311D01*
X386689Y180922D01*
X542657D01*
X542657Y180922D01*
X543532Y181096D01*
X544158Y179925D01*
X543311Y179078D01*
X445000D01*
X445000Y179078D01*
X443439Y178768D01*
X442116Y177884D01*
X437116Y172884D01*
X436232Y171561D01*
X435922Y170000D01*
X435922Y170000D01*
Y160000D01*
X433000D01*
Y140000D01*
X447000D01*
Y160000D01*
X444078D01*
Y168311D01*
X446689Y170922D01*
X545000D01*
X545000Y170922D01*
X546561Y171232D01*
X547884Y172116D01*
X557884Y182116D01*
X557884Y182116D01*
X558768Y183439D01*
X559078Y185000D01*
Y241008D01*
X559750Y242000D01*
X560348Y242000D01*
X566500D01*
Y249000D01*
Y256000D01*
X559750D01*
Y252377D01*
X558480Y251992D01*
X557884Y252884D01*
X552884Y257884D01*
X551561Y258768D01*
X550000Y259078D01*
X549450Y260122D01*
Y263902D01*
X559750D01*
Y262000D01*
X576250D01*
Y263392D01*
X578865D01*
X584282Y257975D01*
X584000Y256922D01*
Y255078D01*
X584477Y253298D01*
X585399Y251702D01*
X586702Y250399D01*
X588298Y249477D01*
X590078Y249000D01*
X591922D01*
X593702Y249477D01*
X595298Y250399D01*
X596601Y251702D01*
X597523Y253298D01*
X598000Y255078D01*
Y256922D01*
X597523Y258702D01*
X596945Y259703D01*
X597897Y260595D01*
X598439Y260232D01*
X600000Y259922D01*
X600000Y259922D01*
X619000D01*
X619000Y259922D01*
X620561Y260232D01*
X621884Y261116D01*
X636689Y275922D01*
X730550D01*
Y258000D01*
X744047D01*
Y255800D01*
X743702Y255601D01*
X742399Y254298D01*
X741477Y252702D01*
X741000Y250922D01*
Y249078D01*
X741477Y247298D01*
X742399Y245702D01*
X743702Y244399D01*
X745298Y243477D01*
X747078Y243000D01*
X748922D01*
X750702Y243477D01*
X752298Y244399D01*
X753601Y245702D01*
X754523Y247298D01*
X755000Y249078D01*
Y250922D01*
X754523Y252702D01*
X753601Y254298D01*
X752298Y255601D01*
X752203Y255656D01*
Y258000D01*
X778650D01*
Y276500D01*
X778650Y276500D01*
X778650D01*
X779348Y277448D01*
X779601Y277702D01*
X780523Y279298D01*
X781000Y281078D01*
Y282847D01*
X789074Y290922D01*
X1057311D01*
X1081922Y266311D01*
Y37961D01*
X1062539Y18578D01*
X225189D01*
X186941Y56827D01*
X187427Y58000D01*
X222000D01*
Y110922D01*
X245311D01*
X287116Y69116D01*
X287116Y69116D01*
X288439Y68232D01*
X290000Y67922D01*
X290000Y67922D01*
X1058000D01*
X1058000Y67922D01*
X1059561Y68232D01*
X1060884Y69116D01*
X1073884Y82116D01*
X1073884Y82116D01*
X1074768Y83439D01*
X1075078Y85000D01*
Y261000D01*
X1074768Y262561D01*
X1073884Y263884D01*
X1073884Y263884D01*
X1052884Y284884D01*
X1051561Y285768D01*
X1050000Y286078D01*
X1050000Y286078D01*
X801393D01*
X799832Y285768D01*
X798509Y284884D01*
X798509Y284884D01*
X796166Y282541D01*
X795282Y281218D01*
X794972Y279657D01*
X794972Y279657D01*
Y276500D01*
X794050D01*
Y258000D01*
X807672D01*
Y248250D01*
X807672Y248250D01*
X807982Y246689D01*
X808866Y245366D01*
X835922Y218311D01*
Y192343D01*
X835922Y192343D01*
X836232Y190782D01*
X837116Y189459D01*
X839459Y187116D01*
X839459Y187116D01*
X840782Y186232D01*
X842343Y185922D01*
X993311D01*
X995922Y183311D01*
Y160000D01*
X993000D01*
Y140000D01*
X1007000D01*
Y160000D01*
X1004078D01*
Y185000D01*
X1004078Y185000D01*
X1003768Y186561D01*
X1002884Y187884D01*
X997884Y192884D01*
X996561Y193768D01*
X995000Y194078D01*
X995000Y194078D01*
X844078D01*
Y220000D01*
X844078Y220000D01*
X843768Y221561D01*
X842884Y222884D01*
X815828Y249939D01*
Y258000D01*
X829450D01*
Y261517D01*
X836750D01*
Y260000D01*
X853250D01*
Y261392D01*
X860713D01*
X862298Y260477D01*
X864078Y260000D01*
X865922D01*
X867702Y260477D01*
X869298Y261399D01*
X870601Y262702D01*
X871523Y264298D01*
X872000Y266078D01*
Y267922D01*
X871523Y269702D01*
X870601Y271298D01*
X869298Y272601D01*
X867702Y273523D01*
X865922Y274000D01*
X864078D01*
X862298Y273523D01*
X860713Y272608D01*
X853250D01*
Y274000D01*
X836750D01*
Y272733D01*
X829450D01*
Y276500D01*
X819450D01*
X819450Y276500D01*
X816750D01*
Y276500D01*
X806750D01*
Y276500D01*
X804050D01*
Y276500D01*
X803128D01*
Y277922D01*
X1048311D01*
X1066922Y259311D01*
Y86689D01*
X1056311Y76078D01*
X291689D01*
X249884Y117884D01*
X248617Y118730D01*
X248600Y118825D01*
X249014Y120000D01*
X252361D01*
X257025Y120739D01*
X261516Y122198D01*
X265723Y124342D01*
X269544Y127117D01*
X272883Y130456D01*
X275658Y134277D01*
X277802Y138484D01*
X279261Y142975D01*
X280000Y147639D01*
Y152361D01*
X279261Y157025D01*
X277802Y161516D01*
X275658Y165723D01*
X272883Y169544D01*
X269544Y172883D01*
X265723Y175658D01*
X261516Y177802D01*
X257025Y179261D01*
X252361Y180000D01*
X247639D01*
X242975Y179261D01*
X238484Y177802D01*
X234277Y175658D01*
X230456Y172883D01*
X227117Y169544D01*
X224342Y165723D01*
X223270Y163620D01*
X222000Y163925D01*
Y228392D01*
X318677D01*
X344003Y203066D01*
X344477Y201298D01*
X345399Y199702D01*
X346702Y198399D01*
X348298Y197477D01*
X350078Y197000D01*
X351922D01*
X353702Y197477D01*
X355298Y198399D01*
X356601Y199702D01*
X357523Y201298D01*
X358000Y203078D01*
Y204922D01*
X357523Y206702D01*
X356601Y208298D01*
X355298Y209601D01*
X353702Y210523D01*
X351934Y210997D01*
X324965Y237965D01*
X323146Y239181D01*
X321000Y239608D01*
X95812D01*
X93666Y239181D01*
X93395Y239000D01*
X92078D01*
X90298Y238523D01*
X88702Y237601D01*
X87399Y236298D01*
X86477Y234702D01*
X86000Y232922D01*
Y231078D01*
X86477Y229298D01*
X87399Y227702D01*
X88702Y226399D01*
X90298Y225477D01*
X92078Y225000D01*
X93922D01*
X95702Y225477D01*
X97298Y226399D01*
X98601Y227702D01*
X99000Y228392D01*
X112000D01*
Y58000D01*
X175121D01*
X175232Y57439D01*
X176116Y56116D01*
X220616Y11616D01*
X221939Y10732D01*
X223500Y10422D01*
X223500Y10422D01*
X1064228D01*
X1064228Y10422D01*
X1065789Y10732D01*
X1067112Y11616D01*
X1088884Y33388D01*
X1088884Y33388D01*
X1089768Y34711D01*
X1090078Y36272D01*
X1090078Y36272D01*
Y268000D01*
X1090078Y268000D01*
X1089768Y269561D01*
X1088884Y270884D01*
X1088884Y270884D01*
X1064000Y295768D01*
X1064486Y296941D01*
X1196941D01*
Y3059D01*
D02*
G37*
%LPC*%
G36*
X394100Y288686D02*
Y279200D01*
X403586D01*
X402850Y281946D01*
X401402Y284454D01*
X399354Y286502D01*
X396846Y287950D01*
X394100Y288686D01*
D02*
G37*
G36*
X391100Y288686D02*
X388354Y287950D01*
X385846Y286502D01*
X383798Y284454D01*
X382350Y281946D01*
X381614Y279200D01*
X391100D01*
Y288686D01*
D02*
G37*
G36*
X72000Y285000D02*
X56000D01*
Y269000D01*
X72000D01*
Y285000D01*
D02*
G37*
G36*
X791350Y276500D02*
X787850D01*
Y268750D01*
X791350D01*
Y276500D01*
D02*
G37*
G36*
X784850D02*
X781350D01*
Y268750D01*
X784850D01*
Y276500D01*
D02*
G37*
G36*
X511350D02*
X507850D01*
Y268750D01*
X511350D01*
Y276500D01*
D02*
G37*
G36*
X504850D02*
X501350D01*
Y268750D01*
X504850D01*
Y276500D01*
D02*
G37*
G36*
X391100Y276200D02*
X381614D01*
X382350Y273454D01*
X383798Y270946D01*
X385846Y268898D01*
X388354Y267450D01*
X391100Y266714D01*
Y276200D01*
D02*
G37*
G36*
X403586D02*
X394100D01*
Y266714D01*
X396846Y267450D01*
X399354Y268898D01*
X401402Y270946D01*
X402850Y273454D01*
X403586Y276200D01*
D02*
G37*
G36*
X65500Y264880D02*
Y258500D01*
X71880D01*
X71455Y260088D01*
X70402Y261912D01*
X68912Y263402D01*
X67088Y264455D01*
X65500Y264880D01*
D02*
G37*
G36*
X62500D02*
X60912Y264455D01*
X59088Y263402D01*
X57598Y261912D01*
X56545Y260088D01*
X56120Y258500D01*
X62500D01*
Y264880D01*
D02*
G37*
G36*
X791350Y265750D02*
X787850D01*
Y258000D01*
X791350D01*
Y265750D01*
D02*
G37*
G36*
X784850D02*
X781350D01*
Y258000D01*
X784850D01*
Y265750D01*
D02*
G37*
G36*
X511350D02*
X507850D01*
Y258000D01*
X511350D01*
Y265750D01*
D02*
G37*
G36*
X504850D02*
X501350D01*
Y258000D01*
X504850D01*
Y265750D01*
D02*
G37*
G36*
X460550Y276500D02*
X450550D01*
Y258000D01*
X460550D01*
Y276500D01*
D02*
G37*
G36*
X576250Y256000D02*
X569500D01*
Y250500D01*
X576250D01*
Y256000D01*
D02*
G37*
G36*
X71880Y255500D02*
X65500D01*
Y249120D01*
X67088Y249545D01*
X68912Y250598D01*
X70402Y252088D01*
X71455Y253912D01*
X71880Y255500D01*
D02*
G37*
G36*
X62500D02*
X56120D01*
X56545Y253912D01*
X57598Y252088D01*
X59088Y250598D01*
X60912Y249545D01*
X62500Y249120D01*
Y255500D01*
D02*
G37*
G36*
X853250Y254000D02*
X846500D01*
Y248500D01*
X853250D01*
Y254000D01*
D02*
G37*
G36*
X843500D02*
X836750D01*
Y248500D01*
X843500D01*
Y254000D01*
D02*
G37*
G36*
X576250Y247500D02*
X569500D01*
Y242000D01*
X576250D01*
Y247500D01*
D02*
G37*
G36*
X394048Y263300D02*
X391152D01*
X388354Y262550D01*
X385846Y261102D01*
X383798Y259054D01*
X382350Y256546D01*
X381600Y253748D01*
Y250852D01*
X382350Y248054D01*
X383798Y245546D01*
X385846Y243498D01*
X388354Y242050D01*
X391152Y241300D01*
X394048D01*
X396846Y242050D01*
X399354Y243498D01*
X401402Y245546D01*
X402850Y248054D01*
X403600Y250852D01*
Y253748D01*
X402850Y256546D01*
X401402Y259054D01*
X399354Y261102D01*
X396846Y262550D01*
X394048Y263300D01*
D02*
G37*
G36*
X853250Y245500D02*
X846500D01*
Y240000D01*
X853250D01*
Y245500D01*
D02*
G37*
G36*
X843500D02*
X836750D01*
Y240000D01*
X843500D01*
Y245500D01*
D02*
G37*
G36*
X740550Y222000D02*
X737050D01*
Y214250D01*
X740550D01*
Y222000D01*
D02*
G37*
G36*
X734050D02*
X730550D01*
Y214250D01*
X734050D01*
Y222000D01*
D02*
G37*
G36*
X460550D02*
X457050D01*
Y214250D01*
X460550D01*
Y222000D01*
D02*
G37*
G36*
X454050D02*
X450550D01*
Y214250D01*
X454050D01*
Y222000D01*
D02*
G37*
G36*
X753250D02*
X743250D01*
Y212144D01*
X743172Y211750D01*
X743172Y211750D01*
Y204078D01*
X740550D01*
Y211250D01*
X730550D01*
Y204078D01*
X585000D01*
X585000Y204078D01*
X583439Y203768D01*
X582116Y202884D01*
X582116Y202884D01*
X548311Y169078D01*
X512343D01*
X510782Y168768D01*
X509459Y167884D01*
X509459Y167884D01*
X507116Y165541D01*
X506232Y164218D01*
X505922Y162657D01*
X505922Y162657D01*
Y160000D01*
X503000D01*
Y140000D01*
X517000D01*
Y160000D01*
X517841Y160922D01*
X532159D01*
X533000Y160000D01*
X533000Y159652D01*
Y140000D01*
X534392D01*
Y98250D01*
X533000D01*
Y81750D01*
X547000D01*
Y98250D01*
X545608D01*
Y140000D01*
X547000D01*
Y159652D01*
X547000Y160000D01*
X547841Y160922D01*
X550000D01*
X550000Y160922D01*
X551561Y161232D01*
X552884Y162116D01*
X586689Y195922D01*
X744907D01*
X744907Y195922D01*
X746468Y196232D01*
X747791Y197116D01*
X750134Y199459D01*
X750134Y199459D01*
X751018Y200782D01*
X751328Y202343D01*
Y203500D01*
X753250D01*
Y222000D01*
D02*
G37*
G36*
X536750D02*
X526750D01*
Y203500D01*
X536750D01*
Y222000D01*
D02*
G37*
G36*
X524050D02*
X514050D01*
Y203500D01*
X524050D01*
Y222000D01*
D02*
G37*
G36*
X511350D02*
X501350D01*
Y203500D01*
X511350D01*
Y222000D01*
D02*
G37*
G36*
X498650D02*
X488650D01*
Y203500D01*
X498650D01*
Y222000D01*
D02*
G37*
G36*
X485950D02*
X475950D01*
Y203500D01*
X485950D01*
Y222000D01*
D02*
G37*
G36*
X473250D02*
X463250D01*
Y203500D01*
X473250D01*
Y222000D01*
D02*
G37*
G36*
X460550Y211250D02*
X457050D01*
Y203500D01*
X460550D01*
Y211250D01*
D02*
G37*
G36*
X454050D02*
X450550D01*
Y203500D01*
X454050D01*
Y211250D01*
D02*
G37*
G36*
X765950Y222000D02*
X755950D01*
Y203500D01*
X756872D01*
Y197639D01*
X753311Y194078D01*
X590000D01*
X588439Y193768D01*
X587116Y192884D01*
X587116Y192884D01*
X577116Y182884D01*
X576232Y181561D01*
X575922Y180000D01*
X575922Y180000D01*
Y160000D01*
X573000D01*
Y140000D01*
X587000D01*
Y160000D01*
X584078D01*
Y178311D01*
X591689Y185922D01*
X755000D01*
X755000Y185922D01*
X756561Y186232D01*
X757884Y187116D01*
X763834Y193066D01*
X763834Y193066D01*
X764718Y194389D01*
X765028Y195950D01*
Y203500D01*
X765950D01*
Y222000D01*
D02*
G37*
G36*
X778650D02*
X768650D01*
Y203500D01*
X769572D01*
Y195339D01*
X758311Y184078D01*
X652343D01*
X650782Y183768D01*
X649459Y182884D01*
X649459Y182884D01*
X647116Y180541D01*
X646232Y179218D01*
X645922Y177657D01*
X645922Y177657D01*
Y160000D01*
X643000D01*
Y140000D01*
X657000D01*
Y160000D01*
X654078D01*
Y175922D01*
X760000D01*
X760000Y175922D01*
X761561Y176232D01*
X762884Y177116D01*
X776534Y190766D01*
X776534Y190766D01*
X777418Y192089D01*
X777728Y193650D01*
Y203500D01*
X778650D01*
Y222000D01*
D02*
G37*
G36*
X791350D02*
X781350D01*
Y203500D01*
X782272D01*
Y189032D01*
X767318Y174078D01*
X722343D01*
X720782Y173768D01*
X719459Y172884D01*
X719459Y172884D01*
X717116Y170541D01*
X716232Y169218D01*
X715922Y167657D01*
X715922Y167657D01*
Y160000D01*
X713000D01*
Y140000D01*
X727000D01*
Y160000D01*
X724078D01*
Y165922D01*
X769007D01*
X769007Y165922D01*
X770568Y166232D01*
X771891Y167116D01*
X789234Y184459D01*
X789234Y184459D01*
X790118Y185782D01*
X790428Y187343D01*
X790428Y187343D01*
Y203500D01*
X791350D01*
Y222000D01*
D02*
G37*
G36*
X829450D02*
X819450D01*
Y203500D01*
X819862D01*
Y190550D01*
X820211Y188794D01*
X821206Y187306D01*
X821756Y186756D01*
X823244Y185761D01*
X823528Y185705D01*
X832116Y177116D01*
X832116Y177116D01*
X833439Y176232D01*
X835000Y175922D01*
X925922D01*
Y160000D01*
X923000D01*
Y140000D01*
X937000D01*
Y160000D01*
X934078D01*
Y177657D01*
X933768Y179218D01*
X932884Y180541D01*
X932884Y180541D01*
X930541Y182884D01*
X929218Y183768D01*
X927657Y184078D01*
X927657Y184078D01*
X836689D01*
X829295Y191472D01*
X829239Y191756D01*
X829038Y192056D01*
Y203500D01*
X829450D01*
Y222000D01*
D02*
G37*
G36*
X816750D02*
X806750D01*
Y203500D01*
X807672D01*
Y188250D01*
X807672Y188250D01*
X807982Y186689D01*
X808866Y185366D01*
X827116Y167116D01*
X828439Y166232D01*
X830000Y165922D01*
X855922D01*
Y160000D01*
X853000D01*
Y140000D01*
X867000D01*
Y160000D01*
X864078D01*
Y167657D01*
X863768Y169218D01*
X862884Y170541D01*
X862884Y170541D01*
X860541Y172884D01*
X859218Y173768D01*
X857657Y174078D01*
X857657Y174078D01*
X831689D01*
X815828Y189939D01*
Y203500D01*
X816750D01*
Y222000D01*
D02*
G37*
G36*
X804050D02*
X794050D01*
Y203500D01*
X794972D01*
Y185739D01*
X787116Y177884D01*
X786232Y176561D01*
X785922Y175000D01*
X785922Y175000D01*
Y160000D01*
X783000D01*
Y140000D01*
X797000D01*
Y160000D01*
X794078D01*
Y173311D01*
X801934Y181166D01*
X801934Y181166D01*
X802818Y182489D01*
X803128Y184050D01*
Y203500D01*
X804050D01*
Y222000D01*
D02*
G37*
G36*
X1152361Y180000D02*
X1147639D01*
X1142975Y179261D01*
X1138484Y177802D01*
X1134277Y175658D01*
X1130456Y172883D01*
X1127117Y169544D01*
X1124342Y165723D01*
X1122198Y161516D01*
X1120739Y157025D01*
X1120000Y152361D01*
Y147639D01*
X1120739Y142975D01*
X1122198Y138484D01*
X1124342Y134277D01*
X1127117Y130456D01*
X1130456Y127117D01*
X1134277Y124342D01*
X1138484Y122198D01*
X1142975Y120739D01*
X1147639Y120000D01*
X1152361D01*
X1157025Y120739D01*
X1161516Y122198D01*
X1165723Y124342D01*
X1169544Y127117D01*
X1172883Y130456D01*
X1175658Y134277D01*
X1177802Y138484D01*
X1179261Y142975D01*
X1180000Y147639D01*
Y152361D01*
X1179261Y157025D01*
X1177802Y161516D01*
X1175658Y165723D01*
X1172883Y169544D01*
X1169544Y172883D01*
X1165723Y175658D01*
X1161516Y177802D01*
X1157025Y179261D01*
X1152361Y180000D01*
D02*
G37*
G36*
X737000Y98250D02*
X731500D01*
Y91500D01*
X737000D01*
Y98250D01*
D02*
G37*
G36*
X728500D02*
X723000D01*
Y91500D01*
X728500D01*
Y98250D01*
D02*
G37*
G36*
X1017000D02*
X1011500D01*
Y91500D01*
X1017000D01*
Y98250D01*
D02*
G37*
G36*
X667000D02*
X661500D01*
Y91500D01*
X667000D01*
Y98250D01*
D02*
G37*
G36*
X658500D02*
X653000D01*
Y91500D01*
X658500D01*
Y98250D01*
D02*
G37*
G36*
X1008500D02*
X1003000D01*
Y91500D01*
X1008500D01*
Y98250D01*
D02*
G37*
G36*
X597000D02*
X591500D01*
Y91500D01*
X597000D01*
Y98250D01*
D02*
G37*
G36*
X457000D02*
X451500D01*
Y91500D01*
X457000D01*
Y98250D01*
D02*
G37*
G36*
X588500D02*
X583000D01*
Y91500D01*
X588500D01*
Y98250D01*
D02*
G37*
G36*
X448500D02*
X443000D01*
Y91500D01*
X448500D01*
Y98250D01*
D02*
G37*
G36*
X387000D02*
X381500D01*
Y91500D01*
X387000D01*
Y98250D01*
D02*
G37*
G36*
X947000D02*
X941500D01*
Y91500D01*
X947000D01*
Y98250D01*
D02*
G37*
G36*
X938500D02*
X933000D01*
Y91500D01*
X938500D01*
Y98250D01*
D02*
G37*
G36*
X378500D02*
X373000D01*
Y91500D01*
X378500D01*
Y98250D01*
D02*
G37*
G36*
X527000D02*
X521500D01*
Y91500D01*
X527000D01*
Y98250D01*
D02*
G37*
G36*
X877000D02*
X871500D01*
Y91500D01*
X877000D01*
Y98250D01*
D02*
G37*
G36*
X868500D02*
X863000D01*
Y91500D01*
X868500D01*
Y98250D01*
D02*
G37*
G36*
X518500D02*
X513000D01*
Y91500D01*
X518500D01*
Y98250D01*
D02*
G37*
G36*
X807000D02*
X801500D01*
Y91500D01*
X807000D01*
Y98250D01*
D02*
G37*
G36*
X798500D02*
X793000D01*
Y91500D01*
X798500D01*
Y98250D01*
D02*
G37*
G36*
X1037000Y160000D02*
X1023000D01*
Y140000D01*
X1024392D01*
Y98250D01*
X1023000D01*
Y81750D01*
X1037000D01*
Y98250D01*
X1035608D01*
Y140000D01*
X1037000D01*
Y160000D01*
D02*
G37*
G36*
X1017000Y88500D02*
X1011500D01*
Y81750D01*
X1017000D01*
Y88500D01*
D02*
G37*
G36*
X1008500D02*
X1003000D01*
Y81750D01*
X1008500D01*
Y88500D01*
D02*
G37*
G36*
X967000Y160000D02*
X953000D01*
Y140000D01*
X954392D01*
Y98250D01*
X953000D01*
Y81750D01*
X967000D01*
Y98250D01*
X965608D01*
Y140000D01*
X967000D01*
Y160000D01*
D02*
G37*
G36*
X947000Y88500D02*
X941500D01*
Y81750D01*
X947000D01*
Y88500D01*
D02*
G37*
G36*
X938500D02*
X933000D01*
Y81750D01*
X938500D01*
Y88500D01*
D02*
G37*
G36*
X897000Y160000D02*
X883000D01*
Y140000D01*
X884392D01*
Y98250D01*
X883000D01*
Y81750D01*
X897000D01*
Y98250D01*
X895608D01*
Y140000D01*
X897000D01*
Y160000D01*
D02*
G37*
G36*
X877000Y88500D02*
X871500D01*
Y81750D01*
X877000D01*
Y88500D01*
D02*
G37*
G36*
X868500D02*
X863000D01*
Y81750D01*
X868500D01*
Y88500D01*
D02*
G37*
G36*
X827000Y160000D02*
X813000D01*
Y140000D01*
X814392D01*
Y98250D01*
X813000D01*
Y81750D01*
X827000D01*
Y98250D01*
X825608D01*
Y140000D01*
X827000D01*
Y160000D01*
D02*
G37*
G36*
X807000Y88500D02*
X801500D01*
Y81750D01*
X807000D01*
Y88500D01*
D02*
G37*
G36*
X798500D02*
X793000D01*
Y81750D01*
X798500D01*
Y88500D01*
D02*
G37*
G36*
X757000Y160000D02*
X743000D01*
Y140000D01*
X744392D01*
Y98250D01*
X743000D01*
Y81750D01*
X757000D01*
Y98250D01*
X755608D01*
Y140000D01*
X757000D01*
Y160000D01*
D02*
G37*
G36*
X737000Y88500D02*
X731500D01*
Y81750D01*
X737000D01*
Y88500D01*
D02*
G37*
G36*
X728500D02*
X723000D01*
Y81750D01*
X728500D01*
Y88500D01*
D02*
G37*
G36*
X687000Y160000D02*
X673000D01*
Y140000D01*
X674392D01*
Y98250D01*
X673000D01*
Y81750D01*
X687000D01*
Y98250D01*
X685608D01*
Y140000D01*
X687000D01*
Y160000D01*
D02*
G37*
G36*
X667000Y88500D02*
X661500D01*
Y81750D01*
X667000D01*
Y88500D01*
D02*
G37*
G36*
X658500D02*
X653000D01*
Y81750D01*
X658500D01*
Y88500D01*
D02*
G37*
G36*
X617000Y160000D02*
X603000D01*
Y140000D01*
X604392D01*
Y98250D01*
X603000D01*
Y81750D01*
X617000D01*
Y98250D01*
X615608D01*
Y140000D01*
X617000D01*
Y160000D01*
D02*
G37*
G36*
X597000Y88500D02*
X591500D01*
Y81750D01*
X597000D01*
Y88500D01*
D02*
G37*
G36*
X588500D02*
X583000D01*
Y81750D01*
X588500D01*
Y88500D01*
D02*
G37*
G36*
X527000Y88500D02*
X521500D01*
Y81750D01*
X527000D01*
Y88500D01*
D02*
G37*
G36*
X518500D02*
X513000D01*
Y81750D01*
X518500D01*
Y88500D01*
D02*
G37*
G36*
X477000Y160000D02*
X463000D01*
Y140000D01*
X464392D01*
Y98250D01*
X463000D01*
Y81750D01*
X477000D01*
Y98250D01*
X475608D01*
Y140000D01*
X477000D01*
Y160000D01*
D02*
G37*
G36*
X457000Y88500D02*
X451500D01*
Y81750D01*
X457000D01*
Y88500D01*
D02*
G37*
G36*
X448500D02*
X443000D01*
Y81750D01*
X448500D01*
Y88500D01*
D02*
G37*
G36*
X407000Y160000D02*
X393000D01*
Y140000D01*
X394392D01*
Y98250D01*
X393000D01*
Y81750D01*
X407000D01*
Y98250D01*
X405608D01*
Y140000D01*
X407000D01*
Y160000D01*
D02*
G37*
G36*
X387000Y88500D02*
X381500D01*
Y81750D01*
X387000D01*
Y88500D01*
D02*
G37*
G36*
X378500D02*
X373000D01*
Y81750D01*
X378500D01*
Y88500D01*
D02*
G37*
G36*
X1070922Y63000D02*
X1069078D01*
X1067298Y62523D01*
X1065702Y61601D01*
X1064399Y60298D01*
X1063477Y58702D01*
X1063003Y56934D01*
X1061677Y55608D01*
X365323D01*
X363997Y56934D01*
X363523Y58702D01*
X362601Y60298D01*
X361298Y61601D01*
X359702Y62523D01*
X357922Y63000D01*
X356078D01*
X354298Y62523D01*
X352702Y61601D01*
X351399Y60298D01*
X350477Y58702D01*
X350000Y56922D01*
Y55078D01*
X350477Y53298D01*
X351399Y51702D01*
X352702Y50399D01*
X354298Y49477D01*
X356066Y49003D01*
X359035Y46035D01*
X360854Y44819D01*
X363000Y44392D01*
X1064000D01*
X1066146Y44819D01*
X1067965Y46035D01*
X1070934Y49003D01*
X1072702Y49477D01*
X1074298Y50399D01*
X1075601Y51702D01*
X1076523Y53298D01*
X1077000Y55078D01*
Y56922D01*
X1076523Y58702D01*
X1075601Y60298D01*
X1074298Y61601D01*
X1072702Y62523D01*
X1070922Y63000D01*
D02*
G37*
G36*
X1137500Y52880D02*
Y46500D01*
X1143880D01*
X1143455Y48088D01*
X1142402Y49912D01*
X1140912Y51402D01*
X1139088Y52455D01*
X1137500Y52880D01*
D02*
G37*
G36*
X1134500Y52880D02*
X1132912Y52455D01*
X1131088Y51402D01*
X1129598Y49912D01*
X1128545Y48088D01*
X1128120Y46500D01*
X1134500D01*
Y52880D01*
D02*
G37*
G36*
X72000Y54000D02*
X56000D01*
Y38000D01*
X72000D01*
Y54000D01*
D02*
G37*
G36*
X1143880Y43500D02*
X1137500D01*
Y37120D01*
X1139088Y37545D01*
X1140912Y38598D01*
X1142402Y40088D01*
X1143455Y41912D01*
X1143880Y43500D01*
D02*
G37*
G36*
X1134500D02*
X1128120D01*
X1128545Y41912D01*
X1129598Y40088D01*
X1131088Y38598D01*
X1132912Y37545D01*
X1134500Y37120D01*
Y43500D01*
D02*
G37*
G36*
X65500Y33880D02*
Y27500D01*
X71880D01*
X71455Y29088D01*
X70402Y30912D01*
X68912Y32402D01*
X67088Y33455D01*
X65500Y33880D01*
D02*
G37*
G36*
X62500D02*
X60912Y33455D01*
X59088Y32402D01*
X57599Y30912D01*
X56545Y29088D01*
X56120Y27500D01*
X62500D01*
Y33880D01*
D02*
G37*
G36*
Y24500D02*
X56120D01*
X56545Y22912D01*
X57599Y21088D01*
X59088Y19598D01*
X60912Y18545D01*
X62500Y18120D01*
Y24500D01*
D02*
G37*
G36*
X71880D02*
X65500D01*
Y18120D01*
X67088Y18545D01*
X68912Y19598D01*
X70402Y21088D01*
X71455Y22912D01*
X71880Y24500D01*
D02*
G37*
G36*
X1144000Y33000D02*
X1128000D01*
Y17000D01*
X1144000D01*
Y33000D01*
D02*
G37*
%LPD*%
D15*
X187000Y140000D02*
X197000D01*
X1071000Y85000D02*
Y261000D01*
X290000Y72000D02*
X1058000D01*
X1071000Y85000D01*
X197000Y115000D02*
X247000D01*
X542657Y185000D02*
X545000Y187343D01*
X385000Y185000D02*
X542657D01*
X370000Y170000D02*
X385000Y185000D01*
X247000Y115000D02*
X290000Y72000D01*
X179000Y59000D02*
X223500Y14500D01*
X179000Y59000D02*
Y132000D01*
X223500Y14500D02*
X1064228D01*
X179000Y132000D02*
X187000Y140000D01*
X1064228Y14500D02*
X1086000Y36272D01*
X1059000Y295000D02*
X1086000Y268000D01*
Y36272D02*
Y268000D01*
X787385Y295000D02*
X1059000D01*
X370000Y150000D02*
Y170000D01*
X799050Y279657D02*
X801393Y282000D01*
X799050Y267250D02*
Y279657D01*
X801393Y282000D02*
X1050000D01*
X1071000Y261000D01*
X774385Y282000D02*
X787385Y295000D01*
X842343Y190000D02*
X995000D01*
X1000000Y150000D02*
Y185000D01*
X995000Y190000D02*
X1000000Y185000D01*
X840000Y192343D02*
X842343Y190000D01*
X493650Y284509D02*
X495993Y286852D01*
X600148D01*
X487852Y292852D02*
X610148D01*
X611000Y292000D01*
X600148Y286852D02*
X611000Y276000D01*
X493650Y267250D02*
Y284509D01*
X480950Y285950D02*
X487852Y292852D01*
X600000Y264000D02*
X619000D01*
X521722Y280000D02*
X584000D01*
X600000Y264000D01*
X619000D02*
X635000Y280000D01*
X732878D01*
X735222Y267578D02*
Y277657D01*
Y267578D02*
X735550Y267250D01*
X732878Y280000D02*
X735222Y277657D01*
X774000Y282000D02*
X774385D01*
X773825Y281825D02*
X774000Y282000D01*
X773825Y267425D02*
Y281825D01*
X773650Y267250D02*
X773825Y267425D01*
X755000Y289376D02*
X760975Y283401D01*
X755000Y289376D02*
Y291000D01*
X760975Y267275D02*
Y283401D01*
X519378Y277657D02*
X521722Y280000D01*
X519378Y267578D02*
Y277657D01*
X519050Y267250D02*
X519378Y267578D01*
X468250Y267250D02*
X468625Y267625D01*
Y282625D02*
X469000Y283000D01*
X468625Y267625D02*
Y282625D01*
X760950Y267250D02*
X760975Y267275D01*
X748125Y250125D02*
Y267125D01*
X748000Y250000D02*
X748125Y250125D01*
Y267125D02*
X748250Y267250D01*
X480950D02*
Y285950D01*
X532343Y255000D02*
X550000D01*
X811750Y248250D02*
Y267250D01*
X840000Y192343D02*
Y220000D01*
X811750Y248250D02*
X840000Y220000D01*
X930000Y150000D02*
Y177657D01*
X835000Y180000D02*
X927657D01*
X930000Y177657D01*
X825000Y190000D02*
X835000Y180000D01*
X830000Y170000D02*
X857657D01*
X860000Y150000D02*
Y167657D01*
X857657Y170000D02*
X860000Y167657D01*
X811750Y188250D02*
X830000Y170000D01*
X811750Y188250D02*
Y212750D01*
X790000Y150000D02*
X790000Y150000D01*
X790000Y150000D02*
Y175000D01*
X799050Y184050D02*
Y212750D01*
X790000Y175000D02*
X799050Y184050D01*
X722343Y170000D02*
X769007D01*
X786350Y187343D02*
Y212750D01*
X769007Y170000D02*
X786350Y187343D01*
X720000Y150000D02*
Y167657D01*
X722343Y170000D01*
X760000Y180000D02*
X773650Y193650D01*
Y212750D01*
X652343Y180000D02*
X760000D01*
X650000Y150000D02*
X650000Y150000D01*
X650000Y150000D02*
Y177657D01*
X652343Y180000D01*
X580000Y150000D02*
Y180000D01*
X590000Y190000D01*
X755000D01*
X760950Y195950D01*
Y212750D01*
X585000Y200000D02*
X744907D01*
X747250Y202343D02*
Y211750D01*
X744907Y200000D02*
X747250Y202343D01*
X550000Y165000D02*
X585000Y200000D01*
X747250Y211750D02*
X748250Y212750D01*
X512343Y165000D02*
X550000D01*
X510000Y162657D02*
X512343Y165000D01*
X510000Y150000D02*
Y162657D01*
Y150000D02*
X510000Y150000D01*
X532343Y255000D02*
Y266657D01*
X531750Y267250D02*
X532343Y266657D01*
X550000Y255000D02*
X555000Y250000D01*
Y185000D02*
Y250000D01*
X545000Y175000D02*
X555000Y185000D01*
X445000Y175000D02*
X545000D01*
X440000Y150000D02*
Y170000D01*
X445000Y175000D01*
X545000Y187343D02*
Y212200D01*
X544450Y212750D02*
X545000Y212200D01*
D18*
X1030000Y150000D02*
D03*
X1000000D02*
D03*
X960000D02*
D03*
X930000D02*
D03*
X890000D02*
D03*
X860000D02*
D03*
X540000D02*
D03*
X510000D02*
D03*
X610000D02*
D03*
X580000D02*
D03*
X680000D02*
D03*
X650000D02*
D03*
X750000D02*
D03*
X720000D02*
D03*
X820000D02*
D03*
X790000D02*
D03*
X470000D02*
D03*
X440000D02*
D03*
X400000D02*
D03*
X370000D02*
D03*
D19*
X845000Y267000D02*
D03*
Y247000D02*
D03*
X568000Y269000D02*
D03*
Y249000D02*
D03*
D22*
X940000Y90000D02*
D03*
X960000D02*
D03*
X380000D02*
D03*
X400000D02*
D03*
X730000D02*
D03*
X750000D02*
D03*
X590000D02*
D03*
X610000D02*
D03*
X660000D02*
D03*
X680000D02*
D03*
X800000D02*
D03*
X820000D02*
D03*
X1010000D02*
D03*
X1030000D02*
D03*
X870000D02*
D03*
X890000D02*
D03*
X450000D02*
D03*
X470000D02*
D03*
X520000D02*
D03*
X540000D02*
D03*
D34*
X1064000Y50000D02*
X1070000Y56000D01*
X357000D02*
X363000Y50000D01*
X1064000D01*
X93000Y232000D02*
X93812D01*
X321000Y234000D02*
X351000Y204000D01*
X93812Y232000D02*
X95812Y234000D01*
X321000D01*
X845000Y267000D02*
X865000D01*
X590426Y256574D02*
X591000Y256000D01*
X581188Y269000D02*
X590426Y259762D01*
Y256574D02*
Y259762D01*
X568000Y269000D02*
X581188D01*
X827875Y267125D02*
X844875D01*
X845000Y267000D01*
X1030000Y90000D02*
X1030000Y90000D01*
X1030000Y90000D02*
Y150000D01*
X960000Y90000D02*
Y150000D01*
X890000Y90000D02*
Y150000D01*
Y90000D02*
X890000Y90000D01*
X820000D02*
Y150000D01*
X750000Y90000D02*
Y150000D01*
Y90000D02*
X750000Y90000D01*
X680000D02*
Y150000D01*
X610000Y90000D02*
Y150000D01*
X610000Y150000D02*
X610000Y150000D01*
X540000Y90000D02*
Y150000D01*
X470000Y90000D02*
Y150000D01*
X400000Y90000D02*
Y150000D01*
D35*
X824450Y190550D02*
X825000Y190000D01*
X824450Y190550D02*
Y212750D01*
D36*
X392600Y252300D02*
D03*
Y277700D02*
D03*
D37*
X197000Y214000D02*
D03*
Y189000D02*
D03*
Y164000D02*
D03*
Y114000D02*
D03*
Y139000D02*
D03*
D38*
Y89000D02*
D03*
D39*
X1136000Y25000D02*
D03*
X64000Y46000D02*
D03*
X64000Y277000D02*
D03*
D40*
X1136000Y45000D02*
D03*
X64000Y26000D02*
D03*
X64000Y257000D02*
D03*
D41*
X1150000Y150000D02*
D03*
X250000D02*
D03*
D42*
X1050001Y30001D02*
D03*
X1030001D02*
D03*
X1010001D02*
D03*
X990001D02*
D03*
X970001D02*
D03*
X950001D02*
D03*
X930001D02*
D03*
X910001D02*
D03*
X890001D02*
D03*
X870001D02*
D03*
X850001D02*
D03*
X830001D02*
D03*
X810001D02*
D03*
X790001D02*
D03*
X770001D02*
D03*
X750001D02*
D03*
X730001D02*
D03*
X710001D02*
D03*
X690001D02*
D03*
X670001D02*
D03*
X650001D02*
D03*
X1184999Y280000D02*
D03*
X1169999Y250000D02*
D03*
X1184999Y220000D02*
D03*
X1169999Y190000D02*
D03*
X1184999Y160000D02*
D03*
Y100000D02*
D03*
X1169999Y70000D02*
D03*
X1184999Y40000D02*
D03*
X1169999Y10000D02*
D03*
X1154999Y280000D02*
D03*
X1139999Y250000D02*
D03*
X1154999Y220000D02*
D03*
X1139999Y190000D02*
D03*
X1154999Y100000D02*
D03*
X1139999Y70000D02*
D03*
X1154999Y40000D02*
D03*
X1139999Y10000D02*
D03*
X1124999Y280000D02*
D03*
X1109999Y250000D02*
D03*
X1124999Y220000D02*
D03*
X1109999Y190000D02*
D03*
Y130000D02*
D03*
X1124999Y100000D02*
D03*
X1109999Y70000D02*
D03*
Y10000D02*
D03*
X1094999Y280000D02*
D03*
X1079999Y10000D02*
D03*
X1049999Y250000D02*
D03*
Y190000D02*
D03*
Y130000D02*
D03*
X1019999Y250000D02*
D03*
X1034999Y220000D02*
D03*
X1019999Y190000D02*
D03*
X989999Y250000D02*
D03*
X1004999Y220000D02*
D03*
X989999Y130000D02*
D03*
X959999Y250000D02*
D03*
X974999Y220000D02*
D03*
X929999Y250000D02*
D03*
X944999Y220000D02*
D03*
X929999Y130000D02*
D03*
X899999Y250000D02*
D03*
X914999Y220000D02*
D03*
Y160000D02*
D03*
Y100000D02*
D03*
X884999Y220000D02*
D03*
X869999Y130000D02*
D03*
X854999Y220000D02*
D03*
X839999Y130000D02*
D03*
X854999Y100000D02*
D03*
X779999Y130000D02*
D03*
X764999Y160000D02*
D03*
Y100000D02*
D03*
X719999Y130000D02*
D03*
X704999Y100000D02*
D03*
X674999Y220000D02*
D03*
X644999D02*
D03*
X630000Y130000D02*
D03*
X585000Y220000D02*
D03*
X570000Y130000D02*
D03*
X555000Y100000D02*
D03*
X450000Y130000D02*
D03*
X420000D02*
D03*
X405000Y220000D02*
D03*
X375000Y280000D02*
D03*
X360000Y250000D02*
D03*
X375000Y220000D02*
D03*
X360000Y190000D02*
D03*
Y130000D02*
D03*
X345000Y280000D02*
D03*
X330000Y250000D02*
D03*
Y190000D02*
D03*
Y130000D02*
D03*
X315000Y280000D02*
D03*
X300000Y250000D02*
D03*
X315000Y220000D02*
D03*
X300000Y190000D02*
D03*
X315000Y160000D02*
D03*
X300000Y130000D02*
D03*
X315000Y100000D02*
D03*
X285000Y280000D02*
D03*
X270000Y250000D02*
D03*
X285000Y220000D02*
D03*
X270000Y190000D02*
D03*
X285000Y160000D02*
D03*
Y100000D02*
D03*
X270000Y70000D02*
D03*
X210000Y250000D02*
D03*
X225000Y40000D02*
D03*
X210000Y10000D02*
D03*
X180000Y250000D02*
D03*
Y10000D02*
D03*
X150000Y250000D02*
D03*
X165000Y40000D02*
D03*
X150000Y10000D02*
D03*
X120000Y250000D02*
D03*
X135000Y40000D02*
D03*
X120000Y10000D02*
D03*
X105000Y220000D02*
D03*
Y160000D02*
D03*
Y100000D02*
D03*
X90000Y10000D02*
D03*
X75000Y220000D02*
D03*
X60000Y190000D02*
D03*
X75000Y160000D02*
D03*
X60000Y130000D02*
D03*
X75000Y100000D02*
D03*
X60000Y10000D02*
D03*
X30000Y250000D02*
D03*
Y190000D02*
D03*
Y130000D02*
D03*
Y70000D02*
D03*
X45000Y40000D02*
D03*
X30000Y10000D02*
D03*
X93000Y232000D02*
D03*
X351000Y204000D02*
D03*
X357000Y56000D02*
D03*
X1070000D02*
D03*
X865000Y267000D02*
D03*
X611000Y276000D02*
D03*
X591000Y256000D02*
D03*
X611000Y292000D02*
D03*
X774000Y282000D02*
D03*
X755000Y291000D02*
D03*
X706000Y213000D02*
D03*
X722000D02*
D03*
X696000Y108000D02*
D03*
Y122000D02*
D03*
X469000Y283000D02*
D03*
X748000Y250000D02*
D03*
D43*
X824450Y212750D02*
D03*
X811750D02*
D03*
X799050D02*
D03*
X786350D02*
D03*
X773650D02*
D03*
X760950D02*
D03*
X748250D02*
D03*
X735550D02*
D03*
Y267250D02*
D03*
X748250D02*
D03*
X760950D02*
D03*
X773650D02*
D03*
X786350D02*
D03*
X799050D02*
D03*
X811750D02*
D03*
X824450D02*
D03*
X544450Y212750D02*
D03*
X531750D02*
D03*
X519050D02*
D03*
X506350D02*
D03*
X493650D02*
D03*
X480950D02*
D03*
X468250D02*
D03*
X455550D02*
D03*
Y267250D02*
D03*
X468250D02*
D03*
X480950D02*
D03*
X493650D02*
D03*
X506350D02*
D03*
X519050D02*
D03*
X531750D02*
D03*
X544450D02*
D03*
D44*
Y269000D02*
X568000D01*
X544450Y267250D02*
Y269000D01*
M02*
