G04*
G04 #@! TF.GenerationSoftware,Altium Limited,Altium Designer,22.9.1 (49)*
G04*
G04 Layer_Color=255*
%FSLAX44Y44*%
%MOMM*%
G71*
G04*
G04 #@! TF.SameCoordinates,82FFAF5D-3DE1-49B7-988C-51480E2A03B1*
G04*
G04*
G04 #@! TF.FilePolarity,Positive*
G04*
G01*
G75*
%ADD18R,1.0000X1.6000*%
%ADD19R,1.2500X1.0000*%
%ADD22R,1.0000X1.2500*%
%ADD36C,1.8000*%
%ADD37C,2.0000*%
%ADD38P,2.1648X8X112.5*%
%ADD39R,1.2000X1.2000*%
%ADD40C,1.2000*%
%ADD41C,1.5240*%
%ADD43R,0.6000X1.4500*%
D18*
X1030000Y150000D02*
D03*
X1000000D02*
D03*
X960000D02*
D03*
X930000D02*
D03*
X890000D02*
D03*
X860000D02*
D03*
X540000D02*
D03*
X510000D02*
D03*
X610000D02*
D03*
X580000D02*
D03*
X680000D02*
D03*
X650000D02*
D03*
X750000D02*
D03*
X720000D02*
D03*
X820000D02*
D03*
X790000D02*
D03*
X470000D02*
D03*
X440000D02*
D03*
X400000D02*
D03*
X370000D02*
D03*
D19*
X845000Y267000D02*
D03*
Y247000D02*
D03*
X568000Y269000D02*
D03*
Y249000D02*
D03*
D22*
X940000Y90000D02*
D03*
X960000D02*
D03*
X380000D02*
D03*
X400000D02*
D03*
X730000D02*
D03*
X750000D02*
D03*
X590000D02*
D03*
X610000D02*
D03*
X660000D02*
D03*
X680000D02*
D03*
X800000D02*
D03*
X820000D02*
D03*
X1010000D02*
D03*
X1030000D02*
D03*
X870000D02*
D03*
X890000D02*
D03*
X450000D02*
D03*
X470000D02*
D03*
X520000D02*
D03*
X540000D02*
D03*
D36*
X392600Y252300D02*
D03*
Y277700D02*
D03*
D37*
X197000Y214000D02*
D03*
Y189000D02*
D03*
Y164000D02*
D03*
Y114000D02*
D03*
Y139000D02*
D03*
D38*
Y89000D02*
D03*
D39*
X1136000Y25000D02*
D03*
X64000Y46000D02*
D03*
X64000Y277000D02*
D03*
D40*
X1136000Y45000D02*
D03*
X64000Y26000D02*
D03*
X64000Y257000D02*
D03*
D41*
X1150000Y150000D02*
D03*
X250000D02*
D03*
D43*
X824450Y212750D02*
D03*
X811750D02*
D03*
X799050D02*
D03*
X786350D02*
D03*
X773650D02*
D03*
X760950D02*
D03*
X748250D02*
D03*
X735550D02*
D03*
Y267250D02*
D03*
X748250D02*
D03*
X760950D02*
D03*
X773650D02*
D03*
X786350D02*
D03*
X799050D02*
D03*
X811750D02*
D03*
X824450D02*
D03*
X544450Y212750D02*
D03*
X531750D02*
D03*
X519050D02*
D03*
X506350D02*
D03*
X493650D02*
D03*
X480950D02*
D03*
X468250D02*
D03*
X455550D02*
D03*
Y267250D02*
D03*
X468250D02*
D03*
X480950D02*
D03*
X493650D02*
D03*
X506350D02*
D03*
X519050D02*
D03*
X531750D02*
D03*
X544450D02*
D03*
M02*
