G04*
G04 #@! TF.GenerationSoftware,Altium Limited,Altium Designer,22.9.1 (49)*
G04*
G04 Layer_Color=255*
%FSLAX44Y44*%
%MOMM*%
G71*
G04*
G04 #@! TF.SameCoordinates,82FFAF5D-3DE1-49B7-988C-51480E2A03B1*
G04*
G04*
G04 #@! TF.FilePolarity,Positive*
G04*
G01*
G75*
%ADD16R,1.3500X1.1500*%
%ADD17R,1.6000X1.2000*%
%ADD18R,1.0000X1.6000*%
%ADD19R,1.2500X1.0000*%
%ADD20R,6.2000X5.8000*%
%ADD21R,3.0000X1.6000*%
%ADD22R,1.0000X1.2500*%
%ADD36C,1.8000*%
%ADD37C,2.0000*%
%ADD38P,2.1648X8X112.5*%
%ADD39R,1.2000X1.2000*%
%ADD40C,1.2000*%
%ADD41C,1.5240*%
D16*
X94000Y47750D02*
D03*
Y30250D02*
D03*
X94000Y276750D02*
D03*
Y259250D02*
D03*
X1105000Y27250D02*
D03*
Y44750D02*
D03*
D17*
X424000Y281000D02*
D03*
Y249000D02*
D03*
D18*
X438000Y150000D02*
D03*
X408000D02*
D03*
X933000D02*
D03*
X963000D02*
D03*
X858000D02*
D03*
X888000D02*
D03*
X783000D02*
D03*
X813000D02*
D03*
X708000D02*
D03*
X738000D02*
D03*
X633000D02*
D03*
X663000D02*
D03*
X558000D02*
D03*
X588000D02*
D03*
X483000D02*
D03*
X513000D02*
D03*
D19*
X422250Y225000D02*
D03*
Y205000D02*
D03*
D20*
X531800Y227150D02*
D03*
D21*
X460000Y204300D02*
D03*
Y250000D02*
D03*
D22*
X738000Y107000D02*
D03*
X718000D02*
D03*
X813000D02*
D03*
X793000D02*
D03*
X888000D02*
D03*
X868000D02*
D03*
X438000D02*
D03*
X418000D02*
D03*
X963000D02*
D03*
X943000D02*
D03*
X663000D02*
D03*
X643000D02*
D03*
X588000D02*
D03*
X568000D02*
D03*
X513000D02*
D03*
X493000D02*
D03*
D36*
X392600Y252300D02*
D03*
Y277700D02*
D03*
D37*
X197000Y214000D02*
D03*
Y189000D02*
D03*
Y164000D02*
D03*
Y114000D02*
D03*
Y139000D02*
D03*
D38*
Y89000D02*
D03*
D39*
X1136000Y25000D02*
D03*
X64000Y46000D02*
D03*
X64000Y277000D02*
D03*
D40*
X1136000Y45000D02*
D03*
X64000Y26000D02*
D03*
X64000Y257000D02*
D03*
D41*
X1150000Y150000D02*
D03*
X250000D02*
D03*
M02*
