M48
;Layer_Color=9474304
;FILE_FORMAT=4:4
METRIC,TZ
;TYPE=PLATED
T1F00S00C0.3000
T2F00S00C0.5000
T3F00S00C0.9000
T4F00S00C1.0000
T5F00S00C1.1000
T6F00S00C3.0000
%
T01
X964000Y32000
X978000
X992000
X1006000
X1020000
X1034000
X1048000
X1062000
X1076000
X1090000
X1104000
X1118000
X1132000
X1146000
X1160000
X1174000
X1188000
X1195000Y46000
X1209000
X1202000Y60000
X1188000
X1174000
X1160000
X1146000
X1132000
X1118000
X1104000
X1090000
X1076000
X1062000
X1048000
X1034000
X1020000
X1006000
X992000
X978000
X964000
X950000
X957000Y74000
X971000
X985000
X999000
X1013000
X1027000
X1041000
X1055000
X1048000Y88000
X1062000
X1055000Y102000
X1041000
X1027000
X1013000
X999000
X985000
X971000
X957000
X943000
X950000Y116000
X964000
X978000
X992000
X1006000
X1020000
X1034000
X1048000
X1062000
X1076000
X1090000
X1104000
X1118000
X1132000
X1146000
X1160000
X1174000
X1188000
X1202000
X1209000Y130000
X1195000
X1181000
X1167000
X1153000
X1139000
X1125000
X1111000
X1097000
X1083000
X1069000
X1055000
X1041000
X1027000
X1013000
X999000
X985000
X971000
X957000
X943000
X950000Y88000
X964000
X978000
X992000
X1006000
X1020000
X1034000
X1041000Y46000
X1055000
X1069000
X1083000
X1097000
X1111000
X1125000
X1139000
X1153000
X1167000
X1181000
Y74000
X1195000
X1209000
X1202000Y88000
X1188000
X1174000
X1160000
X1146000
X1132000
X1118000
X1125000Y102000
X1139000
X1153000
X1167000
X1181000
X1195000
X1209000
X1202000Y144000
X1188000
X1174000
X1160000
X1146000
Y172000
X1174000
X1188000
X1202000
X1209000Y186000
X1195000
X1202000Y200000
X1174000
X1181000Y214000
Y158000
X1195000
X1209000
X1167000
X1132000Y200000
X1111000Y214000
X1097000
X1083000
X1069000
X1055000
X1041000
X1027000
Y186000
X1041000
X1055000
X1069000
X1083000
X1097000
X1111000
X1013000
X999000
Y46000
X1013000
X1027000
X985000
X971000
X957000
X943000Y74000
X1125000
X1139000
X1153000
X1167000
X929000
X936000Y88000
X929000Y102000
X936000Y116000
Y60000
X915000Y46000
X901000
X887000
X873000
X859000
X845000
X831000
X817000
X803000
X789000
X775000
X768000Y32000
X782000
X796000
X810000
X824000
X838000
X852000
X866000
X880000
X894000
X908000
X726000
X712000
X698000
X684000
X670000
X656000
X642000
X628000
X614000
X600000
X586000
X593000Y46000
X607000
X600000Y60000
X614000
X607000Y74000
X593000
X579000
X586000Y60000
X579000Y46000
X600000Y172000
X614000
X628000
X642000
X649000Y186000
X635000
X621000
X812500Y192500
X820000Y185000
X805000Y200000
X807500Y210000
X797500
X840000
X847500Y202500
X855000Y195000
X726000Y60000
X733000Y46000
X502000Y60000
X488000
X474000
X460000
X446000
X432000
X418000
X404000
X390000
X376000
X362000
X348000
X334000
X320000
X306000
X292000
X278000
X264000
X250000
X236000
X222000
X208000
X194000
X180000
X166000
X152000
X159000Y74000
X173000
X187000
X201000
X215000
X257000
X299000
X355000
X369000
X383000
X397000
X376000Y88000
X362000
X481000Y74000
X495000
X509000
X502000Y172000
X488000
X474000
X481000Y186000
X495000
X509000
X502000Y200000
X488000
X474000
X285000Y195000
Y215000
X270000Y205000
X255000Y215000
Y195000
X145000Y74000
X131000
X117000
X103000
X89000
X75000
X61000
X47000
X33000
X26000Y88000
X54000Y60000
X68000
X82000
X96000
X110000
X124000
X138000
X68000Y256000
X75000Y270000
X68000Y284000
X75000Y298000
X61000
X58000Y406000
X74000
X66000Y422000
X50000
X34000
X18000
X26000Y438000
X42000
X58000
X74000
X18000Y454000
Y486000
X26000Y533999
X42000
X58000
X74000
X66000Y517999
X18000Y390000
X187000Y298000
X201000
X194000Y284000
X208000
X201000Y270000
X187000
X194000Y256000
X208000
X320000Y340000
X334000
X348000
X341000Y354000
X327000
X320000Y368000
X369000Y382000
X383000
X397000
X411000
X425000
X418000Y396000
X432000
X425000Y410000
X411000
X397000
X383000
X369000
X355000
X362000Y396000
X376000
X390000
X404000
X390000Y424000
Y452000
X432000
X446000
X453000Y466000
X439000
X432000Y480000
X446000
X460000
X474000
X488000
X502000
X495000Y494000
X481000
X467000
X453000
X439000
X383000
X352500Y510000
X330000
X292500Y505000
X306000Y565999
X274000
X258000
X242000
X226000
X194000
X178000
X370000
X386000
X402000
X418000
X434000
X450000
X466000
X482000
X498000
X514000
X530000
X537000Y466000
X432000Y424000
X544000Y480000
X572000
X579000Y494000
X578000Y565999
X546000
X632500Y555000
X667500
X707500
X725000Y537500
X754000Y565999
X770000
X786000
X866000Y536000
X880000
X894000
X908000
X922000
X936000
X929000Y550000
X915000
X901000
X887000
X897999Y565999
X913999
X929999
X929000Y522000
X915000
X901000
X887000
X873000
X859000
X852000Y508000
X866000
X880000
X894000
X908000
X922000
X936000
X887000Y494000
X873000
X859000
X845000
X852000Y480000
X866000
X880000
X877500Y285000
X890000
X902500
X915000
X927500
X862500
X850000
X812500Y282500
X790000
X780000
X770000
X760000
X750000
X695000Y500000
X685000
X660000
X647500
X950000Y508000
X964000
X957000Y522000
X943000
X950000Y536000
X943000Y550000
X946000Y565999
X977999
X993999
X1026000
X1057999
X1083000Y550000
X1090000Y536000
X1132000
X1146000
X1125000Y550000
X1105999Y565999
X1097999Y582000
X1129999
X1161999
X1177999
X1193999
X1185999Y597999
X1169999
X1153999
X1161999Y613999
X1177999
X1193999
X1225999
Y582000
X1185999Y565999
X1145999Y613999
X1129999
X1125000Y494000
X1111000
X1104000Y480000
X1118000
X1125000Y466000
X1111000
X1104000Y452000
X1118000
X1125000Y438000
X1111000
X1104000Y424000
X1118000
X1125000Y410000
X1111000
X1104000Y396000
X1118000
X1125000Y382000
X1097000Y354000
X1027000
X999000
X992000Y368000
X999000Y438000
X985000
X1027000
X1034000Y452000
X1005000Y510000
X1042500Y532500
X952500Y285000
X940000
X1042000Y630000
X1121999
X1137999
X1153999
X1169999
X1185999
X1161999Y646000
X1145999
X1137999Y662000
X1153999
X1169999
X913999
X897999
X906000Y646000
X897999Y630000
X913999
X882000
X818000
X802000
X786000
X770000
X754000
X778000Y646000
X770000Y662000
X578000
X586000Y646000
X506000
X490000
X498000Y662000
X514000
X386000Y630000
X306000
X274000
X258000
X242000
X226000
X194000
X178000
X250000Y646000
X266000
X282000
X274000Y662000
X258000
X130000
X138000Y646000
X122000
X114000Y630000
X130000
X98000Y662000
T02
X752500Y136500
Y156500
X772500
Y136500
X792500
Y156500
X450000Y172500
X435000
Y187500
X450000
Y202500
X435000
Y217500
X450000
X90000Y202500
X75000
Y187500
X60000
X45000
Y202500
X60000
X90000Y187500
X235000Y231500
X327500Y474000
X560000Y571500
X574500Y385500
X1013857Y365070
X1014000Y312417
X999000Y312506
X1077500Y259000
Y241500
X1100000
Y259000
X1127500Y361500
X1012787Y438713
T03
X35000Y356500
Y381500
Y406500
Y469000
Y494000
Y519000
X471000Y456146
X496400
X521800
Y304000
X496400
X471000
X547200
X572600
X598000
X623400
X648800
X674200
X699600
X725000
X750400
X775800
X801200
X826600
X852000
X877400
X902800
X928200
Y456146
X902800
X877400
X852000
X826600
X801200
X775800
X750400
X725000
X699600
X674200
X648800
X623400
X598000
X572600
X547200
X953600
Y304000
X947500Y654000
X972500
X997500
X1022500
X1047500
X1072500
X1097500
X1122500
X882500Y655000
X857500
X832500
X807500
X472500Y654000
X447500
X422500
X397500
X372500
X347500
X322500
X297500
X232500
X207500
X182500
X157500
T04
X1187500Y654000
X1212500
X560000
X535000
T05
X42500Y267300
Y292700
X727100Y647500
X752500
X107700
X82300
T06
X1275000Y25000
X25000
X1275000Y675000
X25000
M30
