M48
;Layer_Color=9474304
;FILE_FORMAT=4:4
METRIC,TZ
;TYPE=PLATED
T1F00S00C0.5000
T2F00S00C0.7000
T3F00S00C1.0000
T4F00S00C1.1900
T5F00S00C3.0000
%
T01
X950001Y30001
X970001
X990001
X1010001
X1030001
X1050001
X1070000Y56000
X1109999Y70000
X1139999
X1169999
X1184999Y100000
X1154999
X1124999
X1109999Y130000
Y190000
X1139999
X1169999
X1184999Y220000
X1154999
X1124999
X1139999Y250000
X1169999
X1184999Y280000
X1154999
X1124999
X1094999
X1109999Y250000
X1049999
X1019999
X989999
X959999
X974999Y220000
X1004999
X1034999
X1049999Y190000
X1019999
X1049999Y130000
X989999
X944999Y220000
X1184999Y160000
Y40000
X1154999
X1169999Y10000
X1139999
X1109999
X1079999
X930001Y30001
X910001
X890001
X870001
X850001
X830001
X810001
X790001
X770001
X750001
X730001
X710001
X690001
X670001
X650001
X630000Y130000
X570000
X555000Y100000
X696000Y108000
Y122000
X704999Y100000
X719999Y130000
X779999
X764999Y160000
Y100000
X854999
X869999Y130000
X839999
X929999
X914999Y160000
Y220000
X884999
X854999
X865000Y267000
X899999Y250000
X929999
X914999Y100000
X722000Y213000
X706000
X674999Y220000
X644999
X585000
X591000Y256000
X611000Y276000
Y292000
X755000Y291000
X774000Y282000
X748000Y250000
X469000Y283000
X375000Y280000
X345000
X315000
X285000
X300000Y250000
X330000
X360000
X375000Y220000
X405000
X351000Y204000
X360000Y190000
X330000
X300000
X270000
X285000Y220000
X315000
Y160000
X285000
X300000Y130000
X330000
X360000
X420000
X450000
X315000Y100000
X285000
X270000Y70000
X225000Y40000
X210000Y10000
X180000
X150000
X165000Y40000
X357000Y56000
X270000Y250000
X210000
X180000
X150000
X120000
X93000Y232000
X105000Y220000
X75000
X60000Y190000
X30000
Y250000
Y130000
X60000
X75000Y160000
X105000
Y100000
X75000
X30000Y70000
X45000Y40000
X60000Y10000
X90000
X120000
X135000Y40000
X30000Y10000
T02
X1136000Y25000
Y45000
X64000Y46000
Y26000
X64000Y257000
Y277000
T03
X197000Y89000
Y114000
Y139000
Y164000
Y189000
Y214000
T04
X392600Y252300
Y277700
T05
X1150000Y150000
X250000
M30
