M48
;Layer_Color=9474304
;FILE_FORMAT=4:4
METRIC,TZ
;TYPE=PLATED
T1F00S00C0.3000
T2F00S00C0.9000
T3F00S00C1.1500
T4F00S00C3.0000
%
T01
X749999Y173999
X757999Y189999
X741999
X749999Y205999
X757999Y221999
X741999
X749999Y237999
X789999Y221999
X821999
X837999
X829999Y237999
X845999
X837999Y253999
X821999
X813999Y237999
Y205999
X829999
X845999
X837999Y189999
X821999
X813999Y173999
X829999
X845999
X909999
X925999
X933999Y189999
X917999
X901999
X909999Y205999
X925999
X933999Y221999
X917999
X901999
X909999Y237999
X925999
X941999
X933999Y253999
X917999
X901999
X877999Y237999
Y205999
X965999Y189999
X997999
X989999Y205999
X997999Y221999
X989999Y237999
X997999Y253999
X1021999Y237999
Y205999
Y173999
X989999
X1085999
X1101999
X1117999
X1125999Y189999
X1109999
X1093999
X1077999
X1085999Y205999
X1101999
X1117999
X1125999Y221999
X1109999
X1093999
X1077999
X1085999Y237999
X1101999
X1117999
X1125999Y253999
X1109999
X1093999
X1077999
X995000Y330000
X957500
X945000
X932500
X789999Y189999
X927500Y40000
X942500
X957500
X995000
Y25000
X733999Y173999
X717999
X701999
X709999Y189999
X725999
X717999Y205999
X733999
X725999Y221999
X709999
X693999
X701999Y237999
X717999
X733999
X701999Y205999
X693999Y189999
X653999Y205999
X637999
X621999
X605999
X613999Y221999
X629999
X645999
X661999
X653999Y237999
X637999
X621999
X605999
X573999
X557999
X541999
X525999
X509999
X517999Y221999
X533999
X549999
X565999
X557999Y205999
X541999
X525999
X509999
Y173999
X525999
X541999
X557999
X605999
X621999
X637999
X653999
X477999Y205999
X461999
X445999
X429999
X437999Y221999
X453999
X469999
X461999Y237999
X477999
X445999
X429999
X421999Y221999
X389999
X373999
X357999
X341999
X349999Y237999
X365999
X381999
Y205999
X365999
X349999
X480000Y330000
X495000
X507500
X545000Y327500
Y40000
Y25000
X505000Y40000
X487500
X240000Y87500
Y97500
Y107500
Y117500
Y127500
Y137500
X230000
X220000
X187500
X177500
X161000Y140000
X162500Y125000
Y115000
Y105000
Y95000
Y85000
X170000Y80000
X180000
X190000
X200000
X210000
X220000
X230000
X117999Y78000
X101999
Y45999
X117999
X109999Y29999
X125999
X94000
X109999Y141999
X101999Y157999
X85999
X94000Y173999
X109999
X117999Y189999
X101999
X78000Y205999
X147904Y205000
Y213904
Y223000
Y195904
Y187000
Y177685
Y169000
X183000Y191000
Y199500
Y218000
X261999Y221999
X253999Y237999
X269999
Y205999
X333999
X325999Y221999
X333999Y237999
X141999Y269999
X149999Y285999
X545000Y340000
X995000Y342500
T02
X41000Y147500
Y172500
Y197500
Y222500
T03
X264000Y52800
Y78200
Y103600
Y129000
T04
X1070000Y30000
X220000
Y340000
X1070000
M30
