M48
;Layer_Color=9474304
;FILE_FORMAT=4:4
METRIC,TZ
;TYPE=PLATED
T1F00S00C0.5000
T2F00S00C0.9000
T3F00S00C1.0000
T4F00S00C1.2000
T5F00S00C3.0000
%
T01
X956001Y47500
X976001
X996001
X1016001
X1036001
X1056001
X1076001
X1096001
X1116001
X1136001
X1156001
X1176001
X1196001
X1216001
X1226001Y67500
X1206001
X1186001
X1166001
X1146001
X1126001
Y107500
X1146001
X1166001
X1186001
X1196001Y127500
X1176001
X1156001
X1136001
X1116001
X1096001
X1076001
X1056001
X1036001
X1016001
X996001
X976001
X956001
X966001Y147500
X986001
X1006001
X1026001
X1046001
X1066001
X1086001
X1106001
X1126001
X1146001
X1166001
X1186001
X1206001
X1196001Y167500
X1176001
X1156001
X1136001
X1116001
X1096001
X1076001
X1056001
X1036001
X1016001
X996001
X976001
X956001
X946001Y147500
Y107500
X966001
X986001
X1006001
X1026001
X1046001
X1066001
Y67500
X1046001
X1026001
X1006001
X986001
X966001
X946001
X1016001Y207500
X1036001
X1056001
X1076001
X1096001
X1176001
X1196001
X1206001Y187500
X1186001
X1166001
X1236001Y207500
Y167500
Y127500
X1226001Y107500
X1256001Y47500
X1246001Y27500
X916001Y47500
X896001
X876001
X856001
X836001
X816001
Y127500
X792500Y136500
Y156500
X772500
Y136500
X752500
Y156500
X706001Y147500
X686001
X666001
X646001
X626001
X606001
X586001
X566000
X546000
X556000Y167500
X566000Y187500
X546000
X556000Y127500
X576000
X596001
X616001
X606001Y107500
X586001
X566000
X546000
X616001Y167500
X636001
X646001Y187500
X626001
X805000Y210000
X836001Y207500
X856001
X876001
X896001
X916001
Y167500
X936001
X926001Y147500
X906001
X916001Y127500
X936001
X926001Y107500
X906001
X896001Y127500
X866001Y147500
X876001Y167500
X856001
X866001Y107500
X926001Y67500
X526000Y107500
X506000
X486000
X466000
X446000
X426000
X406000
X386000
X366000
X346000
X326000
X306000
X286000
X296000Y127500
X276000
X286000Y147500
X296000Y167500
X276000
X236000Y207500
X216000
X147500Y135000
X435000Y172500
X450000
Y187500
Y202500
X435000
Y217500
X450000
X435000Y187500
X486000Y187500
X506000
X526000
X536000Y167500
X516000
X496000
X506000Y147500
X526000
X536000Y127500
X516000
X496000
X486000Y147500
X90000Y187500
X75000
X60000
X45000
Y202500
X60000
X75000
X90000
X46000Y307500
X26000
X36000Y327500
X56000
Y407500
X46000Y427500
X26000
Y547501
X46000
X56000Y567501
X36000
X46000Y587501
X26000
X36000Y607501
X56000
Y527501
X176000
X196000
X236000
X256000
X246000Y547501
X226000
X236000Y567501
X256000
X276000
X316000
X330500Y525000
X353000Y525000
X346000Y507501
X386000
X396000Y527501
X416000
X426000Y547501
X446000
X466000
X486000
X506000
X526000
X536000Y567501
X516000
X496000
X476000
X456000
X436000
X416000
X396000
X376000
X386000Y547501
X406000
X436000Y487501
X456000
X476000
X496000
X506000Y467501
X486000
Y427500
X466000
X446000
X456000Y447501
X436000
X446000Y467501
X456000Y407500
X476000
X496000
X486000Y387500
X466000
X446000
X426000
X406000
X386000
X366000
X376000Y407500
X396000
X416000
X356000
X346000Y347500
X326000
X336000Y327500
X356000
X376000
X375000Y262500
X397500
X350000
X235000Y231500
X216000Y247500
X206000Y267500
X186000Y307500
X196000Y327500
X176000
Y367500
X196000
Y407500
X176000
Y447501
X196000
X236000
X246000Y427500
X226000
X236000Y407500
X246000Y387500
X226000Y347500
X236000Y327500
X226000Y467501
Y507501
X246000
X292500Y505000
X327500Y474000
X196000Y567501
X176000
X560000Y571500
X576000Y567501
X586001Y547501
X546000
X576000Y487501
X606001Y427500
X626001
X646001
X666001
X686001
X706001
X716001Y407500
X736001
X746001Y427500
X766001
X786001
X826001
X846001
X866001
X886001
X906001
X926001
Y507501
X906001
X886001
X866001
X846001
X856001Y487501
X876001
X866001Y467501
X876001Y527501
X896001
X916001
X936001
X926001Y547501
X906001
X886001
X916001Y567501
X936001
X776001
X756001
X726001Y547501
X736001Y527501
X726001Y507501
X736001Y487501
X686001Y467501
X696001Y407500
X676001
X656001
X636001
X616001
X626001Y387500
X646001
X666001
X686001
X706001
X606001
X574500Y385500
X546000Y387500
Y427500
X633750Y539000
X632500Y557500
X667500
X671250Y539000
X696001Y567501
X916001Y287500
X936001
X999000Y312506
X1014000Y312417
X1036001Y287500
X1056001
X1077500Y259000
Y241500
X1100000
Y259000
X1126001Y267500
Y227500
X1156001Y247500
X1196001
X1206001Y267500
X1186001
X1196001Y287500
X1206001Y307500
X1196001Y327500
X1206001Y347500
X1196001Y367500
X1206001Y387500
X1196001Y407500
X1206001Y427500
X1196001Y447501
X1236001
Y407500
Y367500
Y327500
Y287500
Y247500
X1206001Y227500
X1186001
X1156001Y287500
X1126001Y387500
X1116001Y407500
X1126001Y427500
X1106001
X1116001Y447501
X1126001Y467501
X1106001
X1116001Y487501
X1196001
X1186001Y507501
X1196001Y527501
X1176001
X1186001Y547501
X1166001
X1156001Y567501
X1136001
X1146001Y587501
X1126001
X1206001
X1226001
X1236001Y567501
X1246001Y547501
X1236001Y527501
X1256001Y607501
X1276001
X1216001
X1196001
X1086001Y547501
X1045000Y525000
X1007500Y522500
X966001Y507501
X946001
X956001Y527501
X946001Y547501
X956001Y567501
X966001Y427500
X986001
X1012787Y438713
X1026001Y427500
X1013857Y365070
X1092500Y362500
X946001Y427500
X1166001Y627501
X1186001
X1156001Y647501
X1236001
X1256001
X1276001
X1266001Y627501
X1246001
Y667501
X1226001
X906001
Y627501
X886001
X806001
X786001
X766001
X776001Y647501
X696001
X676001
X656001
X636001
X616001
X596001
X576000
X516000
X496000
X386000Y627501
X306000
X266000
X246000
X226000
X256000Y647501
X276000
X136000
X126000Y667501
X106000
X66000
X56000Y647501
X36000
X46000Y627501
X26000
X126000
T02
X35000Y356500
Y381500
Y406500
Y469000
Y494000
Y519000
X471000Y456146
X496400
X521800
Y304000
X496400
X471000
X547200
X572600
X598000
X623400
X648800
X674200
X699600
X725000
X750400
X775800
X801200
X826600
X852000
X877400
X902800
X928200
Y456146
X902800
X877400
X852000
X826600
X801200
X775800
X750400
X725000
X699600
X674200
X648800
X623400
X598000
X572600
X547200
X953600
Y304000
X947500Y654000
X972500
X997500
X1022500
X1047500
X1072500
X1097500
X1122500
X882500Y655000
X857500
X832500
X807500
X472500Y654000
X447500
X422500
X397500
X372500
X347500
X322500
X297500
X232500
X207500
X182500
X157500
T03
X1187500Y654000
X1212500
X560000
X535000
T04
X42500Y267300
Y292700
X727100Y647500
X752500
X107700
X82300
T05
X1275000Y25000
X25000
X1275000Y675000
X25000
M30
