G04*
G04 #@! TF.GenerationSoftware,Altium Limited,Altium Designer,22.9.1 (49)*
G04*
G04 Layer_Color=8388736*
%FSLAX44Y44*%
%MOMM*%
G71*
G04*
G04 #@! TF.SameCoordinates,C24D6D3F-919E-424E-9718-AF6EF7372F25*
G04*
G04*
G04 #@! TF.FilePolarity,Negative*
G04*
G01*
G75*
%ADD16R,1.7500X1.6500*%
%ADD17R,1.5000X1.3000*%
%ADD18R,1.3000X1.5000*%
G04:AMPARAMS|DCode=19|XSize=1.55mm|YSize=2.25mm|CornerRadius=0.425mm|HoleSize=0mm|Usage=FLASHONLY|Rotation=0.000|XOffset=0mm|YOffset=0mm|HoleType=Round|Shape=RoundedRectangle|*
%AMROUNDEDRECTD19*
21,1,1.5500,1.4000,0,0,0.0*
21,1,0.7000,2.2500,0,0,0.0*
1,1,0.8500,0.3500,-0.7000*
1,1,0.8500,-0.3500,-0.7000*
1,1,0.8500,-0.3500,0.7000*
1,1,0.8500,0.3500,0.7000*
%
%ADD19ROUNDEDRECTD19*%
%ADD20O,2.6500X1.9000*%
%ADD21R,1.8750X1.8750*%
%ADD22C,1.8750*%
%ADD23C,3.6500*%
D16*
X1139000Y203000D02*
D03*
Y167000D02*
D03*
X1047000Y203000D02*
D03*
Y167000D02*
D03*
X955000Y203000D02*
D03*
Y167000D02*
D03*
X863000Y203000D02*
D03*
Y167000D02*
D03*
X771000Y203000D02*
D03*
Y167000D02*
D03*
X679000Y203000D02*
D03*
Y167000D02*
D03*
X587000Y203000D02*
D03*
Y167000D02*
D03*
X495000Y203000D02*
D03*
Y167000D02*
D03*
X403000Y203000D02*
D03*
Y167000D02*
D03*
X311000Y203000D02*
D03*
Y167000D02*
D03*
D17*
X1139000Y231250D02*
D03*
Y248750D02*
D03*
X1047000Y231250D02*
D03*
Y248750D02*
D03*
X955000Y231250D02*
D03*
Y248750D02*
D03*
X863000Y231250D02*
D03*
Y248750D02*
D03*
X771000Y231250D02*
D03*
Y248750D02*
D03*
X679000Y231250D02*
D03*
Y248750D02*
D03*
X587000Y231250D02*
D03*
Y248750D02*
D03*
X495000Y231250D02*
D03*
Y248750D02*
D03*
X403000Y231250D02*
D03*
Y248750D02*
D03*
X311000Y231250D02*
D03*
Y248750D02*
D03*
D18*
X111250Y110000D02*
D03*
X128750D02*
D03*
D19*
X128500Y139500D02*
D03*
X83500D02*
D03*
Y230500D02*
D03*
X128500D02*
D03*
D20*
X41000Y197500D02*
D03*
Y147500D02*
D03*
Y172500D02*
D03*
Y222500D02*
D03*
D21*
X264000Y52800D02*
D03*
D22*
Y78200D02*
D03*
Y103600D02*
D03*
Y129000D02*
D03*
D23*
X1070000Y30000D02*
D03*
Y340000D02*
D03*
X220000Y30000D02*
D03*
Y340000D02*
D03*
M02*
