G04*
G04 #@! TF.GenerationSoftware,Altium Limited,Altium Designer,22.9.1 (49)*
G04*
G04 Layer_Physical_Order=1*
G04 Layer_Color=255*
%FSLAX44Y44*%
%MOMM*%
G71*
G04*
G04 #@! TF.SameCoordinates,C24D6D3F-919E-424E-9718-AF6EF7372F25*
G04*
G04*
G04 #@! TF.FilePolarity,Positive*
G04*
G01*
G75*
%ADD12R,1.6000X1.5000*%
%ADD13R,1.3500X1.1500*%
%ADD14R,1.1500X1.3500*%
G04:AMPARAMS|DCode=15|XSize=1.4mm|YSize=2.1mm|CornerRadius=0.35mm|HoleSize=0mm|Usage=FLASHONLY|Rotation=0.000|XOffset=0mm|YOffset=0mm|HoleType=Round|Shape=RoundedRectangle|*
%AMROUNDEDRECTD15*
21,1,1.4000,1.4000,0,0,0.0*
21,1,0.7000,2.1000,0,0,0.0*
1,1,0.7000,0.3500,-0.7000*
1,1,0.7000,-0.3500,-0.7000*
1,1,0.7000,-0.3500,0.7000*
1,1,0.7000,0.3500,0.7000*
%
%ADD15ROUNDEDRECTD15*%
%ADD24C,0.5000*%
%ADD25C,0.3000*%
%ADD26C,1.0000*%
%ADD27C,0.8000*%
%ADD28O,2.5000X1.7500*%
%ADD29R,1.7250X1.7250*%
%ADD30C,1.7250*%
%ADD31C,3.5000*%
%ADD32C,0.7000*%
G36*
X1179337Y366803D02*
X1183507Y365538D01*
X1187350Y363484D01*
X1190719Y360719D01*
X1193484Y357350D01*
X1195538Y353507D01*
X1196803Y349337D01*
X1197219Y345114D01*
X1197196Y345000D01*
Y25000D01*
X1197219Y24886D01*
X1196803Y20663D01*
X1195538Y16493D01*
X1193484Y12650D01*
X1190719Y9281D01*
X1187350Y6516D01*
X1183507Y4462D01*
X1179337Y3197D01*
X1175114Y2781D01*
X1175000Y2804D01*
X25000D01*
X24886Y2781D01*
X20663Y3197D01*
X16493Y4462D01*
X12650Y6516D01*
X9281Y9281D01*
X6516Y12650D01*
X4462Y16493D01*
X3197Y20663D01*
X2781Y24886D01*
X2804Y25000D01*
Y345344D01*
X3197Y349337D01*
X4462Y353507D01*
X6516Y357350D01*
X9281Y360719D01*
X12650Y363484D01*
X16493Y365538D01*
X20663Y366803D01*
X24656Y367196D01*
X1175000D01*
X1175114Y367219D01*
X1179337Y366803D01*
D02*
G37*
%LPC*%
G36*
X1071921Y359500D02*
X1068079D01*
X1064312Y358751D01*
X1060763Y357281D01*
X1057570Y355147D01*
X1054853Y352430D01*
X1052719Y349237D01*
X1051249Y345688D01*
X1050500Y341921D01*
Y338079D01*
X1051249Y334312D01*
X1052719Y330763D01*
X1054853Y327569D01*
X1057570Y324853D01*
X1060763Y322719D01*
X1064312Y321249D01*
X1068079Y320500D01*
X1071921D01*
X1075688Y321249D01*
X1079237Y322719D01*
X1082430Y324853D01*
X1085147Y327569D01*
X1087281Y330763D01*
X1088751Y334312D01*
X1089500Y338079D01*
Y341921D01*
X1088751Y345688D01*
X1087281Y349237D01*
X1085147Y352430D01*
X1082430Y355147D01*
X1079237Y357281D01*
X1075688Y358751D01*
X1071921Y359500D01*
D02*
G37*
G36*
X221921D02*
X218079D01*
X214312Y358751D01*
X210763Y357281D01*
X207570Y355147D01*
X204853Y352430D01*
X202719Y349237D01*
X201249Y345688D01*
X200500Y341921D01*
Y338079D01*
X201249Y334312D01*
X202719Y330763D01*
X204853Y327569D01*
X207570Y324853D01*
X210763Y322719D01*
X214312Y321249D01*
X218079Y320500D01*
X221921D01*
X225688Y321249D01*
X229237Y322719D01*
X232430Y324853D01*
X235147Y327569D01*
X237281Y330763D01*
X238751Y334312D01*
X239500Y338079D01*
Y341921D01*
X238751Y345688D01*
X237281Y349237D01*
X235147Y352430D01*
X232430Y355147D01*
X229237Y357281D01*
X225688Y358751D01*
X221921Y359500D01*
D02*
G37*
G36*
X1147750Y256500D02*
X1140500D01*
Y250250D01*
X1147750D01*
Y256500D01*
D02*
G37*
G36*
X1137500D02*
X1130250D01*
Y250250D01*
X1137500D01*
Y256500D01*
D02*
G37*
G36*
X1055750D02*
X1048500D01*
Y250250D01*
X1055750D01*
Y256500D01*
D02*
G37*
G36*
X1045500D02*
X1038250D01*
Y250250D01*
X1045500D01*
Y256500D01*
D02*
G37*
G36*
X963750D02*
X956500D01*
Y250250D01*
X963750D01*
Y256500D01*
D02*
G37*
G36*
X953500D02*
X946250D01*
Y250250D01*
X953500D01*
Y256500D01*
D02*
G37*
G36*
X871750D02*
X864500D01*
Y250250D01*
X871750D01*
Y256500D01*
D02*
G37*
G36*
X861500D02*
X854250D01*
Y250250D01*
X861500D01*
Y256500D01*
D02*
G37*
G36*
X1147750Y247250D02*
X1140500D01*
Y241000D01*
X1147750D01*
Y247250D01*
D02*
G37*
G36*
X1137500D02*
X1130250D01*
Y241000D01*
X1137500D01*
Y247250D01*
D02*
G37*
G36*
X1055750D02*
X1048500D01*
Y241000D01*
X1055750D01*
Y247250D01*
D02*
G37*
G36*
X1045500D02*
X1038250D01*
Y241000D01*
X1045500D01*
Y247250D01*
D02*
G37*
G36*
X963750D02*
X956500D01*
Y241000D01*
X963750D01*
Y247250D01*
D02*
G37*
G36*
X953500D02*
X946250D01*
Y241000D01*
X953500D01*
Y247250D01*
D02*
G37*
G36*
X871750D02*
X864500D01*
Y241000D01*
X871750D01*
Y247250D01*
D02*
G37*
G36*
X861500D02*
X854250D01*
Y241000D01*
X861500D01*
Y247250D01*
D02*
G37*
G36*
X779750D02*
X772500D01*
Y241000D01*
X779750D01*
Y247250D01*
D02*
G37*
G36*
X769500D02*
X762250D01*
Y241000D01*
X769500D01*
Y247250D01*
D02*
G37*
G36*
X687750D02*
X680500D01*
Y241000D01*
X687750D01*
Y247250D01*
D02*
G37*
G36*
X677500D02*
X670250D01*
Y241000D01*
X677500D01*
Y247250D01*
D02*
G37*
G36*
X595750D02*
X588500D01*
Y241000D01*
X595750D01*
Y247250D01*
D02*
G37*
G36*
X585500D02*
X578250D01*
Y241000D01*
X585500D01*
Y247250D01*
D02*
G37*
G36*
X503750D02*
X496500D01*
Y241000D01*
X503750D01*
Y247250D01*
D02*
G37*
G36*
X493500D02*
X486250D01*
Y241000D01*
X493500D01*
Y247250D01*
D02*
G37*
G36*
X411750D02*
X404500D01*
Y241000D01*
X411750D01*
Y247250D01*
D02*
G37*
G36*
X401500D02*
X394250D01*
Y241000D01*
X401500D01*
Y247250D01*
D02*
G37*
G36*
X319750D02*
X312500D01*
Y241000D01*
X319750D01*
Y247250D01*
D02*
G37*
G36*
X309500D02*
X302250D01*
Y241000D01*
X309500D01*
Y247250D01*
D02*
G37*
G36*
X87000Y243108D02*
X85000D01*
Y232000D01*
X92608D01*
Y237500D01*
X92181Y239646D01*
X90965Y241465D01*
X89146Y242681D01*
X87000Y243108D01*
D02*
G37*
G36*
X82000D02*
X80000D01*
X77854Y242681D01*
X76035Y241465D01*
X74819Y239646D01*
X74392Y237500D01*
Y232000D01*
X82000D01*
Y243108D01*
D02*
G37*
G36*
X44750Y233343D02*
X42500D01*
Y224000D01*
X55395D01*
X55223Y225306D01*
X54140Y227921D01*
X52417Y230167D01*
X50171Y231890D01*
X47556Y232973D01*
X44750Y233343D01*
D02*
G37*
G36*
X39500D02*
X37250D01*
X34444Y232973D01*
X31829Y231890D01*
X29583Y230167D01*
X27860Y227921D01*
X26777Y225306D01*
X26605Y224000D01*
X39500D01*
Y233343D01*
D02*
G37*
G36*
X92608Y229000D02*
X85000D01*
Y217892D01*
X87000D01*
X89146Y218319D01*
X90965Y219535D01*
X92181Y221354D01*
X92608Y223500D01*
Y229000D01*
D02*
G37*
G36*
X82000D02*
X74392D01*
Y223500D01*
X74819Y221354D01*
X76035Y219535D01*
X77854Y218319D01*
X80000Y217892D01*
X82000D01*
Y229000D01*
D02*
G37*
G36*
X55395Y221000D02*
X42500D01*
Y211657D01*
X44750D01*
X47556Y212027D01*
X50171Y213110D01*
X52417Y214833D01*
X54140Y217079D01*
X55223Y219694D01*
X55395Y221000D01*
D02*
G37*
G36*
X39500D02*
X26605D01*
X26777Y219694D01*
X27860Y217079D01*
X29583Y214833D01*
X31829Y213110D01*
X34444Y212027D01*
X37250Y211657D01*
X39500D01*
Y221000D01*
D02*
G37*
G36*
X1147750Y239000D02*
X1130250D01*
Y223500D01*
X1134412D01*
Y212500D01*
X1129000D01*
Y193500D01*
X1149000D01*
Y212500D01*
X1143588D01*
Y223500D01*
X1147750D01*
Y239000D01*
D02*
G37*
G36*
X1055750D02*
X1038250D01*
Y223500D01*
X1042412D01*
Y212500D01*
X1037000D01*
Y193500D01*
X1057000D01*
Y212500D01*
X1051588D01*
Y223500D01*
X1055750D01*
Y239000D01*
D02*
G37*
G36*
X963750D02*
X946250D01*
Y223500D01*
X950412D01*
Y212500D01*
X945000D01*
Y193500D01*
X965000D01*
Y212500D01*
X959588D01*
Y223500D01*
X963750D01*
Y239000D01*
D02*
G37*
G36*
X871750D02*
X854250D01*
Y223500D01*
X858412D01*
Y212500D01*
X853000D01*
Y193500D01*
X873000D01*
Y212500D01*
X867588D01*
Y223500D01*
X871750D01*
Y239000D01*
D02*
G37*
G36*
X779750D02*
X762250D01*
Y223500D01*
X766412D01*
Y212500D01*
X761000D01*
Y193500D01*
X781000D01*
Y212500D01*
X775588D01*
Y223500D01*
X779750D01*
Y239000D01*
D02*
G37*
G36*
X44750Y208343D02*
X37250D01*
X34444Y207973D01*
X31829Y206890D01*
X29583Y205167D01*
X27860Y202921D01*
X26777Y200306D01*
X26407Y197500D01*
X26777Y194694D01*
X27860Y192079D01*
X29583Y189833D01*
X31829Y188110D01*
X34444Y187027D01*
X37250Y186657D01*
X44750D01*
X47556Y187027D01*
X50171Y188110D01*
X52417Y189833D01*
X54140Y192079D01*
X55223Y194694D01*
X55593Y197500D01*
X55223Y200306D01*
X54140Y202921D01*
X52417Y205167D01*
X50171Y206890D01*
X47556Y207973D01*
X44750Y208343D01*
D02*
G37*
G36*
Y183343D02*
X37250D01*
X34444Y182973D01*
X31829Y181890D01*
X29583Y180167D01*
X27860Y177921D01*
X26777Y175306D01*
X26407Y172500D01*
X26777Y169694D01*
X27860Y167079D01*
X29583Y164833D01*
X31829Y163110D01*
X34444Y162027D01*
X37250Y161657D01*
X44750D01*
X47556Y162027D01*
X50171Y163110D01*
X52417Y164833D01*
X54140Y167079D01*
X55223Y169694D01*
X55593Y172500D01*
X55223Y175306D01*
X54140Y177921D01*
X52417Y180167D01*
X50171Y181890D01*
X47556Y182973D01*
X44750Y183343D01*
D02*
G37*
G36*
X990000Y294569D02*
X180000D01*
X178634Y294297D01*
X177477Y293523D01*
X145477Y261523D01*
X144703Y260366D01*
X144431Y259000D01*
Y227306D01*
X143241Y226115D01*
X142404Y224094D01*
Y221906D01*
X143241Y219884D01*
X144674Y218452D01*
X143241Y217019D01*
X142404Y214998D01*
Y212810D01*
X143241Y210788D01*
X144578Y209452D01*
X143241Y208116D01*
X142404Y206094D01*
Y203906D01*
X143241Y201884D01*
X144674Y200452D01*
X143241Y199019D01*
X142404Y196998D01*
Y194810D01*
X143241Y192788D01*
X144578Y191452D01*
X143241Y190116D01*
X142404Y188094D01*
Y185906D01*
X143241Y183885D01*
X144783Y182342D01*
X143312Y180871D01*
X142979D01*
X141614Y180599D01*
X140456Y179825D01*
X137477Y176846D01*
X136703Y175689D01*
X136431Y174323D01*
Y157000D01*
X136703Y155634D01*
X137477Y154477D01*
X146345Y145608D01*
X146265Y145063D01*
X145894Y144338D01*
X137608D01*
Y146500D01*
X137181Y148646D01*
X135965Y150465D01*
X134618Y151366D01*
Y218634D01*
X135965Y219535D01*
X137181Y221354D01*
X137608Y223500D01*
Y237500D01*
X137181Y239646D01*
X135965Y241465D01*
X134146Y242681D01*
X132000Y243108D01*
X125000D01*
X122854Y242681D01*
X121035Y241465D01*
X119819Y239646D01*
X119392Y237500D01*
Y223500D01*
X119819Y221354D01*
X121035Y219535D01*
X122382Y218634D01*
Y151366D01*
X121035Y150465D01*
X119819Y148646D01*
X119392Y146500D01*
Y132500D01*
X119819Y130354D01*
X121035Y128535D01*
X122854Y127319D01*
X124037Y127084D01*
Y118750D01*
X121000D01*
Y101250D01*
X136500D01*
Y118750D01*
X133213D01*
Y127134D01*
X134146Y127319D01*
X135965Y128535D01*
X137181Y130354D01*
X137608Y132500D01*
Y135162D01*
X158308D01*
X159906Y134500D01*
X162094D01*
X164116Y135337D01*
X165663Y136884D01*
X166500Y138906D01*
Y141094D01*
X165663Y143116D01*
X165520Y143258D01*
X166006Y144431D01*
X396000D01*
X397366Y144703D01*
X398523Y145477D01*
X406523Y153477D01*
X407297Y154634D01*
X407569Y156000D01*
Y157500D01*
X413000D01*
Y175431D01*
X481022D01*
X485000Y171453D01*
Y157500D01*
X505000D01*
Y176500D01*
X490047D01*
X486289Y180258D01*
X486775Y181431D01*
X583431D01*
Y176500D01*
X577000D01*
Y157500D01*
X597000D01*
Y176500D01*
X590569D01*
Y183243D01*
X590297Y184608D01*
X589551Y185725D01*
X589658Y186282D01*
X589954Y186995D01*
X672958D01*
X675431Y184522D01*
Y176500D01*
X669000D01*
Y157500D01*
X689000D01*
Y176500D01*
X682569D01*
Y186000D01*
X682297Y187366D01*
X681523Y188523D01*
X677817Y192230D01*
X678343Y193500D01*
X689000D01*
Y212500D01*
X683588D01*
Y223500D01*
X687750D01*
Y239000D01*
X670250D01*
Y223500D01*
X674412D01*
Y212500D01*
X669000D01*
Y194132D01*
X597000D01*
Y212500D01*
X591588D01*
Y223500D01*
X595750D01*
Y239000D01*
X578250D01*
Y223500D01*
X582412D01*
Y212500D01*
X577000D01*
Y194132D01*
X505000D01*
Y212500D01*
X499588D01*
Y223500D01*
X503750D01*
Y239000D01*
X486250D01*
Y223500D01*
X490412D01*
Y212500D01*
X485000D01*
Y194132D01*
X413000D01*
Y212500D01*
X407588D01*
Y223500D01*
X411750D01*
Y239000D01*
X394250D01*
Y223500D01*
X398412D01*
Y212500D01*
X393000D01*
Y194132D01*
X321000D01*
Y212500D01*
X315588D01*
Y223500D01*
X319750D01*
Y239000D01*
X302250D01*
Y223500D01*
X306412D01*
Y212500D01*
X301000D01*
Y194132D01*
X188151D01*
X187761Y194661D01*
X188402Y195931D01*
X210243D01*
X211608Y196203D01*
X212766Y196977D01*
X214523Y198734D01*
X215297Y199892D01*
X215569Y201257D01*
Y241522D01*
X230478Y256431D01*
X302250D01*
Y250250D01*
X319750D01*
Y256431D01*
X394250D01*
Y250250D01*
X411750D01*
Y256431D01*
X486250D01*
Y250250D01*
X503750D01*
Y256431D01*
X578250D01*
Y250250D01*
X595750D01*
Y256431D01*
X670250D01*
Y250250D01*
X687750D01*
Y256431D01*
X762250D01*
Y250250D01*
X779750D01*
Y256431D01*
X800431D01*
Y169811D01*
X781000D01*
Y176500D01*
X761000D01*
Y157500D01*
X781000D01*
Y162674D01*
X802243D01*
X803608Y162946D01*
X804766Y163719D01*
X806523Y165477D01*
X807297Y166634D01*
X807569Y168000D01*
Y258243D01*
X807297Y259608D01*
X806523Y260766D01*
X805128Y262161D01*
X805640Y263431D01*
X878522D01*
X886431Y255522D01*
Y170569D01*
X873000D01*
Y176500D01*
X853000D01*
Y157500D01*
X873000D01*
Y163431D01*
X888243D01*
X889608Y163703D01*
X890766Y164477D01*
X892523Y166234D01*
X893297Y167392D01*
X893569Y168757D01*
Y257000D01*
X893297Y258366D01*
X892523Y259523D01*
X882523Y269523D01*
X881568Y270161D01*
X881645Y271062D01*
X881780Y271431D01*
X970522D01*
X977431Y264522D01*
Y172478D01*
X975522Y170569D01*
X965000D01*
Y176500D01*
X945000D01*
Y157500D01*
X965000D01*
Y163431D01*
X977000D01*
X978366Y163703D01*
X979523Y164477D01*
X983523Y168477D01*
X984297Y169634D01*
X984569Y171000D01*
Y266000D01*
X984297Y267366D01*
X983523Y268523D01*
X974523Y277523D01*
X973568Y278161D01*
X973645Y279063D01*
X973780Y279431D01*
X980522D01*
X1003431Y256522D01*
Y172000D01*
X1003703Y170634D01*
X1004477Y169477D01*
X1028477Y145477D01*
X1029634Y144703D01*
X1031000Y144431D01*
X1137000D01*
X1138366Y144703D01*
X1139523Y145477D01*
X1141523Y147477D01*
X1142297Y148634D01*
X1142569Y150000D01*
Y157500D01*
X1149000D01*
Y176500D01*
X1133345D01*
X1133000Y176569D01*
X1132655Y176500D01*
X1129000D01*
Y157500D01*
X1135431D01*
Y151569D01*
X1032478D01*
X1010569Y173478D01*
Y258000D01*
X1010297Y259366D01*
X1009523Y260523D01*
X984523Y285523D01*
X983568Y286161D01*
X983645Y287062D01*
X983780Y287431D01*
X988522D01*
X1026431Y249522D01*
Y174000D01*
X1026703Y172634D01*
X1027477Y171477D01*
X1033734Y165219D01*
X1034892Y164446D01*
X1036257Y164174D01*
X1037000D01*
Y157500D01*
X1057000D01*
Y176500D01*
X1037000D01*
Y173706D01*
X1035827Y173220D01*
X1033569Y175478D01*
Y251000D01*
X1033297Y252366D01*
X1032523Y253523D01*
X992523Y293523D01*
X991366Y294297D01*
X990000Y294569D01*
D02*
G37*
G36*
X87000Y152108D02*
X85000D01*
Y141000D01*
X92608D01*
Y146500D01*
X92181Y148646D01*
X90965Y150465D01*
X89146Y151681D01*
X87000Y152108D01*
D02*
G37*
G36*
X82000D02*
X80000D01*
X77854Y151681D01*
X76035Y150465D01*
X74819Y148646D01*
X74392Y146500D01*
Y141000D01*
X82000D01*
Y152108D01*
D02*
G37*
G36*
X265500Y139598D02*
Y130500D01*
X274598D01*
X273901Y133101D01*
X272502Y135524D01*
X270524Y137502D01*
X268101Y138901D01*
X265500Y139598D01*
D02*
G37*
G36*
X262500Y139598D02*
X259899Y138901D01*
X257476Y137502D01*
X255498Y135524D01*
X254099Y133101D01*
X253402Y130500D01*
X262500D01*
Y139598D01*
D02*
G37*
G36*
X92608Y138000D02*
X85000D01*
Y126892D01*
X87000D01*
X89146Y127319D01*
X90965Y128535D01*
X92181Y130354D01*
X92608Y132500D01*
Y138000D01*
D02*
G37*
G36*
X82000D02*
X74392D01*
Y132500D01*
X74819Y130354D01*
X76035Y128535D01*
X77854Y127319D01*
X80000Y126892D01*
X82000D01*
Y138000D01*
D02*
G37*
G36*
X262500Y127500D02*
X253402D01*
X254099Y124899D01*
X255498Y122476D01*
X257476Y120498D01*
X259899Y119099D01*
X262500Y118402D01*
Y127500D01*
D02*
G37*
G36*
X274598D02*
X265500D01*
Y118402D01*
X268101Y119099D01*
X270524Y120498D01*
X272502Y122476D01*
X273901Y124899D01*
X274598Y127500D01*
D02*
G37*
G36*
X44750Y158343D02*
X37250D01*
X34444Y157973D01*
X31829Y156890D01*
X29583Y155167D01*
X27860Y152921D01*
X26777Y150306D01*
X26407Y147500D01*
X26777Y144694D01*
X27860Y142079D01*
X29583Y139833D01*
X31829Y138110D01*
X33940Y137235D01*
Y116000D01*
X34180Y114173D01*
X34885Y112470D01*
X36007Y111008D01*
X42007Y105008D01*
X43470Y103885D01*
X45173Y103180D01*
X47000Y102940D01*
X103500D01*
Y101250D01*
X119000D01*
Y118750D01*
X103500D01*
Y117060D01*
X49925D01*
X48060Y118925D01*
Y137235D01*
X50171Y138110D01*
X52417Y139833D01*
X54140Y142079D01*
X55223Y144694D01*
X55593Y147500D01*
X55223Y150306D01*
X54140Y152921D01*
X52417Y155167D01*
X50171Y156890D01*
X47556Y157973D01*
X44750Y158343D01*
D02*
G37*
G36*
X265399Y114225D02*
X262601D01*
X259899Y113501D01*
X257476Y112102D01*
X255498Y110124D01*
X254099Y107701D01*
X253375Y104999D01*
Y102201D01*
X254099Y99499D01*
X255498Y97076D01*
X257476Y95098D01*
X259899Y93699D01*
X262601Y92975D01*
X265399D01*
X268101Y93699D01*
X270524Y95098D01*
X272502Y97076D01*
X273901Y99499D01*
X274625Y102201D01*
Y104999D01*
X273901Y107701D01*
X272502Y110124D01*
X270524Y112102D01*
X268101Y113501D01*
X265399Y114225D01*
D02*
G37*
G36*
Y88825D02*
X262601D01*
X259899Y88101D01*
X257476Y86702D01*
X255498Y84724D01*
X254099Y82301D01*
X253375Y79599D01*
Y76801D01*
X254099Y74099D01*
X255498Y71676D01*
X257476Y69698D01*
X259899Y68299D01*
X262601Y67575D01*
X265399D01*
X268101Y68299D01*
X270524Y69698D01*
X272502Y71676D01*
X273901Y74099D01*
X274625Y76801D01*
Y79599D01*
X273901Y82301D01*
X272502Y84724D01*
X270524Y86702D01*
X268101Y88101D01*
X265399Y88825D01*
D02*
G37*
G36*
X274625Y63425D02*
X253375D01*
Y42175D01*
X274625D01*
Y63425D01*
D02*
G37*
G36*
X1071921Y49500D02*
X1068079D01*
X1064312Y48751D01*
X1060763Y47281D01*
X1057570Y45147D01*
X1054853Y42431D01*
X1052719Y39237D01*
X1051249Y35688D01*
X1050500Y31921D01*
Y28079D01*
X1051249Y24312D01*
X1052719Y20763D01*
X1054853Y17570D01*
X1057570Y14853D01*
X1060763Y12719D01*
X1064312Y11249D01*
X1068079Y10500D01*
X1071921D01*
X1075688Y11249D01*
X1079237Y12719D01*
X1082430Y14853D01*
X1085147Y17570D01*
X1087281Y20763D01*
X1088751Y24312D01*
X1089500Y28079D01*
Y31921D01*
X1088751Y35688D01*
X1087281Y39237D01*
X1085147Y42431D01*
X1082430Y45147D01*
X1079237Y47281D01*
X1075688Y48751D01*
X1071921Y49500D01*
D02*
G37*
G36*
X221921D02*
X218079D01*
X214312Y48751D01*
X210763Y47281D01*
X207570Y45147D01*
X204853Y42431D01*
X202719Y39237D01*
X201249Y35688D01*
X200500Y31921D01*
Y28079D01*
X201249Y24312D01*
X202719Y20763D01*
X204853Y17570D01*
X207570Y14853D01*
X210763Y12719D01*
X214312Y11249D01*
X218079Y10500D01*
X221921D01*
X225688Y11249D01*
X229237Y12719D01*
X232430Y14853D01*
X235147Y17570D01*
X237281Y20763D01*
X238751Y24312D01*
X239500Y28079D01*
Y31921D01*
X238751Y35688D01*
X237281Y39237D01*
X235147Y42431D01*
X232430Y45147D01*
X229237Y47281D01*
X225688Y48751D01*
X221921Y49500D01*
D02*
G37*
%LPD*%
D12*
X1139000Y203000D02*
D03*
Y167000D02*
D03*
X1047000Y203000D02*
D03*
Y167000D02*
D03*
X955000Y203000D02*
D03*
Y167000D02*
D03*
X863000Y203000D02*
D03*
Y167000D02*
D03*
X771000Y203000D02*
D03*
Y167000D02*
D03*
X679000Y203000D02*
D03*
Y167000D02*
D03*
X587000Y203000D02*
D03*
Y167000D02*
D03*
X495000Y203000D02*
D03*
Y167000D02*
D03*
X403000Y203000D02*
D03*
Y167000D02*
D03*
X311000Y203000D02*
D03*
Y167000D02*
D03*
D13*
X1139000Y231250D02*
D03*
Y248750D02*
D03*
X1047000Y231250D02*
D03*
Y248750D02*
D03*
X955000Y231250D02*
D03*
Y248750D02*
D03*
X863000Y231250D02*
D03*
Y248750D02*
D03*
X771000Y231250D02*
D03*
Y248750D02*
D03*
X679000Y231250D02*
D03*
Y248750D02*
D03*
X587000Y231250D02*
D03*
Y248750D02*
D03*
X495000Y231250D02*
D03*
Y248750D02*
D03*
X403000Y231250D02*
D03*
Y248750D02*
D03*
X311000Y231250D02*
D03*
Y248750D02*
D03*
D14*
X111250Y110000D02*
D03*
X128750D02*
D03*
D15*
X128500Y139500D02*
D03*
X83500D02*
D03*
Y230500D02*
D03*
X128500D02*
D03*
D24*
X679000Y203000D02*
Y231250D01*
X587000Y203000D02*
Y231250D01*
X495000Y203000D02*
Y231250D01*
X1139000Y203000D02*
Y231250D01*
X1047000Y203000D02*
Y231250D01*
X955000Y203000D02*
Y231250D01*
X771000Y203000D02*
Y231250D01*
X863000Y203000D02*
Y231250D01*
X128625Y110125D02*
Y139375D01*
X128500Y139500D02*
X128625Y139375D01*
Y110125D02*
X128750Y110000D01*
X128750Y139750D02*
X160750D01*
X128500Y139500D02*
X128750Y139750D01*
X160750D02*
X161000Y140000D01*
X309000Y169000D02*
X311000Y167000D01*
Y203000D02*
Y231250D01*
X403000Y203000D02*
Y231250D01*
D25*
X990000Y291000D02*
X1030000Y251000D01*
X148000Y259000D02*
X180000Y291000D01*
X990000D01*
X183000Y199500D02*
X210243D01*
X212000Y201257D02*
Y243000D01*
X210243Y199500D02*
X212000Y201257D01*
X157000Y187000D02*
X165000Y179000D01*
X482500D01*
X488500Y173000D01*
X148000Y205000D02*
X174493D01*
X201000Y206000D02*
X203000Y208000D01*
X183437Y190563D02*
X674436D01*
X175493Y206000D02*
X201000D01*
X174493Y205000D02*
X175493Y206000D01*
X161501Y195904D02*
X172905Y184500D01*
X183000Y191000D02*
X183437Y190563D01*
X172905Y184500D02*
X186894D01*
X187394Y185000D01*
X674436Y190563D02*
X679000Y186000D01*
X587000Y167000D02*
Y183243D01*
X187394Y185000D02*
X585243D01*
X587000Y183243D01*
X488500Y173000D02*
Y173000D01*
Y173000D02*
X494500Y167000D01*
X148000Y187000D02*
X157000D01*
X1137000Y148000D02*
X1139000Y150000D01*
X1031000Y148000D02*
X1137000D01*
X1007000Y172000D02*
X1031000Y148000D01*
X1139000Y150000D02*
Y167000D01*
X1046257Y167743D02*
X1047000Y167000D01*
X1030000Y174000D02*
Y251000D01*
X1036257Y167743D02*
X1046257D01*
X1030000Y174000D02*
X1036257Y167743D01*
X183000Y258000D02*
X208000Y283000D01*
X982000D02*
X1007000Y258000D01*
X1133000Y173000D02*
X1139000Y167000D01*
X208000Y283000D02*
X982000D01*
X183000Y218000D02*
Y258000D01*
X981000Y171000D02*
Y266000D01*
X194000Y252000D02*
X217000Y275000D01*
X203000Y247000D02*
X223000Y267000D01*
X804000Y168000D02*
Y258243D01*
X229000Y260000D02*
X802243D01*
X1007000Y172000D02*
Y258000D01*
X972000Y275000D02*
X981000Y266000D01*
X212000Y243000D02*
X229000Y260000D01*
X223000Y267000D02*
X880000D01*
X802243Y260000D02*
X804000Y258243D01*
X217000Y275000D02*
X972000D01*
X880000Y267000D02*
X890000Y257000D01*
X147670Y177302D02*
X148052Y177685D01*
X140000Y174323D02*
X142979Y177302D01*
X140000Y157000D02*
X149000Y148000D01*
X142979Y177302D02*
X147670D01*
X140000Y157000D02*
Y174323D01*
X149000Y148000D02*
X396000D01*
X404000Y156000D01*
X679000Y167000D02*
Y186000D01*
X494500Y167000D02*
X495000D01*
X147904Y195904D02*
X161501D01*
X147904Y213904D02*
X174096D01*
X148000Y169000D02*
X309000D01*
X148000Y223000D02*
Y259000D01*
X802243Y166243D02*
X804000Y168000D01*
X771000Y167000D02*
X771757Y166243D01*
X802243D01*
X863000Y167000D02*
X888243D01*
X890000Y168757D01*
Y257000D01*
X203000Y208000D02*
Y247000D01*
X977000Y167000D02*
X981000Y171000D01*
X955000Y167000D02*
X977000D01*
X194000Y215000D02*
Y252000D01*
X190000Y211000D02*
X194000Y215000D01*
X177000Y211000D02*
X190000D01*
X174096Y213904D02*
X177000Y211000D01*
X403000Y167000D02*
X404000Y166000D01*
Y156000D02*
Y166000D01*
D26*
X41000Y116000D02*
Y147500D01*
Y116000D02*
X47000Y110000D01*
X111250D01*
D27*
X128500Y139500D02*
Y230500D01*
D28*
X41000Y197500D02*
D03*
Y147500D02*
D03*
Y172500D02*
D03*
Y222500D02*
D03*
D29*
X264000Y52800D02*
D03*
D30*
Y78200D02*
D03*
Y103600D02*
D03*
Y129000D02*
D03*
D31*
X1070000Y30000D02*
D03*
Y340000D02*
D03*
X220000Y30000D02*
D03*
Y340000D02*
D03*
D32*
X927500Y40000D02*
D03*
X942500D02*
D03*
X957500D02*
D03*
X995000Y25000D02*
D03*
Y40000D02*
D03*
X487500D02*
D03*
X505000D02*
D03*
X545000Y25000D02*
D03*
Y40000D02*
D03*
X480000Y330000D02*
D03*
X495000D02*
D03*
X507500D02*
D03*
X545000Y340000D02*
D03*
Y327500D02*
D03*
X932500Y330000D02*
D03*
X945000D02*
D03*
X957500D02*
D03*
X995000Y342500D02*
D03*
Y330000D02*
D03*
X149999Y285999D02*
D03*
X141999Y269999D02*
D03*
X125999Y29999D02*
D03*
X117999Y78000D02*
D03*
Y45999D02*
D03*
X109999Y29999D02*
D03*
X101999Y78000D02*
D03*
Y45999D02*
D03*
X94000Y29999D02*
D03*
X117999Y189999D02*
D03*
X109999Y173999D02*
D03*
Y141999D02*
D03*
X101999Y189999D02*
D03*
X94000Y173999D02*
D03*
X101999Y157999D02*
D03*
X78000Y205999D02*
D03*
X85999Y157999D02*
D03*
X1125999Y253999D02*
D03*
X1117999Y237999D02*
D03*
X1125999Y221999D02*
D03*
X1117999Y205999D02*
D03*
X1125999Y189999D02*
D03*
X1117999Y173999D02*
D03*
X1109999Y253999D02*
D03*
X1101999Y237999D02*
D03*
X1109999Y221999D02*
D03*
X1101999Y205999D02*
D03*
X1109999Y189999D02*
D03*
X1101999Y173999D02*
D03*
X1093999Y253999D02*
D03*
X1085999Y237999D02*
D03*
X1093999Y221999D02*
D03*
X1085999Y205999D02*
D03*
X1093999Y189999D02*
D03*
X1085999Y173999D02*
D03*
X1077999Y253999D02*
D03*
Y221999D02*
D03*
Y189999D02*
D03*
X1021999Y237999D02*
D03*
Y205999D02*
D03*
Y173999D02*
D03*
X997999Y253999D02*
D03*
X989999Y237999D02*
D03*
X997999Y221999D02*
D03*
X989999Y205999D02*
D03*
X997999Y189999D02*
D03*
X989999Y173999D02*
D03*
X965999Y189999D02*
D03*
X941999Y237999D02*
D03*
X933999Y253999D02*
D03*
X925999Y237999D02*
D03*
X933999Y221999D02*
D03*
X925999Y205999D02*
D03*
X933999Y189999D02*
D03*
X925999Y173999D02*
D03*
X917999Y253999D02*
D03*
X909999Y237999D02*
D03*
X917999Y221999D02*
D03*
X909999Y205999D02*
D03*
X917999Y189999D02*
D03*
X909999Y173999D02*
D03*
X901999Y253999D02*
D03*
Y221999D02*
D03*
Y189999D02*
D03*
X877999Y237999D02*
D03*
Y205999D02*
D03*
X845999Y237999D02*
D03*
Y205999D02*
D03*
Y173999D02*
D03*
X837999Y253999D02*
D03*
X829999Y237999D02*
D03*
X837999Y221999D02*
D03*
X829999Y205999D02*
D03*
X837999Y189999D02*
D03*
X829999Y173999D02*
D03*
X821999Y253999D02*
D03*
X813999Y237999D02*
D03*
X821999Y221999D02*
D03*
X813999Y205999D02*
D03*
X821999Y189999D02*
D03*
X813999Y173999D02*
D03*
X789999Y221999D02*
D03*
Y189999D02*
D03*
X749999Y237999D02*
D03*
X757999Y221999D02*
D03*
X749999Y205999D02*
D03*
X757999Y189999D02*
D03*
X749999Y173999D02*
D03*
X733999Y237999D02*
D03*
X741999Y221999D02*
D03*
X733999Y205999D02*
D03*
X741999Y189999D02*
D03*
X733999Y173999D02*
D03*
X717999Y237999D02*
D03*
X725999Y221999D02*
D03*
X717999Y205999D02*
D03*
X725999Y189999D02*
D03*
X717999Y173999D02*
D03*
X701999Y237999D02*
D03*
X709999Y221999D02*
D03*
X701999Y205999D02*
D03*
X709999Y189999D02*
D03*
X701999Y173999D02*
D03*
X693999Y221999D02*
D03*
Y189999D02*
D03*
X653999Y237999D02*
D03*
X661999Y221999D02*
D03*
X653999Y205999D02*
D03*
Y173999D02*
D03*
X637999Y237999D02*
D03*
X645999Y221999D02*
D03*
X637999Y205999D02*
D03*
Y173999D02*
D03*
X621999Y237999D02*
D03*
X629999Y221999D02*
D03*
X621999Y205999D02*
D03*
Y173999D02*
D03*
X605999Y237999D02*
D03*
X613999Y221999D02*
D03*
X605999Y205999D02*
D03*
Y173999D02*
D03*
X573999Y237999D02*
D03*
X557999D02*
D03*
X565999Y221999D02*
D03*
X557999Y205999D02*
D03*
Y173999D02*
D03*
X541999Y237999D02*
D03*
X549999Y221999D02*
D03*
X541999Y205999D02*
D03*
Y173999D02*
D03*
X525999Y237999D02*
D03*
X533999Y221999D02*
D03*
X525999Y205999D02*
D03*
Y173999D02*
D03*
X509999Y237999D02*
D03*
X517999Y221999D02*
D03*
X509999Y205999D02*
D03*
Y173999D02*
D03*
X477999Y237999D02*
D03*
Y205999D02*
D03*
X461999Y237999D02*
D03*
X469999Y221999D02*
D03*
X461999Y205999D02*
D03*
X445999Y237999D02*
D03*
X453999Y221999D02*
D03*
X445999Y205999D02*
D03*
X429999Y237999D02*
D03*
X437999Y221999D02*
D03*
X429999Y205999D02*
D03*
X421999Y221999D02*
D03*
X381999Y237999D02*
D03*
X389999Y221999D02*
D03*
X381999Y205999D02*
D03*
X365999Y237999D02*
D03*
X373999Y221999D02*
D03*
X365999Y205999D02*
D03*
X349999Y237999D02*
D03*
X357999Y221999D02*
D03*
X349999Y205999D02*
D03*
X333999Y237999D02*
D03*
X341999Y221999D02*
D03*
X333999Y205999D02*
D03*
X325999Y221999D02*
D03*
X269999Y237999D02*
D03*
Y205999D02*
D03*
X253999Y237999D02*
D03*
X261999Y221999D02*
D03*
X220000Y137500D02*
D03*
X230000D02*
D03*
X240000D02*
D03*
Y127500D02*
D03*
Y117500D02*
D03*
Y107500D02*
D03*
Y97500D02*
D03*
Y87500D02*
D03*
X230000Y80000D02*
D03*
X220000D02*
D03*
X210000D02*
D03*
X187500Y137500D02*
D03*
X177500D02*
D03*
X162500Y125000D02*
D03*
Y115000D02*
D03*
Y105000D02*
D03*
Y95000D02*
D03*
Y85000D02*
D03*
X170000Y80000D02*
D03*
X180000D02*
D03*
X190000D02*
D03*
X200000D02*
D03*
X183000Y199500D02*
D03*
Y191000D02*
D03*
X161000Y140000D02*
D03*
X147904Y213904D02*
D03*
Y205000D02*
D03*
X183000Y218000D02*
D03*
X147904Y223000D02*
D03*
Y195904D02*
D03*
Y177685D02*
D03*
Y169000D02*
D03*
Y187000D02*
D03*
M02*
