G04*
G04 #@! TF.GenerationSoftware,Altium Limited,Altium Designer,22.9.1 (49)*
G04*
G04 Layer_Color=8421504*
%FSLAX44Y44*%
%MOMM*%
G71*
G04*
G04 #@! TF.SameCoordinates,C24D6D3F-919E-424E-9718-AF6EF7372F25*
G04*
G04*
G04 #@! TF.FilePolarity,Positive*
G04*
G01*
G75*
%ADD12R,1.6000X1.5000*%
%ADD13R,1.3500X1.1500*%
%ADD14R,1.1500X1.3500*%
G04:AMPARAMS|DCode=15|XSize=1.4mm|YSize=2.1mm|CornerRadius=0.35mm|HoleSize=0mm|Usage=FLASHONLY|Rotation=0.000|XOffset=0mm|YOffset=0mm|HoleType=Round|Shape=RoundedRectangle|*
%AMROUNDEDRECTD15*
21,1,1.4000,1.4000,0,0,0.0*
21,1,0.7000,2.1000,0,0,0.0*
1,1,0.7000,0.3500,-0.7000*
1,1,0.7000,-0.3500,-0.7000*
1,1,0.7000,-0.3500,0.7000*
1,1,0.7000,0.3500,0.7000*
%
%ADD15ROUNDEDRECTD15*%
D12*
X1139000Y203000D02*
D03*
Y167000D02*
D03*
X1047000Y203000D02*
D03*
Y167000D02*
D03*
X955000Y203000D02*
D03*
Y167000D02*
D03*
X863000Y203000D02*
D03*
Y167000D02*
D03*
X771000Y203000D02*
D03*
Y167000D02*
D03*
X679000Y203000D02*
D03*
Y167000D02*
D03*
X587000Y203000D02*
D03*
Y167000D02*
D03*
X495000Y203000D02*
D03*
Y167000D02*
D03*
X403000Y203000D02*
D03*
Y167000D02*
D03*
X311000Y203000D02*
D03*
Y167000D02*
D03*
D13*
X1139000Y231250D02*
D03*
Y248750D02*
D03*
X1047000Y231250D02*
D03*
Y248750D02*
D03*
X955000Y231250D02*
D03*
Y248750D02*
D03*
X863000Y231250D02*
D03*
Y248750D02*
D03*
X771000Y231250D02*
D03*
Y248750D02*
D03*
X679000Y231250D02*
D03*
Y248750D02*
D03*
X587000Y231250D02*
D03*
Y248750D02*
D03*
X495000Y231250D02*
D03*
Y248750D02*
D03*
X403000Y231250D02*
D03*
Y248750D02*
D03*
X311000Y231250D02*
D03*
Y248750D02*
D03*
D14*
X111250Y110000D02*
D03*
X128750D02*
D03*
D15*
X128500Y139500D02*
D03*
X83500D02*
D03*
Y230500D02*
D03*
X128500D02*
D03*
M02*
