G04*
G04 #@! TF.GenerationSoftware,Altium Limited,Altium Designer,22.9.1 (49)*
G04*
G04 Layer_Color=16711935*
%FSLAX44Y44*%
%MOMM*%
G71*
G04*
G04 #@! TF.SameCoordinates,C24D6D3F-919E-424E-9718-AF6EF7372F25*
G04*
G04*
G04 #@! TF.FilePolarity,Negative*
G04*
G01*
G75*
%ADD16R,1.7500X1.6500*%
%ADD17R,1.5000X1.3000*%
%ADD20O,2.6500X1.9000*%
%ADD21R,1.8750X1.8750*%
%ADD22C,1.8750*%
%ADD23C,3.6500*%
%ADD43O,0.4500X1.3500*%
%ADD44O,1.3500X0.4500*%
%ADD45R,1.4500X1.5500*%
%ADD46R,2.0000X1.0500*%
%ADD47R,2.0000X3.3500*%
%ADD48R,1.0500X1.1500*%
%ADD49R,2.5500X2.1500*%
%ADD50R,1.5500X1.4500*%
D16*
X441000Y348000D02*
D03*
Y312000D02*
D03*
X893000Y348000D02*
D03*
Y312000D02*
D03*
Y22000D02*
D03*
Y58000D02*
D03*
X441000Y22000D02*
D03*
Y58000D02*
D03*
D17*
X526000Y329000D02*
D03*
Y346500D02*
D03*
X975000Y331000D02*
D03*
Y348500D02*
D03*
X975000Y39750D02*
D03*
Y22250D02*
D03*
X526000Y39750D02*
D03*
Y22250D02*
D03*
D20*
X41000Y197500D02*
D03*
Y147500D02*
D03*
Y172500D02*
D03*
Y222500D02*
D03*
D21*
X264000Y52800D02*
D03*
D22*
Y78200D02*
D03*
Y103600D02*
D03*
Y129000D02*
D03*
D23*
X1070000Y30000D02*
D03*
Y340000D02*
D03*
X220000Y30000D02*
D03*
Y340000D02*
D03*
D43*
X235500Y153500D02*
D03*
X230500D02*
D03*
X225500D02*
D03*
X220500D02*
D03*
X215500D02*
D03*
X210500D02*
D03*
X205500D02*
D03*
X200500D02*
D03*
X195500D02*
D03*
X190500D02*
D03*
X185500D02*
D03*
X180500D02*
D03*
Y238500D02*
D03*
X185500D02*
D03*
X190500D02*
D03*
X195500D02*
D03*
X200500D02*
D03*
X205500D02*
D03*
X210500D02*
D03*
X215500D02*
D03*
X220500D02*
D03*
X225500D02*
D03*
X230500D02*
D03*
X235500D02*
D03*
D44*
X165500Y168500D02*
D03*
Y173500D02*
D03*
Y178500D02*
D03*
Y183500D02*
D03*
Y188500D02*
D03*
Y193500D02*
D03*
Y198500D02*
D03*
Y203500D02*
D03*
Y208500D02*
D03*
Y213500D02*
D03*
Y218500D02*
D03*
Y223500D02*
D03*
X250500D02*
D03*
Y218500D02*
D03*
Y213500D02*
D03*
Y208500D02*
D03*
Y203500D02*
D03*
Y198500D02*
D03*
Y193500D02*
D03*
Y188500D02*
D03*
Y183500D02*
D03*
Y178500D02*
D03*
Y173500D02*
D03*
Y168500D02*
D03*
D45*
X128000Y153000D02*
D03*
X144000D02*
D03*
X128000Y132000D02*
D03*
X144000D02*
D03*
X144000Y110000D02*
D03*
X128000D02*
D03*
D46*
X82000Y40000D02*
D03*
Y63000D02*
D03*
Y86000D02*
D03*
D47*
X144000Y63000D02*
D03*
D48*
X189750Y91000D02*
D03*
X176250D02*
D03*
X206250D02*
D03*
X219750D02*
D03*
D49*
X222000Y120000D02*
D03*
X182000D02*
D03*
D50*
X270000Y175000D02*
D03*
Y159000D02*
D03*
X55000Y86000D02*
D03*
Y70000D02*
D03*
M02*
